%TF.GenerationSoftware,KiCad,Pcbnew,8.0.7*%
%TF.CreationDate,2025-01-02T12:49:22+01:00*%
%TF.ProjectId,expansion_a,65787061-6e73-4696-9f6e-5f612e6b6963,1*%
%TF.SameCoordinates,Original*%
%TF.FileFunction,Legend,Top*%
%TF.FilePolarity,Positive*%
%FSLAX46Y46*%
G04 Gerber Fmt 4.6, Leading zero omitted, Abs format (unit mm)*
G04 Created by KiCad (PCBNEW 8.0.7) date 2025-01-02 12:49:22*
%MOMM*%
%LPD*%
G01*
G04 APERTURE LIST*
G04 Aperture macros list*
%AMRoundRect*
0 Rectangle with rounded corners*
0 $1 Rounding radius*
0 $2 $3 $4 $5 $6 $7 $8 $9 X,Y pos of 4 corners*
0 Add a 4 corners polygon primitive as box body*
4,1,4,$2,$3,$4,$5,$6,$7,$8,$9,$2,$3,0*
0 Add four circle primitives for the rounded corners*
1,1,$1+$1,$2,$3*
1,1,$1+$1,$4,$5*
1,1,$1+$1,$6,$7*
1,1,$1+$1,$8,$9*
0 Add four rect primitives between the rounded corners*
20,1,$1+$1,$2,$3,$4,$5,0*
20,1,$1+$1,$4,$5,$6,$7,0*
20,1,$1+$1,$6,$7,$8,$9,0*
20,1,$1+$1,$8,$9,$2,$3,0*%
G04 Aperture macros list end*
%ADD10C,0.100000*%
%ADD11C,0.150000*%
%ADD12C,0.120000*%
%ADD13RoundRect,0.250000X0.250000X0.475000X-0.250000X0.475000X-0.250000X-0.475000X0.250000X-0.475000X0*%
%ADD14RoundRect,0.250000X-0.450000X0.262500X-0.450000X-0.262500X0.450000X-0.262500X0.450000X0.262500X0*%
%ADD15RoundRect,0.250000X-0.412500X-0.925000X0.412500X-0.925000X0.412500X0.925000X-0.412500X0.925000X0*%
%ADD16R,1.700000X1.700000*%
%ADD17O,1.700000X1.700000*%
%ADD18C,3.200000*%
%ADD19R,2.600000X2.600000*%
%ADD20C,2.600000*%
%ADD21RoundRect,0.150000X-0.750000X-0.150000X0.750000X-0.150000X0.750000X0.150000X-0.750000X0.150000X0*%
%ADD22RoundRect,0.150000X-1.050000X-0.150000X1.050000X-0.150000X1.050000X0.150000X-1.050000X0.150000X0*%
%ADD23RoundRect,0.150000X-0.837500X-0.150000X0.837500X-0.150000X0.837500X0.150000X-0.837500X0.150000X0*%
G04 APERTURE END LIST*
D10*
X106426000Y-84582000D02*
X105664000Y-83820000D01*
X106426000Y-85598000D02*
X106426000Y-84582000D01*
X107442000Y-86614000D02*
X106426000Y-85598000D01*
X112268000Y-86614000D02*
X109728000Y-86614000D01*
X118110000Y-86614000D02*
X116332000Y-86614000D01*
X105664000Y-82804000D02*
X105664000Y-83820000D01*
X105664000Y-77216000D02*
X105664000Y-79756000D01*
X105664000Y-71882000D02*
X105664000Y-74168000D01*
X105664000Y-66294000D02*
X105664000Y-68580000D01*
X105664000Y-55372000D02*
X105664000Y-57658000D01*
X105664000Y-49530000D02*
X105664000Y-52070000D01*
X105664000Y-44196000D02*
X105664000Y-46736000D01*
X109728000Y-43688000D02*
X107188000Y-43688000D01*
X118110000Y-43688000D02*
X115316000Y-43688000D01*
X100584000Y-77216000D02*
X100584000Y-79756000D01*
X100584000Y-71882000D02*
X100584000Y-74168000D01*
X100584000Y-66294000D02*
X100584000Y-68580000D01*
X100584000Y-60706000D02*
X100584000Y-63246000D01*
X100584000Y-55372000D02*
X100584000Y-57658000D01*
X100584000Y-49784000D02*
X100584000Y-52070000D01*
X100584000Y-44196000D02*
X100584000Y-46736000D01*
X100584000Y-37592000D02*
X100584000Y-39624000D01*
X101600000Y-36576000D02*
X100584000Y-37592000D01*
X111506000Y-36576000D02*
X110236000Y-36576000D01*
X100584000Y-41148000D02*
X100584000Y-39624000D01*
X104648000Y-36576000D02*
X103886000Y-36576000D01*
X107950000Y-36576000D02*
X107188000Y-36576000D01*
X117856000Y-36576000D02*
X115824000Y-36576000D01*
X115619884Y-83057466D02*
X116381789Y-83057466D01*
X116857979Y-82771752D02*
X117619884Y-83057466D01*
X117619884Y-83057466D02*
X116857979Y-83343180D01*
X114504115Y-40132533D02*
X113742211Y-40132533D01*
X113266020Y-40418247D02*
X112504116Y-40132533D01*
X112504116Y-40132533D02*
X113266020Y-39846819D01*
X74118115Y-64770533D02*
X73356211Y-64770533D01*
X72880020Y-65056247D02*
X72118116Y-64770533D01*
X72118116Y-64770533D02*
X72880020Y-64484819D01*
X117029990Y-73736258D02*
X116982371Y-73831496D01*
X116982371Y-73831496D02*
X116934752Y-73879115D01*
X116934752Y-73879115D02*
X116839514Y-73926734D01*
X116839514Y-73926734D02*
X116791895Y-73926734D01*
X116791895Y-73926734D02*
X116696657Y-73879115D01*
X116696657Y-73879115D02*
X116649038Y-73831496D01*
X116649038Y-73831496D02*
X116601419Y-73736258D01*
X116601419Y-73736258D02*
X116601419Y-73545782D01*
X116601419Y-73545782D02*
X116649038Y-73450544D01*
X116649038Y-73450544D02*
X116696657Y-73402925D01*
X116696657Y-73402925D02*
X116791895Y-73355306D01*
X116791895Y-73355306D02*
X116839514Y-73355306D01*
X116839514Y-73355306D02*
X116934752Y-73402925D01*
X116934752Y-73402925D02*
X116982371Y-73450544D01*
X116982371Y-73450544D02*
X117029990Y-73545782D01*
X117029990Y-73545782D02*
X117029990Y-73736258D01*
X117029990Y-73736258D02*
X117077609Y-73831496D01*
X117077609Y-73831496D02*
X117125228Y-73879115D01*
X117125228Y-73879115D02*
X117220466Y-73926734D01*
X117220466Y-73926734D02*
X117410942Y-73926734D01*
X117410942Y-73926734D02*
X117506180Y-73879115D01*
X117506180Y-73879115D02*
X117553800Y-73831496D01*
X117553800Y-73831496D02*
X117601419Y-73736258D01*
X117601419Y-73736258D02*
X117601419Y-73545782D01*
X117601419Y-73545782D02*
X117553800Y-73450544D01*
X117553800Y-73450544D02*
X117506180Y-73402925D01*
X117506180Y-73402925D02*
X117410942Y-73355306D01*
X117410942Y-73355306D02*
X117220466Y-73355306D01*
X117220466Y-73355306D02*
X117125228Y-73402925D01*
X117125228Y-73402925D02*
X117077609Y-73450544D01*
X117077609Y-73450544D02*
X117029990Y-73545782D01*
X80059884Y-66080475D02*
X80059884Y-65080475D01*
X80059884Y-65080475D02*
X80393217Y-65794760D01*
X80393217Y-65794760D02*
X80726550Y-65080475D01*
X80726550Y-65080475D02*
X80726550Y-66080475D01*
X81345598Y-66080475D02*
X81250360Y-66032856D01*
X81250360Y-66032856D02*
X81202741Y-65985236D01*
X81202741Y-65985236D02*
X81155122Y-65889998D01*
X81155122Y-65889998D02*
X81155122Y-65604284D01*
X81155122Y-65604284D02*
X81202741Y-65509046D01*
X81202741Y-65509046D02*
X81250360Y-65461427D01*
X81250360Y-65461427D02*
X81345598Y-65413808D01*
X81345598Y-65413808D02*
X81488455Y-65413808D01*
X81488455Y-65413808D02*
X81583693Y-65461427D01*
X81583693Y-65461427D02*
X81631312Y-65509046D01*
X81631312Y-65509046D02*
X81678931Y-65604284D01*
X81678931Y-65604284D02*
X81678931Y-65889998D01*
X81678931Y-65889998D02*
X81631312Y-65985236D01*
X81631312Y-65985236D02*
X81583693Y-66032856D01*
X81583693Y-66032856D02*
X81488455Y-66080475D01*
X81488455Y-66080475D02*
X81345598Y-66080475D01*
X82536074Y-66080475D02*
X82536074Y-65080475D01*
X82536074Y-66032856D02*
X82440836Y-66080475D01*
X82440836Y-66080475D02*
X82250360Y-66080475D01*
X82250360Y-66080475D02*
X82155122Y-66032856D01*
X82155122Y-66032856D02*
X82107503Y-65985236D01*
X82107503Y-65985236D02*
X82059884Y-65889998D01*
X82059884Y-65889998D02*
X82059884Y-65604284D01*
X82059884Y-65604284D02*
X82107503Y-65509046D01*
X82107503Y-65509046D02*
X82155122Y-65461427D01*
X82155122Y-65461427D02*
X82250360Y-65413808D01*
X82250360Y-65413808D02*
X82440836Y-65413808D01*
X82440836Y-65413808D02*
X82536074Y-65461427D01*
X83393217Y-66032856D02*
X83297979Y-66080475D01*
X83297979Y-66080475D02*
X83107503Y-66080475D01*
X83107503Y-66080475D02*
X83012265Y-66032856D01*
X83012265Y-66032856D02*
X82964646Y-65937617D01*
X82964646Y-65937617D02*
X82964646Y-65556665D01*
X82964646Y-65556665D02*
X83012265Y-65461427D01*
X83012265Y-65461427D02*
X83107503Y-65413808D01*
X83107503Y-65413808D02*
X83297979Y-65413808D01*
X83297979Y-65413808D02*
X83393217Y-65461427D01*
X83393217Y-65461427D02*
X83440836Y-65556665D01*
X83440836Y-65556665D02*
X83440836Y-65651903D01*
X83440836Y-65651903D02*
X82964646Y-65747141D01*
X84012265Y-66080475D02*
X83917027Y-66032856D01*
X83917027Y-66032856D02*
X83869408Y-65937617D01*
X83869408Y-65937617D02*
X83869408Y-65080475D01*
X84536075Y-66080475D02*
X84440837Y-66032856D01*
X84440837Y-66032856D02*
X84393218Y-65937617D01*
X84393218Y-65937617D02*
X84393218Y-65080475D01*
X84917028Y-66080475D02*
X84917028Y-65080475D01*
X84917028Y-65461427D02*
X85012266Y-65413808D01*
X85012266Y-65413808D02*
X85202742Y-65413808D01*
X85202742Y-65413808D02*
X85297980Y-65461427D01*
X85297980Y-65461427D02*
X85345599Y-65509046D01*
X85345599Y-65509046D02*
X85393218Y-65604284D01*
X85393218Y-65604284D02*
X85393218Y-65889998D01*
X85393218Y-65889998D02*
X85345599Y-65985236D01*
X85345599Y-65985236D02*
X85297980Y-66032856D01*
X85297980Y-66032856D02*
X85202742Y-66080475D01*
X85202742Y-66080475D02*
X85012266Y-66080475D01*
X85012266Y-66080475D02*
X84917028Y-66032856D01*
X86250361Y-66080475D02*
X86250361Y-65556665D01*
X86250361Y-65556665D02*
X86202742Y-65461427D01*
X86202742Y-65461427D02*
X86107504Y-65413808D01*
X86107504Y-65413808D02*
X85917028Y-65413808D01*
X85917028Y-65413808D02*
X85821790Y-65461427D01*
X86250361Y-66032856D02*
X86155123Y-66080475D01*
X86155123Y-66080475D02*
X85917028Y-66080475D01*
X85917028Y-66080475D02*
X85821790Y-66032856D01*
X85821790Y-66032856D02*
X85774171Y-65937617D01*
X85774171Y-65937617D02*
X85774171Y-65842379D01*
X85774171Y-65842379D02*
X85821790Y-65747141D01*
X85821790Y-65747141D02*
X85917028Y-65699522D01*
X85917028Y-65699522D02*
X86155123Y-65699522D01*
X86155123Y-65699522D02*
X86250361Y-65651903D01*
X86726552Y-66080475D02*
X86726552Y-65080475D01*
X87155123Y-66080475D02*
X87155123Y-65556665D01*
X87155123Y-65556665D02*
X87107504Y-65461427D01*
X87107504Y-65461427D02*
X87012266Y-65413808D01*
X87012266Y-65413808D02*
X86869409Y-65413808D01*
X86869409Y-65413808D02*
X86774171Y-65461427D01*
X86774171Y-65461427D02*
X86726552Y-65509046D01*
X87631314Y-65413808D02*
X87631314Y-66080475D01*
X87631314Y-65509046D02*
X87678933Y-65461427D01*
X87678933Y-65461427D02*
X87774171Y-65413808D01*
X87774171Y-65413808D02*
X87917028Y-65413808D01*
X87917028Y-65413808D02*
X88012266Y-65461427D01*
X88012266Y-65461427D02*
X88059885Y-65556665D01*
X88059885Y-65556665D02*
X88059885Y-66080475D01*
X80059884Y-67166609D02*
X80393217Y-67166609D01*
X80536074Y-67690419D02*
X80059884Y-67690419D01*
X80059884Y-67690419D02*
X80059884Y-66690419D01*
X80059884Y-66690419D02*
X80536074Y-66690419D01*
X80869408Y-67690419D02*
X81393217Y-67023752D01*
X80869408Y-67023752D02*
X81393217Y-67690419D01*
X81774170Y-67023752D02*
X81774170Y-68023752D01*
X81774170Y-67071371D02*
X81869408Y-67023752D01*
X81869408Y-67023752D02*
X82059884Y-67023752D01*
X82059884Y-67023752D02*
X82155122Y-67071371D01*
X82155122Y-67071371D02*
X82202741Y-67118990D01*
X82202741Y-67118990D02*
X82250360Y-67214228D01*
X82250360Y-67214228D02*
X82250360Y-67499942D01*
X82250360Y-67499942D02*
X82202741Y-67595180D01*
X82202741Y-67595180D02*
X82155122Y-67642800D01*
X82155122Y-67642800D02*
X82059884Y-67690419D01*
X82059884Y-67690419D02*
X81869408Y-67690419D01*
X81869408Y-67690419D02*
X81774170Y-67642800D01*
X83107503Y-67690419D02*
X83107503Y-67166609D01*
X83107503Y-67166609D02*
X83059884Y-67071371D01*
X83059884Y-67071371D02*
X82964646Y-67023752D01*
X82964646Y-67023752D02*
X82774170Y-67023752D01*
X82774170Y-67023752D02*
X82678932Y-67071371D01*
X83107503Y-67642800D02*
X83012265Y-67690419D01*
X83012265Y-67690419D02*
X82774170Y-67690419D01*
X82774170Y-67690419D02*
X82678932Y-67642800D01*
X82678932Y-67642800D02*
X82631313Y-67547561D01*
X82631313Y-67547561D02*
X82631313Y-67452323D01*
X82631313Y-67452323D02*
X82678932Y-67357085D01*
X82678932Y-67357085D02*
X82774170Y-67309466D01*
X82774170Y-67309466D02*
X83012265Y-67309466D01*
X83012265Y-67309466D02*
X83107503Y-67261847D01*
X83583694Y-67023752D02*
X83583694Y-67690419D01*
X83583694Y-67118990D02*
X83631313Y-67071371D01*
X83631313Y-67071371D02*
X83726551Y-67023752D01*
X83726551Y-67023752D02*
X83869408Y-67023752D01*
X83869408Y-67023752D02*
X83964646Y-67071371D01*
X83964646Y-67071371D02*
X84012265Y-67166609D01*
X84012265Y-67166609D02*
X84012265Y-67690419D01*
X84440837Y-67642800D02*
X84536075Y-67690419D01*
X84536075Y-67690419D02*
X84726551Y-67690419D01*
X84726551Y-67690419D02*
X84821789Y-67642800D01*
X84821789Y-67642800D02*
X84869408Y-67547561D01*
X84869408Y-67547561D02*
X84869408Y-67499942D01*
X84869408Y-67499942D02*
X84821789Y-67404704D01*
X84821789Y-67404704D02*
X84726551Y-67357085D01*
X84726551Y-67357085D02*
X84583694Y-67357085D01*
X84583694Y-67357085D02*
X84488456Y-67309466D01*
X84488456Y-67309466D02*
X84440837Y-67214228D01*
X84440837Y-67214228D02*
X84440837Y-67166609D01*
X84440837Y-67166609D02*
X84488456Y-67071371D01*
X84488456Y-67071371D02*
X84583694Y-67023752D01*
X84583694Y-67023752D02*
X84726551Y-67023752D01*
X84726551Y-67023752D02*
X84821789Y-67071371D01*
X85297980Y-67690419D02*
X85297980Y-67023752D01*
X85297980Y-66690419D02*
X85250361Y-66738038D01*
X85250361Y-66738038D02*
X85297980Y-66785657D01*
X85297980Y-66785657D02*
X85345599Y-66738038D01*
X85345599Y-66738038D02*
X85297980Y-66690419D01*
X85297980Y-66690419D02*
X85297980Y-66785657D01*
X85917027Y-67690419D02*
X85821789Y-67642800D01*
X85821789Y-67642800D02*
X85774170Y-67595180D01*
X85774170Y-67595180D02*
X85726551Y-67499942D01*
X85726551Y-67499942D02*
X85726551Y-67214228D01*
X85726551Y-67214228D02*
X85774170Y-67118990D01*
X85774170Y-67118990D02*
X85821789Y-67071371D01*
X85821789Y-67071371D02*
X85917027Y-67023752D01*
X85917027Y-67023752D02*
X86059884Y-67023752D01*
X86059884Y-67023752D02*
X86155122Y-67071371D01*
X86155122Y-67071371D02*
X86202741Y-67118990D01*
X86202741Y-67118990D02*
X86250360Y-67214228D01*
X86250360Y-67214228D02*
X86250360Y-67499942D01*
X86250360Y-67499942D02*
X86202741Y-67595180D01*
X86202741Y-67595180D02*
X86155122Y-67642800D01*
X86155122Y-67642800D02*
X86059884Y-67690419D01*
X86059884Y-67690419D02*
X85917027Y-67690419D01*
X86678932Y-67023752D02*
X86678932Y-67690419D01*
X86678932Y-67118990D02*
X86726551Y-67071371D01*
X86726551Y-67071371D02*
X86821789Y-67023752D01*
X86821789Y-67023752D02*
X86964646Y-67023752D01*
X86964646Y-67023752D02*
X87059884Y-67071371D01*
X87059884Y-67071371D02*
X87107503Y-67166609D01*
X87107503Y-67166609D02*
X87107503Y-67690419D01*
X88678932Y-67166609D02*
X88821789Y-67214228D01*
X88821789Y-67214228D02*
X88869408Y-67261847D01*
X88869408Y-67261847D02*
X88917027Y-67357085D01*
X88917027Y-67357085D02*
X88917027Y-67499942D01*
X88917027Y-67499942D02*
X88869408Y-67595180D01*
X88869408Y-67595180D02*
X88821789Y-67642800D01*
X88821789Y-67642800D02*
X88726551Y-67690419D01*
X88726551Y-67690419D02*
X88345599Y-67690419D01*
X88345599Y-67690419D02*
X88345599Y-66690419D01*
X88345599Y-66690419D02*
X88678932Y-66690419D01*
X88678932Y-66690419D02*
X88774170Y-66738038D01*
X88774170Y-66738038D02*
X88821789Y-66785657D01*
X88821789Y-66785657D02*
X88869408Y-66880895D01*
X88869408Y-66880895D02*
X88869408Y-66976133D01*
X88869408Y-66976133D02*
X88821789Y-67071371D01*
X88821789Y-67071371D02*
X88774170Y-67118990D01*
X88774170Y-67118990D02*
X88678932Y-67166609D01*
X88678932Y-67166609D02*
X88345599Y-67166609D01*
X89488456Y-67690419D02*
X89393218Y-67642800D01*
X89393218Y-67642800D02*
X89345599Y-67595180D01*
X89345599Y-67595180D02*
X89297980Y-67499942D01*
X89297980Y-67499942D02*
X89297980Y-67214228D01*
X89297980Y-67214228D02*
X89345599Y-67118990D01*
X89345599Y-67118990D02*
X89393218Y-67071371D01*
X89393218Y-67071371D02*
X89488456Y-67023752D01*
X89488456Y-67023752D02*
X89631313Y-67023752D01*
X89631313Y-67023752D02*
X89726551Y-67071371D01*
X89726551Y-67071371D02*
X89774170Y-67118990D01*
X89774170Y-67118990D02*
X89821789Y-67214228D01*
X89821789Y-67214228D02*
X89821789Y-67499942D01*
X89821789Y-67499942D02*
X89774170Y-67595180D01*
X89774170Y-67595180D02*
X89726551Y-67642800D01*
X89726551Y-67642800D02*
X89631313Y-67690419D01*
X89631313Y-67690419D02*
X89488456Y-67690419D01*
X90678932Y-67690419D02*
X90678932Y-67166609D01*
X90678932Y-67166609D02*
X90631313Y-67071371D01*
X90631313Y-67071371D02*
X90536075Y-67023752D01*
X90536075Y-67023752D02*
X90345599Y-67023752D01*
X90345599Y-67023752D02*
X90250361Y-67071371D01*
X90678932Y-67642800D02*
X90583694Y-67690419D01*
X90583694Y-67690419D02*
X90345599Y-67690419D01*
X90345599Y-67690419D02*
X90250361Y-67642800D01*
X90250361Y-67642800D02*
X90202742Y-67547561D01*
X90202742Y-67547561D02*
X90202742Y-67452323D01*
X90202742Y-67452323D02*
X90250361Y-67357085D01*
X90250361Y-67357085D02*
X90345599Y-67309466D01*
X90345599Y-67309466D02*
X90583694Y-67309466D01*
X90583694Y-67309466D02*
X90678932Y-67261847D01*
X91155123Y-67690419D02*
X91155123Y-67023752D01*
X91155123Y-67214228D02*
X91202742Y-67118990D01*
X91202742Y-67118990D02*
X91250361Y-67071371D01*
X91250361Y-67071371D02*
X91345599Y-67023752D01*
X91345599Y-67023752D02*
X91440837Y-67023752D01*
X92202742Y-67690419D02*
X92202742Y-66690419D01*
X92202742Y-67642800D02*
X92107504Y-67690419D01*
X92107504Y-67690419D02*
X91917028Y-67690419D01*
X91917028Y-67690419D02*
X91821790Y-67642800D01*
X91821790Y-67642800D02*
X91774171Y-67595180D01*
X91774171Y-67595180D02*
X91726552Y-67499942D01*
X91726552Y-67499942D02*
X91726552Y-67214228D01*
X91726552Y-67214228D02*
X91774171Y-67118990D01*
X91774171Y-67118990D02*
X91821790Y-67071371D01*
X91821790Y-67071371D02*
X91917028Y-67023752D01*
X91917028Y-67023752D02*
X92107504Y-67023752D01*
X92107504Y-67023752D02*
X92202742Y-67071371D01*
X93393219Y-67404704D02*
X93869409Y-67404704D01*
X93297981Y-67690419D02*
X93631314Y-66690419D01*
X93631314Y-66690419D02*
X93964647Y-67690419D01*
X117601419Y-48717306D02*
X117601419Y-49288734D01*
X117601419Y-49003020D02*
X116601419Y-49003020D01*
X116601419Y-49003020D02*
X116744276Y-49098258D01*
X116744276Y-49098258D02*
X116839514Y-49193496D01*
X116839514Y-49193496D02*
X116887133Y-49288734D01*
X92131198Y-34534019D02*
X92131198Y-35248304D01*
X92131198Y-35248304D02*
X92083579Y-35391161D01*
X92083579Y-35391161D02*
X91988341Y-35486400D01*
X91988341Y-35486400D02*
X91845484Y-35534019D01*
X91845484Y-35534019D02*
X91750246Y-35534019D01*
X93083579Y-35534019D02*
X92607389Y-35534019D01*
X92607389Y-35534019D02*
X92607389Y-34534019D01*
X93988341Y-35438780D02*
X93940722Y-35486400D01*
X93940722Y-35486400D02*
X93797865Y-35534019D01*
X93797865Y-35534019D02*
X93702627Y-35534019D01*
X93702627Y-35534019D02*
X93559770Y-35486400D01*
X93559770Y-35486400D02*
X93464532Y-35391161D01*
X93464532Y-35391161D02*
X93416913Y-35295923D01*
X93416913Y-35295923D02*
X93369294Y-35105447D01*
X93369294Y-35105447D02*
X93369294Y-34962590D01*
X93369294Y-34962590D02*
X93416913Y-34772114D01*
X93416913Y-34772114D02*
X93464532Y-34676876D01*
X93464532Y-34676876D02*
X93559770Y-34581638D01*
X93559770Y-34581638D02*
X93702627Y-34534019D01*
X93702627Y-34534019D02*
X93797865Y-34534019D01*
X93797865Y-34534019D02*
X93940722Y-34581638D01*
X93940722Y-34581638D02*
X93988341Y-34629257D01*
X94702627Y-34534019D02*
X94702627Y-35248304D01*
X94702627Y-35248304D02*
X94655008Y-35391161D01*
X94655008Y-35391161D02*
X94559770Y-35486400D01*
X94559770Y-35486400D02*
X94416913Y-35534019D01*
X94416913Y-35534019D02*
X94321675Y-35534019D01*
X95655008Y-35534019D02*
X95178818Y-35534019D01*
X95178818Y-35534019D02*
X95178818Y-34534019D01*
X96559770Y-35438780D02*
X96512151Y-35486400D01*
X96512151Y-35486400D02*
X96369294Y-35534019D01*
X96369294Y-35534019D02*
X96274056Y-35534019D01*
X96274056Y-35534019D02*
X96131199Y-35486400D01*
X96131199Y-35486400D02*
X96035961Y-35391161D01*
X96035961Y-35391161D02*
X95988342Y-35295923D01*
X95988342Y-35295923D02*
X95940723Y-35105447D01*
X95940723Y-35105447D02*
X95940723Y-34962590D01*
X95940723Y-34962590D02*
X95988342Y-34772114D01*
X95988342Y-34772114D02*
X96035961Y-34676876D01*
X96035961Y-34676876D02*
X96131199Y-34581638D01*
X96131199Y-34581638D02*
X96274056Y-34534019D01*
X96274056Y-34534019D02*
X96369294Y-34534019D01*
X96369294Y-34534019D02*
X96512151Y-34581638D01*
X96512151Y-34581638D02*
X96559770Y-34629257D01*
X97274056Y-34534019D02*
X97274056Y-35248304D01*
X97274056Y-35248304D02*
X97226437Y-35391161D01*
X97226437Y-35391161D02*
X97131199Y-35486400D01*
X97131199Y-35486400D02*
X96988342Y-35534019D01*
X96988342Y-35534019D02*
X96893104Y-35534019D01*
X98226437Y-35534019D02*
X97750247Y-35534019D01*
X97750247Y-35534019D02*
X97750247Y-34534019D01*
X99131199Y-35438780D02*
X99083580Y-35486400D01*
X99083580Y-35486400D02*
X98940723Y-35534019D01*
X98940723Y-35534019D02*
X98845485Y-35534019D01*
X98845485Y-35534019D02*
X98702628Y-35486400D01*
X98702628Y-35486400D02*
X98607390Y-35391161D01*
X98607390Y-35391161D02*
X98559771Y-35295923D01*
X98559771Y-35295923D02*
X98512152Y-35105447D01*
X98512152Y-35105447D02*
X98512152Y-34962590D01*
X98512152Y-34962590D02*
X98559771Y-34772114D01*
X98559771Y-34772114D02*
X98607390Y-34676876D01*
X98607390Y-34676876D02*
X98702628Y-34581638D01*
X98702628Y-34581638D02*
X98845485Y-34534019D01*
X98845485Y-34534019D02*
X98940723Y-34534019D01*
X98940723Y-34534019D02*
X99083580Y-34581638D01*
X99083580Y-34581638D02*
X99131199Y-34629257D01*
X99845485Y-34534019D02*
X99845485Y-35248304D01*
X99845485Y-35248304D02*
X99797866Y-35391161D01*
X99797866Y-35391161D02*
X99702628Y-35486400D01*
X99702628Y-35486400D02*
X99559771Y-35534019D01*
X99559771Y-35534019D02*
X99464533Y-35534019D01*
X100797866Y-35534019D02*
X100321676Y-35534019D01*
X100321676Y-35534019D02*
X100321676Y-34534019D01*
X101702628Y-35438780D02*
X101655009Y-35486400D01*
X101655009Y-35486400D02*
X101512152Y-35534019D01*
X101512152Y-35534019D02*
X101416914Y-35534019D01*
X101416914Y-35534019D02*
X101274057Y-35486400D01*
X101274057Y-35486400D02*
X101178819Y-35391161D01*
X101178819Y-35391161D02*
X101131200Y-35295923D01*
X101131200Y-35295923D02*
X101083581Y-35105447D01*
X101083581Y-35105447D02*
X101083581Y-34962590D01*
X101083581Y-34962590D02*
X101131200Y-34772114D01*
X101131200Y-34772114D02*
X101178819Y-34676876D01*
X101178819Y-34676876D02*
X101274057Y-34581638D01*
X101274057Y-34581638D02*
X101416914Y-34534019D01*
X101416914Y-34534019D02*
X101512152Y-34534019D01*
X101512152Y-34534019D02*
X101655009Y-34581638D01*
X101655009Y-34581638D02*
X101702628Y-34629257D01*
X72439884Y-57911466D02*
X73201789Y-57911466D01*
X73677979Y-57625752D02*
X74439884Y-57911466D01*
X74439884Y-57911466D02*
X73677979Y-58197180D01*
X80631312Y-69214419D02*
X80297979Y-68738228D01*
X80059884Y-69214419D02*
X80059884Y-68214419D01*
X80059884Y-68214419D02*
X80440836Y-68214419D01*
X80440836Y-68214419D02*
X80536074Y-68262038D01*
X80536074Y-68262038D02*
X80583693Y-68309657D01*
X80583693Y-68309657D02*
X80631312Y-68404895D01*
X80631312Y-68404895D02*
X80631312Y-68547752D01*
X80631312Y-68547752D02*
X80583693Y-68642990D01*
X80583693Y-68642990D02*
X80536074Y-68690609D01*
X80536074Y-68690609D02*
X80440836Y-68738228D01*
X80440836Y-68738228D02*
X80059884Y-68738228D01*
X81440836Y-69166800D02*
X81345598Y-69214419D01*
X81345598Y-69214419D02*
X81155122Y-69214419D01*
X81155122Y-69214419D02*
X81059884Y-69166800D01*
X81059884Y-69166800D02*
X81012265Y-69071561D01*
X81012265Y-69071561D02*
X81012265Y-68690609D01*
X81012265Y-68690609D02*
X81059884Y-68595371D01*
X81059884Y-68595371D02*
X81155122Y-68547752D01*
X81155122Y-68547752D02*
X81345598Y-68547752D01*
X81345598Y-68547752D02*
X81440836Y-68595371D01*
X81440836Y-68595371D02*
X81488455Y-68690609D01*
X81488455Y-68690609D02*
X81488455Y-68785847D01*
X81488455Y-68785847D02*
X81012265Y-68881085D01*
X81821789Y-68547752D02*
X82059884Y-69214419D01*
X82059884Y-69214419D02*
X82297979Y-68547752D01*
X82678932Y-69119180D02*
X82726551Y-69166800D01*
X82726551Y-69166800D02*
X82678932Y-69214419D01*
X82678932Y-69214419D02*
X82631313Y-69166800D01*
X82631313Y-69166800D02*
X82678932Y-69119180D01*
X82678932Y-69119180D02*
X82678932Y-69214419D01*
X82678932Y-68595371D02*
X82726551Y-68642990D01*
X82726551Y-68642990D02*
X82678932Y-68690609D01*
X82678932Y-68690609D02*
X82631313Y-68642990D01*
X82631313Y-68642990D02*
X82678932Y-68595371D01*
X82678932Y-68595371D02*
X82678932Y-68690609D01*
X84440836Y-69214419D02*
X83869408Y-69214419D01*
X84155122Y-69214419D02*
X84155122Y-68214419D01*
X84155122Y-68214419D02*
X84059884Y-68357276D01*
X84059884Y-68357276D02*
X83964646Y-68452514D01*
X83964646Y-68452514D02*
X83869408Y-68500133D01*
D11*
X116548819Y-79739904D02*
X117263104Y-79739904D01*
X117263104Y-79739904D02*
X117405961Y-79787523D01*
X117405961Y-79787523D02*
X117501200Y-79882761D01*
X117501200Y-79882761D02*
X117548819Y-80025618D01*
X117548819Y-80025618D02*
X117548819Y-80120856D01*
X117548819Y-78739904D02*
X117548819Y-79311332D01*
X117548819Y-79025618D02*
X116548819Y-79025618D01*
X116548819Y-79025618D02*
X116691676Y-79120856D01*
X116691676Y-79120856D02*
X116786914Y-79216094D01*
X116786914Y-79216094D02*
X116834533Y-79311332D01*
X117548819Y-77787523D02*
X117548819Y-78358951D01*
X117548819Y-78073237D02*
X116548819Y-78073237D01*
X116548819Y-78073237D02*
X116691676Y-78168475D01*
X116691676Y-78168475D02*
X116786914Y-78263713D01*
X116786914Y-78263713D02*
X116834533Y-78358951D01*
X116548819Y-77168475D02*
X116548819Y-77073237D01*
X116548819Y-77073237D02*
X116596438Y-76977999D01*
X116596438Y-76977999D02*
X116644057Y-76930380D01*
X116644057Y-76930380D02*
X116739295Y-76882761D01*
X116739295Y-76882761D02*
X116929771Y-76835142D01*
X116929771Y-76835142D02*
X117167866Y-76835142D01*
X117167866Y-76835142D02*
X117358342Y-76882761D01*
X117358342Y-76882761D02*
X117453580Y-76930380D01*
X117453580Y-76930380D02*
X117501200Y-76977999D01*
X117501200Y-76977999D02*
X117548819Y-77073237D01*
X117548819Y-77073237D02*
X117548819Y-77168475D01*
X117548819Y-77168475D02*
X117501200Y-77263713D01*
X117501200Y-77263713D02*
X117453580Y-77311332D01*
X117453580Y-77311332D02*
X117358342Y-77358951D01*
X117358342Y-77358951D02*
X117167866Y-77406570D01*
X117167866Y-77406570D02*
X116929771Y-77406570D01*
X116929771Y-77406570D02*
X116739295Y-77358951D01*
X116739295Y-77358951D02*
X116644057Y-77311332D01*
X116644057Y-77311332D02*
X116596438Y-77263713D01*
X116596438Y-77263713D02*
X116548819Y-77168475D01*
X117548819Y-75882761D02*
X117548819Y-76454189D01*
X117548819Y-76168475D02*
X116548819Y-76168475D01*
X116548819Y-76168475D02*
X116691676Y-76263713D01*
X116691676Y-76263713D02*
X116786914Y-76358951D01*
X116786914Y-76358951D02*
X116834533Y-76454189D01*
X116523419Y-61991714D02*
X117237704Y-61991714D01*
X117237704Y-61991714D02*
X117380561Y-62039333D01*
X117380561Y-62039333D02*
X117475800Y-62134571D01*
X117475800Y-62134571D02*
X117523419Y-62277428D01*
X117523419Y-62277428D02*
X117523419Y-62372666D01*
X117523419Y-60991714D02*
X117523419Y-61563142D01*
X117523419Y-61277428D02*
X116523419Y-61277428D01*
X116523419Y-61277428D02*
X116666276Y-61372666D01*
X116666276Y-61372666D02*
X116761514Y-61467904D01*
X116761514Y-61467904D02*
X116809133Y-61563142D01*
X116523419Y-60372666D02*
X116523419Y-60277428D01*
X116523419Y-60277428D02*
X116571038Y-60182190D01*
X116571038Y-60182190D02*
X116618657Y-60134571D01*
X116618657Y-60134571D02*
X116713895Y-60086952D01*
X116713895Y-60086952D02*
X116904371Y-60039333D01*
X116904371Y-60039333D02*
X117142466Y-60039333D01*
X117142466Y-60039333D02*
X117332942Y-60086952D01*
X117332942Y-60086952D02*
X117428180Y-60134571D01*
X117428180Y-60134571D02*
X117475800Y-60182190D01*
X117475800Y-60182190D02*
X117523419Y-60277428D01*
X117523419Y-60277428D02*
X117523419Y-60372666D01*
X117523419Y-60372666D02*
X117475800Y-60467904D01*
X117475800Y-60467904D02*
X117428180Y-60515523D01*
X117428180Y-60515523D02*
X117332942Y-60563142D01*
X117332942Y-60563142D02*
X117142466Y-60610761D01*
X117142466Y-60610761D02*
X116904371Y-60610761D01*
X116904371Y-60610761D02*
X116713895Y-60563142D01*
X116713895Y-60563142D02*
X116618657Y-60515523D01*
X116618657Y-60515523D02*
X116571038Y-60467904D01*
X116571038Y-60467904D02*
X116523419Y-60372666D01*
X117523419Y-59086952D02*
X117523419Y-59658380D01*
X117523419Y-59372666D02*
X116523419Y-59372666D01*
X116523419Y-59372666D02*
X116666276Y-59467904D01*
X116666276Y-59467904D02*
X116761514Y-59563142D01*
X116761514Y-59563142D02*
X116809133Y-59658380D01*
X78128819Y-37463714D02*
X78843104Y-37463714D01*
X78843104Y-37463714D02*
X78985961Y-37511333D01*
X78985961Y-37511333D02*
X79081200Y-37606571D01*
X79081200Y-37606571D02*
X79128819Y-37749428D01*
X79128819Y-37749428D02*
X79128819Y-37844666D01*
X78224057Y-37035142D02*
X78176438Y-36987523D01*
X78176438Y-36987523D02*
X78128819Y-36892285D01*
X78128819Y-36892285D02*
X78128819Y-36654190D01*
X78128819Y-36654190D02*
X78176438Y-36558952D01*
X78176438Y-36558952D02*
X78224057Y-36511333D01*
X78224057Y-36511333D02*
X78319295Y-36463714D01*
X78319295Y-36463714D02*
X78414533Y-36463714D01*
X78414533Y-36463714D02*
X78557390Y-36511333D01*
X78557390Y-36511333D02*
X79128819Y-37082761D01*
X79128819Y-37082761D02*
X79128819Y-36463714D01*
X78128819Y-35844666D02*
X78128819Y-35749428D01*
X78128819Y-35749428D02*
X78176438Y-35654190D01*
X78176438Y-35654190D02*
X78224057Y-35606571D01*
X78224057Y-35606571D02*
X78319295Y-35558952D01*
X78319295Y-35558952D02*
X78509771Y-35511333D01*
X78509771Y-35511333D02*
X78747866Y-35511333D01*
X78747866Y-35511333D02*
X78938342Y-35558952D01*
X78938342Y-35558952D02*
X79033580Y-35606571D01*
X79033580Y-35606571D02*
X79081200Y-35654190D01*
X79081200Y-35654190D02*
X79128819Y-35749428D01*
X79128819Y-35749428D02*
X79128819Y-35844666D01*
X79128819Y-35844666D02*
X79081200Y-35939904D01*
X79081200Y-35939904D02*
X79033580Y-35987523D01*
X79033580Y-35987523D02*
X78938342Y-36035142D01*
X78938342Y-36035142D02*
X78747866Y-36082761D01*
X78747866Y-36082761D02*
X78509771Y-36082761D01*
X78509771Y-36082761D02*
X78319295Y-36035142D01*
X78319295Y-36035142D02*
X78224057Y-35987523D01*
X78224057Y-35987523D02*
X78176438Y-35939904D01*
X78176438Y-35939904D02*
X78128819Y-35844666D01*
X78224057Y-35130380D02*
X78176438Y-35082761D01*
X78176438Y-35082761D02*
X78128819Y-34987523D01*
X78128819Y-34987523D02*
X78128819Y-34749428D01*
X78128819Y-34749428D02*
X78176438Y-34654190D01*
X78176438Y-34654190D02*
X78224057Y-34606571D01*
X78224057Y-34606571D02*
X78319295Y-34558952D01*
X78319295Y-34558952D02*
X78414533Y-34558952D01*
X78414533Y-34558952D02*
X78557390Y-34606571D01*
X78557390Y-34606571D02*
X79128819Y-35177999D01*
X79128819Y-35177999D02*
X79128819Y-34558952D01*
X78001819Y-69783904D02*
X78716104Y-69783904D01*
X78716104Y-69783904D02*
X78858961Y-69831523D01*
X78858961Y-69831523D02*
X78954200Y-69926761D01*
X78954200Y-69926761D02*
X79001819Y-70069618D01*
X79001819Y-70069618D02*
X79001819Y-70164856D01*
X79001819Y-68783904D02*
X79001819Y-69355332D01*
X79001819Y-69069618D02*
X78001819Y-69069618D01*
X78001819Y-69069618D02*
X78144676Y-69164856D01*
X78144676Y-69164856D02*
X78239914Y-69260094D01*
X78239914Y-69260094D02*
X78287533Y-69355332D01*
X79001819Y-67831523D02*
X79001819Y-68402951D01*
X79001819Y-68117237D02*
X78001819Y-68117237D01*
X78001819Y-68117237D02*
X78144676Y-68212475D01*
X78144676Y-68212475D02*
X78239914Y-68307713D01*
X78239914Y-68307713D02*
X78287533Y-68402951D01*
X78001819Y-67212475D02*
X78001819Y-67117237D01*
X78001819Y-67117237D02*
X78049438Y-67021999D01*
X78049438Y-67021999D02*
X78097057Y-66974380D01*
X78097057Y-66974380D02*
X78192295Y-66926761D01*
X78192295Y-66926761D02*
X78382771Y-66879142D01*
X78382771Y-66879142D02*
X78620866Y-66879142D01*
X78620866Y-66879142D02*
X78811342Y-66926761D01*
X78811342Y-66926761D02*
X78906580Y-66974380D01*
X78906580Y-66974380D02*
X78954200Y-67021999D01*
X78954200Y-67021999D02*
X79001819Y-67117237D01*
X79001819Y-67117237D02*
X79001819Y-67212475D01*
X79001819Y-67212475D02*
X78954200Y-67307713D01*
X78954200Y-67307713D02*
X78906580Y-67355332D01*
X78906580Y-67355332D02*
X78811342Y-67402951D01*
X78811342Y-67402951D02*
X78620866Y-67450570D01*
X78620866Y-67450570D02*
X78382771Y-67450570D01*
X78382771Y-67450570D02*
X78192295Y-67402951D01*
X78192295Y-67402951D02*
X78097057Y-67355332D01*
X78097057Y-67355332D02*
X78049438Y-67307713D01*
X78049438Y-67307713D02*
X78001819Y-67212475D01*
X78097057Y-66498189D02*
X78049438Y-66450570D01*
X78049438Y-66450570D02*
X78001819Y-66355332D01*
X78001819Y-66355332D02*
X78001819Y-66117237D01*
X78001819Y-66117237D02*
X78049438Y-66021999D01*
X78049438Y-66021999D02*
X78097057Y-65974380D01*
X78097057Y-65974380D02*
X78192295Y-65926761D01*
X78192295Y-65926761D02*
X78287533Y-65926761D01*
X78287533Y-65926761D02*
X78430390Y-65974380D01*
X78430390Y-65974380D02*
X79001819Y-66545808D01*
X79001819Y-66545808D02*
X79001819Y-65926761D01*
X116599619Y-42535314D02*
X117313904Y-42535314D01*
X117313904Y-42535314D02*
X117456761Y-42582933D01*
X117456761Y-42582933D02*
X117552000Y-42678171D01*
X117552000Y-42678171D02*
X117599619Y-42821028D01*
X117599619Y-42821028D02*
X117599619Y-42916266D01*
X116694857Y-42106742D02*
X116647238Y-42059123D01*
X116647238Y-42059123D02*
X116599619Y-41963885D01*
X116599619Y-41963885D02*
X116599619Y-41725790D01*
X116599619Y-41725790D02*
X116647238Y-41630552D01*
X116647238Y-41630552D02*
X116694857Y-41582933D01*
X116694857Y-41582933D02*
X116790095Y-41535314D01*
X116790095Y-41535314D02*
X116885333Y-41535314D01*
X116885333Y-41535314D02*
X117028190Y-41582933D01*
X117028190Y-41582933D02*
X117599619Y-42154361D01*
X117599619Y-42154361D02*
X117599619Y-41535314D01*
X116599619Y-40916266D02*
X116599619Y-40821028D01*
X116599619Y-40821028D02*
X116647238Y-40725790D01*
X116647238Y-40725790D02*
X116694857Y-40678171D01*
X116694857Y-40678171D02*
X116790095Y-40630552D01*
X116790095Y-40630552D02*
X116980571Y-40582933D01*
X116980571Y-40582933D02*
X117218666Y-40582933D01*
X117218666Y-40582933D02*
X117409142Y-40630552D01*
X117409142Y-40630552D02*
X117504380Y-40678171D01*
X117504380Y-40678171D02*
X117552000Y-40725790D01*
X117552000Y-40725790D02*
X117599619Y-40821028D01*
X117599619Y-40821028D02*
X117599619Y-40916266D01*
X117599619Y-40916266D02*
X117552000Y-41011504D01*
X117552000Y-41011504D02*
X117504380Y-41059123D01*
X117504380Y-41059123D02*
X117409142Y-41106742D01*
X117409142Y-41106742D02*
X117218666Y-41154361D01*
X117218666Y-41154361D02*
X116980571Y-41154361D01*
X116980571Y-41154361D02*
X116790095Y-41106742D01*
X116790095Y-41106742D02*
X116694857Y-41059123D01*
X116694857Y-41059123D02*
X116647238Y-41011504D01*
X116647238Y-41011504D02*
X116599619Y-40916266D01*
X117599619Y-39630552D02*
X117599619Y-40201980D01*
X117599619Y-39916266D02*
X116599619Y-39916266D01*
X116599619Y-39916266D02*
X116742476Y-40011504D01*
X116742476Y-40011504D02*
X116837714Y-40106742D01*
X116837714Y-40106742D02*
X116885333Y-40201980D01*
D12*
%TO.C,C101*%
X83131252Y-72363000D02*
X82608748Y-72363000D01*
X83131252Y-70893000D02*
X82608748Y-70893000D01*
%TO.C,R802*%
X83164000Y-58009936D02*
X83164000Y-58464064D01*
X84634000Y-58009936D02*
X84634000Y-58464064D01*
%TO.C,D401*%
X110139000Y-46727000D02*
X110139000Y-49747000D01*
X110139000Y-49747000D02*
X114349000Y-49747000D01*
X114349000Y-46727000D02*
X110139000Y-46727000D01*
%TO.C,R402*%
X86464000Y-37522436D02*
X86464000Y-37976564D01*
X87934000Y-37522436D02*
X87934000Y-37976564D01*
%TO.C,R501*%
X105164000Y-37509936D02*
X105164000Y-37964064D01*
X106634000Y-37509936D02*
X106634000Y-37964064D01*
%TO.C,JP701*%
X99229000Y-63407000D02*
X99229000Y-66067000D01*
X104369000Y-63407000D02*
X99229000Y-63407000D01*
X104369000Y-63407000D02*
X104369000Y-66067000D01*
X104369000Y-66067000D02*
X99229000Y-66067000D01*
X105639000Y-63407000D02*
X106969000Y-63407000D01*
X106969000Y-63407000D02*
X106969000Y-64737000D01*
%TO.C,J1101*%
X118137600Y-76952000D02*
X118137600Y-78952000D01*
X118377600Y-77192000D02*
X118377600Y-88812000D01*
X120377600Y-76952000D02*
X118137600Y-76952000D01*
X121936600Y-77192000D02*
X121936600Y-77962000D01*
X121936600Y-81042000D02*
X121936600Y-81869000D01*
X121936600Y-84136000D02*
X121936600Y-85369000D01*
X121936600Y-87636000D02*
X121936600Y-88812000D01*
X122287600Y-81602000D02*
X122287600Y-81603000D01*
X122287600Y-84402000D02*
X122287600Y-84402000D01*
X122287600Y-85102000D02*
X122287600Y-85103000D01*
X122287600Y-87902000D02*
X122287600Y-87902000D01*
X122348600Y-81602000D02*
X122287600Y-81602000D01*
X122348600Y-84402000D02*
X122287600Y-84402000D01*
X122348600Y-85102000D02*
X122287600Y-85102000D01*
X122348600Y-87902000D02*
X122287600Y-87902000D01*
X126037600Y-78102000D02*
X124577600Y-78102000D01*
X126037600Y-78102000D02*
X126037600Y-80902000D01*
X126037600Y-80902000D02*
X124577600Y-80902000D01*
X126037600Y-81602000D02*
X123726600Y-81602000D01*
X126037600Y-81602000D02*
X126037600Y-84402000D01*
X126037600Y-84402000D02*
X123726600Y-84402000D01*
X126037600Y-85102000D02*
X123726600Y-85102000D01*
X126037600Y-85102000D02*
X126037600Y-87902000D01*
X126037600Y-87902000D02*
X123726600Y-87902000D01*
X126797600Y-77192000D02*
X118377600Y-77192000D01*
X126797600Y-77192000D02*
X126797600Y-88812000D01*
X126797600Y-88812000D02*
X118377600Y-88812000D01*
X124295367Y-82062085D02*
G75*
G02*
X124295600Y-83942000I342233J-939915D01*
G01*
X124295367Y-85562085D02*
G75*
G02*
X124295600Y-87442000I342233J-939915D01*
G01*
X124567034Y-78504110D02*
G75*
G02*
X124568600Y-80500000I70566J-997890D01*
G01*
%TO.C,U601*%
X91789000Y-56177000D02*
X91789000Y-56407000D01*
X91789000Y-60297000D02*
X91789000Y-60067000D01*
X94099000Y-56177000D02*
X91789000Y-56177000D01*
X94099000Y-56177000D02*
X96409000Y-56177000D01*
X94099000Y-60297000D02*
X91789000Y-60297000D01*
X94099000Y-60297000D02*
X96409000Y-60297000D01*
X96409000Y-56177000D02*
X96409000Y-56407000D01*
X96409000Y-60297000D02*
X96409000Y-60067000D01*
X90974000Y-56407000D02*
X90734000Y-56077000D01*
X91214000Y-56077000D01*
X90974000Y-56407000D01*
G36*
X90974000Y-56407000D02*
G01*
X90734000Y-56077000D01*
X91214000Y-56077000D01*
X90974000Y-56407000D01*
G37*
%TO.C,JP401*%
X99229000Y-46907000D02*
X99229000Y-49567000D01*
X104369000Y-46907000D02*
X99229000Y-46907000D01*
X104369000Y-46907000D02*
X104369000Y-49567000D01*
X104369000Y-49567000D02*
X99229000Y-49567000D01*
X105639000Y-46907000D02*
X106969000Y-46907000D01*
X106969000Y-46907000D02*
X106969000Y-48237000D01*
%TO.C,D801*%
X110139000Y-68727000D02*
X110139000Y-71747000D01*
X110139000Y-71747000D02*
X114349000Y-71747000D01*
X114349000Y-68727000D02*
X110139000Y-68727000D01*
%TO.C,D901*%
X110139000Y-74227000D02*
X110139000Y-77247000D01*
X110139000Y-77247000D02*
X114349000Y-77247000D01*
X114349000Y-74227000D02*
X110139000Y-74227000D01*
%TO.C,U301*%
X91789000Y-38177000D02*
X91789000Y-38407000D01*
X91789000Y-42297000D02*
X91789000Y-42067000D01*
X94099000Y-38177000D02*
X91789000Y-38177000D01*
X94099000Y-38177000D02*
X96409000Y-38177000D01*
X94099000Y-42297000D02*
X91789000Y-42297000D01*
X94099000Y-42297000D02*
X96409000Y-42297000D01*
X96409000Y-38177000D02*
X96409000Y-38407000D01*
X96409000Y-42297000D02*
X96409000Y-42067000D01*
X90974000Y-38407000D02*
X90734000Y-38077000D01*
X91214000Y-38077000D01*
X90974000Y-38407000D01*
G36*
X90974000Y-38407000D02*
G01*
X90734000Y-38077000D01*
X91214000Y-38077000D01*
X90974000Y-38407000D01*
G37*
%TO.C,D501*%
X110139000Y-52227000D02*
X110139000Y-55247000D01*
X110139000Y-55247000D02*
X114349000Y-55247000D01*
X114349000Y-52227000D02*
X110139000Y-52227000D01*
%TO.C,R701*%
X107864000Y-86022436D02*
X107864000Y-86476564D01*
X109334000Y-86022436D02*
X109334000Y-86476564D01*
%TO.C,R601*%
X108464000Y-37497436D02*
X108464000Y-37951564D01*
X109934000Y-37497436D02*
X109934000Y-37951564D01*
%TO.C,R702*%
X86464000Y-58009936D02*
X86464000Y-58464064D01*
X87934000Y-58009936D02*
X87934000Y-58464064D01*
%TO.C,U102*%
X81516000Y-45005800D02*
X81516000Y-45210800D01*
X81516000Y-55425800D02*
X81516000Y-55220800D01*
X84276000Y-45005800D02*
X81516000Y-45005800D01*
X84276000Y-45005800D02*
X87036000Y-45005800D01*
X84276000Y-55425800D02*
X81516000Y-55425800D01*
X84276000Y-55425800D02*
X87036000Y-55425800D01*
X87036000Y-45005800D02*
X87036000Y-45210800D01*
X87036000Y-55425800D02*
X87036000Y-55220800D01*
X80726000Y-45210800D02*
X80486000Y-44880800D01*
X80966000Y-44880800D01*
X80726000Y-45210800D01*
G36*
X80726000Y-45210800D02*
G01*
X80486000Y-44880800D01*
X80966000Y-44880800D01*
X80726000Y-45210800D01*
G37*
%TO.C,R801*%
X104564000Y-86022436D02*
X104564000Y-86476564D01*
X106034000Y-86022436D02*
X106034000Y-86476564D01*
%TO.C,U501*%
X91789000Y-50177000D02*
X91789000Y-50407000D01*
X91789000Y-54297000D02*
X91789000Y-54067000D01*
X94099000Y-50177000D02*
X91789000Y-50177000D01*
X94099000Y-50177000D02*
X96409000Y-50177000D01*
X94099000Y-54297000D02*
X91789000Y-54297000D01*
X94099000Y-54297000D02*
X96409000Y-54297000D01*
X96409000Y-50177000D02*
X96409000Y-50407000D01*
X96409000Y-54297000D02*
X96409000Y-54067000D01*
X90974000Y-50407000D02*
X90734000Y-50077000D01*
X91214000Y-50077000D01*
X90974000Y-50407000D01*
G36*
X90974000Y-50407000D02*
G01*
X90734000Y-50077000D01*
X91214000Y-50077000D01*
X90974000Y-50407000D01*
G37*
%TO.C,D301*%
X110139000Y-41227000D02*
X110139000Y-44247000D01*
X110139000Y-44247000D02*
X114349000Y-44247000D01*
X114349000Y-41227000D02*
X110139000Y-41227000D01*
%TO.C,R602*%
X86464000Y-41322436D02*
X86464000Y-41776564D01*
X87934000Y-41322436D02*
X87934000Y-41776564D01*
%TO.C,R901*%
X101264000Y-86009936D02*
X101264000Y-86464064D01*
X102734000Y-86009936D02*
X102734000Y-86464064D01*
%TO.C,U1001*%
X91789000Y-80177000D02*
X91789000Y-80407000D01*
X91789000Y-84297000D02*
X91789000Y-84067000D01*
X94099000Y-80177000D02*
X91789000Y-80177000D01*
X94099000Y-80177000D02*
X96409000Y-80177000D01*
X94099000Y-84297000D02*
X91789000Y-84297000D01*
X94099000Y-84297000D02*
X96409000Y-84297000D01*
X96409000Y-80177000D02*
X96409000Y-80407000D01*
X96409000Y-84297000D02*
X96409000Y-84067000D01*
X90974000Y-80407000D02*
X90734000Y-80077000D01*
X91214000Y-80077000D01*
X90974000Y-80407000D01*
G36*
X90974000Y-80407000D02*
G01*
X90734000Y-80077000D01*
X91214000Y-80077000D01*
X90974000Y-80407000D01*
G37*
%TO.C,U701*%
X91789000Y-62177000D02*
X91789000Y-62407000D01*
X91789000Y-66297000D02*
X91789000Y-66067000D01*
X94099000Y-62177000D02*
X91789000Y-62177000D01*
X94099000Y-62177000D02*
X96409000Y-62177000D01*
X94099000Y-66297000D02*
X91789000Y-66297000D01*
X94099000Y-66297000D02*
X96409000Y-66297000D01*
X96409000Y-62177000D02*
X96409000Y-62407000D01*
X96409000Y-66297000D02*
X96409000Y-66067000D01*
X90974000Y-62407000D02*
X90734000Y-62077000D01*
X91214000Y-62077000D01*
X90974000Y-62407000D01*
G36*
X90974000Y-62407000D02*
G01*
X90734000Y-62077000D01*
X91214000Y-62077000D01*
X90974000Y-62407000D01*
G37*
%TO.C,U901*%
X91789000Y-74177000D02*
X91789000Y-74407000D01*
X91789000Y-78297000D02*
X91789000Y-78067000D01*
X94099000Y-74177000D02*
X91789000Y-74177000D01*
X94099000Y-74177000D02*
X96409000Y-74177000D01*
X94099000Y-78297000D02*
X91789000Y-78297000D01*
X94099000Y-78297000D02*
X96409000Y-78297000D01*
X96409000Y-74177000D02*
X96409000Y-74407000D01*
X96409000Y-78297000D02*
X96409000Y-78067000D01*
X90974000Y-74407000D02*
X90734000Y-74077000D01*
X91214000Y-74077000D01*
X90974000Y-74407000D01*
G36*
X90974000Y-74407000D02*
G01*
X90734000Y-74077000D01*
X91214000Y-74077000D01*
X90974000Y-74407000D01*
G37*
%TO.C,D601*%
X110139000Y-57727000D02*
X110139000Y-60747000D01*
X110139000Y-60747000D02*
X114349000Y-60747000D01*
X114349000Y-57727000D02*
X110139000Y-57727000D01*
%TO.C,U101*%
X82899000Y-73227000D02*
X80249000Y-73227000D01*
X82899000Y-73227000D02*
X85549000Y-73227000D01*
X82899000Y-86047000D02*
X80249000Y-86047000D01*
X82899000Y-86047000D02*
X85549000Y-86047000D01*
X79349000Y-73362000D02*
X79109000Y-73032000D01*
X79589000Y-73032000D01*
X79349000Y-73362000D01*
G36*
X79349000Y-73362000D02*
G01*
X79109000Y-73032000D01*
X79589000Y-73032000D01*
X79349000Y-73362000D01*
G37*
%TO.C,J101*%
X118137600Y-46726000D02*
X118137600Y-48726000D01*
X118377600Y-46966000D02*
X118377600Y-76086000D01*
X120377600Y-46726000D02*
X118137600Y-46726000D01*
X121936600Y-46966000D02*
X121936600Y-47736000D01*
X121936600Y-50816000D02*
X121936600Y-51643000D01*
X121936600Y-53910000D02*
X121936600Y-55143000D01*
X121936600Y-57410000D02*
X121936600Y-58643000D01*
X121936600Y-60910000D02*
X121936600Y-62143000D01*
X121936600Y-64410000D02*
X121936600Y-65643000D01*
X121936600Y-67910000D02*
X121936600Y-69143000D01*
X121936600Y-71410000D02*
X121936600Y-72643000D01*
X121936600Y-74910000D02*
X121936600Y-76086000D01*
X122287600Y-51376000D02*
X122287600Y-51377000D01*
X122287600Y-54176000D02*
X122287600Y-54176000D01*
X122287600Y-54876000D02*
X122287600Y-54877000D01*
X122287600Y-57676000D02*
X122287600Y-57676000D01*
X122287600Y-58376000D02*
X122287600Y-58377000D01*
X122287600Y-61176000D02*
X122287600Y-61176000D01*
X122287600Y-61876000D02*
X122287600Y-61877000D01*
X122287600Y-64676000D02*
X122287600Y-64676000D01*
X122287600Y-65377000D02*
X122287600Y-65377000D01*
X122287600Y-68176000D02*
X122287600Y-68176000D01*
X122287600Y-68876000D02*
X122287600Y-68877000D01*
X122287600Y-71676000D02*
X122287600Y-71676000D01*
X122287600Y-72376000D02*
X122287600Y-72377000D01*
X122287600Y-75176000D02*
X122287600Y-75176000D01*
X122348600Y-51376000D02*
X122287600Y-51376000D01*
X122348600Y-54176000D02*
X122287600Y-54176000D01*
X122348600Y-54876000D02*
X122287600Y-54876000D01*
X122348600Y-57676000D02*
X122287600Y-57676000D01*
X122348600Y-58376000D02*
X122287600Y-58376000D01*
X122348600Y-61176000D02*
X122287600Y-61176000D01*
X122348600Y-61876000D02*
X122287600Y-61876000D01*
X122348600Y-64676000D02*
X122287600Y-64676000D01*
X122348600Y-65377000D02*
X122287600Y-65377000D01*
X122348600Y-68176000D02*
X122287600Y-68176000D01*
X122348600Y-68876000D02*
X122287600Y-68876000D01*
X122348600Y-71676000D02*
X122287600Y-71676000D01*
X122348600Y-72376000D02*
X122287600Y-72376000D01*
X122348600Y-75176000D02*
X122287600Y-75176000D01*
X126037600Y-47876000D02*
X124577600Y-47876000D01*
X126037600Y-47876000D02*
X126037600Y-50676000D01*
X126037600Y-50676000D02*
X124577600Y-50676000D01*
X126037600Y-51376000D02*
X123726600Y-51376000D01*
X126037600Y-51376000D02*
X126037600Y-54176000D01*
X126037600Y-54176000D02*
X123726600Y-54176000D01*
X126037600Y-54876000D02*
X123726600Y-54876000D01*
X126037600Y-54876000D02*
X126037600Y-57676000D01*
X126037600Y-57676000D02*
X123726600Y-57676000D01*
X126037600Y-58376000D02*
X123726600Y-58376000D01*
X126037600Y-58376000D02*
X126037600Y-61176000D01*
X126037600Y-61176000D02*
X123726600Y-61176000D01*
X126037600Y-61876000D02*
X123726600Y-61876000D01*
X126037600Y-61876000D02*
X126037600Y-64676000D01*
X126037600Y-64676000D02*
X123726600Y-64676000D01*
X126037600Y-65377000D02*
X123726600Y-65377000D01*
X126037600Y-65377000D02*
X126037600Y-68176000D01*
X126037600Y-68176000D02*
X123726600Y-68176000D01*
X126037600Y-68876000D02*
X123726600Y-68876000D01*
X126037600Y-68876000D02*
X126037600Y-71676000D01*
X126037600Y-71676000D02*
X123726600Y-71676000D01*
X126037600Y-72376000D02*
X123726600Y-72376000D01*
X126037600Y-72376000D02*
X126037600Y-75176000D01*
X126037600Y-75176000D02*
X123726600Y-75176000D01*
X126797600Y-46966000D02*
X118377600Y-46966000D01*
X126797600Y-46966000D02*
X126797600Y-76086000D01*
X126797600Y-76086000D02*
X118377600Y-76086000D01*
X124295367Y-51836085D02*
G75*
G02*
X124295600Y-53716000I342233J-939915D01*
G01*
X124295367Y-55336085D02*
G75*
G02*
X124295600Y-57216000I342233J-939915D01*
G01*
X124295367Y-58836085D02*
G75*
G02*
X124295600Y-60716000I342233J-939915D01*
G01*
X124295367Y-62336085D02*
G75*
G02*
X124295600Y-64216000I342233J-939915D01*
G01*
X124295367Y-65836085D02*
G75*
G02*
X124295600Y-67716000I342233J-939915D01*
G01*
X124295367Y-69336085D02*
G75*
G02*
X124295600Y-71216000I342233J-939915D01*
G01*
X124295367Y-72836085D02*
G75*
G02*
X124295600Y-74716000I342233J-939915D01*
G01*
X124567034Y-48278110D02*
G75*
G02*
X124568600Y-50274000I70566J-997890D01*
G01*
%TO.C,J202*%
X69014000Y-34336000D02*
X69014000Y-36336000D01*
X69254000Y-34576000D02*
X69254000Y-56697000D01*
X71254000Y-34336000D02*
X69014000Y-34336000D01*
X72813000Y-34576000D02*
X72813000Y-35346000D01*
X72813000Y-38426000D02*
X72813000Y-39253000D01*
X72813000Y-41520000D02*
X72813000Y-42753000D01*
X72813000Y-45020000D02*
X72813000Y-46253000D01*
X72813000Y-48520000D02*
X72813000Y-49753000D01*
X72813000Y-52020000D02*
X72813000Y-53253000D01*
X72813000Y-55520000D02*
X72813000Y-56697000D01*
X73164000Y-38986000D02*
X73164000Y-38987000D01*
X73164000Y-41786000D02*
X73164000Y-41786000D01*
X73164000Y-42486000D02*
X73164000Y-42487000D01*
X73164000Y-45286000D02*
X73164000Y-45286000D01*
X73164000Y-45986000D02*
X73164000Y-45987000D01*
X73164000Y-48786000D02*
X73164000Y-48786000D01*
X73164000Y-49486000D02*
X73164000Y-49487000D01*
X73164000Y-52286000D02*
X73164000Y-52286000D01*
X73164000Y-52987000D02*
X73164000Y-52987000D01*
X73164000Y-55786000D02*
X73164000Y-55786000D01*
X73225000Y-38986000D02*
X73164000Y-38986000D01*
X73225000Y-41786000D02*
X73164000Y-41786000D01*
X73225000Y-42486000D02*
X73164000Y-42486000D01*
X73225000Y-45286000D02*
X73164000Y-45286000D01*
X73225000Y-45986000D02*
X73164000Y-45986000D01*
X73225000Y-48786000D02*
X73164000Y-48786000D01*
X73225000Y-49486000D02*
X73164000Y-49486000D01*
X73225000Y-52286000D02*
X73164000Y-52286000D01*
X73225000Y-52987000D02*
X73164000Y-52987000D01*
X73225000Y-55786000D02*
X73164000Y-55786000D01*
X76914000Y-35486000D02*
X75454000Y-35486000D01*
X76914000Y-35486000D02*
X76914000Y-38286000D01*
X76914000Y-38286000D02*
X75454000Y-38286000D01*
X76914000Y-38986000D02*
X74603000Y-38986000D01*
X76914000Y-38986000D02*
X76914000Y-41786000D01*
X76914000Y-41786000D02*
X74603000Y-41786000D01*
X76914000Y-42486000D02*
X74603000Y-42486000D01*
X76914000Y-42486000D02*
X76914000Y-45286000D01*
X76914000Y-45286000D02*
X74603000Y-45286000D01*
X76914000Y-45986000D02*
X74603000Y-45986000D01*
X76914000Y-45986000D02*
X76914000Y-48786000D01*
X76914000Y-48786000D02*
X74603000Y-48786000D01*
X76914000Y-49486000D02*
X74603000Y-49486000D01*
X76914000Y-49486000D02*
X76914000Y-52286000D01*
X76914000Y-52286000D02*
X74603000Y-52286000D01*
X76914000Y-52987000D02*
X74603000Y-52987000D01*
X76914000Y-52987000D02*
X76914000Y-55786000D01*
X76914000Y-55786000D02*
X74603000Y-55786000D01*
X77674000Y-34576000D02*
X69254000Y-34576000D01*
X77674000Y-34576000D02*
X77674000Y-56697000D01*
X77674000Y-56697000D02*
X69254000Y-56697000D01*
X75171767Y-39446085D02*
G75*
G02*
X75172000Y-41326000I342233J-939915D01*
G01*
X75171767Y-42946085D02*
G75*
G02*
X75172000Y-44826000I342233J-939915D01*
G01*
X75171767Y-46446085D02*
G75*
G02*
X75172000Y-48326000I342233J-939915D01*
G01*
X75171767Y-49946085D02*
G75*
G02*
X75172000Y-51826000I342233J-939915D01*
G01*
X75171767Y-53446085D02*
G75*
G02*
X75172000Y-55326000I342233J-939915D01*
G01*
X75443434Y-35888110D02*
G75*
G02*
X75445000Y-37884000I70566J-997890D01*
G01*
%TO.C,R502*%
X83264000Y-41397436D02*
X83264000Y-41851564D01*
X84734000Y-41397436D02*
X84734000Y-41851564D01*
%TO.C,J1102*%
X68887000Y-65664000D02*
X68887000Y-67664000D01*
X69127000Y-65904000D02*
X69127000Y-88025000D01*
X71127000Y-65664000D02*
X68887000Y-65664000D01*
X72686000Y-65904000D02*
X72686000Y-66674000D01*
X72686000Y-69754000D02*
X72686000Y-70581000D01*
X72686000Y-72848000D02*
X72686000Y-74081000D01*
X72686000Y-76348000D02*
X72686000Y-77581000D01*
X72686000Y-79848000D02*
X72686000Y-81081000D01*
X72686000Y-83348000D02*
X72686000Y-84581000D01*
X72686000Y-86848000D02*
X72686000Y-88025000D01*
X73037000Y-70314000D02*
X73037000Y-70315000D01*
X73037000Y-73114000D02*
X73037000Y-73114000D01*
X73037000Y-73814000D02*
X73037000Y-73815000D01*
X73037000Y-76614000D02*
X73037000Y-76614000D01*
X73037000Y-77314000D02*
X73037000Y-77315000D01*
X73037000Y-80114000D02*
X73037000Y-80114000D01*
X73037000Y-80814000D02*
X73037000Y-80815000D01*
X73037000Y-83614000D02*
X73037000Y-83614000D01*
X73037000Y-84315000D02*
X73037000Y-84315000D01*
X73037000Y-87114000D02*
X73037000Y-87114000D01*
X73098000Y-70314000D02*
X73037000Y-70314000D01*
X73098000Y-73114000D02*
X73037000Y-73114000D01*
X73098000Y-73814000D02*
X73037000Y-73814000D01*
X73098000Y-76614000D02*
X73037000Y-76614000D01*
X73098000Y-77314000D02*
X73037000Y-77314000D01*
X73098000Y-80114000D02*
X73037000Y-80114000D01*
X73098000Y-80814000D02*
X73037000Y-80814000D01*
X73098000Y-83614000D02*
X73037000Y-83614000D01*
X73098000Y-84315000D02*
X73037000Y-84315000D01*
X73098000Y-87114000D02*
X73037000Y-87114000D01*
X76787000Y-66814000D02*
X75327000Y-66814000D01*
X76787000Y-66814000D02*
X76787000Y-69614000D01*
X76787000Y-69614000D02*
X75327000Y-69614000D01*
X76787000Y-70314000D02*
X74476000Y-70314000D01*
X76787000Y-70314000D02*
X76787000Y-73114000D01*
X76787000Y-73114000D02*
X74476000Y-73114000D01*
X76787000Y-73814000D02*
X74476000Y-73814000D01*
X76787000Y-73814000D02*
X76787000Y-76614000D01*
X76787000Y-76614000D02*
X74476000Y-76614000D01*
X76787000Y-77314000D02*
X74476000Y-77314000D01*
X76787000Y-77314000D02*
X76787000Y-80114000D01*
X76787000Y-80114000D02*
X74476000Y-80114000D01*
X76787000Y-80814000D02*
X74476000Y-80814000D01*
X76787000Y-80814000D02*
X76787000Y-83614000D01*
X76787000Y-83614000D02*
X74476000Y-83614000D01*
X76787000Y-84315000D02*
X74476000Y-84315000D01*
X76787000Y-84315000D02*
X76787000Y-87114000D01*
X76787000Y-87114000D02*
X74476000Y-87114000D01*
X77547000Y-65904000D02*
X69127000Y-65904000D01*
X77547000Y-65904000D02*
X77547000Y-88025000D01*
X77547000Y-88025000D02*
X69127000Y-88025000D01*
X75044767Y-70774085D02*
G75*
G02*
X75045000Y-72654000I342233J-939915D01*
G01*
X75044767Y-74274085D02*
G75*
G02*
X75045000Y-76154000I342233J-939915D01*
G01*
X75044767Y-77774085D02*
G75*
G02*
X75045000Y-79654000I342233J-939915D01*
G01*
X75044767Y-81274085D02*
G75*
G02*
X75045000Y-83154000I342233J-939915D01*
G01*
X75044767Y-84774085D02*
G75*
G02*
X75045000Y-86654000I342233J-939915D01*
G01*
X75316434Y-67216110D02*
G75*
G02*
X75318000Y-69212000I70566J-997890D01*
G01*
%TO.C,JP601*%
X99229000Y-57907000D02*
X99229000Y-60567000D01*
X104369000Y-57907000D02*
X99229000Y-57907000D01*
X104369000Y-57907000D02*
X104369000Y-60567000D01*
X104369000Y-60567000D02*
X99229000Y-60567000D01*
X105639000Y-57907000D02*
X106969000Y-57907000D01*
X106969000Y-57907000D02*
X106969000Y-59237000D01*
%TO.C,U801*%
X91789000Y-68177000D02*
X91789000Y-68407000D01*
X91789000Y-72297000D02*
X91789000Y-72067000D01*
X94099000Y-68177000D02*
X91789000Y-68177000D01*
X94099000Y-68177000D02*
X96409000Y-68177000D01*
X94099000Y-72297000D02*
X91789000Y-72297000D01*
X94099000Y-72297000D02*
X96409000Y-72297000D01*
X96409000Y-68177000D02*
X96409000Y-68407000D01*
X96409000Y-72297000D02*
X96409000Y-72067000D01*
X90974000Y-68407000D02*
X90734000Y-68077000D01*
X91214000Y-68077000D01*
X90974000Y-68407000D01*
G36*
X90974000Y-68407000D02*
G01*
X90734000Y-68077000D01*
X91214000Y-68077000D01*
X90974000Y-68407000D01*
G37*
%TO.C,JP501*%
X99229000Y-52407000D02*
X99229000Y-55067000D01*
X104369000Y-52407000D02*
X99229000Y-52407000D01*
X104369000Y-52407000D02*
X104369000Y-55067000D01*
X104369000Y-55067000D02*
X99229000Y-55067000D01*
X105639000Y-52407000D02*
X106969000Y-52407000D01*
X106969000Y-52407000D02*
X106969000Y-53737000D01*
%TO.C,R302*%
X83164000Y-37497436D02*
X83164000Y-37951564D01*
X84634000Y-37497436D02*
X84634000Y-37951564D01*
%TO.C,U401*%
X91789000Y-44177000D02*
X91789000Y-44407000D01*
X91789000Y-48297000D02*
X91789000Y-48067000D01*
X94099000Y-44177000D02*
X91789000Y-44177000D01*
X94099000Y-44177000D02*
X96409000Y-44177000D01*
X94099000Y-48297000D02*
X91789000Y-48297000D01*
X94099000Y-48297000D02*
X96409000Y-48297000D01*
X96409000Y-44177000D02*
X96409000Y-44407000D01*
X96409000Y-48297000D02*
X96409000Y-48067000D01*
X90974000Y-44407000D02*
X90734000Y-44077000D01*
X91214000Y-44077000D01*
X90974000Y-44407000D01*
G36*
X90974000Y-44407000D02*
G01*
X90734000Y-44077000D01*
X91214000Y-44077000D01*
X90974000Y-44407000D01*
G37*
%TO.C,JP1001*%
X99229000Y-79907000D02*
X99229000Y-82567000D01*
X104369000Y-79907000D02*
X99229000Y-79907000D01*
X104369000Y-79907000D02*
X104369000Y-82567000D01*
X104369000Y-82567000D02*
X99229000Y-82567000D01*
X105639000Y-79907000D02*
X106969000Y-79907000D01*
X106969000Y-79907000D02*
X106969000Y-81237000D01*
%TO.C,JP301*%
X99229000Y-41407000D02*
X99229000Y-44067000D01*
X104369000Y-41407000D02*
X99229000Y-41407000D01*
X104369000Y-41407000D02*
X104369000Y-44067000D01*
X104369000Y-44067000D02*
X99229000Y-44067000D01*
X105639000Y-41407000D02*
X106969000Y-41407000D01*
X106969000Y-41407000D02*
X106969000Y-42737000D01*
%TO.C,D701*%
X110139000Y-63227000D02*
X110139000Y-66247000D01*
X110139000Y-66247000D02*
X114349000Y-66247000D01*
X114349000Y-63227000D02*
X110139000Y-63227000D01*
%TO.C,R301*%
X98764000Y-37509936D02*
X98764000Y-37964064D01*
X100234000Y-37509936D02*
X100234000Y-37964064D01*
%TO.C,R401*%
X101964000Y-37497436D02*
X101964000Y-37951564D01*
X103434000Y-37497436D02*
X103434000Y-37951564D01*
%TO.C,JP801*%
X99229000Y-68907000D02*
X99229000Y-71567000D01*
X104369000Y-68907000D02*
X99229000Y-68907000D01*
X104369000Y-68907000D02*
X104369000Y-71567000D01*
X104369000Y-71567000D02*
X99229000Y-71567000D01*
X105639000Y-68907000D02*
X106969000Y-68907000D01*
X106969000Y-68907000D02*
X106969000Y-70237000D01*
%TO.C,R1002*%
X83264000Y-61822436D02*
X83264000Y-62276564D01*
X84734000Y-61822436D02*
X84734000Y-62276564D01*
%TO.C,D1001*%
X110139000Y-79727000D02*
X110139000Y-82747000D01*
X110139000Y-82747000D02*
X114349000Y-82747000D01*
X114349000Y-79727000D02*
X110139000Y-79727000D01*
%TO.C,JP901*%
X99229000Y-74407000D02*
X99229000Y-77067000D01*
X104369000Y-74407000D02*
X99229000Y-74407000D01*
X104369000Y-74407000D02*
X104369000Y-77067000D01*
X104369000Y-77067000D02*
X99229000Y-77067000D01*
X105639000Y-74407000D02*
X106969000Y-74407000D01*
X106969000Y-74407000D02*
X106969000Y-75737000D01*
%TO.C,R902*%
X86464000Y-61922436D02*
X86464000Y-62376564D01*
X87934000Y-61922436D02*
X87934000Y-62376564D01*
%TO.C,J201*%
X118137600Y-34077800D02*
X118137600Y-36077800D01*
X118377600Y-34317800D02*
X118377600Y-45937800D01*
X120377600Y-34077800D02*
X118137600Y-34077800D01*
X121936600Y-34317800D02*
X121936600Y-35087800D01*
X121936600Y-38167800D02*
X121936600Y-38994800D01*
X121936600Y-41261800D02*
X121936600Y-42494800D01*
X121936600Y-44761800D02*
X121936600Y-45937800D01*
X122287600Y-38727800D02*
X122287600Y-38728800D01*
X122287600Y-41527800D02*
X122287600Y-41527800D01*
X122287600Y-42227800D02*
X122287600Y-42228800D01*
X122287600Y-45027800D02*
X122287600Y-45027800D01*
X122348600Y-38727800D02*
X122287600Y-38727800D01*
X122348600Y-41527800D02*
X122287600Y-41527800D01*
X122348600Y-42227800D02*
X122287600Y-42227800D01*
X122348600Y-45027800D02*
X122287600Y-45027800D01*
X126037600Y-35227800D02*
X124577600Y-35227800D01*
X126037600Y-35227800D02*
X126037600Y-38027800D01*
X126037600Y-38027800D02*
X124577600Y-38027800D01*
X126037600Y-38727800D02*
X123726600Y-38727800D01*
X126037600Y-38727800D02*
X126037600Y-41527800D01*
X126037600Y-41527800D02*
X123726600Y-41527800D01*
X126037600Y-42227800D02*
X123726600Y-42227800D01*
X126037600Y-42227800D02*
X126037600Y-45027800D01*
X126037600Y-45027800D02*
X123726600Y-45027800D01*
X126797600Y-34317800D02*
X118377600Y-34317800D01*
X126797600Y-34317800D02*
X126797600Y-45937800D01*
X126797600Y-45937800D02*
X118377600Y-45937800D01*
X124295367Y-39187885D02*
G75*
G02*
X124295600Y-41067800I342233J-939915D01*
G01*
X124295367Y-42687885D02*
G75*
G02*
X124295600Y-44567800I342233J-939915D01*
G01*
X124567034Y-35629910D02*
G75*
G02*
X124568600Y-37625800I70566J-997890D01*
G01*
%TO.C,R1001*%
X97964000Y-85997436D02*
X97964000Y-86451564D01*
X99434000Y-85997436D02*
X99434000Y-86451564D01*
%TO.C,C102*%
X81221252Y-44169000D02*
X80698748Y-44169000D01*
X81221252Y-42699000D02*
X80698748Y-42699000D01*
%TD*%
%LPC*%
D13*
%TO.C,C101*%
X83820000Y-71628000D03*
X81920000Y-71628000D03*
%TD*%
D14*
%TO.C,R802*%
X83899000Y-57324500D03*
X83899000Y-59149500D03*
%TD*%
D15*
%TO.C,D401*%
X111061500Y-48237000D03*
X114136500Y-48237000D03*
%TD*%
D14*
%TO.C,R402*%
X87199000Y-36837000D03*
X87199000Y-38662000D03*
%TD*%
%TO.C,R501*%
X105899000Y-36824500D03*
X105899000Y-38649500D03*
%TD*%
D16*
%TO.C,JP701*%
X105639000Y-64737000D03*
D17*
X103099000Y-64737000D03*
X100559000Y-64737000D03*
%TD*%
D18*
%TO.C,REF1*%
X76073000Y-60975000D03*
%TD*%
D19*
%TO.C,J1101*%
X123037600Y-79502000D03*
D20*
X123037600Y-83002000D03*
X123037600Y-86502000D03*
%TD*%
D21*
%TO.C,U601*%
X90949000Y-56967000D03*
X90949000Y-59507000D03*
X97249000Y-59507000D03*
X97249000Y-56967000D03*
%TD*%
D16*
%TO.C,JP401*%
X105639000Y-48237000D03*
D17*
X103099000Y-48237000D03*
X100559000Y-48237000D03*
%TD*%
D15*
%TO.C,D801*%
X111061500Y-70237000D03*
X114136500Y-70237000D03*
%TD*%
%TO.C,D901*%
X111061500Y-75737000D03*
X114136500Y-75737000D03*
%TD*%
D21*
%TO.C,U301*%
X90949000Y-38967000D03*
X90949000Y-41507000D03*
X97249000Y-41507000D03*
X97249000Y-38967000D03*
%TD*%
D15*
%TO.C,D501*%
X111061500Y-53737000D03*
X114136500Y-53737000D03*
%TD*%
D14*
%TO.C,R701*%
X108599000Y-85337000D03*
X108599000Y-87162000D03*
%TD*%
%TO.C,R601*%
X109199000Y-36812000D03*
X109199000Y-38637000D03*
%TD*%
%TO.C,R702*%
X87199000Y-57324500D03*
X87199000Y-59149500D03*
%TD*%
D22*
%TO.C,U102*%
X81026000Y-45770800D03*
X81026000Y-47040800D03*
X81026000Y-48310800D03*
X81026000Y-49580800D03*
X81026000Y-50850800D03*
X81026000Y-52120800D03*
X81026000Y-53390800D03*
X81026000Y-54660800D03*
X87526000Y-54660800D03*
X87526000Y-53390800D03*
X87526000Y-52120800D03*
X87526000Y-50850800D03*
X87526000Y-49580800D03*
X87526000Y-48310800D03*
X87526000Y-47040800D03*
X87526000Y-45770800D03*
%TD*%
D14*
%TO.C,R801*%
X105299000Y-85337000D03*
X105299000Y-87162000D03*
%TD*%
D21*
%TO.C,U501*%
X90949000Y-50967000D03*
X90949000Y-53507000D03*
X97249000Y-53507000D03*
X97249000Y-50967000D03*
%TD*%
D15*
%TO.C,D301*%
X111061500Y-42737000D03*
X114136500Y-42737000D03*
%TD*%
D14*
%TO.C,R602*%
X87199000Y-40637000D03*
X87199000Y-42462000D03*
%TD*%
%TO.C,R901*%
X101999000Y-85324500D03*
X101999000Y-87149500D03*
%TD*%
D21*
%TO.C,U1001*%
X90949000Y-80967000D03*
X90949000Y-83507000D03*
X97249000Y-83507000D03*
X97249000Y-80967000D03*
%TD*%
%TO.C,U701*%
X90949000Y-62967000D03*
X90949000Y-65507000D03*
X97249000Y-65507000D03*
X97249000Y-62967000D03*
%TD*%
%TO.C,U901*%
X90949000Y-74967000D03*
X90949000Y-77507000D03*
X97249000Y-77507000D03*
X97249000Y-74967000D03*
%TD*%
D15*
%TO.C,D601*%
X111061500Y-59237000D03*
X114136500Y-59237000D03*
%TD*%
D23*
%TO.C,U101*%
X79436500Y-73922000D03*
X79436500Y-75192000D03*
X79436500Y-76462000D03*
X79436500Y-77732000D03*
X79436500Y-79002000D03*
X79436500Y-80272000D03*
X79436500Y-81542000D03*
X79436500Y-82812000D03*
X79436500Y-84082000D03*
X79436500Y-85352000D03*
X86361500Y-85352000D03*
X86361500Y-84082000D03*
X86361500Y-82812000D03*
X86361500Y-81542000D03*
X86361500Y-80272000D03*
X86361500Y-79002000D03*
X86361500Y-77732000D03*
X86361500Y-76462000D03*
X86361500Y-75192000D03*
X86361500Y-73922000D03*
%TD*%
D19*
%TO.C,J101*%
X123037600Y-49276000D03*
D20*
X123037600Y-52776000D03*
X123037600Y-56276000D03*
X123037600Y-59776000D03*
X123037600Y-63276000D03*
X123037600Y-66776000D03*
X123037600Y-70276000D03*
X123037600Y-73776000D03*
%TD*%
D19*
%TO.C,J202*%
X73914000Y-36886000D03*
D20*
X73914000Y-40386000D03*
X73914000Y-43886000D03*
X73914000Y-47386000D03*
X73914000Y-50886000D03*
X73914000Y-54386000D03*
%TD*%
D14*
%TO.C,R502*%
X83999000Y-40712000D03*
X83999000Y-42537000D03*
%TD*%
D19*
%TO.C,J1102*%
X73787000Y-68214000D03*
D20*
X73787000Y-71714000D03*
X73787000Y-75214000D03*
X73787000Y-78714000D03*
X73787000Y-82214000D03*
X73787000Y-85714000D03*
%TD*%
D16*
%TO.C,JP601*%
X105639000Y-59237000D03*
D17*
X103099000Y-59237000D03*
X100559000Y-59237000D03*
%TD*%
D21*
%TO.C,U801*%
X90949000Y-68967000D03*
X90949000Y-71507000D03*
X97249000Y-71507000D03*
X97249000Y-68967000D03*
%TD*%
D16*
%TO.C,JP501*%
X105639000Y-53737000D03*
D17*
X103099000Y-53737000D03*
X100559000Y-53737000D03*
%TD*%
D14*
%TO.C,R302*%
X83899000Y-36812000D03*
X83899000Y-38637000D03*
%TD*%
D21*
%TO.C,U401*%
X90949000Y-44967000D03*
X90949000Y-47507000D03*
X97249000Y-47507000D03*
X97249000Y-44967000D03*
%TD*%
D16*
%TO.C,JP1001*%
X105639000Y-81237000D03*
D17*
X103099000Y-81237000D03*
X100559000Y-81237000D03*
%TD*%
D16*
%TO.C,JP301*%
X105639000Y-42737000D03*
D17*
X103099000Y-42737000D03*
X100559000Y-42737000D03*
%TD*%
D15*
%TO.C,D701*%
X111061500Y-64737000D03*
X114136500Y-64737000D03*
%TD*%
D14*
%TO.C,R301*%
X99499000Y-36824500D03*
X99499000Y-38649500D03*
%TD*%
%TO.C,R401*%
X102699000Y-36812000D03*
X102699000Y-38637000D03*
%TD*%
D16*
%TO.C,JP801*%
X105639000Y-70237000D03*
D17*
X103099000Y-70237000D03*
X100559000Y-70237000D03*
%TD*%
D18*
%TO.C,REF2*%
X113792000Y-37338000D03*
%TD*%
D14*
%TO.C,R1002*%
X83999000Y-61137000D03*
X83999000Y-62962000D03*
%TD*%
D15*
%TO.C,D1001*%
X111061500Y-81237000D03*
X114136500Y-81237000D03*
%TD*%
D16*
%TO.C,JP901*%
X105639000Y-75737000D03*
D17*
X103099000Y-75737000D03*
X100559000Y-75737000D03*
%TD*%
D14*
%TO.C,R902*%
X87199000Y-61237000D03*
X87199000Y-63062000D03*
%TD*%
D18*
%TO.C,REF3*%
X114401600Y-86375000D03*
%TD*%
D19*
%TO.C,J201*%
X123037600Y-36627800D03*
D20*
X123037600Y-40127800D03*
X123037600Y-43627800D03*
%TD*%
D14*
%TO.C,R1001*%
X98699000Y-85312000D03*
X98699000Y-87137000D03*
%TD*%
D13*
%TO.C,C102*%
X81910000Y-43434000D03*
X80010000Y-43434000D03*
%TD*%
%LPD*%
M02*
