%TF.GenerationSoftware,KiCad,Pcbnew,8.0.7*%
%TF.CreationDate,2025-01-01T13:52:48+01:00*%
%TF.ProjectId,expansion_a,65787061-6e73-4696-9f6e-5f612e6b6963,1*%
%TF.SameCoordinates,Original*%
%TF.FileFunction,Soldermask,Bot*%
%TF.FilePolarity,Negative*%
%FSLAX46Y46*%
G04 Gerber Fmt 4.6, Leading zero omitted, Abs format (unit mm)*
G04 Created by KiCad (PCBNEW 8.0.7) date 2025-01-01 13:52:48*
%MOMM*%
%LPD*%
G01*
G04 APERTURE LIST*
%ADD10R,1.700000X1.700000*%
%ADD11O,1.700000X1.700000*%
%ADD12C,3.200000*%
%ADD13R,2.600000X2.600000*%
%ADD14C,2.600000*%
G04 APERTURE END LIST*
D10*
%TO.C,JP701*%
X105639000Y-64737000D03*
D11*
X103099000Y-64737000D03*
X100559000Y-64737000D03*
%TD*%
D12*
%TO.C,REF1*%
X76073000Y-60975000D03*
%TD*%
D13*
%TO.C,J1101*%
X123037600Y-79502000D03*
D14*
X123037600Y-83002000D03*
X123037600Y-86502000D03*
%TD*%
D10*
%TO.C,JP401*%
X105639000Y-48237000D03*
D11*
X103099000Y-48237000D03*
X100559000Y-48237000D03*
%TD*%
D13*
%TO.C,J101*%
X123037600Y-49276000D03*
D14*
X123037600Y-52776000D03*
X123037600Y-56276000D03*
X123037600Y-59776000D03*
X123037600Y-63276000D03*
X123037600Y-66776000D03*
X123037600Y-70276000D03*
X123037600Y-73776000D03*
%TD*%
D13*
%TO.C,J202*%
X73914000Y-36886000D03*
D14*
X73914000Y-40386000D03*
X73914000Y-43886000D03*
X73914000Y-47386000D03*
X73914000Y-50886000D03*
X73914000Y-54386000D03*
%TD*%
D13*
%TO.C,J1102*%
X73787000Y-68214000D03*
D14*
X73787000Y-71714000D03*
X73787000Y-75214000D03*
X73787000Y-78714000D03*
X73787000Y-82214000D03*
X73787000Y-85714000D03*
%TD*%
D10*
%TO.C,JP601*%
X105639000Y-59237000D03*
D11*
X103099000Y-59237000D03*
X100559000Y-59237000D03*
%TD*%
D10*
%TO.C,JP501*%
X105639000Y-53737000D03*
D11*
X103099000Y-53737000D03*
X100559000Y-53737000D03*
%TD*%
D10*
%TO.C,JP1001*%
X105639000Y-81237000D03*
D11*
X103099000Y-81237000D03*
X100559000Y-81237000D03*
%TD*%
D10*
%TO.C,JP301*%
X105639000Y-42737000D03*
D11*
X103099000Y-42737000D03*
X100559000Y-42737000D03*
%TD*%
D10*
%TO.C,JP801*%
X105639000Y-70237000D03*
D11*
X103099000Y-70237000D03*
X100559000Y-70237000D03*
%TD*%
D12*
%TO.C,REF2*%
X113792000Y-37338000D03*
%TD*%
D10*
%TO.C,JP901*%
X105639000Y-75737000D03*
D11*
X103099000Y-75737000D03*
X100559000Y-75737000D03*
%TD*%
D12*
%TO.C,REF3*%
X114401600Y-86375000D03*
%TD*%
D13*
%TO.C,J201*%
X123037600Y-36627800D03*
D14*
X123037600Y-40127800D03*
X123037600Y-43627800D03*
%TD*%
M02*
