M48
; DRILL file {KiCad 8.0.7} date 2025-01-01T13:37:10+0100
; FORMAT={-:-/ absolute / inch / decimal}
; #@! TF.CreationDate,2025-01-01T13:37:10+01:00
; #@! TF.GenerationSoftware,Kicad,Pcbnew,8.0.7
; #@! TF.FileFunction,Plated,1,4,PTH
FMAT,2
INCH
; #@! TA.AperFunction,Plated,PTH,ViaDrill
T1C0.0118
; #@! TA.AperFunction,Plated,PTH,ViaDrill
T2C0.0197
; #@! TA.AperFunction,Plated,PTH,ComponentDrill
T3C0.0394
; #@! TA.AperFunction,Plated,PTH,ComponentDrill
T4C0.0512
%
G90
G05
T1
X3.0136Y-3.2872
X3.055Y-3.2306
X3.1249Y-3.395
X3.135Y-1.4806
X3.135Y-2.8606
X3.176Y-2.222
X3.22Y-3.0456
X3.2484Y-1.464
X3.325Y-3.1706
X3.3406Y-2.9406
X3.345Y-2.2006
X3.365Y-1.9206
X3.3894Y-2.1106
X3.3894Y-2.8506
X3.395Y-1.9506
X3.395Y-2.0006
X3.395Y-2.0406
X3.445Y-1.7606
X3.455Y-3.3806
X3.555Y-3.4206
X3.565Y-1.5906
X3.565Y-1.8306
X3.565Y-2.0606
X3.575Y-2.3106
X3.575Y-2.5306
X3.575Y-2.7806
X3.575Y-3.0106
X3.575Y-3.2506
X4.215Y-3.4206
X4.3725Y-2.2206
T2
X3.8307Y-1.6749
X3.875Y-2.3038
X3.8844Y-2.7652
X3.885Y-2.0676
X3.885Y-2.6306
X3.8953Y-1.8503
X3.9018Y-3.0853
X3.905Y-3.2706
T3
X3.959Y-1.6826
X3.959Y-1.8991
X3.959Y-2.1156
X3.959Y-2.3322
X3.959Y-2.5487
X3.959Y-2.7652
X3.959Y-2.9818
X3.959Y-3.1983
X4.059Y-1.6826
X4.059Y-1.8991
X4.059Y-2.1156
X4.059Y-2.3322
X4.059Y-2.5487
X4.059Y-2.7652
X4.059Y-2.9818
X4.059Y-3.1983
X4.159Y-1.6826
X4.159Y-1.8991
X4.159Y-2.1156
X4.159Y-2.3322
X4.159Y-2.5487
X4.159Y-2.7652
X4.159Y-2.9818
X4.159Y-3.1983
T4
X2.905Y-2.6856
X2.905Y-2.8234
X2.905Y-2.9612
X2.905Y-3.099
X2.905Y-3.2368
X2.905Y-3.3746
X2.91Y-1.4522
X2.91Y-1.59
X2.91Y-1.7278
X2.91Y-1.8656
X2.91Y-2.0034
X2.91Y-2.1412
X4.844Y-1.442
X4.844Y-1.5798
X4.844Y-1.7176
X4.844Y-1.94
X4.844Y-2.0778
X4.844Y-2.2156
X4.844Y-2.3534
X4.844Y-2.4912
X4.844Y-2.629
X4.844Y-2.7668
X4.844Y-2.9046
X4.844Y-3.13
X4.844Y-3.2678
X4.844Y-3.4056
M30
