%TF.GenerationSoftware,KiCad,Pcbnew,8.0.7*%
%TF.CreationDate,2025-01-02T12:28:24+01:00*%
%TF.ProjectId,expansion_a,65787061-6e73-4696-9f6e-5f612e6b6963,1*%
%TF.SameCoordinates,Original*%
%TF.FileFunction,Copper,L4,Bot*%
%TF.FilePolarity,Positive*%
%FSLAX46Y46*%
G04 Gerber Fmt 4.6, Leading zero omitted, Abs format (unit mm)*
G04 Created by KiCad (PCBNEW 8.0.7) date 2025-01-02 12:28:24*
%MOMM*%
%LPD*%
G01*
G04 APERTURE LIST*
%TA.AperFunction,ComponentPad*%
%ADD10R,1.700000X1.700000*%
%TD*%
%TA.AperFunction,ComponentPad*%
%ADD11O,1.700000X1.700000*%
%TD*%
%TA.AperFunction,ComponentPad*%
%ADD12R,2.600000X2.600000*%
%TD*%
%TA.AperFunction,ComponentPad*%
%ADD13C,2.600000*%
%TD*%
%TA.AperFunction,ViaPad*%
%ADD14C,0.600000*%
%TD*%
%TA.AperFunction,ViaPad*%
%ADD15C,1.600000*%
%TD*%
%TA.AperFunction,Conductor*%
%ADD16C,0.200000*%
%TD*%
%TA.AperFunction,Conductor*%
%ADD17C,1.000000*%
%TD*%
G04 APERTURE END LIST*
D10*
%TO.P,JP701,1,A*%
%TO.N,VSS*%
X105639000Y-64737000D03*
D11*
%TO.P,JP701,2,C*%
%TO.N,Net-(JP701-C)*%
X103099000Y-64737000D03*
%TO.P,JP701,3,B*%
%TO.N,Vdrive*%
X100559000Y-64737000D03*
%TD*%
D12*
%TO.P,J1101,1,Pin_1*%
%TO.N,Vdrive*%
X123037600Y-79502000D03*
D13*
%TO.P,J1101,2,Pin_2*%
%TO.N,GNDPWR*%
X123037600Y-83002000D03*
%TO.P,J1101,3,Pin_3*%
%TO.N,VSS*%
X123037600Y-86502000D03*
%TD*%
D10*
%TO.P,JP401,1,A*%
%TO.N,VSS*%
X105639000Y-48237000D03*
D11*
%TO.P,JP401,2,C*%
%TO.N,Net-(JP401-C)*%
X103099000Y-48237000D03*
%TO.P,JP401,3,B*%
%TO.N,Vdrive*%
X100559000Y-48237000D03*
%TD*%
D12*
%TO.P,J101,1,Pin_1*%
%TO.N,/out1*%
X123037600Y-49276000D03*
D13*
%TO.P,J101,2,Pin_2*%
%TO.N,/out2*%
X123037600Y-52776000D03*
%TO.P,J101,3,Pin_3*%
%TO.N,/out3*%
X123037600Y-56276000D03*
%TO.P,J101,4,Pin_4*%
%TO.N,/out4*%
X123037600Y-59776000D03*
%TO.P,J101,5,Pin_5*%
%TO.N,/out5*%
X123037600Y-63276000D03*
%TO.P,J101,6,Pin_6*%
%TO.N,/out6*%
X123037600Y-66776000D03*
%TO.P,J101,7,Pin_7*%
%TO.N,/out7*%
X123037600Y-70276000D03*
%TO.P,J101,8,Pin_8*%
%TO.N,/out8*%
X123037600Y-73776000D03*
%TD*%
D12*
%TO.P,J202,1,Pin_1*%
%TO.N,VCC*%
X73914000Y-36886000D03*
D13*
%TO.P,J202,2,Pin_2*%
%TO.N,GND*%
X73914000Y-40386000D03*
%TO.P,J202,3,Pin_3*%
%TO.N,/Connector in/MOSI*%
X73914000Y-43886000D03*
%TO.P,J202,4,Pin_4*%
%TO.N,/Connector in/MISO*%
X73914000Y-47386000D03*
%TO.P,J202,5,Pin_5*%
%TO.N,/Connector in/CLK*%
X73914000Y-50886000D03*
%TO.P,J202,6,Pin_6*%
%TO.N,/Connector in/CS*%
X73914000Y-54386000D03*
%TD*%
D12*
%TO.P,J1102,1,Pin_1*%
%TO.N,VCC*%
X73787000Y-68214000D03*
D13*
%TO.P,J1102,2,Pin_2*%
%TO.N,GND*%
X73787000Y-71714000D03*
%TO.P,J1102,3,Pin_3*%
%TO.N,/Connector out/MOSI*%
X73787000Y-75214000D03*
%TO.P,J1102,4,Pin_4*%
%TO.N,/Connector out/MISO*%
X73787000Y-78714000D03*
%TO.P,J1102,5,Pin_5*%
%TO.N,/Connector out/CLK*%
X73787000Y-82214000D03*
%TO.P,J1102,6,Pin_6*%
%TO.N,/Connector out/CS*%
X73787000Y-85714000D03*
%TD*%
D10*
%TO.P,JP601,1,A*%
%TO.N,VSS*%
X105639000Y-59237000D03*
D11*
%TO.P,JP601,2,C*%
%TO.N,Net-(JP601-C)*%
X103099000Y-59237000D03*
%TO.P,JP601,3,B*%
%TO.N,Vdrive*%
X100559000Y-59237000D03*
%TD*%
D10*
%TO.P,JP501,1,A*%
%TO.N,VSS*%
X105639000Y-53737000D03*
D11*
%TO.P,JP501,2,C*%
%TO.N,Net-(JP501-C)*%
X103099000Y-53737000D03*
%TO.P,JP501,3,B*%
%TO.N,Vdrive*%
X100559000Y-53737000D03*
%TD*%
D10*
%TO.P,JP1001,1,A*%
%TO.N,VSS*%
X105639000Y-81237000D03*
D11*
%TO.P,JP1001,2,C*%
%TO.N,Net-(JP1001-C)*%
X103099000Y-81237000D03*
%TO.P,JP1001,3,B*%
%TO.N,Vdrive*%
X100559000Y-81237000D03*
%TD*%
D10*
%TO.P,JP301,1,A*%
%TO.N,VSS*%
X105639000Y-42737000D03*
D11*
%TO.P,JP301,2,C*%
%TO.N,Net-(JP301-C)*%
X103099000Y-42737000D03*
%TO.P,JP301,3,B*%
%TO.N,Vdrive*%
X100559000Y-42737000D03*
%TD*%
D10*
%TO.P,JP801,1,A*%
%TO.N,VSS*%
X105639000Y-70237000D03*
D11*
%TO.P,JP801,2,C*%
%TO.N,Net-(JP801-C)*%
X103099000Y-70237000D03*
%TO.P,JP801,3,B*%
%TO.N,Vdrive*%
X100559000Y-70237000D03*
%TD*%
D10*
%TO.P,JP901,1,A*%
%TO.N,VSS*%
X105639000Y-75737000D03*
D11*
%TO.P,JP901,2,C*%
%TO.N,Net-(JP901-C)*%
X103099000Y-75737000D03*
%TO.P,JP901,3,B*%
%TO.N,Vdrive*%
X100559000Y-75737000D03*
%TD*%
D12*
%TO.P,J201,1,Pin_1*%
%TO.N,Vdrive*%
X123037600Y-36627800D03*
D13*
%TO.P,J201,2,Pin_2*%
%TO.N,GNDPWR*%
X123037600Y-40127800D03*
%TO.P,J201,3,Pin_3*%
%TO.N,VSS*%
X123037600Y-43627800D03*
%TD*%
D14*
%TO.N,GND*%
X80772000Y-41910000D03*
%TO.N,VCC*%
X87757000Y-85867000D03*
X83820000Y-70104000D03*
X84290141Y-43549500D03*
%TO.N,GND*%
X81788000Y-70104000D03*
X79373270Y-86233000D03*
X90805000Y-64277000D03*
X90551000Y-46497000D03*
X90805000Y-82565000D03*
X111061500Y-56403000D03*
X86091000Y-53609000D03*
X80670400Y-56438800D03*
X90805000Y-58689000D03*
X90551000Y-40401000D03*
X90805000Y-76469000D03*
X84455000Y-80533000D03*
X90551000Y-52339000D03*
X90805000Y-70627000D03*
X86233000Y-49545000D03*
D15*
%TO.N,/out4*%
X98425000Y-58517000D03*
D14*
%TO.N,/Connector in/MISO*%
X76545988Y-83494979D03*
%TO.N,/Connector out/CS*%
X86233000Y-50815000D03*
%TO.N,/Connector out/CLK*%
X84851000Y-74691000D03*
X86233000Y-51831000D03*
%TO.N,/Connector out/MOSI*%
X84963000Y-55895000D03*
%TO.N,/Connector out/MISO*%
X77597000Y-82057004D03*
D15*
%TO.N,/out1*%
X97299000Y-42541631D03*
%TO.N,/out7*%
X99104518Y-78366989D03*
%TO.N,/out3*%
X98679000Y-52517000D03*
%TO.N,/out6*%
X98663598Y-70237000D03*
%TO.N,/out2*%
X98941382Y-46996548D03*
%TO.N,/out5*%
X98679000Y-66817000D03*
%TO.N,/out8*%
X99187000Y-83073000D03*
D14*
%TO.N,/set1*%
X79629000Y-37607000D03*
X82510263Y-37186263D03*
%TO.N,/set5*%
X107061000Y-86883000D03*
X90297000Y-86883000D03*
%TO.N,Net-(U101-O1)*%
X81788656Y-77358656D03*
X85471000Y-48783000D03*
%TD*%
D16*
%TO.N,Net-(U101-O1)*%
X82438000Y-76709312D02*
X81788656Y-77358656D01*
X85217000Y-54117000D02*
X86233000Y-55133000D01*
X85471000Y-53355000D02*
X85217000Y-53609000D01*
X85471000Y-48783000D02*
X85471000Y-53355000D01*
X86233000Y-55133000D02*
X86233000Y-66547761D01*
X85217000Y-53609000D02*
X85217000Y-54117000D01*
X82438000Y-70342761D02*
X82438000Y-76709312D01*
X86233000Y-66547761D02*
X82438000Y-70342761D01*
D17*
%TO.N,/out4*%
X123037600Y-59776000D02*
X120818000Y-57556400D01*
X120818000Y-57556400D02*
X99385600Y-57556400D01*
X99385600Y-57556400D02*
X98425000Y-58517000D01*
D16*
%TO.N,/Connector in/MISO*%
X73599000Y-47037000D02*
X71247000Y-49389000D01*
X71247000Y-79191000D02*
X72370000Y-80314000D01*
X74838000Y-80314000D02*
X76545988Y-82021988D01*
X72370000Y-80314000D02*
X74838000Y-80314000D01*
X71247000Y-49389000D02*
X71247000Y-79191000D01*
X76545988Y-82021988D02*
X76545988Y-83494979D01*
%TO.N,/Connector out/CS*%
X87087000Y-52119314D02*
X87141000Y-52173314D01*
X87141000Y-52173314D02*
X87141000Y-74993250D01*
X86233000Y-50815000D02*
X87087000Y-51669000D01*
X87141000Y-74993250D02*
X75847250Y-86287000D01*
X87087000Y-51669000D02*
X87087000Y-52119314D01*
X75847250Y-86287000D02*
X73554000Y-86287000D01*
%TO.N,/Connector out/CLK*%
X86233000Y-51831000D02*
X86741000Y-52339000D01*
X86741000Y-72801000D02*
X84851000Y-74691000D01*
X86741000Y-52339000D02*
X86741000Y-72801000D01*
%TO.N,/Connector out/MOSI*%
X81315000Y-59543000D02*
X81315000Y-68026000D01*
X81315000Y-68026000D02*
X73554000Y-75787000D01*
X84963000Y-55895000D02*
X81315000Y-59543000D01*
%TO.N,/Connector out/MISO*%
X73554000Y-79287000D02*
X76859000Y-79287000D01*
X76859000Y-79287000D02*
X77597000Y-80025000D01*
X77597000Y-80025000D02*
X77597000Y-82057004D01*
D17*
%TO.N,/out1*%
X98946631Y-40894000D02*
X97299000Y-42541631D01*
X113856000Y-40894000D02*
X98946631Y-40894000D01*
X122199000Y-49237000D02*
X113856000Y-40894000D01*
%TO.N,/out7*%
X116026600Y-77287000D02*
X123037600Y-70276000D01*
X99104518Y-78366989D02*
X100184507Y-77287000D01*
X100184507Y-77287000D02*
X116026600Y-77287000D01*
%TO.N,/out3*%
X122199000Y-56237000D02*
X118149000Y-52187000D01*
X118149000Y-52187000D02*
X99009000Y-52187000D01*
%TO.N,/out6*%
X122199000Y-66737000D02*
X117149000Y-71787000D01*
X99916968Y-71787000D02*
X98663598Y-70533630D01*
X117149000Y-71787000D02*
X99916968Y-71787000D01*
%TO.N,/out2*%
X115959000Y-46497000D02*
X99440930Y-46497000D01*
X99440930Y-46497000D02*
X98941382Y-46996548D01*
X122199000Y-52737000D02*
X115959000Y-46497000D01*
%TO.N,/out5*%
X119496600Y-66817000D02*
X98679000Y-66817000D01*
X123037600Y-63276000D02*
X119496600Y-66817000D01*
%TO.N,/out8*%
X99009000Y-80594968D02*
X99916968Y-79687000D01*
X107442000Y-79705200D02*
X117108400Y-79705200D01*
X99009000Y-82895000D02*
X99009000Y-80594968D01*
X99916968Y-79687000D02*
X107423800Y-79687000D01*
X117108400Y-79705200D02*
X123037600Y-73776000D01*
D16*
%TO.N,/set1*%
X82089526Y-37607000D02*
X82510263Y-37186263D01*
X79629000Y-37607000D02*
X82089526Y-37607000D01*
%TO.N,/set5*%
X107061000Y-86883000D02*
X90297000Y-86883000D01*
%TD*%
%TA.AperFunction,Conductor*%
%TO.N,Net-(U101-O1)*%
G36*
X82147995Y-76869468D02*
G01*
X82277843Y-76999316D01*
X82281270Y-77007589D01*
X82280179Y-77012523D01*
X82070533Y-77463326D01*
X82063937Y-77469382D01*
X82055480Y-77469215D01*
X81792471Y-77361219D01*
X81786119Y-77354907D01*
X81786092Y-77354840D01*
X81678096Y-77091831D01*
X81678123Y-77082876D01*
X81683982Y-77076780D01*
X82134790Y-76867131D01*
X82143735Y-76866751D01*
X82147995Y-76869468D01*
G37*
%TD.AperFunction*%
%TD*%
%TA.AperFunction,Conductor*%
%TO.N,Net-(U101-O1)*%
G36*
X85737851Y-48893496D02*
G01*
X85744163Y-48899848D01*
X85744330Y-48908305D01*
X85573807Y-49375313D01*
X85567751Y-49381909D01*
X85562817Y-49383000D01*
X85379183Y-49383000D01*
X85370910Y-49379573D01*
X85368193Y-49375313D01*
X85197669Y-48908302D01*
X85198050Y-48899358D01*
X85204147Y-48893496D01*
X85466490Y-48783883D01*
X85475444Y-48783857D01*
X85737851Y-48893496D01*
G37*
%TD.AperFunction*%
%TD*%
%TA.AperFunction,Conductor*%
%TO.N,/out4*%
G36*
X121782832Y-57810318D02*
G01*
X123107866Y-58464311D01*
X123164261Y-58492146D01*
X123170163Y-58498881D01*
X123170720Y-58503849D01*
X123039285Y-59767302D01*
X123035021Y-59775176D01*
X123028905Y-59777723D01*
X121770168Y-59913785D01*
X121761575Y-59911267D01*
X121758426Y-59907346D01*
X121071935Y-58521241D01*
X121071335Y-58512306D01*
X121074145Y-58507777D01*
X121769385Y-57812537D01*
X121777657Y-57809111D01*
X121782832Y-57810318D01*
G37*
%TD.AperFunction*%
%TD*%
%TA.AperFunction,Conductor*%
%TO.N,/out4*%
G36*
X99625961Y-57069918D02*
G01*
X99627106Y-57074967D01*
X99627106Y-58053140D01*
X99625422Y-58059188D01*
X99169301Y-58814539D01*
X99162091Y-58819850D01*
X99154813Y-58819303D01*
X98428489Y-58518856D01*
X98422154Y-58512527D01*
X98422146Y-58512509D01*
X98123080Y-57788135D01*
X98123091Y-57779180D01*
X98128844Y-57773116D01*
X99610357Y-57064411D01*
X99619299Y-57063934D01*
X99625961Y-57069918D01*
G37*
%TD.AperFunction*%
%TD*%
%TA.AperFunction,Conductor*%
%TO.N,/Connector in/MISO*%
G36*
X73905618Y-47382387D02*
G01*
X73912454Y-47388170D01*
X73913688Y-47394780D01*
X73778252Y-48655884D01*
X73773961Y-48663744D01*
X73766715Y-48666335D01*
X72102256Y-48680025D01*
X72093955Y-48676666D01*
X71961747Y-48544458D01*
X71958320Y-48536185D01*
X71959433Y-48531205D01*
X72679152Y-47001011D01*
X72685774Y-46994983D01*
X72693300Y-46994847D01*
X73905618Y-47382387D01*
G37*
%TD.AperFunction*%
%TD*%
%TA.AperFunction,Conductor*%
%TO.N,/Connector in/MISO*%
G36*
X76646078Y-82898406D02*
G01*
X76648795Y-82902666D01*
X76819318Y-83369673D01*
X76818937Y-83378620D01*
X76812839Y-83384482D01*
X76550499Y-83494094D01*
X76541544Y-83494121D01*
X76541477Y-83494094D01*
X76279136Y-83384482D01*
X76272824Y-83378130D01*
X76272657Y-83369676D01*
X76443181Y-82902665D01*
X76449237Y-82896070D01*
X76454171Y-82894979D01*
X76637805Y-82894979D01*
X76646078Y-82898406D01*
G37*
%TD.AperFunction*%
%TD*%
%TA.AperFunction,Conductor*%
%TO.N,/Connector out/CS*%
G36*
X86508779Y-50704467D02*
G01*
X86514877Y-50710329D01*
X86724523Y-51161132D01*
X86724904Y-51170079D01*
X86722187Y-51174339D01*
X86592339Y-51304187D01*
X86584066Y-51307614D01*
X86579132Y-51306523D01*
X86285736Y-51170079D01*
X86128328Y-51096876D01*
X86122273Y-51090281D01*
X86122439Y-51081825D01*
X86230436Y-50818814D01*
X86236746Y-50812464D01*
X86499825Y-50704440D01*
X86508779Y-50704467D01*
G37*
%TD.AperFunction*%
%TD*%
%TA.AperFunction,Conductor*%
%TO.N,/Connector out/CS*%
G36*
X74821889Y-84942120D02*
G01*
X75838227Y-86154612D01*
X75966519Y-86282903D01*
X75969946Y-86291176D01*
X75966519Y-86299449D01*
X75962143Y-86302208D01*
X74347804Y-86872403D01*
X74338861Y-86871927D01*
X74333339Y-86866391D01*
X74065354Y-86302208D01*
X73790370Y-85723292D01*
X73789916Y-85714351D01*
X73793860Y-85708959D01*
X74805845Y-84940318D01*
X74814506Y-84938044D01*
X74821889Y-84942120D01*
G37*
%TD.AperFunction*%
%TD*%
%TA.AperFunction,Conductor*%
%TO.N,/Connector out/CLK*%
G36*
X86508779Y-51720467D02*
G01*
X86514877Y-51726329D01*
X86724523Y-52177132D01*
X86724904Y-52186079D01*
X86722187Y-52190339D01*
X86592339Y-52320187D01*
X86584066Y-52323614D01*
X86579132Y-52322523D01*
X86285736Y-52186079D01*
X86128328Y-52112876D01*
X86122273Y-52106281D01*
X86122439Y-52097825D01*
X86230436Y-51834814D01*
X86236746Y-51828464D01*
X86499825Y-51720440D01*
X86508779Y-51720467D01*
G37*
%TD.AperFunction*%
%TD*%
%TA.AperFunction,Conductor*%
%TO.N,/Connector out/CLK*%
G36*
X85210339Y-74201812D02*
G01*
X85340187Y-74331660D01*
X85343614Y-74339933D01*
X85342523Y-74344867D01*
X85132877Y-74795670D01*
X85126281Y-74801726D01*
X85117824Y-74801559D01*
X84854815Y-74693563D01*
X84848463Y-74687251D01*
X84848436Y-74687184D01*
X84740440Y-74424175D01*
X84740467Y-74415220D01*
X84746326Y-74409124D01*
X85197134Y-74199475D01*
X85206079Y-74199095D01*
X85210339Y-74201812D01*
G37*
%TD.AperFunction*%
%TD*%
%TA.AperFunction,Conductor*%
%TO.N,/Connector out/MOSI*%
G36*
X75487994Y-73717602D02*
G01*
X75489117Y-73718590D01*
X75621223Y-73850696D01*
X75624650Y-73858969D01*
X75623958Y-73862933D01*
X75042060Y-75478926D01*
X75036033Y-75485549D01*
X75028552Y-75486392D01*
X73795451Y-75216709D01*
X73788101Y-75211594D01*
X73786251Y-75205331D01*
X73780659Y-73944084D01*
X73784049Y-73935799D01*
X73790864Y-73932431D01*
X75479351Y-73715259D01*
X75487994Y-73717602D01*
G37*
%TD.AperFunction*%
%TD*%
%TA.AperFunction,Conductor*%
%TO.N,/Connector out/MOSI*%
G36*
X84696174Y-55784439D02*
G01*
X84859804Y-55851629D01*
X84959184Y-55892436D01*
X84965536Y-55898748D01*
X84965563Y-55898815D01*
X85073559Y-56161824D01*
X85073532Y-56170779D01*
X85067670Y-56176877D01*
X84616867Y-56386523D01*
X84607920Y-56386904D01*
X84603660Y-56384187D01*
X84473812Y-56254339D01*
X84470385Y-56246066D01*
X84471474Y-56241136D01*
X84681124Y-55790327D01*
X84687718Y-55784273D01*
X84696174Y-55784439D01*
G37*
%TD.AperFunction*%
%TD*%
%TA.AperFunction,Conductor*%
%TO.N,/Connector out/MISO*%
G36*
X74835308Y-77964853D02*
G01*
X75931482Y-79183663D01*
X75934483Y-79191487D01*
X75934483Y-79378355D01*
X75931056Y-79386628D01*
X75926220Y-79389539D01*
X74315730Y-79884532D01*
X74306816Y-79883687D01*
X74301595Y-79878086D01*
X73789830Y-78722647D01*
X73789613Y-78713695D01*
X73793651Y-78708442D01*
X74819734Y-77963209D01*
X74828441Y-77961121D01*
X74835308Y-77964853D01*
G37*
%TD.AperFunction*%
%TD*%
%TA.AperFunction,Conductor*%
%TO.N,/Connector out/MISO*%
G36*
X77697090Y-81460431D02*
G01*
X77699807Y-81464691D01*
X77870330Y-81931698D01*
X77869949Y-81940645D01*
X77863851Y-81946507D01*
X77601511Y-82056119D01*
X77592556Y-82056146D01*
X77592489Y-82056119D01*
X77330148Y-81946507D01*
X77323836Y-81940155D01*
X77323669Y-81931701D01*
X77494193Y-81464690D01*
X77500249Y-81458095D01*
X77505183Y-81457004D01*
X77688817Y-81457004D01*
X77697090Y-81460431D01*
G37*
%TD.AperFunction*%
%TD*%
%TA.AperFunction,Conductor*%
%TO.N,/out1*%
G36*
X98083683Y-41063574D02*
G01*
X98777056Y-41756947D01*
X98780483Y-41765220D01*
X98778439Y-41771827D01*
X97872635Y-43095696D01*
X97865135Y-43100589D01*
X97856372Y-43098745D01*
X97854716Y-43097372D01*
X97298293Y-42542338D01*
X97298273Y-42542318D01*
X96743258Y-41985914D01*
X96739841Y-41977636D01*
X96743278Y-41969368D01*
X96744925Y-41968001D01*
X98068803Y-41062190D01*
X98077566Y-41060347D01*
X98083683Y-41063574D01*
G37*
%TD.AperFunction*%
%TD*%
%TA.AperFunction,Conductor*%
%TO.N,/out1*%
G36*
X121390071Y-47716038D02*
G01*
X122808212Y-47974531D01*
X122815737Y-47979386D01*
X122817647Y-47984072D01*
X123036558Y-49266463D01*
X123034572Y-49275195D01*
X123028341Y-49279652D01*
X121744872Y-49658943D01*
X121735967Y-49658002D01*
X121732668Y-49655332D01*
X120683981Y-48430272D01*
X120681204Y-48421758D01*
X120684595Y-48414391D01*
X121379711Y-47719275D01*
X121387983Y-47715849D01*
X121390071Y-47716038D01*
G37*
%TD.AperFunction*%
%TD*%
%TA.AperFunction,Conductor*%
%TO.N,/out7*%
G36*
X123028906Y-70274276D02*
G01*
X123036762Y-70278572D01*
X123039285Y-70284697D01*
X123170721Y-71548150D01*
X123168169Y-71556734D01*
X123164262Y-71559853D01*
X121782835Y-72241680D01*
X121773900Y-72242268D01*
X121769384Y-72239461D01*
X121074147Y-71544224D01*
X121070720Y-71535951D01*
X121071934Y-71530761D01*
X121758427Y-70144651D01*
X121765169Y-70138760D01*
X121770165Y-70138213D01*
X123028906Y-70274276D01*
G37*
%TD.AperFunction*%
%TD*%
%TA.AperFunction,Conductor*%
%TO.N,/out7*%
G36*
X100255609Y-76801406D02*
G01*
X100257172Y-76807249D01*
X100257172Y-77784404D01*
X100256074Y-77789352D01*
X99848354Y-78662994D01*
X99841750Y-78669042D01*
X99833280Y-78668858D01*
X99108007Y-78368845D01*
X99101672Y-78362516D01*
X99101664Y-78362498D01*
X98864063Y-77787000D01*
X98802284Y-77637362D01*
X98802295Y-77628409D01*
X98807253Y-77622765D01*
X100239629Y-76797111D01*
X100248508Y-76795950D01*
X100255609Y-76801406D01*
G37*
%TD.AperFunction*%
%TD*%
%TA.AperFunction,Conductor*%
%TO.N,/out3*%
G36*
X121464882Y-54790822D02*
G01*
X122822194Y-54994482D01*
X122829866Y-54999098D01*
X122832006Y-55004180D01*
X123036754Y-56267133D01*
X123034695Y-56275848D01*
X123029186Y-56280007D01*
X121823273Y-56716383D01*
X121814328Y-56715976D01*
X121810467Y-56713063D01*
X120759116Y-55505289D01*
X120756269Y-55496799D01*
X120759667Y-55489335D01*
X121454883Y-54794119D01*
X121463155Y-54790693D01*
X121464882Y-54790822D01*
G37*
%TD.AperFunction*%
%TD*%
%TA.AperFunction,Conductor*%
%TO.N,/out3*%
G36*
X100198575Y-51690498D02*
G01*
X100202164Y-51698702D01*
X100202166Y-51698932D01*
X100202166Y-52679555D01*
X100198739Y-52687828D01*
X100195422Y-52690153D01*
X98996217Y-53250927D01*
X98987271Y-53251328D01*
X98980663Y-53245285D01*
X98980457Y-53244819D01*
X98678897Y-52519158D01*
X98678002Y-52514662D01*
X98678985Y-51728455D01*
X98682422Y-51720189D01*
X98690454Y-51716774D01*
X100190238Y-51687234D01*
X100198575Y-51690498D01*
G37*
%TD.AperFunction*%
%TD*%
%TA.AperFunction,Conductor*%
%TO.N,/out6*%
G36*
X121845531Y-66296238D02*
G01*
X123029364Y-66771701D01*
X123035763Y-66777964D01*
X123036494Y-66784758D01*
X122795869Y-68041337D01*
X122790948Y-68048818D01*
X122785638Y-68050769D01*
X121452933Y-68195140D01*
X121444339Y-68192624D01*
X121443400Y-68191781D01*
X120748184Y-67496565D01*
X120744757Y-67488292D01*
X120747837Y-67480380D01*
X121832554Y-66299181D01*
X121840673Y-66295407D01*
X121845531Y-66296238D01*
G37*
%TD.AperFunction*%
%TD*%
%TA.AperFunction,Conductor*%
%TO.N,/out6*%
G36*
X99401366Y-69935112D02*
G01*
X99407456Y-69940920D01*
X99509605Y-70157226D01*
X99510669Y-70163368D01*
X99503417Y-70236999D01*
X99523700Y-70442933D01*
X99523702Y-70442942D01*
X99583767Y-70640951D01*
X99583769Y-70640957D01*
X99681310Y-70823443D01*
X99681316Y-70823453D01*
X99812587Y-70983408D01*
X99812591Y-70983412D01*
X99952892Y-71098552D01*
X99956050Y-71102600D01*
X99967188Y-71126185D01*
X99967622Y-71135129D01*
X99964881Y-71139454D01*
X99271407Y-71832928D01*
X99263134Y-71836355D01*
X99255353Y-71833393D01*
X98300857Y-70983408D01*
X98107158Y-70810918D01*
X98103260Y-70802858D01*
X98106202Y-70794400D01*
X98106637Y-70793938D01*
X98661239Y-70237948D01*
X98665050Y-70235401D01*
X99392412Y-69935101D01*
X99401366Y-69935112D01*
G37*
%TD.AperFunction*%
%TD*%
%TA.AperFunction,Conductor*%
%TO.N,/out2*%
G36*
X100346591Y-46001122D02*
G01*
X100351144Y-46008833D01*
X100351259Y-46010473D01*
X100351259Y-46990753D01*
X100347832Y-46999026D01*
X100346068Y-47000475D01*
X99515045Y-47556890D01*
X99506264Y-47558645D01*
X99500270Y-47555448D01*
X98943822Y-46999982D01*
X98940388Y-46991712D01*
X98940388Y-46991687D01*
X98941369Y-46206695D01*
X98944806Y-46198427D01*
X98951426Y-46195126D01*
X100337919Y-45998888D01*
X100346591Y-46001122D01*
G37*
%TD.AperFunction*%
%TD*%
%TA.AperFunction,Conductor*%
%TO.N,/out2*%
G36*
X121464882Y-51290822D02*
G01*
X122822194Y-51494482D01*
X122829866Y-51499098D01*
X122832006Y-51504180D01*
X123036754Y-52767133D01*
X123034695Y-52775848D01*
X123029186Y-52780007D01*
X121823273Y-53216383D01*
X121814328Y-53215976D01*
X121810467Y-53213063D01*
X120759116Y-52005289D01*
X120756269Y-51996799D01*
X120759667Y-51989335D01*
X121454883Y-51294119D01*
X121463155Y-51290693D01*
X121464882Y-51290822D01*
G37*
%TD.AperFunction*%
%TD*%
%TA.AperFunction,Conductor*%
%TO.N,/out5*%
G36*
X98692831Y-66019593D02*
G01*
X100269457Y-66315210D01*
X100276956Y-66320103D01*
X100279000Y-66326710D01*
X100279000Y-67307289D01*
X100275573Y-67315562D01*
X100269456Y-67318789D01*
X98692838Y-67614405D01*
X98684075Y-67612561D01*
X98679182Y-67605061D01*
X98678982Y-67602920D01*
X98678000Y-66817030D01*
X98678000Y-66817000D01*
X98678982Y-66031079D01*
X98682419Y-66022811D01*
X98690697Y-66019394D01*
X98692831Y-66019593D01*
G37*
%TD.AperFunction*%
%TD*%
%TA.AperFunction,Conductor*%
%TO.N,/out5*%
G36*
X123028906Y-63274276D02*
G01*
X123036762Y-63278572D01*
X123039285Y-63284697D01*
X123170721Y-64548150D01*
X123168169Y-64556734D01*
X123164262Y-64559853D01*
X121782835Y-65241680D01*
X121773900Y-65242268D01*
X121769384Y-65239461D01*
X121074147Y-64544224D01*
X121070720Y-64535951D01*
X121071934Y-64530761D01*
X121758427Y-63144651D01*
X121765169Y-63138760D01*
X121770165Y-63138213D01*
X123028906Y-63274276D01*
G37*
%TD.AperFunction*%
%TD*%
%TA.AperFunction,Conductor*%
%TO.N,/out8*%
G36*
X99508825Y-81511833D02*
G01*
X99511658Y-81516425D01*
X99922685Y-82756538D01*
X99922035Y-82765469D01*
X99916069Y-82771023D01*
X99189163Y-83073101D01*
X99184658Y-83073997D01*
X98399632Y-83073015D01*
X98391364Y-83069578D01*
X98387947Y-83061300D01*
X98387982Y-83060405D01*
X98508159Y-81519196D01*
X98512219Y-81511215D01*
X98519824Y-81508406D01*
X99500552Y-81508406D01*
X99508825Y-81511833D01*
G37*
%TD.AperFunction*%
%TD*%
%TA.AperFunction,Conductor*%
%TO.N,/out8*%
G36*
X123028906Y-73774276D02*
G01*
X123036762Y-73778572D01*
X123039285Y-73784697D01*
X123170721Y-75048150D01*
X123168169Y-75056734D01*
X123164262Y-75059853D01*
X121782835Y-75741680D01*
X121773900Y-75742268D01*
X121769384Y-75739461D01*
X121074147Y-75044224D01*
X121070720Y-75035951D01*
X121071934Y-75030761D01*
X121758427Y-73644651D01*
X121765169Y-73638760D01*
X121770165Y-73638213D01*
X123028906Y-73774276D01*
G37*
%TD.AperFunction*%
%TD*%
%TA.AperFunction,Conductor*%
%TO.N,/set1*%
G36*
X82244588Y-37076200D02*
G01*
X82506757Y-37184403D01*
X82513096Y-37190726D01*
X82513115Y-37190773D01*
X82620771Y-37452963D01*
X82620744Y-37461918D01*
X82614755Y-37468074D01*
X82101045Y-37699561D01*
X82092094Y-37699836D01*
X82085571Y-37693701D01*
X82084538Y-37688894D01*
X82084538Y-37508941D01*
X82085164Y-37505164D01*
X82097815Y-37468074D01*
X82229077Y-37083247D01*
X82234992Y-37076524D01*
X82243928Y-37075951D01*
X82244588Y-37076200D01*
G37*
%TD.AperFunction*%
%TD*%
%TA.AperFunction,Conductor*%
%TO.N,/set1*%
G36*
X80221313Y-37504193D02*
G01*
X80227909Y-37510249D01*
X80229000Y-37515183D01*
X80229000Y-37698816D01*
X80225573Y-37707089D01*
X80221313Y-37709806D01*
X79754305Y-37880330D01*
X79745358Y-37879949D01*
X79739496Y-37873851D01*
X79629883Y-37611509D01*
X79629857Y-37602556D01*
X79629862Y-37602542D01*
X79739496Y-37340147D01*
X79745848Y-37333836D01*
X79754302Y-37333669D01*
X80221313Y-37504193D01*
G37*
%TD.AperFunction*%
%TD*%
%TA.AperFunction,Conductor*%
%TO.N,/set5*%
G36*
X90889313Y-86780193D02*
G01*
X90895909Y-86786249D01*
X90897000Y-86791183D01*
X90897000Y-86974816D01*
X90893573Y-86983089D01*
X90889313Y-86985806D01*
X90422305Y-87156330D01*
X90413358Y-87155949D01*
X90407496Y-87149851D01*
X90297883Y-86887509D01*
X90297857Y-86878556D01*
X90297862Y-86878542D01*
X90407496Y-86616147D01*
X90413848Y-86609836D01*
X90422302Y-86609669D01*
X90889313Y-86780193D01*
G37*
%TD.AperFunction*%
%TD*%
%TA.AperFunction,Conductor*%
%TO.N,/set5*%
G36*
X106944641Y-86610050D02*
G01*
X106950503Y-86616148D01*
X107060115Y-86878489D01*
X107060142Y-86887444D01*
X107060115Y-86887511D01*
X106950503Y-87149851D01*
X106944151Y-87156163D01*
X106935694Y-87156329D01*
X106801947Y-87107493D01*
X106468687Y-86985806D01*
X106462091Y-86979750D01*
X106461000Y-86974816D01*
X106461000Y-86791183D01*
X106464427Y-86782910D01*
X106468687Y-86780193D01*
X106935697Y-86609669D01*
X106944641Y-86610050D01*
G37*
%TD.AperFunction*%
%TD*%
M02*
