%TF.GenerationSoftware,KiCad,Pcbnew,8.0.7*%
%TF.CreationDate,2025-01-02T12:28:24+01:00*%
%TF.ProjectId,expansion_a,65787061-6e73-4696-9f6e-5f612e6b6963,1*%
%TF.SameCoordinates,Original*%
%TF.FileFunction,Copper,L2,Inr*%
%TF.FilePolarity,Positive*%
%FSLAX46Y46*%
G04 Gerber Fmt 4.6, Leading zero omitted, Abs format (unit mm)*
G04 Created by KiCad (PCBNEW 8.0.7) date 2025-01-02 12:28:24*
%MOMM*%
%LPD*%
G01*
G04 APERTURE LIST*
%TA.AperFunction,ComponentPad*%
%ADD10R,1.700000X1.700000*%
%TD*%
%TA.AperFunction,ComponentPad*%
%ADD11O,1.700000X1.700000*%
%TD*%
%TA.AperFunction,ComponentPad*%
%ADD12R,2.600000X2.600000*%
%TD*%
%TA.AperFunction,ComponentPad*%
%ADD13C,2.600000*%
%TD*%
%TA.AperFunction,ViaPad*%
%ADD14C,0.600000*%
%TD*%
%TA.AperFunction,ViaPad*%
%ADD15C,1.600000*%
%TD*%
%TA.AperFunction,Conductor*%
%ADD16C,0.500000*%
%TD*%
G04 APERTURE END LIST*
D10*
%TO.N,VSS*%
%TO.C,JP701*%
X105639000Y-64737000D03*
D11*
%TO.N,Net-(JP701-C)*%
X103099000Y-64737000D03*
%TO.N,Vdrive*%
X100559000Y-64737000D03*
%TD*%
D12*
%TO.N,Vdrive*%
%TO.C,J1101*%
X123037600Y-79502000D03*
D13*
%TO.N,GNDPWR*%
X123037600Y-83002000D03*
%TO.N,VSS*%
X123037600Y-86502000D03*
%TD*%
D10*
%TO.N,VSS*%
%TO.C,JP401*%
X105639000Y-48237000D03*
D11*
%TO.N,Net-(JP401-C)*%
X103099000Y-48237000D03*
%TO.N,Vdrive*%
X100559000Y-48237000D03*
%TD*%
D12*
%TO.N,/out1*%
%TO.C,J101*%
X123037600Y-49276000D03*
D13*
%TO.N,/out2*%
X123037600Y-52776000D03*
%TO.N,/out3*%
X123037600Y-56276000D03*
%TO.N,/out4*%
X123037600Y-59776000D03*
%TO.N,/out5*%
X123037600Y-63276000D03*
%TO.N,/out6*%
X123037600Y-66776000D03*
%TO.N,/out7*%
X123037600Y-70276000D03*
%TO.N,/out8*%
X123037600Y-73776000D03*
%TD*%
D12*
%TO.N,VCC*%
%TO.C,J202*%
X73914000Y-36886000D03*
D13*
%TO.N,GND*%
X73914000Y-40386000D03*
%TO.N,/Connector in/MOSI*%
X73914000Y-43886000D03*
%TO.N,/Connector in/MISO*%
X73914000Y-47386000D03*
%TO.N,/Connector in/CLK*%
X73914000Y-50886000D03*
%TO.N,/Connector in/CS*%
X73914000Y-54386000D03*
%TD*%
D12*
%TO.N,VCC*%
%TO.C,J1102*%
X73787000Y-68214000D03*
D13*
%TO.N,GND*%
X73787000Y-71714000D03*
%TO.N,/Connector out/MOSI*%
X73787000Y-75214000D03*
%TO.N,/Connector out/MISO*%
X73787000Y-78714000D03*
%TO.N,/Connector out/CLK*%
X73787000Y-82214000D03*
%TO.N,/Connector out/CS*%
X73787000Y-85714000D03*
%TD*%
D10*
%TO.N,VSS*%
%TO.C,JP601*%
X105639000Y-59237000D03*
D11*
%TO.N,Net-(JP601-C)*%
X103099000Y-59237000D03*
%TO.N,Vdrive*%
X100559000Y-59237000D03*
%TD*%
D10*
%TO.N,VSS*%
%TO.C,JP501*%
X105639000Y-53737000D03*
D11*
%TO.N,Net-(JP501-C)*%
X103099000Y-53737000D03*
%TO.N,Vdrive*%
X100559000Y-53737000D03*
%TD*%
D10*
%TO.N,VSS*%
%TO.C,JP1001*%
X105639000Y-81237000D03*
D11*
%TO.N,Net-(JP1001-C)*%
X103099000Y-81237000D03*
%TO.N,Vdrive*%
X100559000Y-81237000D03*
%TD*%
D10*
%TO.N,VSS*%
%TO.C,JP301*%
X105639000Y-42737000D03*
D11*
%TO.N,Net-(JP301-C)*%
X103099000Y-42737000D03*
%TO.N,Vdrive*%
X100559000Y-42737000D03*
%TD*%
D10*
%TO.N,VSS*%
%TO.C,JP801*%
X105639000Y-70237000D03*
D11*
%TO.N,Net-(JP801-C)*%
X103099000Y-70237000D03*
%TO.N,Vdrive*%
X100559000Y-70237000D03*
%TD*%
D10*
%TO.N,VSS*%
%TO.C,JP901*%
X105639000Y-75737000D03*
D11*
%TO.N,Net-(JP901-C)*%
X103099000Y-75737000D03*
%TO.N,Vdrive*%
X100559000Y-75737000D03*
%TD*%
D12*
%TO.N,Vdrive*%
%TO.C,J201*%
X123037600Y-36627800D03*
D13*
%TO.N,GNDPWR*%
X123037600Y-40127800D03*
%TO.N,VSS*%
X123037600Y-43627800D03*
%TD*%
D14*
%TO.N,GND*%
X80772000Y-41910000D03*
%TO.N,VCC*%
X87757000Y-85867000D03*
X83820000Y-70104000D03*
X84290141Y-43549500D03*
%TO.N,GND*%
X81788000Y-70104000D03*
X79373270Y-86233000D03*
X90805000Y-64277000D03*
X90551000Y-46497000D03*
X90805000Y-82565000D03*
X111061500Y-56403000D03*
X86091000Y-53609000D03*
X80670400Y-56438800D03*
X90805000Y-58689000D03*
X90551000Y-40401000D03*
X90805000Y-76469000D03*
X84455000Y-80533000D03*
X90551000Y-52339000D03*
X90805000Y-70627000D03*
X86233000Y-49545000D03*
D15*
%TO.N,/out4*%
X98425000Y-58517000D03*
D14*
%TO.N,/Connector in/MISO*%
X76545988Y-83494979D03*
%TO.N,/Connector out/CS*%
X86233000Y-50815000D03*
%TO.N,/Connector out/CLK*%
X84851000Y-74691000D03*
X86233000Y-51831000D03*
%TO.N,/Connector out/MOSI*%
X84963000Y-55895000D03*
%TO.N,/Connector out/MISO*%
X77597000Y-82057004D03*
D15*
%TO.N,/out1*%
X97299000Y-42541631D03*
%TO.N,/out7*%
X99104518Y-78366989D03*
%TO.N,/out3*%
X98679000Y-52517000D03*
%TO.N,/out6*%
X98663598Y-70237000D03*
%TO.N,/out2*%
X98941382Y-46996548D03*
%TO.N,/out5*%
X98679000Y-66817000D03*
%TO.N,/out8*%
X99187000Y-83073000D03*
D14*
%TO.N,/set1*%
X79629000Y-37607000D03*
X82510263Y-37186263D03*
%TO.N,/set5*%
X107061000Y-86883000D03*
X90297000Y-86883000D03*
%TO.N,Net-(U101-O1)*%
X81788656Y-77358656D03*
X85471000Y-48783000D03*
%TD*%
D16*
%TO.N,GND*%
X111061500Y-56339500D02*
X109855000Y-55133000D01*
X111061500Y-56403000D02*
X111061500Y-56339500D01*
X109855000Y-55133000D02*
X90551000Y-55133000D01*
%TD*%
%TA.AperFunction,Conductor*%
%TO.N,GND*%
G36*
X91510039Y-34511185D02*
G01*
X91555794Y-34563989D01*
X91567000Y-34615500D01*
X91567000Y-88604500D01*
X91547315Y-88671539D01*
X91494511Y-88717294D01*
X91443000Y-88728500D01*
X69231500Y-88728500D01*
X69164461Y-88708815D01*
X69118706Y-88656011D01*
X69107500Y-88604500D01*
X69107500Y-75213995D01*
X71981451Y-75213995D01*
X71981451Y-75214004D01*
X72001616Y-75483101D01*
X72061664Y-75746188D01*
X72061666Y-75746195D01*
X72160257Y-75997398D01*
X72295185Y-76231102D01*
X72431080Y-76401509D01*
X72463442Y-76442089D01*
X72583075Y-76553091D01*
X72661259Y-76625635D01*
X72884226Y-76777651D01*
X72884229Y-76777652D01*
X72884230Y-76777653D01*
X73039194Y-76852280D01*
X73091053Y-76899103D01*
X73109366Y-76966530D01*
X73088318Y-77033154D01*
X73039194Y-77075720D01*
X72884230Y-77150346D01*
X72661258Y-77302365D01*
X72463442Y-77485910D01*
X72295185Y-77696898D01*
X72160258Y-77930599D01*
X72160256Y-77930603D01*
X72061666Y-78181804D01*
X72061664Y-78181811D01*
X72001616Y-78444898D01*
X71981451Y-78713995D01*
X71981451Y-78714004D01*
X72001616Y-78983101D01*
X72061664Y-79246188D01*
X72061666Y-79246195D01*
X72160257Y-79497398D01*
X72295185Y-79731102D01*
X72431080Y-79901509D01*
X72463442Y-79942089D01*
X72650183Y-80115358D01*
X72661259Y-80125635D01*
X72884226Y-80277651D01*
X72884229Y-80277652D01*
X72884230Y-80277653D01*
X73039194Y-80352280D01*
X73091053Y-80399103D01*
X73109366Y-80466530D01*
X73088318Y-80533154D01*
X73039194Y-80575720D01*
X72884230Y-80650346D01*
X72661258Y-80802365D01*
X72463442Y-80985910D01*
X72295185Y-81196898D01*
X72160258Y-81430599D01*
X72160256Y-81430603D01*
X72061666Y-81681804D01*
X72061664Y-81681811D01*
X72001616Y-81944898D01*
X71981451Y-82213995D01*
X71981451Y-82214004D01*
X72001616Y-82483101D01*
X72061664Y-82746188D01*
X72061666Y-82746195D01*
X72157956Y-82991537D01*
X72160257Y-82997398D01*
X72295185Y-83231102D01*
X72362669Y-83315724D01*
X72463442Y-83442089D01*
X72520448Y-83494982D01*
X72661259Y-83625635D01*
X72884226Y-83777651D01*
X72884229Y-83777652D01*
X72884230Y-83777653D01*
X73039194Y-83852280D01*
X73091053Y-83899103D01*
X73109366Y-83966530D01*
X73088318Y-84033154D01*
X73039194Y-84075720D01*
X72884230Y-84150346D01*
X72661258Y-84302365D01*
X72463442Y-84485910D01*
X72295185Y-84696898D01*
X72160258Y-84930599D01*
X72160256Y-84930603D01*
X72061666Y-85181804D01*
X72061664Y-85181811D01*
X72001616Y-85444898D01*
X71981451Y-85713995D01*
X71981451Y-85714004D01*
X72001616Y-85983101D01*
X72061664Y-86246188D01*
X72061666Y-86246195D01*
X72160028Y-86496816D01*
X72160257Y-86497398D01*
X72295185Y-86731102D01*
X72431080Y-86901509D01*
X72463442Y-86942089D01*
X72650183Y-87115358D01*
X72661259Y-87125635D01*
X72884226Y-87277651D01*
X73127359Y-87394738D01*
X73385228Y-87474280D01*
X73385229Y-87474280D01*
X73385232Y-87474281D01*
X73652063Y-87514499D01*
X73652068Y-87514499D01*
X73652071Y-87514500D01*
X73652072Y-87514500D01*
X73921928Y-87514500D01*
X73921929Y-87514500D01*
X73933102Y-87512816D01*
X74188767Y-87474281D01*
X74188768Y-87474280D01*
X74188772Y-87474280D01*
X74446641Y-87394738D01*
X74689775Y-87277651D01*
X74912741Y-87125635D01*
X75110561Y-86942085D01*
X75157683Y-86882996D01*
X89491435Y-86882996D01*
X89491435Y-86883003D01*
X89511630Y-87062249D01*
X89511631Y-87062254D01*
X89571211Y-87232523D01*
X89599569Y-87277654D01*
X89667184Y-87385262D01*
X89794738Y-87512816D01*
X89947478Y-87608789D01*
X90117745Y-87668368D01*
X90117750Y-87668369D01*
X90296996Y-87688565D01*
X90297000Y-87688565D01*
X90297004Y-87688565D01*
X90476249Y-87668369D01*
X90476252Y-87668368D01*
X90476255Y-87668368D01*
X90646522Y-87608789D01*
X90799262Y-87512816D01*
X90926816Y-87385262D01*
X91022789Y-87232522D01*
X91082368Y-87062255D01*
X91082369Y-87062249D01*
X91102565Y-86883003D01*
X91102565Y-86882996D01*
X91082369Y-86703750D01*
X91082368Y-86703745D01*
X91022788Y-86533476D01*
X90926815Y-86380737D01*
X90799262Y-86253184D01*
X90646523Y-86157211D01*
X90476254Y-86097631D01*
X90476249Y-86097630D01*
X90297004Y-86077435D01*
X90296996Y-86077435D01*
X90117750Y-86097630D01*
X90117745Y-86097631D01*
X89947476Y-86157211D01*
X89794737Y-86253184D01*
X89667184Y-86380737D01*
X89571211Y-86533476D01*
X89511631Y-86703745D01*
X89511630Y-86703750D01*
X89491435Y-86882996D01*
X75157683Y-86882996D01*
X75278815Y-86731102D01*
X75413743Y-86497398D01*
X75512334Y-86246195D01*
X75572383Y-85983103D01*
X75581084Y-85866996D01*
X86951435Y-85866996D01*
X86951435Y-85867003D01*
X86971630Y-86046249D01*
X86971631Y-86046254D01*
X87031211Y-86216523D01*
X87054247Y-86253184D01*
X87127184Y-86369262D01*
X87254738Y-86496816D01*
X87407478Y-86592789D01*
X87577745Y-86652368D01*
X87577750Y-86652369D01*
X87756996Y-86672565D01*
X87757000Y-86672565D01*
X87757004Y-86672565D01*
X87936249Y-86652369D01*
X87936252Y-86652368D01*
X87936255Y-86652368D01*
X88106522Y-86592789D01*
X88259262Y-86496816D01*
X88386816Y-86369262D01*
X88482789Y-86216522D01*
X88542368Y-86046255D01*
X88542369Y-86046249D01*
X88562565Y-85867003D01*
X88562565Y-85866996D01*
X88542369Y-85687750D01*
X88542368Y-85687745D01*
X88482788Y-85517476D01*
X88386815Y-85364737D01*
X88259262Y-85237184D01*
X88106523Y-85141211D01*
X87936254Y-85081631D01*
X87936249Y-85081630D01*
X87757004Y-85061435D01*
X87756996Y-85061435D01*
X87577750Y-85081630D01*
X87577745Y-85081631D01*
X87407476Y-85141211D01*
X87254737Y-85237184D01*
X87127184Y-85364737D01*
X87031211Y-85517476D01*
X86971631Y-85687745D01*
X86971630Y-85687750D01*
X86951435Y-85866996D01*
X75581084Y-85866996D01*
X75592549Y-85714000D01*
X75572383Y-85444897D01*
X75512334Y-85181805D01*
X75413743Y-84930602D01*
X75278815Y-84696898D01*
X75110561Y-84485915D01*
X75110560Y-84485914D01*
X75110557Y-84485910D01*
X74912741Y-84302365D01*
X74880448Y-84280348D01*
X74689775Y-84150349D01*
X74689769Y-84150346D01*
X74689768Y-84150345D01*
X74689767Y-84150344D01*
X74534806Y-84075720D01*
X74482946Y-84028898D01*
X74464633Y-83961471D01*
X74485681Y-83894847D01*
X74534806Y-83852280D01*
X74689767Y-83777655D01*
X74689767Y-83777654D01*
X74689775Y-83777651D01*
X74912741Y-83625635D01*
X75053559Y-83494975D01*
X75740423Y-83494975D01*
X75740423Y-83494982D01*
X75760618Y-83674228D01*
X75760619Y-83674233D01*
X75820199Y-83844502D01*
X75893696Y-83961471D01*
X75916172Y-83997241D01*
X76043726Y-84124795D01*
X76196466Y-84220768D01*
X76366733Y-84280347D01*
X76366738Y-84280348D01*
X76545984Y-84300544D01*
X76545988Y-84300544D01*
X76545992Y-84300544D01*
X76725237Y-84280348D01*
X76725240Y-84280347D01*
X76725243Y-84280347D01*
X76895510Y-84220768D01*
X77048250Y-84124795D01*
X77175804Y-83997241D01*
X77271777Y-83844501D01*
X77331356Y-83674234D01*
X77351553Y-83494979D01*
X77345593Y-83442085D01*
X77331357Y-83315729D01*
X77331356Y-83315724D01*
X77301745Y-83231101D01*
X77271777Y-83145457D01*
X77175804Y-82992717D01*
X77175802Y-82992715D01*
X77175062Y-82991537D01*
X77156062Y-82924301D01*
X77176429Y-82857465D01*
X77229697Y-82812251D01*
X77298954Y-82803013D01*
X77321011Y-82808524D01*
X77417737Y-82842370D01*
X77417743Y-82842371D01*
X77417745Y-82842372D01*
X77417746Y-82842372D01*
X77417750Y-82842373D01*
X77596996Y-82862569D01*
X77597000Y-82862569D01*
X77597004Y-82862569D01*
X77776249Y-82842373D01*
X77776252Y-82842372D01*
X77776255Y-82842372D01*
X77946522Y-82782793D01*
X78099262Y-82686820D01*
X78226816Y-82559266D01*
X78322789Y-82406526D01*
X78382368Y-82236259D01*
X78402565Y-82057004D01*
X78382368Y-81877749D01*
X78322789Y-81707482D01*
X78306654Y-81681804D01*
X78226815Y-81554741D01*
X78099262Y-81427188D01*
X77946523Y-81331215D01*
X77776254Y-81271635D01*
X77776249Y-81271634D01*
X77597004Y-81251439D01*
X77596996Y-81251439D01*
X77417750Y-81271634D01*
X77417745Y-81271635D01*
X77247476Y-81331215D01*
X77094737Y-81427188D01*
X76967184Y-81554741D01*
X76871211Y-81707480D01*
X76811631Y-81877749D01*
X76811630Y-81877754D01*
X76791435Y-82057000D01*
X76791435Y-82057007D01*
X76811630Y-82236253D01*
X76811631Y-82236258D01*
X76871211Y-82406527D01*
X76967925Y-82560445D01*
X76986925Y-82627681D01*
X76966557Y-82694517D01*
X76913290Y-82739731D01*
X76844033Y-82748969D01*
X76821977Y-82743459D01*
X76725245Y-82709611D01*
X76725237Y-82709609D01*
X76545992Y-82689414D01*
X76545984Y-82689414D01*
X76366738Y-82709609D01*
X76366733Y-82709610D01*
X76196464Y-82769190D01*
X76043725Y-82865163D01*
X75916172Y-82992716D01*
X75820199Y-83145455D01*
X75760619Y-83315724D01*
X75760618Y-83315729D01*
X75740423Y-83494975D01*
X75053559Y-83494975D01*
X75110561Y-83442085D01*
X75278815Y-83231102D01*
X75413743Y-82997398D01*
X75512334Y-82746195D01*
X75572383Y-82483103D01*
X75590881Y-82236258D01*
X75592549Y-82214004D01*
X75592549Y-82213995D01*
X75572383Y-81944898D01*
X75557057Y-81877749D01*
X75512334Y-81681805D01*
X75413743Y-81430602D01*
X75278815Y-81196898D01*
X75110561Y-80985915D01*
X75110560Y-80985914D01*
X75110557Y-80985910D01*
X74912741Y-80802365D01*
X74689775Y-80650349D01*
X74689769Y-80650346D01*
X74689768Y-80650345D01*
X74689767Y-80650344D01*
X74534806Y-80575720D01*
X74482946Y-80528898D01*
X74464633Y-80461471D01*
X74485681Y-80394847D01*
X74534806Y-80352280D01*
X74689767Y-80277655D01*
X74689767Y-80277654D01*
X74689775Y-80277651D01*
X74912741Y-80125635D01*
X75110561Y-79942085D01*
X75278815Y-79731102D01*
X75413743Y-79497398D01*
X75512334Y-79246195D01*
X75572383Y-78983103D01*
X75592549Y-78714000D01*
X75572383Y-78444897D01*
X75512334Y-78181805D01*
X75413743Y-77930602D01*
X75278815Y-77696898D01*
X75110561Y-77485915D01*
X75110560Y-77485914D01*
X75110557Y-77485910D01*
X74973404Y-77358652D01*
X80983091Y-77358652D01*
X80983091Y-77358659D01*
X81003286Y-77537905D01*
X81003287Y-77537910D01*
X81062867Y-77708179D01*
X81158840Y-77860918D01*
X81286394Y-77988472D01*
X81439134Y-78084445D01*
X81609401Y-78144024D01*
X81609406Y-78144025D01*
X81788652Y-78164221D01*
X81788656Y-78164221D01*
X81788660Y-78164221D01*
X81967905Y-78144025D01*
X81967908Y-78144024D01*
X81967911Y-78144024D01*
X82138178Y-78084445D01*
X82290918Y-77988472D01*
X82418472Y-77860918D01*
X82514445Y-77708178D01*
X82574024Y-77537911D01*
X82574025Y-77537905D01*
X82594221Y-77358659D01*
X82594221Y-77358652D01*
X82574025Y-77179406D01*
X82574024Y-77179401D01*
X82563857Y-77150345D01*
X82514445Y-77009134D01*
X82418472Y-76856394D01*
X82290918Y-76728840D01*
X82138179Y-76632867D01*
X81967910Y-76573287D01*
X81967905Y-76573286D01*
X81788660Y-76553091D01*
X81788652Y-76553091D01*
X81609406Y-76573286D01*
X81609401Y-76573287D01*
X81439132Y-76632867D01*
X81286393Y-76728840D01*
X81158840Y-76856393D01*
X81062867Y-77009132D01*
X81003287Y-77179401D01*
X81003286Y-77179406D01*
X80983091Y-77358652D01*
X74973404Y-77358652D01*
X74912741Y-77302365D01*
X74689775Y-77150349D01*
X74689769Y-77150346D01*
X74689768Y-77150345D01*
X74689767Y-77150344D01*
X74534806Y-77075720D01*
X74482946Y-77028898D01*
X74464633Y-76961471D01*
X74485681Y-76894847D01*
X74534806Y-76852280D01*
X74689767Y-76777655D01*
X74689767Y-76777654D01*
X74689775Y-76777651D01*
X74912741Y-76625635D01*
X75110561Y-76442085D01*
X75278815Y-76231102D01*
X75413743Y-75997398D01*
X75512334Y-75746195D01*
X75572383Y-75483103D01*
X75579105Y-75393402D01*
X75592549Y-75214004D01*
X75592549Y-75213995D01*
X75572383Y-74944898D01*
X75514433Y-74691003D01*
X75514431Y-74690996D01*
X84045435Y-74690996D01*
X84045435Y-74691003D01*
X84065630Y-74870249D01*
X84065631Y-74870254D01*
X84125211Y-75040523D01*
X84221184Y-75193262D01*
X84348738Y-75320816D01*
X84501478Y-75416789D01*
X84671745Y-75476368D01*
X84671750Y-75476369D01*
X84850996Y-75496565D01*
X84851000Y-75496565D01*
X84851004Y-75496565D01*
X85030249Y-75476369D01*
X85030252Y-75476368D01*
X85030255Y-75476368D01*
X85200522Y-75416789D01*
X85353262Y-75320816D01*
X85480816Y-75193262D01*
X85576789Y-75040522D01*
X85636368Y-74870255D01*
X85656565Y-74691000D01*
X85636368Y-74511745D01*
X85576789Y-74341478D01*
X85480816Y-74188738D01*
X85353262Y-74061184D01*
X85200523Y-73965211D01*
X85030254Y-73905631D01*
X85030249Y-73905630D01*
X84851004Y-73885435D01*
X84850996Y-73885435D01*
X84671750Y-73905630D01*
X84671745Y-73905631D01*
X84501476Y-73965211D01*
X84348737Y-74061184D01*
X84221184Y-74188737D01*
X84125211Y-74341476D01*
X84065631Y-74511745D01*
X84065630Y-74511750D01*
X84045435Y-74690996D01*
X75514431Y-74690996D01*
X75512334Y-74681805D01*
X75413743Y-74430602D01*
X75278815Y-74196898D01*
X75110561Y-73985915D01*
X75110560Y-73985914D01*
X75110557Y-73985910D01*
X74912741Y-73802365D01*
X74689775Y-73650349D01*
X74689772Y-73650348D01*
X74689770Y-73650346D01*
X74534229Y-73575442D01*
X74482370Y-73528620D01*
X74464057Y-73461193D01*
X74485105Y-73394569D01*
X74534230Y-73352002D01*
X74689516Y-73277221D01*
X74689517Y-73277220D01*
X74872150Y-73152703D01*
X74034487Y-72315041D01*
X74094890Y-72290022D01*
X74201351Y-72218888D01*
X74291888Y-72128351D01*
X74363022Y-72021890D01*
X74388041Y-71961487D01*
X75224703Y-72798150D01*
X75224704Y-72798149D01*
X75278400Y-72730818D01*
X75413290Y-72497181D01*
X75511851Y-72246052D01*
X75511857Y-72246033D01*
X75571886Y-71983028D01*
X75571886Y-71983026D01*
X75592047Y-71714004D01*
X75592047Y-71713995D01*
X75571886Y-71444973D01*
X75571886Y-71444971D01*
X75511857Y-71181966D01*
X75511851Y-71181947D01*
X75413290Y-70930818D01*
X75413291Y-70930818D01*
X75278400Y-70697182D01*
X75278393Y-70697171D01*
X75224704Y-70629849D01*
X75224703Y-70629848D01*
X74388041Y-71466511D01*
X74363022Y-71406110D01*
X74291888Y-71299649D01*
X74201351Y-71209112D01*
X74094890Y-71137978D01*
X74034488Y-71112958D01*
X74872150Y-70275295D01*
X74821779Y-70240953D01*
X74777477Y-70186924D01*
X74769417Y-70117521D01*
X74776044Y-70103996D01*
X83014435Y-70103996D01*
X83014435Y-70104003D01*
X83034630Y-70283249D01*
X83034631Y-70283254D01*
X83094211Y-70453523D01*
X83190184Y-70606262D01*
X83317738Y-70733816D01*
X83470478Y-70829789D01*
X83640745Y-70889368D01*
X83640750Y-70889369D01*
X83819996Y-70909565D01*
X83820000Y-70909565D01*
X83820004Y-70909565D01*
X83999249Y-70889369D01*
X83999252Y-70889368D01*
X83999255Y-70889368D01*
X84169522Y-70829789D01*
X84322262Y-70733816D01*
X84449816Y-70606262D01*
X84545789Y-70453522D01*
X84605368Y-70283255D01*
X84606265Y-70275294D01*
X84625565Y-70104003D01*
X84625565Y-70103996D01*
X84605369Y-69924750D01*
X84605368Y-69924745D01*
X84586752Y-69871544D01*
X84545789Y-69754478D01*
X84449816Y-69601738D01*
X84322262Y-69474184D01*
X84169523Y-69378211D01*
X83999254Y-69318631D01*
X83999249Y-69318630D01*
X83820004Y-69298435D01*
X83819996Y-69298435D01*
X83640750Y-69318630D01*
X83640745Y-69318631D01*
X83470476Y-69378211D01*
X83317737Y-69474184D01*
X83190184Y-69601737D01*
X83094211Y-69754476D01*
X83034631Y-69924745D01*
X83034630Y-69924750D01*
X83014435Y-70103996D01*
X74776044Y-70103996D01*
X74800160Y-70054778D01*
X74859943Y-70018616D01*
X74891629Y-70014499D01*
X75134872Y-70014499D01*
X75194483Y-70008091D01*
X75329331Y-69957796D01*
X75444546Y-69871546D01*
X75530796Y-69756331D01*
X75581091Y-69621483D01*
X75587500Y-69561873D01*
X75587499Y-66866128D01*
X75581091Y-66806517D01*
X75530796Y-66671669D01*
X75530795Y-66671668D01*
X75530793Y-66671664D01*
X75444547Y-66556455D01*
X75444544Y-66556452D01*
X75329335Y-66470206D01*
X75329328Y-66470202D01*
X75194482Y-66419908D01*
X75194483Y-66419908D01*
X75134883Y-66413501D01*
X75134881Y-66413500D01*
X75134873Y-66413500D01*
X75134864Y-66413500D01*
X72439129Y-66413500D01*
X72439123Y-66413501D01*
X72379516Y-66419908D01*
X72244671Y-66470202D01*
X72244664Y-66470206D01*
X72129455Y-66556452D01*
X72129452Y-66556455D01*
X72043206Y-66671664D01*
X72043202Y-66671671D01*
X71992908Y-66806517D01*
X71986501Y-66866116D01*
X71986501Y-66866123D01*
X71986500Y-66866135D01*
X71986500Y-69561870D01*
X71986501Y-69561876D01*
X71992908Y-69621483D01*
X72043202Y-69756328D01*
X72043206Y-69756335D01*
X72129452Y-69871544D01*
X72129455Y-69871547D01*
X72244664Y-69957793D01*
X72244671Y-69957797D01*
X72289618Y-69974561D01*
X72379517Y-70008091D01*
X72439127Y-70014500D01*
X72682369Y-70014499D01*
X72749406Y-70034183D01*
X72795161Y-70086987D01*
X72805105Y-70156146D01*
X72776080Y-70219701D01*
X72752219Y-70240952D01*
X72701848Y-70275294D01*
X73539512Y-71112958D01*
X73479110Y-71137978D01*
X73372649Y-71209112D01*
X73282112Y-71299649D01*
X73210978Y-71406110D01*
X73185958Y-71466511D01*
X72349294Y-70629848D01*
X72295602Y-70697177D01*
X72160709Y-70930818D01*
X72062148Y-71181947D01*
X72062142Y-71181966D01*
X72002113Y-71444971D01*
X72002113Y-71444973D01*
X71981953Y-71713995D01*
X71981953Y-71714004D01*
X72002113Y-71983026D01*
X72002113Y-71983028D01*
X72062142Y-72246033D01*
X72062148Y-72246052D01*
X72160709Y-72497181D01*
X72160708Y-72497181D01*
X72295600Y-72730818D01*
X72349294Y-72798150D01*
X72349295Y-72798150D01*
X73185958Y-71961487D01*
X73210978Y-72021890D01*
X73282112Y-72128351D01*
X73372649Y-72218888D01*
X73479110Y-72290022D01*
X73539511Y-72315041D01*
X72701848Y-73152703D01*
X72884476Y-73277216D01*
X72884484Y-73277221D01*
X73039770Y-73352002D01*
X73091630Y-73398824D01*
X73109943Y-73466251D01*
X73088895Y-73532875D01*
X73039771Y-73575442D01*
X72884230Y-73650346D01*
X72661258Y-73802365D01*
X72463442Y-73985910D01*
X72295185Y-74196898D01*
X72160258Y-74430599D01*
X72160256Y-74430603D01*
X72061666Y-74681804D01*
X72061664Y-74681811D01*
X72001616Y-74944898D01*
X71981451Y-75213995D01*
X69107500Y-75213995D01*
X69107500Y-60853711D01*
X74222500Y-60853711D01*
X74222500Y-61096288D01*
X74254161Y-61336785D01*
X74316947Y-61571104D01*
X74409773Y-61795205D01*
X74409776Y-61795212D01*
X74531064Y-62005289D01*
X74531066Y-62005292D01*
X74531067Y-62005293D01*
X74678733Y-62197736D01*
X74678739Y-62197743D01*
X74850256Y-62369260D01*
X74850262Y-62369265D01*
X75042711Y-62516936D01*
X75252788Y-62638224D01*
X75476900Y-62731054D01*
X75711211Y-62793838D01*
X75891586Y-62817584D01*
X75951711Y-62825500D01*
X75951712Y-62825500D01*
X76194289Y-62825500D01*
X76242388Y-62819167D01*
X76434789Y-62793838D01*
X76669100Y-62731054D01*
X76893212Y-62638224D01*
X77103289Y-62516936D01*
X77295738Y-62369265D01*
X77467265Y-62197738D01*
X77614936Y-62005289D01*
X77736224Y-61795212D01*
X77829054Y-61571100D01*
X77891838Y-61336789D01*
X77923500Y-61096288D01*
X77923500Y-60853712D01*
X77891838Y-60613211D01*
X77829054Y-60378900D01*
X77736224Y-60154788D01*
X77614936Y-59944711D01*
X77467265Y-59752262D01*
X77467260Y-59752256D01*
X77295743Y-59580739D01*
X77295736Y-59580733D01*
X77103293Y-59433067D01*
X77103292Y-59433066D01*
X77103289Y-59433064D01*
X76893212Y-59311776D01*
X76893205Y-59311773D01*
X76669104Y-59218947D01*
X76434785Y-59156161D01*
X76194289Y-59124500D01*
X76194288Y-59124500D01*
X75951712Y-59124500D01*
X75951711Y-59124500D01*
X75711214Y-59156161D01*
X75476895Y-59218947D01*
X75252794Y-59311773D01*
X75252785Y-59311777D01*
X75042706Y-59433067D01*
X74850263Y-59580733D01*
X74850256Y-59580739D01*
X74678739Y-59752256D01*
X74678733Y-59752263D01*
X74531067Y-59944706D01*
X74409777Y-60154785D01*
X74409773Y-60154794D01*
X74316947Y-60378895D01*
X74254161Y-60613214D01*
X74222500Y-60853711D01*
X69107500Y-60853711D01*
X69107500Y-43885995D01*
X72108451Y-43885995D01*
X72108451Y-43886004D01*
X72128616Y-44155101D01*
X72169647Y-44334868D01*
X72188666Y-44418195D01*
X72287257Y-44669398D01*
X72422185Y-44903102D01*
X72558080Y-45073509D01*
X72590442Y-45114089D01*
X72777183Y-45287358D01*
X72788259Y-45297635D01*
X73011226Y-45449651D01*
X73011229Y-45449652D01*
X73011230Y-45449653D01*
X73166194Y-45524280D01*
X73218053Y-45571103D01*
X73236366Y-45638530D01*
X73215318Y-45705154D01*
X73166194Y-45747720D01*
X73011230Y-45822346D01*
X72788258Y-45974365D01*
X72590442Y-46157910D01*
X72422185Y-46368898D01*
X72287258Y-46602599D01*
X72287256Y-46602603D01*
X72188666Y-46853804D01*
X72188664Y-46853811D01*
X72128616Y-47116898D01*
X72108451Y-47385995D01*
X72108451Y-47386004D01*
X72128616Y-47655101D01*
X72188664Y-47918188D01*
X72188666Y-47918195D01*
X72287257Y-48169398D01*
X72422185Y-48403102D01*
X72558080Y-48573509D01*
X72590442Y-48614089D01*
X72772482Y-48782996D01*
X72788259Y-48797635D01*
X73011226Y-48949651D01*
X73011229Y-48949652D01*
X73011230Y-48949653D01*
X73166194Y-49024280D01*
X73218053Y-49071103D01*
X73236366Y-49138530D01*
X73215318Y-49205154D01*
X73166194Y-49247720D01*
X73011230Y-49322346D01*
X72788258Y-49474365D01*
X72590442Y-49657910D01*
X72422185Y-49868898D01*
X72287258Y-50102599D01*
X72287256Y-50102603D01*
X72188666Y-50353804D01*
X72188664Y-50353811D01*
X72128616Y-50616898D01*
X72108451Y-50885995D01*
X72108451Y-50886004D01*
X72128616Y-51155101D01*
X72188664Y-51418188D01*
X72188666Y-51418195D01*
X72280330Y-51651750D01*
X72287257Y-51669398D01*
X72422185Y-51903102D01*
X72507637Y-52010255D01*
X72590442Y-52114089D01*
X72777183Y-52287358D01*
X72788259Y-52297635D01*
X73011226Y-52449651D01*
X73011229Y-52449652D01*
X73011230Y-52449653D01*
X73166194Y-52524280D01*
X73218053Y-52571103D01*
X73236366Y-52638530D01*
X73215318Y-52705154D01*
X73166194Y-52747720D01*
X73011230Y-52822346D01*
X72788258Y-52974365D01*
X72590442Y-53157910D01*
X72422185Y-53368898D01*
X72287258Y-53602599D01*
X72287256Y-53602603D01*
X72188666Y-53853804D01*
X72188664Y-53853811D01*
X72128616Y-54116898D01*
X72108451Y-54385995D01*
X72108451Y-54386004D01*
X72128616Y-54655101D01*
X72188664Y-54918188D01*
X72188666Y-54918195D01*
X72287183Y-55169211D01*
X72287257Y-55169398D01*
X72422185Y-55403102D01*
X72535725Y-55545476D01*
X72590442Y-55614089D01*
X72777183Y-55787358D01*
X72788259Y-55797635D01*
X73011226Y-55949651D01*
X73254359Y-56066738D01*
X73512228Y-56146280D01*
X73512229Y-56146280D01*
X73512232Y-56146281D01*
X73779063Y-56186499D01*
X73779068Y-56186499D01*
X73779071Y-56186500D01*
X73779072Y-56186500D01*
X74048928Y-56186500D01*
X74048929Y-56186500D01*
X74048936Y-56186499D01*
X74315767Y-56146281D01*
X74315768Y-56146280D01*
X74315772Y-56146280D01*
X74573641Y-56066738D01*
X74816775Y-55949651D01*
X74896939Y-55894996D01*
X84157435Y-55894996D01*
X84157435Y-55895003D01*
X84177630Y-56074249D01*
X84177631Y-56074254D01*
X84237211Y-56244523D01*
X84333184Y-56397262D01*
X84460738Y-56524816D01*
X84613478Y-56620789D01*
X84783745Y-56680368D01*
X84783750Y-56680369D01*
X84962996Y-56700565D01*
X84963000Y-56700565D01*
X84963004Y-56700565D01*
X85142249Y-56680369D01*
X85142252Y-56680368D01*
X85142255Y-56680368D01*
X85312522Y-56620789D01*
X85465262Y-56524816D01*
X85592816Y-56397262D01*
X85688789Y-56244522D01*
X85748368Y-56074255D01*
X85749215Y-56066737D01*
X85768565Y-55895003D01*
X85768565Y-55894996D01*
X85748369Y-55715750D01*
X85748368Y-55715745D01*
X85712797Y-55614089D01*
X85688789Y-55545478D01*
X85592816Y-55392738D01*
X85465262Y-55265184D01*
X85312523Y-55169211D01*
X85142254Y-55109631D01*
X85142249Y-55109630D01*
X84963004Y-55089435D01*
X84962996Y-55089435D01*
X84783750Y-55109630D01*
X84783745Y-55109631D01*
X84613476Y-55169211D01*
X84460737Y-55265184D01*
X84333184Y-55392737D01*
X84237211Y-55545476D01*
X84177631Y-55715745D01*
X84177630Y-55715750D01*
X84157435Y-55894996D01*
X74896939Y-55894996D01*
X75039741Y-55797635D01*
X75237561Y-55614085D01*
X75405815Y-55403102D01*
X75540743Y-55169398D01*
X75639334Y-54918195D01*
X75699383Y-54655103D01*
X75719549Y-54386000D01*
X75699383Y-54116897D01*
X75639334Y-53853805D01*
X75540743Y-53602602D01*
X75405815Y-53368898D01*
X75237561Y-53157915D01*
X75237560Y-53157914D01*
X75237557Y-53157910D01*
X75039741Y-52974365D01*
X74816775Y-52822349D01*
X74816769Y-52822346D01*
X74816768Y-52822345D01*
X74816767Y-52822344D01*
X74661806Y-52747720D01*
X74609946Y-52700898D01*
X74591633Y-52633471D01*
X74612681Y-52566847D01*
X74661806Y-52524280D01*
X74816767Y-52449655D01*
X74816767Y-52449654D01*
X74816775Y-52449651D01*
X75039741Y-52297635D01*
X75237561Y-52114085D01*
X75405815Y-51903102D01*
X75540743Y-51669398D01*
X75639334Y-51418195D01*
X75699383Y-51155103D01*
X75719549Y-50886000D01*
X75714228Y-50815000D01*
X75714228Y-50814996D01*
X85427435Y-50814996D01*
X85427435Y-50815003D01*
X85447630Y-50994249D01*
X85447631Y-50994254D01*
X85507211Y-51164523D01*
X85565336Y-51257028D01*
X85584336Y-51324265D01*
X85565336Y-51388972D01*
X85507211Y-51481476D01*
X85447631Y-51651745D01*
X85447630Y-51651750D01*
X85427435Y-51830996D01*
X85427435Y-51831003D01*
X85447630Y-52010249D01*
X85447631Y-52010254D01*
X85507211Y-52180523D01*
X85580797Y-52297634D01*
X85603184Y-52333262D01*
X85730738Y-52460816D01*
X85883478Y-52556789D01*
X86053745Y-52616368D01*
X86053750Y-52616369D01*
X86232996Y-52636565D01*
X86233000Y-52636565D01*
X86233004Y-52636565D01*
X86412249Y-52616369D01*
X86412252Y-52616368D01*
X86412255Y-52616368D01*
X86582522Y-52556789D01*
X86735262Y-52460816D01*
X86862816Y-52333262D01*
X86958789Y-52180522D01*
X87018368Y-52010255D01*
X87030441Y-51903102D01*
X87038565Y-51831003D01*
X87038565Y-51830996D01*
X87018369Y-51651750D01*
X87018368Y-51651745D01*
X86958788Y-51481475D01*
X86900664Y-51388973D01*
X86881663Y-51321736D01*
X86900664Y-51257027D01*
X86958788Y-51164524D01*
X86962085Y-51155103D01*
X87018368Y-50994255D01*
X87030565Y-50886004D01*
X87038565Y-50815003D01*
X87038565Y-50814996D01*
X87018369Y-50635750D01*
X87018368Y-50635745D01*
X86958788Y-50465476D01*
X86888620Y-50353805D01*
X86862816Y-50312738D01*
X86735262Y-50185184D01*
X86582523Y-50089211D01*
X86412254Y-50029631D01*
X86412249Y-50029630D01*
X86233004Y-50009435D01*
X86232996Y-50009435D01*
X86053750Y-50029630D01*
X86053745Y-50029631D01*
X85883476Y-50089211D01*
X85730737Y-50185184D01*
X85603184Y-50312737D01*
X85507211Y-50465476D01*
X85447631Y-50635745D01*
X85447630Y-50635750D01*
X85427435Y-50814996D01*
X75714228Y-50814996D01*
X75699383Y-50616898D01*
X75699383Y-50616897D01*
X75639334Y-50353805D01*
X75540743Y-50102602D01*
X75405815Y-49868898D01*
X75237561Y-49657915D01*
X75237560Y-49657914D01*
X75237557Y-49657910D01*
X75039741Y-49474365D01*
X74949465Y-49412816D01*
X74816775Y-49322349D01*
X74816769Y-49322346D01*
X74816768Y-49322345D01*
X74816767Y-49322344D01*
X74661806Y-49247720D01*
X74609946Y-49200898D01*
X74591633Y-49133471D01*
X74612681Y-49066847D01*
X74661806Y-49024280D01*
X74816767Y-48949655D01*
X74816767Y-48949654D01*
X74816775Y-48949651D01*
X75039741Y-48797635D01*
X75055518Y-48782996D01*
X84665435Y-48782996D01*
X84665435Y-48783003D01*
X84685630Y-48962249D01*
X84685631Y-48962254D01*
X84745211Y-49132523D01*
X84817595Y-49247720D01*
X84841184Y-49285262D01*
X84968738Y-49412816D01*
X85121478Y-49508789D01*
X85291745Y-49568368D01*
X85291750Y-49568369D01*
X85470996Y-49588565D01*
X85471000Y-49588565D01*
X85471004Y-49588565D01*
X85650249Y-49568369D01*
X85650252Y-49568368D01*
X85650255Y-49568368D01*
X85820522Y-49508789D01*
X85973262Y-49412816D01*
X86100816Y-49285262D01*
X86196789Y-49132522D01*
X86256368Y-48962255D01*
X86276565Y-48783000D01*
X86257533Y-48614089D01*
X86256369Y-48603750D01*
X86256368Y-48603745D01*
X86196788Y-48433476D01*
X86100815Y-48280737D01*
X85973262Y-48153184D01*
X85820523Y-48057211D01*
X85650254Y-47997631D01*
X85650249Y-47997630D01*
X85471004Y-47977435D01*
X85470996Y-47977435D01*
X85291750Y-47997630D01*
X85291745Y-47997631D01*
X85121476Y-48057211D01*
X84968737Y-48153184D01*
X84841184Y-48280737D01*
X84745211Y-48433476D01*
X84685631Y-48603745D01*
X84685630Y-48603750D01*
X84665435Y-48782996D01*
X75055518Y-48782996D01*
X75237561Y-48614085D01*
X75405815Y-48403102D01*
X75540743Y-48169398D01*
X75639334Y-47918195D01*
X75699383Y-47655103D01*
X75719549Y-47386000D01*
X75699383Y-47116897D01*
X75639334Y-46853805D01*
X75540743Y-46602602D01*
X75405815Y-46368898D01*
X75237561Y-46157915D01*
X75237560Y-46157914D01*
X75237557Y-46157910D01*
X75039741Y-45974365D01*
X74816775Y-45822349D01*
X74816769Y-45822346D01*
X74816768Y-45822345D01*
X74816767Y-45822344D01*
X74661806Y-45747720D01*
X74609946Y-45700898D01*
X74591633Y-45633471D01*
X74612681Y-45566847D01*
X74661806Y-45524280D01*
X74816767Y-45449655D01*
X74816767Y-45449654D01*
X74816775Y-45449651D01*
X75039741Y-45297635D01*
X75237561Y-45114085D01*
X75405815Y-44903102D01*
X75540743Y-44669398D01*
X75639334Y-44418195D01*
X75699383Y-44155103D01*
X75719549Y-43886000D01*
X75707765Y-43728755D01*
X75699383Y-43616898D01*
X75683999Y-43549496D01*
X83484576Y-43549496D01*
X83484576Y-43549503D01*
X83504771Y-43728749D01*
X83504772Y-43728754D01*
X83564352Y-43899023D01*
X83660325Y-44051762D01*
X83787879Y-44179316D01*
X83940619Y-44275289D01*
X84110886Y-44334868D01*
X84110891Y-44334869D01*
X84290137Y-44355065D01*
X84290141Y-44355065D01*
X84290145Y-44355065D01*
X84469390Y-44334869D01*
X84469393Y-44334868D01*
X84469396Y-44334868D01*
X84639663Y-44275289D01*
X84792403Y-44179316D01*
X84919957Y-44051762D01*
X85015930Y-43899022D01*
X85075509Y-43728755D01*
X85088112Y-43616898D01*
X85095706Y-43549503D01*
X85095706Y-43549496D01*
X85075510Y-43370250D01*
X85075509Y-43370245D01*
X85015929Y-43199976D01*
X84954745Y-43102603D01*
X84919957Y-43047238D01*
X84792403Y-42919684D01*
X84711578Y-42868898D01*
X84639664Y-42823711D01*
X84469395Y-42764131D01*
X84469390Y-42764130D01*
X84290145Y-42743935D01*
X84290137Y-42743935D01*
X84110891Y-42764130D01*
X84110886Y-42764131D01*
X83940617Y-42823711D01*
X83787878Y-42919684D01*
X83660325Y-43047237D01*
X83564352Y-43199976D01*
X83504772Y-43370245D01*
X83504771Y-43370250D01*
X83484576Y-43549496D01*
X75683999Y-43549496D01*
X75639335Y-43353811D01*
X75639334Y-43353805D01*
X75540743Y-43102602D01*
X75405815Y-42868898D01*
X75237561Y-42657915D01*
X75237560Y-42657914D01*
X75237557Y-42657910D01*
X75039741Y-42474365D01*
X74816775Y-42322349D01*
X74816772Y-42322348D01*
X74816770Y-42322346D01*
X74661229Y-42247442D01*
X74609370Y-42200620D01*
X74591057Y-42133193D01*
X74612105Y-42066569D01*
X74661230Y-42024002D01*
X74816516Y-41949221D01*
X74816517Y-41949220D01*
X74999150Y-41824703D01*
X74161487Y-40987041D01*
X74221890Y-40962022D01*
X74328351Y-40890888D01*
X74418888Y-40800351D01*
X74490022Y-40693890D01*
X74515041Y-40633487D01*
X75351703Y-41470150D01*
X75351704Y-41470149D01*
X75405400Y-41402818D01*
X75540290Y-41169181D01*
X75638851Y-40918052D01*
X75638857Y-40918033D01*
X75698886Y-40655028D01*
X75698886Y-40655026D01*
X75719047Y-40386004D01*
X75719047Y-40385995D01*
X75698886Y-40116973D01*
X75698886Y-40116971D01*
X75638857Y-39853966D01*
X75638851Y-39853947D01*
X75540290Y-39602818D01*
X75540291Y-39602818D01*
X75405400Y-39369182D01*
X75405393Y-39369171D01*
X75351704Y-39301849D01*
X75351703Y-39301848D01*
X74515041Y-40138511D01*
X74490022Y-40078110D01*
X74418888Y-39971649D01*
X74328351Y-39881112D01*
X74221890Y-39809978D01*
X74161488Y-39784958D01*
X74999150Y-38947295D01*
X74948779Y-38912953D01*
X74904477Y-38858924D01*
X74896417Y-38789521D01*
X74927160Y-38726778D01*
X74986943Y-38690616D01*
X75018629Y-38686499D01*
X75261872Y-38686499D01*
X75321483Y-38680091D01*
X75456331Y-38629796D01*
X75571546Y-38543546D01*
X75657796Y-38428331D01*
X75708091Y-38293483D01*
X75714500Y-38233873D01*
X75714500Y-37606996D01*
X78823435Y-37606996D01*
X78823435Y-37607003D01*
X78843630Y-37786249D01*
X78843631Y-37786254D01*
X78903211Y-37956523D01*
X78912705Y-37971632D01*
X78999184Y-38109262D01*
X79126738Y-38236816D01*
X79279478Y-38332789D01*
X79449745Y-38392368D01*
X79449750Y-38392369D01*
X79628996Y-38412565D01*
X79629000Y-38412565D01*
X79629004Y-38412565D01*
X79808249Y-38392369D01*
X79808252Y-38392368D01*
X79808255Y-38392368D01*
X79978522Y-38332789D01*
X80131262Y-38236816D01*
X80258816Y-38109262D01*
X80354789Y-37956522D01*
X80414368Y-37786255D01*
X80414369Y-37786249D01*
X80434565Y-37607003D01*
X80434565Y-37606996D01*
X80414369Y-37427750D01*
X80414368Y-37427745D01*
X80354788Y-37257476D01*
X80310039Y-37186259D01*
X81704698Y-37186259D01*
X81704698Y-37186266D01*
X81724893Y-37365512D01*
X81724894Y-37365517D01*
X81784474Y-37535786D01*
X81829219Y-37606996D01*
X81880447Y-37688525D01*
X82008001Y-37816079D01*
X82160741Y-37912052D01*
X82287829Y-37956522D01*
X82331008Y-37971631D01*
X82331013Y-37971632D01*
X82510259Y-37991828D01*
X82510263Y-37991828D01*
X82510267Y-37991828D01*
X82689512Y-37971632D01*
X82689515Y-37971631D01*
X82689518Y-37971631D01*
X82859785Y-37912052D01*
X83012525Y-37816079D01*
X83140079Y-37688525D01*
X83236052Y-37535785D01*
X83295631Y-37365518D01*
X83307804Y-37257478D01*
X83315828Y-37186266D01*
X83315828Y-37186259D01*
X83295632Y-37007013D01*
X83295631Y-37007008D01*
X83236051Y-36836739D01*
X83140078Y-36684000D01*
X83012525Y-36556447D01*
X82859786Y-36460474D01*
X82689517Y-36400894D01*
X82689512Y-36400893D01*
X82510267Y-36380698D01*
X82510259Y-36380698D01*
X82331013Y-36400893D01*
X82331008Y-36400894D01*
X82160739Y-36460474D01*
X82008000Y-36556447D01*
X81880447Y-36684000D01*
X81784474Y-36836739D01*
X81724894Y-37007008D01*
X81724893Y-37007013D01*
X81704698Y-37186259D01*
X80310039Y-37186259D01*
X80258815Y-37104737D01*
X80131262Y-36977184D01*
X79978523Y-36881211D01*
X79808254Y-36821631D01*
X79808249Y-36821630D01*
X79629004Y-36801435D01*
X79628996Y-36801435D01*
X79449750Y-36821630D01*
X79449745Y-36821631D01*
X79279476Y-36881211D01*
X79126737Y-36977184D01*
X78999184Y-37104737D01*
X78903211Y-37257476D01*
X78843631Y-37427745D01*
X78843630Y-37427750D01*
X78823435Y-37606996D01*
X75714500Y-37606996D01*
X75714499Y-35538128D01*
X75708091Y-35478517D01*
X75657796Y-35343669D01*
X75657795Y-35343668D01*
X75657793Y-35343664D01*
X75571547Y-35228455D01*
X75571544Y-35228452D01*
X75456335Y-35142206D01*
X75456328Y-35142202D01*
X75321482Y-35091908D01*
X75321483Y-35091908D01*
X75261883Y-35085501D01*
X75261881Y-35085500D01*
X75261873Y-35085500D01*
X75261864Y-35085500D01*
X72566129Y-35085500D01*
X72566123Y-35085501D01*
X72506516Y-35091908D01*
X72371671Y-35142202D01*
X72371664Y-35142206D01*
X72256455Y-35228452D01*
X72256452Y-35228455D01*
X72170206Y-35343664D01*
X72170202Y-35343671D01*
X72119908Y-35478517D01*
X72113501Y-35538116D01*
X72113501Y-35538123D01*
X72113500Y-35538135D01*
X72113500Y-38233870D01*
X72113501Y-38233876D01*
X72119908Y-38293483D01*
X72170202Y-38428328D01*
X72170206Y-38428335D01*
X72256452Y-38543544D01*
X72256455Y-38543547D01*
X72371664Y-38629793D01*
X72371671Y-38629797D01*
X72416618Y-38646561D01*
X72506517Y-38680091D01*
X72566127Y-38686500D01*
X72809369Y-38686499D01*
X72876406Y-38706183D01*
X72922161Y-38758987D01*
X72932105Y-38828146D01*
X72903080Y-38891701D01*
X72879219Y-38912952D01*
X72828848Y-38947294D01*
X73666512Y-39784958D01*
X73606110Y-39809978D01*
X73499649Y-39881112D01*
X73409112Y-39971649D01*
X73337978Y-40078110D01*
X73312958Y-40138512D01*
X72476294Y-39301848D01*
X72422602Y-39369177D01*
X72287709Y-39602818D01*
X72189148Y-39853947D01*
X72189142Y-39853966D01*
X72129113Y-40116971D01*
X72129113Y-40116973D01*
X72108953Y-40385995D01*
X72108953Y-40386004D01*
X72129113Y-40655026D01*
X72129113Y-40655028D01*
X72189142Y-40918033D01*
X72189148Y-40918052D01*
X72287709Y-41169181D01*
X72287708Y-41169181D01*
X72422600Y-41402818D01*
X72476294Y-41470150D01*
X72476295Y-41470150D01*
X73312958Y-40633487D01*
X73337978Y-40693890D01*
X73409112Y-40800351D01*
X73499649Y-40890888D01*
X73606110Y-40962022D01*
X73666511Y-40987041D01*
X72828848Y-41824703D01*
X73011476Y-41949216D01*
X73011484Y-41949221D01*
X73166770Y-42024002D01*
X73218630Y-42070824D01*
X73236943Y-42138251D01*
X73215895Y-42204875D01*
X73166771Y-42247442D01*
X73011230Y-42322346D01*
X72788258Y-42474365D01*
X72590442Y-42657910D01*
X72422185Y-42868898D01*
X72287258Y-43102599D01*
X72287256Y-43102603D01*
X72188666Y-43353804D01*
X72188664Y-43353811D01*
X72128616Y-43616898D01*
X72108451Y-43885995D01*
X69107500Y-43885995D01*
X69107500Y-34615500D01*
X69127185Y-34548461D01*
X69179989Y-34502706D01*
X69231500Y-34491500D01*
X91443000Y-34491500D01*
X91510039Y-34511185D01*
G37*
%TD.AperFunction*%
%TD*%
%TA.AperFunction,Conductor*%
%TO.N,VSS*%
G36*
X126771539Y-34511185D02*
G01*
X126817294Y-34563989D01*
X126828500Y-34615500D01*
X126828500Y-88604500D01*
X126808815Y-88671539D01*
X126756011Y-88717294D01*
X126704500Y-88728500D01*
X96491600Y-88728500D01*
X96424561Y-88708815D01*
X96378806Y-88656011D01*
X96367600Y-88604500D01*
X96367600Y-86882996D01*
X106255435Y-86882996D01*
X106255435Y-86883003D01*
X106275630Y-87062249D01*
X106275631Y-87062254D01*
X106335211Y-87232523D01*
X106431184Y-87385262D01*
X106558738Y-87512816D01*
X106711478Y-87608789D01*
X106881745Y-87668368D01*
X106881750Y-87668369D01*
X107060996Y-87688565D01*
X107061000Y-87688565D01*
X107061004Y-87688565D01*
X107240249Y-87668369D01*
X107240252Y-87668368D01*
X107240255Y-87668368D01*
X107410522Y-87608789D01*
X107563262Y-87512816D01*
X107690816Y-87385262D01*
X107786789Y-87232522D01*
X107846368Y-87062255D01*
X107849548Y-87034033D01*
X107866565Y-86883003D01*
X107866565Y-86882996D01*
X107846369Y-86703750D01*
X107846368Y-86703745D01*
X107842118Y-86691598D01*
X107786789Y-86533478D01*
X107767009Y-86501999D01*
X107690815Y-86380737D01*
X107563789Y-86253711D01*
X112551100Y-86253711D01*
X112551100Y-86496288D01*
X112582761Y-86736785D01*
X112645547Y-86971104D01*
X112689834Y-87078022D01*
X112738376Y-87195212D01*
X112859664Y-87405289D01*
X112859666Y-87405292D01*
X112859667Y-87405293D01*
X113007333Y-87597736D01*
X113007339Y-87597743D01*
X113178856Y-87769260D01*
X113178862Y-87769265D01*
X113371311Y-87916936D01*
X113581388Y-88038224D01*
X113805500Y-88131054D01*
X114039811Y-88193838D01*
X114220186Y-88217584D01*
X114280311Y-88225500D01*
X114280312Y-88225500D01*
X114522889Y-88225500D01*
X114570988Y-88219167D01*
X114763389Y-88193838D01*
X114997700Y-88131054D01*
X115221812Y-88038224D01*
X115431889Y-87916936D01*
X115624338Y-87769265D01*
X115795865Y-87597738D01*
X115943536Y-87405289D01*
X116064824Y-87195212D01*
X116157654Y-86971100D01*
X116220438Y-86736789D01*
X116252100Y-86496288D01*
X116252100Y-86253712D01*
X116252030Y-86253184D01*
X116220438Y-86013214D01*
X116220438Y-86013211D01*
X116157654Y-85778900D01*
X116064824Y-85554788D01*
X115943536Y-85344711D01*
X115795865Y-85152262D01*
X115795860Y-85152256D01*
X115624343Y-84980739D01*
X115624336Y-84980733D01*
X115431893Y-84833067D01*
X115431892Y-84833066D01*
X115431889Y-84833064D01*
X115221812Y-84711776D01*
X115221805Y-84711773D01*
X114997704Y-84618947D01*
X114763385Y-84556161D01*
X114522889Y-84524500D01*
X114522888Y-84524500D01*
X114280312Y-84524500D01*
X114280311Y-84524500D01*
X114039814Y-84556161D01*
X113805495Y-84618947D01*
X113581394Y-84711773D01*
X113581385Y-84711777D01*
X113371306Y-84833067D01*
X113178863Y-84980733D01*
X113178856Y-84980739D01*
X113007339Y-85152256D01*
X113007333Y-85152263D01*
X112859667Y-85344706D01*
X112738377Y-85554785D01*
X112738373Y-85554794D01*
X112645547Y-85778895D01*
X112582761Y-86013214D01*
X112551100Y-86253711D01*
X107563789Y-86253711D01*
X107563262Y-86253184D01*
X107410523Y-86157211D01*
X107240254Y-86097631D01*
X107240249Y-86097630D01*
X107061004Y-86077435D01*
X107060996Y-86077435D01*
X106881750Y-86097630D01*
X106881745Y-86097631D01*
X106711476Y-86157211D01*
X106558737Y-86253184D01*
X106431184Y-86380737D01*
X106335211Y-86533476D01*
X106275631Y-86703745D01*
X106275630Y-86703750D01*
X106255435Y-86882996D01*
X96367600Y-86882996D01*
X96367600Y-83072998D01*
X97881532Y-83072998D01*
X97881532Y-83073001D01*
X97901364Y-83299686D01*
X97901366Y-83299697D01*
X97960258Y-83519488D01*
X97960261Y-83519497D01*
X98056431Y-83725732D01*
X98056432Y-83725734D01*
X98186954Y-83912141D01*
X98347858Y-84073045D01*
X98347861Y-84073047D01*
X98534266Y-84203568D01*
X98740504Y-84299739D01*
X98960308Y-84358635D01*
X99122230Y-84372801D01*
X99186998Y-84378468D01*
X99187000Y-84378468D01*
X99187002Y-84378468D01*
X99243673Y-84373509D01*
X99413692Y-84358635D01*
X99633496Y-84299739D01*
X99839734Y-84203568D01*
X100026139Y-84073047D01*
X100187047Y-83912139D01*
X100317568Y-83725734D01*
X100413739Y-83519496D01*
X100472635Y-83299692D01*
X100492468Y-83073000D01*
X100486256Y-83001995D01*
X121232051Y-83001995D01*
X121232051Y-83002004D01*
X121252216Y-83271101D01*
X121312264Y-83534188D01*
X121312266Y-83534195D01*
X121387439Y-83725732D01*
X121410857Y-83785398D01*
X121545785Y-84019102D01*
X121588805Y-84073047D01*
X121714042Y-84230089D01*
X121789110Y-84299741D01*
X121911859Y-84413635D01*
X122134826Y-84565651D01*
X122134831Y-84565653D01*
X122134832Y-84565654D01*
X122134833Y-84565655D01*
X122245494Y-84618946D01*
X122290370Y-84640557D01*
X122342230Y-84687379D01*
X122360543Y-84754806D01*
X122339495Y-84821430D01*
X122290371Y-84863997D01*
X122135077Y-84938782D01*
X122135069Y-84938787D01*
X121952448Y-85063294D01*
X122790112Y-85900958D01*
X122729710Y-85925978D01*
X122623249Y-85997112D01*
X122532712Y-86087649D01*
X122461578Y-86194110D01*
X122436558Y-86254512D01*
X121599894Y-85417848D01*
X121546202Y-85485177D01*
X121411309Y-85718818D01*
X121312748Y-85969947D01*
X121312742Y-85969966D01*
X121252713Y-86232971D01*
X121252713Y-86232973D01*
X121232553Y-86501995D01*
X121232553Y-86502004D01*
X121252713Y-86771026D01*
X121252713Y-86771028D01*
X121312742Y-87034033D01*
X121312748Y-87034052D01*
X121411309Y-87285181D01*
X121411308Y-87285181D01*
X121546200Y-87518818D01*
X121599894Y-87586150D01*
X121599895Y-87586150D01*
X122436558Y-86749487D01*
X122461578Y-86809890D01*
X122532712Y-86916351D01*
X122623249Y-87006888D01*
X122729710Y-87078022D01*
X122790111Y-87103041D01*
X121952448Y-87940703D01*
X122135076Y-88065216D01*
X122135085Y-88065221D01*
X122378139Y-88182269D01*
X122378137Y-88182269D01*
X122635937Y-88261790D01*
X122635943Y-88261792D01*
X122902701Y-88301999D01*
X122902710Y-88302000D01*
X123172490Y-88302000D01*
X123172498Y-88301999D01*
X123439256Y-88261792D01*
X123439262Y-88261790D01*
X123697061Y-88182269D01*
X123940116Y-88065221D01*
X123940117Y-88065220D01*
X124122750Y-87940703D01*
X123285087Y-87103041D01*
X123345490Y-87078022D01*
X123451951Y-87006888D01*
X123542488Y-86916351D01*
X123613622Y-86809890D01*
X123638641Y-86749487D01*
X124475303Y-87586150D01*
X124475304Y-87586149D01*
X124529000Y-87518818D01*
X124663890Y-87285181D01*
X124762451Y-87034052D01*
X124762457Y-87034033D01*
X124822486Y-86771028D01*
X124822486Y-86771026D01*
X124842647Y-86502004D01*
X124842647Y-86501995D01*
X124822486Y-86232973D01*
X124822486Y-86232971D01*
X124762457Y-85969966D01*
X124762451Y-85969947D01*
X124663890Y-85718818D01*
X124663891Y-85718818D01*
X124529000Y-85485182D01*
X124528993Y-85485171D01*
X124475304Y-85417849D01*
X124475303Y-85417848D01*
X123638641Y-86254511D01*
X123613622Y-86194110D01*
X123542488Y-86087649D01*
X123451951Y-85997112D01*
X123345490Y-85925978D01*
X123285088Y-85900958D01*
X124122750Y-85063295D01*
X123940124Y-84938783D01*
X123940120Y-84938781D01*
X123784829Y-84863997D01*
X123732970Y-84817175D01*
X123714657Y-84749748D01*
X123735705Y-84683124D01*
X123784828Y-84640557D01*
X123940375Y-84565651D01*
X124163341Y-84413635D01*
X124361161Y-84230085D01*
X124529415Y-84019102D01*
X124664343Y-83785398D01*
X124762934Y-83534195D01*
X124822983Y-83271103D01*
X124829705Y-83181402D01*
X124843149Y-83002004D01*
X124843149Y-83001995D01*
X124822983Y-82732898D01*
X124798701Y-82626511D01*
X124762934Y-82469805D01*
X124664343Y-82218602D01*
X124529415Y-81984898D01*
X124361161Y-81773915D01*
X124361160Y-81773914D01*
X124361157Y-81773910D01*
X124163341Y-81590365D01*
X124163337Y-81590362D01*
X124073263Y-81528950D01*
X124028963Y-81474924D01*
X124020904Y-81405521D01*
X124051647Y-81342778D01*
X124111431Y-81306616D01*
X124143117Y-81302499D01*
X124385471Y-81302499D01*
X124385472Y-81302499D01*
X124445083Y-81296091D01*
X124579931Y-81245796D01*
X124695146Y-81159546D01*
X124781396Y-81044331D01*
X124831691Y-80909483D01*
X124838100Y-80849873D01*
X124838099Y-78154128D01*
X124831691Y-78094517D01*
X124781396Y-77959669D01*
X124781395Y-77959668D01*
X124781393Y-77959664D01*
X124695147Y-77844455D01*
X124695144Y-77844452D01*
X124579935Y-77758206D01*
X124579928Y-77758202D01*
X124445082Y-77707908D01*
X124445083Y-77707908D01*
X124385483Y-77701501D01*
X124385481Y-77701500D01*
X124385473Y-77701500D01*
X124385464Y-77701500D01*
X121689729Y-77701500D01*
X121689723Y-77701501D01*
X121630116Y-77707908D01*
X121495271Y-77758202D01*
X121495264Y-77758206D01*
X121380055Y-77844452D01*
X121380052Y-77844455D01*
X121293806Y-77959664D01*
X121293802Y-77959671D01*
X121243508Y-78094517D01*
X121238587Y-78140297D01*
X121237101Y-78154123D01*
X121237100Y-78154135D01*
X121237100Y-80849870D01*
X121237101Y-80849876D01*
X121243508Y-80909483D01*
X121293802Y-81044328D01*
X121293806Y-81044335D01*
X121380052Y-81159544D01*
X121380055Y-81159547D01*
X121495264Y-81245793D01*
X121495271Y-81245797D01*
X121540218Y-81262561D01*
X121630117Y-81296091D01*
X121689727Y-81302500D01*
X121932083Y-81302499D01*
X121999121Y-81322183D01*
X122044876Y-81374987D01*
X122054820Y-81444146D01*
X122025795Y-81507701D01*
X122001934Y-81528952D01*
X121911862Y-81590362D01*
X121714042Y-81773910D01*
X121545785Y-81984898D01*
X121410858Y-82218599D01*
X121410856Y-82218603D01*
X121312266Y-82469804D01*
X121312264Y-82469811D01*
X121252216Y-82732898D01*
X121232051Y-83001995D01*
X100486256Y-83001995D01*
X100472635Y-82846308D01*
X100446452Y-82748591D01*
X100448115Y-82678744D01*
X100487277Y-82620881D01*
X100551506Y-82593377D01*
X100555420Y-82592972D01*
X100558998Y-82592658D01*
X100559000Y-82592659D01*
X100794408Y-82572063D01*
X101022663Y-82510903D01*
X101236830Y-82411035D01*
X101430401Y-82275495D01*
X101597495Y-82108401D01*
X101727425Y-81922842D01*
X101782002Y-81879217D01*
X101851500Y-81872023D01*
X101913855Y-81903546D01*
X101930575Y-81922842D01*
X102035684Y-82072954D01*
X102060505Y-82108401D01*
X102227599Y-82275495D01*
X102304135Y-82329086D01*
X102421165Y-82411032D01*
X102421167Y-82411033D01*
X102421170Y-82411035D01*
X102635337Y-82510903D01*
X102863592Y-82572063D01*
X103034319Y-82587000D01*
X103098999Y-82592659D01*
X103099000Y-82592659D01*
X103099001Y-82592659D01*
X103163681Y-82587000D01*
X103334408Y-82572063D01*
X103562663Y-82510903D01*
X103776830Y-82411035D01*
X103970401Y-82275495D01*
X104092717Y-82153178D01*
X104154036Y-82119696D01*
X104223728Y-82124680D01*
X104279662Y-82166551D01*
X104296577Y-82197528D01*
X104345646Y-82329088D01*
X104345649Y-82329093D01*
X104431809Y-82444187D01*
X104431812Y-82444190D01*
X104546906Y-82530350D01*
X104546913Y-82530354D01*
X104681620Y-82580596D01*
X104681627Y-82580598D01*
X104741155Y-82586999D01*
X104741172Y-82587000D01*
X105389000Y-82587000D01*
X105389000Y-81670012D01*
X105446007Y-81702925D01*
X105573174Y-81737000D01*
X105704826Y-81737000D01*
X105831993Y-81702925D01*
X105889000Y-81670012D01*
X105889000Y-82587000D01*
X106536828Y-82587000D01*
X106536844Y-82586999D01*
X106596372Y-82580598D01*
X106596379Y-82580596D01*
X106731086Y-82530354D01*
X106731093Y-82530350D01*
X106846187Y-82444190D01*
X106846190Y-82444187D01*
X106932350Y-82329093D01*
X106932354Y-82329086D01*
X106982596Y-82194379D01*
X106982598Y-82194372D01*
X106988999Y-82134844D01*
X106989000Y-82134827D01*
X106989000Y-81487000D01*
X106072012Y-81487000D01*
X106104925Y-81429993D01*
X106139000Y-81302826D01*
X106139000Y-81171174D01*
X106104925Y-81044007D01*
X106072012Y-80987000D01*
X106989000Y-80987000D01*
X106989000Y-80339172D01*
X106988999Y-80339155D01*
X106982598Y-80279627D01*
X106982596Y-80279620D01*
X106932354Y-80144913D01*
X106932350Y-80144906D01*
X106846190Y-80029812D01*
X106846187Y-80029809D01*
X106731093Y-79943649D01*
X106731086Y-79943645D01*
X106596379Y-79893403D01*
X106596372Y-79893401D01*
X106536844Y-79887000D01*
X105889000Y-79887000D01*
X105889000Y-80803988D01*
X105831993Y-80771075D01*
X105704826Y-80737000D01*
X105573174Y-80737000D01*
X105446007Y-80771075D01*
X105389000Y-80803988D01*
X105389000Y-79887000D01*
X104741155Y-79887000D01*
X104681627Y-79893401D01*
X104681620Y-79893403D01*
X104546913Y-79943645D01*
X104546906Y-79943649D01*
X104431812Y-80029809D01*
X104431809Y-80029812D01*
X104345649Y-80144906D01*
X104345645Y-80144913D01*
X104296578Y-80276470D01*
X104254707Y-80332404D01*
X104189242Y-80356821D01*
X104120969Y-80341969D01*
X104092715Y-80320819D01*
X104048366Y-80276470D01*
X103970401Y-80198505D01*
X103970397Y-80198502D01*
X103970396Y-80198501D01*
X103776834Y-80062967D01*
X103776830Y-80062965D01*
X103705727Y-80029809D01*
X103562663Y-79963097D01*
X103562659Y-79963096D01*
X103562655Y-79963094D01*
X103334413Y-79901938D01*
X103334403Y-79901936D01*
X103099001Y-79881341D01*
X103098999Y-79881341D01*
X102863596Y-79901936D01*
X102863586Y-79901938D01*
X102635344Y-79963094D01*
X102635335Y-79963098D01*
X102421171Y-80062964D01*
X102421169Y-80062965D01*
X102227597Y-80198505D01*
X102060505Y-80365597D01*
X101930575Y-80551158D01*
X101875998Y-80594783D01*
X101806500Y-80601977D01*
X101744145Y-80570454D01*
X101727425Y-80551158D01*
X101597494Y-80365597D01*
X101430402Y-80198506D01*
X101430395Y-80198501D01*
X101236834Y-80062967D01*
X101236830Y-80062965D01*
X101165727Y-80029809D01*
X101022663Y-79963097D01*
X101022659Y-79963096D01*
X101022655Y-79963094D01*
X100794413Y-79901938D01*
X100794403Y-79901936D01*
X100559001Y-79881341D01*
X100558999Y-79881341D01*
X100323596Y-79901936D01*
X100323586Y-79901938D01*
X100095344Y-79963094D01*
X100095335Y-79963098D01*
X99881171Y-80062964D01*
X99881169Y-80062965D01*
X99687597Y-80198505D01*
X99520505Y-80365597D01*
X99384965Y-80559169D01*
X99384964Y-80559171D01*
X99285098Y-80773335D01*
X99285094Y-80773344D01*
X99223938Y-81001586D01*
X99223936Y-81001596D01*
X99203341Y-81236999D01*
X99203341Y-81237000D01*
X99223936Y-81472403D01*
X99223939Y-81472416D01*
X99262109Y-81614874D01*
X99260446Y-81684723D01*
X99221283Y-81742586D01*
X99157054Y-81770089D01*
X99153142Y-81770494D01*
X98960312Y-81787364D01*
X98960302Y-81787366D01*
X98740511Y-81846258D01*
X98740502Y-81846261D01*
X98534267Y-81942431D01*
X98534265Y-81942432D01*
X98347858Y-82072954D01*
X98186954Y-82233858D01*
X98056432Y-82420265D01*
X98056431Y-82420267D01*
X97960261Y-82626502D01*
X97960258Y-82626511D01*
X97901366Y-82846302D01*
X97901364Y-82846313D01*
X97881532Y-83072998D01*
X96367600Y-83072998D01*
X96367600Y-78366987D01*
X97799050Y-78366987D01*
X97799050Y-78366990D01*
X97818882Y-78593675D01*
X97818884Y-78593686D01*
X97877776Y-78813477D01*
X97877779Y-78813486D01*
X97973949Y-79019721D01*
X97973950Y-79019723D01*
X98104472Y-79206130D01*
X98265376Y-79367034D01*
X98265379Y-79367036D01*
X98451784Y-79497557D01*
X98658022Y-79593728D01*
X98877826Y-79652624D01*
X99039748Y-79666790D01*
X99104516Y-79672457D01*
X99104518Y-79672457D01*
X99104520Y-79672457D01*
X99161191Y-79667498D01*
X99331210Y-79652624D01*
X99551014Y-79593728D01*
X99757252Y-79497557D01*
X99943657Y-79367036D01*
X100104565Y-79206128D01*
X100235086Y-79019723D01*
X100331257Y-78813485D01*
X100390153Y-78593681D01*
X100409986Y-78366989D01*
X100390153Y-78140297D01*
X100331257Y-77920493D01*
X100235086Y-77714255D01*
X100104565Y-77527850D01*
X100104563Y-77527847D01*
X99943659Y-77366943D01*
X99757252Y-77236421D01*
X99757250Y-77236420D01*
X99551015Y-77140250D01*
X99551006Y-77140247D01*
X99331215Y-77081355D01*
X99331211Y-77081354D01*
X99331210Y-77081354D01*
X99331209Y-77081353D01*
X99331204Y-77081353D01*
X99104520Y-77061521D01*
X99104516Y-77061521D01*
X98877831Y-77081353D01*
X98877820Y-77081355D01*
X98658029Y-77140247D01*
X98658020Y-77140250D01*
X98451785Y-77236420D01*
X98451783Y-77236421D01*
X98265376Y-77366943D01*
X98104472Y-77527847D01*
X97973950Y-77714254D01*
X97973949Y-77714256D01*
X97877779Y-77920491D01*
X97877776Y-77920500D01*
X97818884Y-78140291D01*
X97818882Y-78140302D01*
X97799050Y-78366987D01*
X96367600Y-78366987D01*
X96367600Y-75736999D01*
X99203341Y-75736999D01*
X99203341Y-75737000D01*
X99223936Y-75972403D01*
X99223938Y-75972413D01*
X99285094Y-76200655D01*
X99285096Y-76200659D01*
X99285097Y-76200663D01*
X99365004Y-76372023D01*
X99384965Y-76414830D01*
X99384967Y-76414834D01*
X99493281Y-76569521D01*
X99520505Y-76608401D01*
X99687599Y-76775495D01*
X99764135Y-76829086D01*
X99881165Y-76911032D01*
X99881167Y-76911033D01*
X99881170Y-76911035D01*
X100095337Y-77010903D01*
X100323592Y-77072063D01*
X100494319Y-77087000D01*
X100558999Y-77092659D01*
X100559000Y-77092659D01*
X100559001Y-77092659D01*
X100623681Y-77087000D01*
X100794408Y-77072063D01*
X101022663Y-77010903D01*
X101236830Y-76911035D01*
X101430401Y-76775495D01*
X101597495Y-76608401D01*
X101727425Y-76422842D01*
X101782002Y-76379217D01*
X101851500Y-76372023D01*
X101913855Y-76403546D01*
X101930575Y-76422842D01*
X102060500Y-76608395D01*
X102060505Y-76608401D01*
X102227599Y-76775495D01*
X102304135Y-76829086D01*
X102421165Y-76911032D01*
X102421167Y-76911033D01*
X102421170Y-76911035D01*
X102635337Y-77010903D01*
X102863592Y-77072063D01*
X103034319Y-77087000D01*
X103098999Y-77092659D01*
X103099000Y-77092659D01*
X103099001Y-77092659D01*
X103163681Y-77087000D01*
X103334408Y-77072063D01*
X103562663Y-77010903D01*
X103776830Y-76911035D01*
X103970401Y-76775495D01*
X104092717Y-76653178D01*
X104154036Y-76619696D01*
X104223728Y-76624680D01*
X104279662Y-76666551D01*
X104296577Y-76697528D01*
X104345646Y-76829088D01*
X104345649Y-76829093D01*
X104431809Y-76944187D01*
X104431812Y-76944190D01*
X104546906Y-77030350D01*
X104546913Y-77030354D01*
X104681620Y-77080596D01*
X104681627Y-77080598D01*
X104741155Y-77086999D01*
X104741172Y-77087000D01*
X105389000Y-77087000D01*
X105389000Y-76170012D01*
X105446007Y-76202925D01*
X105573174Y-76237000D01*
X105704826Y-76237000D01*
X105831993Y-76202925D01*
X105889000Y-76170012D01*
X105889000Y-77087000D01*
X106536828Y-77087000D01*
X106536844Y-77086999D01*
X106596372Y-77080598D01*
X106596379Y-77080596D01*
X106731086Y-77030354D01*
X106731093Y-77030350D01*
X106846187Y-76944190D01*
X106846190Y-76944187D01*
X106932350Y-76829093D01*
X106932354Y-76829086D01*
X106982596Y-76694379D01*
X106982598Y-76694372D01*
X106988999Y-76634844D01*
X106989000Y-76634827D01*
X106989000Y-75987000D01*
X106072012Y-75987000D01*
X106104925Y-75929993D01*
X106139000Y-75802826D01*
X106139000Y-75671174D01*
X106104925Y-75544007D01*
X106072012Y-75487000D01*
X106989000Y-75487000D01*
X106989000Y-74839172D01*
X106988999Y-74839155D01*
X106982598Y-74779627D01*
X106982596Y-74779620D01*
X106932354Y-74644913D01*
X106932350Y-74644906D01*
X106846190Y-74529812D01*
X106846187Y-74529809D01*
X106731093Y-74443649D01*
X106731086Y-74443645D01*
X106596379Y-74393403D01*
X106596372Y-74393401D01*
X106536844Y-74387000D01*
X105889000Y-74387000D01*
X105889000Y-75303988D01*
X105831993Y-75271075D01*
X105704826Y-75237000D01*
X105573174Y-75237000D01*
X105446007Y-75271075D01*
X105389000Y-75303988D01*
X105389000Y-74387000D01*
X104741155Y-74387000D01*
X104681627Y-74393401D01*
X104681620Y-74393403D01*
X104546913Y-74443645D01*
X104546906Y-74443649D01*
X104431812Y-74529809D01*
X104431809Y-74529812D01*
X104345649Y-74644906D01*
X104345645Y-74644913D01*
X104296578Y-74776470D01*
X104254707Y-74832404D01*
X104189242Y-74856821D01*
X104120969Y-74841969D01*
X104092715Y-74820819D01*
X104048366Y-74776470D01*
X103970401Y-74698505D01*
X103970397Y-74698502D01*
X103970396Y-74698501D01*
X103776834Y-74562967D01*
X103776830Y-74562965D01*
X103705727Y-74529809D01*
X103562663Y-74463097D01*
X103562659Y-74463096D01*
X103562655Y-74463094D01*
X103334413Y-74401938D01*
X103334403Y-74401936D01*
X103099001Y-74381341D01*
X103098999Y-74381341D01*
X102863596Y-74401936D01*
X102863586Y-74401938D01*
X102635344Y-74463094D01*
X102635335Y-74463098D01*
X102421171Y-74562964D01*
X102421169Y-74562965D01*
X102227597Y-74698505D01*
X102060505Y-74865597D01*
X101930575Y-75051158D01*
X101875998Y-75094783D01*
X101806500Y-75101977D01*
X101744145Y-75070454D01*
X101727425Y-75051158D01*
X101597494Y-74865597D01*
X101430402Y-74698506D01*
X101430395Y-74698501D01*
X101236834Y-74562967D01*
X101236830Y-74562965D01*
X101165727Y-74529809D01*
X101022663Y-74463097D01*
X101022659Y-74463096D01*
X101022655Y-74463094D01*
X100794413Y-74401938D01*
X100794403Y-74401936D01*
X100559001Y-74381341D01*
X100558999Y-74381341D01*
X100323596Y-74401936D01*
X100323586Y-74401938D01*
X100095344Y-74463094D01*
X100095335Y-74463098D01*
X99881171Y-74562964D01*
X99881169Y-74562965D01*
X99687597Y-74698505D01*
X99520505Y-74865597D01*
X99384965Y-75059169D01*
X99384964Y-75059171D01*
X99285098Y-75273335D01*
X99285094Y-75273344D01*
X99223938Y-75501586D01*
X99223936Y-75501596D01*
X99203341Y-75736999D01*
X96367600Y-75736999D01*
X96367600Y-70236998D01*
X97358130Y-70236998D01*
X97358130Y-70237001D01*
X97377962Y-70463686D01*
X97377964Y-70463697D01*
X97436856Y-70683488D01*
X97436859Y-70683497D01*
X97533029Y-70889732D01*
X97533030Y-70889734D01*
X97663552Y-71076141D01*
X97824456Y-71237045D01*
X97824459Y-71237047D01*
X98010864Y-71367568D01*
X98217102Y-71463739D01*
X98436906Y-71522635D01*
X98598828Y-71536801D01*
X98663596Y-71542468D01*
X98663598Y-71542468D01*
X98663600Y-71542468D01*
X98720271Y-71537509D01*
X98890290Y-71522635D01*
X99110094Y-71463739D01*
X99316332Y-71367568D01*
X99502737Y-71237047D01*
X99502740Y-71237043D01*
X99503621Y-71236427D01*
X99569827Y-71214100D01*
X99637594Y-71231110D01*
X99662425Y-71250321D01*
X99687599Y-71275495D01*
X99764135Y-71329086D01*
X99881165Y-71411032D01*
X99881167Y-71411033D01*
X99881170Y-71411035D01*
X100095337Y-71510903D01*
X100323592Y-71572063D01*
X100494319Y-71587000D01*
X100558999Y-71592659D01*
X100559000Y-71592659D01*
X100559001Y-71592659D01*
X100623681Y-71587000D01*
X100794408Y-71572063D01*
X101022663Y-71510903D01*
X101236830Y-71411035D01*
X101430401Y-71275495D01*
X101597495Y-71108401D01*
X101727425Y-70922842D01*
X101782002Y-70879217D01*
X101851500Y-70872023D01*
X101913855Y-70903546D01*
X101930575Y-70922842D01*
X102037914Y-71076139D01*
X102060505Y-71108401D01*
X102227599Y-71275495D01*
X102304135Y-71329086D01*
X102421165Y-71411032D01*
X102421167Y-71411033D01*
X102421170Y-71411035D01*
X102635337Y-71510903D01*
X102863592Y-71572063D01*
X103034319Y-71587000D01*
X103098999Y-71592659D01*
X103099000Y-71592659D01*
X103099001Y-71592659D01*
X103163681Y-71587000D01*
X103334408Y-71572063D01*
X103562663Y-71510903D01*
X103776830Y-71411035D01*
X103970401Y-71275495D01*
X104092717Y-71153178D01*
X104154036Y-71119696D01*
X104223728Y-71124680D01*
X104279662Y-71166551D01*
X104296577Y-71197528D01*
X104345646Y-71329088D01*
X104345649Y-71329093D01*
X104431809Y-71444187D01*
X104431812Y-71444190D01*
X104546906Y-71530350D01*
X104546913Y-71530354D01*
X104681620Y-71580596D01*
X104681627Y-71580598D01*
X104741155Y-71586999D01*
X104741172Y-71587000D01*
X105389000Y-71587000D01*
X105389000Y-70670012D01*
X105446007Y-70702925D01*
X105573174Y-70737000D01*
X105704826Y-70737000D01*
X105831993Y-70702925D01*
X105889000Y-70670012D01*
X105889000Y-71587000D01*
X106536828Y-71587000D01*
X106536844Y-71586999D01*
X106596372Y-71580598D01*
X106596379Y-71580596D01*
X106731086Y-71530354D01*
X106731093Y-71530350D01*
X106846187Y-71444190D01*
X106846190Y-71444187D01*
X106932350Y-71329093D01*
X106932354Y-71329086D01*
X106982596Y-71194379D01*
X106982598Y-71194372D01*
X106988999Y-71134844D01*
X106989000Y-71134827D01*
X106989000Y-70487000D01*
X106072012Y-70487000D01*
X106104925Y-70429993D01*
X106139000Y-70302826D01*
X106139000Y-70171174D01*
X106104925Y-70044007D01*
X106072012Y-69987000D01*
X106989000Y-69987000D01*
X106989000Y-69339172D01*
X106988999Y-69339155D01*
X106982598Y-69279627D01*
X106982596Y-69279620D01*
X106932354Y-69144913D01*
X106932350Y-69144906D01*
X106846190Y-69029812D01*
X106846187Y-69029809D01*
X106731093Y-68943649D01*
X106731086Y-68943645D01*
X106596379Y-68893403D01*
X106596372Y-68893401D01*
X106536844Y-68887000D01*
X105889000Y-68887000D01*
X105889000Y-69803988D01*
X105831993Y-69771075D01*
X105704826Y-69737000D01*
X105573174Y-69737000D01*
X105446007Y-69771075D01*
X105389000Y-69803988D01*
X105389000Y-68887000D01*
X104741155Y-68887000D01*
X104681627Y-68893401D01*
X104681620Y-68893403D01*
X104546913Y-68943645D01*
X104546906Y-68943649D01*
X104431812Y-69029809D01*
X104431809Y-69029812D01*
X104345649Y-69144906D01*
X104345645Y-69144913D01*
X104296578Y-69276470D01*
X104254707Y-69332404D01*
X104189242Y-69356821D01*
X104120969Y-69341969D01*
X104092715Y-69320819D01*
X104048366Y-69276470D01*
X103970401Y-69198505D01*
X103970397Y-69198502D01*
X103970396Y-69198501D01*
X103776834Y-69062967D01*
X103776830Y-69062965D01*
X103744555Y-69047915D01*
X103562663Y-68963097D01*
X103562659Y-68963096D01*
X103562655Y-68963094D01*
X103334413Y-68901938D01*
X103334403Y-68901936D01*
X103099001Y-68881341D01*
X103098999Y-68881341D01*
X102863596Y-68901936D01*
X102863586Y-68901938D01*
X102635344Y-68963094D01*
X102635335Y-68963098D01*
X102421171Y-69062964D01*
X102421169Y-69062965D01*
X102227597Y-69198505D01*
X102060505Y-69365597D01*
X101930575Y-69551158D01*
X101875998Y-69594783D01*
X101806500Y-69601977D01*
X101744145Y-69570454D01*
X101727425Y-69551158D01*
X101597494Y-69365597D01*
X101430402Y-69198506D01*
X101430395Y-69198501D01*
X101236834Y-69062967D01*
X101236830Y-69062965D01*
X101204555Y-69047915D01*
X101022663Y-68963097D01*
X101022659Y-68963096D01*
X101022655Y-68963094D01*
X100794413Y-68901938D01*
X100794403Y-68901936D01*
X100559001Y-68881341D01*
X100558999Y-68881341D01*
X100323596Y-68901936D01*
X100323586Y-68901938D01*
X100095344Y-68963094D01*
X100095335Y-68963098D01*
X99881171Y-69062964D01*
X99881169Y-69062965D01*
X99687599Y-69198503D01*
X99662424Y-69223679D01*
X99601100Y-69257163D01*
X99531408Y-69252177D01*
X99503621Y-69237571D01*
X99316332Y-69106432D01*
X99316330Y-69106431D01*
X99110095Y-69010261D01*
X99110086Y-69010258D01*
X98890295Y-68951366D01*
X98890291Y-68951365D01*
X98890290Y-68951365D01*
X98890289Y-68951364D01*
X98890284Y-68951364D01*
X98663600Y-68931532D01*
X98663596Y-68931532D01*
X98436911Y-68951364D01*
X98436900Y-68951366D01*
X98217109Y-69010258D01*
X98217100Y-69010261D01*
X98010865Y-69106431D01*
X98010863Y-69106432D01*
X97824456Y-69236954D01*
X97663552Y-69397858D01*
X97533030Y-69584265D01*
X97533029Y-69584267D01*
X97436859Y-69790502D01*
X97436856Y-69790511D01*
X97377964Y-70010302D01*
X97377962Y-70010313D01*
X97358130Y-70236998D01*
X96367600Y-70236998D01*
X96367600Y-66816998D01*
X97373532Y-66816998D01*
X97373532Y-66817001D01*
X97393364Y-67043686D01*
X97393366Y-67043697D01*
X97452258Y-67263488D01*
X97452261Y-67263497D01*
X97548431Y-67469732D01*
X97548432Y-67469734D01*
X97678954Y-67656141D01*
X97839858Y-67817045D01*
X97839861Y-67817047D01*
X98026266Y-67947568D01*
X98232504Y-68043739D01*
X98452308Y-68102635D01*
X98614230Y-68116801D01*
X98678998Y-68122468D01*
X98679000Y-68122468D01*
X98679002Y-68122468D01*
X98735673Y-68117509D01*
X98905692Y-68102635D01*
X99125496Y-68043739D01*
X99331734Y-67947568D01*
X99518139Y-67817047D01*
X99679047Y-67656139D01*
X99809568Y-67469734D01*
X99905739Y-67263496D01*
X99964635Y-67043692D01*
X99984468Y-66817000D01*
X99964635Y-66590308D01*
X99905739Y-66370504D01*
X99809568Y-66164266D01*
X99777011Y-66117770D01*
X99754685Y-66051565D01*
X99771697Y-65983798D01*
X99822645Y-65935985D01*
X99891355Y-65923308D01*
X99930988Y-65934265D01*
X100095337Y-66010903D01*
X100323592Y-66072063D01*
X100494319Y-66087000D01*
X100558999Y-66092659D01*
X100559000Y-66092659D01*
X100559001Y-66092659D01*
X100623681Y-66087000D01*
X100794408Y-66072063D01*
X101022663Y-66010903D01*
X101236830Y-65911035D01*
X101430401Y-65775495D01*
X101597495Y-65608401D01*
X101727425Y-65422842D01*
X101782002Y-65379217D01*
X101851500Y-65372023D01*
X101913855Y-65403546D01*
X101930575Y-65422842D01*
X102047803Y-65590262D01*
X102060505Y-65608401D01*
X102227599Y-65775495D01*
X102286807Y-65816953D01*
X102421165Y-65911032D01*
X102421167Y-65911033D01*
X102421170Y-65911035D01*
X102635337Y-66010903D01*
X102863592Y-66072063D01*
X103034319Y-66087000D01*
X103098999Y-66092659D01*
X103099000Y-66092659D01*
X103099001Y-66092659D01*
X103163681Y-66087000D01*
X103334408Y-66072063D01*
X103562663Y-66010903D01*
X103776830Y-65911035D01*
X103970401Y-65775495D01*
X104092717Y-65653178D01*
X104154036Y-65619696D01*
X104223728Y-65624680D01*
X104279662Y-65666551D01*
X104296577Y-65697528D01*
X104345646Y-65829088D01*
X104345649Y-65829093D01*
X104431809Y-65944187D01*
X104431812Y-65944190D01*
X104546906Y-66030350D01*
X104546913Y-66030354D01*
X104681620Y-66080596D01*
X104681627Y-66080598D01*
X104741155Y-66086999D01*
X104741172Y-66087000D01*
X105389000Y-66087000D01*
X105389000Y-65170012D01*
X105446007Y-65202925D01*
X105573174Y-65237000D01*
X105704826Y-65237000D01*
X105831993Y-65202925D01*
X105889000Y-65170012D01*
X105889000Y-66087000D01*
X106536828Y-66087000D01*
X106536844Y-66086999D01*
X106596372Y-66080598D01*
X106596379Y-66080596D01*
X106731086Y-66030354D01*
X106731093Y-66030350D01*
X106846187Y-65944190D01*
X106846190Y-65944187D01*
X106932350Y-65829093D01*
X106932354Y-65829086D01*
X106982596Y-65694379D01*
X106982598Y-65694372D01*
X106988999Y-65634844D01*
X106989000Y-65634827D01*
X106989000Y-64987000D01*
X106072012Y-64987000D01*
X106104925Y-64929993D01*
X106139000Y-64802826D01*
X106139000Y-64671174D01*
X106104925Y-64544007D01*
X106072012Y-64487000D01*
X106989000Y-64487000D01*
X106989000Y-63839172D01*
X106988999Y-63839155D01*
X106982598Y-63779627D01*
X106982596Y-63779620D01*
X106932354Y-63644913D01*
X106932350Y-63644906D01*
X106846190Y-63529812D01*
X106846187Y-63529809D01*
X106731093Y-63443649D01*
X106731086Y-63443645D01*
X106596379Y-63393403D01*
X106596372Y-63393401D01*
X106536844Y-63387000D01*
X105889000Y-63387000D01*
X105889000Y-64303988D01*
X105831993Y-64271075D01*
X105704826Y-64237000D01*
X105573174Y-64237000D01*
X105446007Y-64271075D01*
X105389000Y-64303988D01*
X105389000Y-63387000D01*
X104741155Y-63387000D01*
X104681627Y-63393401D01*
X104681620Y-63393403D01*
X104546913Y-63443645D01*
X104546906Y-63443649D01*
X104431812Y-63529809D01*
X104431809Y-63529812D01*
X104345649Y-63644906D01*
X104345645Y-63644913D01*
X104296578Y-63776470D01*
X104254707Y-63832404D01*
X104189242Y-63856821D01*
X104120969Y-63841969D01*
X104092715Y-63820819D01*
X104048366Y-63776470D01*
X103970401Y-63698505D01*
X103970397Y-63698502D01*
X103970396Y-63698501D01*
X103776834Y-63562967D01*
X103776830Y-63562965D01*
X103738525Y-63545103D01*
X103562663Y-63463097D01*
X103562659Y-63463096D01*
X103562655Y-63463094D01*
X103334413Y-63401938D01*
X103334403Y-63401936D01*
X103099001Y-63381341D01*
X103098999Y-63381341D01*
X102863596Y-63401936D01*
X102863586Y-63401938D01*
X102635344Y-63463094D01*
X102635335Y-63463098D01*
X102421171Y-63562964D01*
X102421169Y-63562965D01*
X102227597Y-63698505D01*
X102060505Y-63865597D01*
X101930575Y-64051158D01*
X101875998Y-64094783D01*
X101806500Y-64101977D01*
X101744145Y-64070454D01*
X101727425Y-64051158D01*
X101597494Y-63865597D01*
X101430402Y-63698506D01*
X101430395Y-63698501D01*
X101236834Y-63562967D01*
X101236830Y-63562965D01*
X101198525Y-63545103D01*
X101022663Y-63463097D01*
X101022659Y-63463096D01*
X101022655Y-63463094D01*
X100794413Y-63401938D01*
X100794403Y-63401936D01*
X100559001Y-63381341D01*
X100558999Y-63381341D01*
X100323596Y-63401936D01*
X100323586Y-63401938D01*
X100095344Y-63463094D01*
X100095335Y-63463098D01*
X99881171Y-63562964D01*
X99881169Y-63562965D01*
X99687597Y-63698505D01*
X99520505Y-63865597D01*
X99384965Y-64059169D01*
X99384964Y-64059171D01*
X99285098Y-64273335D01*
X99285094Y-64273344D01*
X99223938Y-64501586D01*
X99223936Y-64501596D01*
X99203341Y-64736999D01*
X99203341Y-64737000D01*
X99223936Y-64972403D01*
X99223938Y-64972413D01*
X99285094Y-65200655D01*
X99285096Y-65200659D01*
X99285097Y-65200663D01*
X99361433Y-65364365D01*
X99384965Y-65414830D01*
X99384967Y-65414834D01*
X99427712Y-65475880D01*
X99450039Y-65542086D01*
X99433029Y-65609853D01*
X99382080Y-65657666D01*
X99313371Y-65670344D01*
X99273732Y-65659385D01*
X99188619Y-65619696D01*
X99125496Y-65590261D01*
X99125492Y-65590260D01*
X99125488Y-65590258D01*
X98905697Y-65531366D01*
X98905693Y-65531365D01*
X98905692Y-65531365D01*
X98905691Y-65531364D01*
X98905686Y-65531364D01*
X98679002Y-65511532D01*
X98678998Y-65511532D01*
X98452313Y-65531364D01*
X98452302Y-65531366D01*
X98232511Y-65590258D01*
X98232502Y-65590261D01*
X98026267Y-65686431D01*
X98026265Y-65686432D01*
X97839858Y-65816954D01*
X97678954Y-65977858D01*
X97548432Y-66164265D01*
X97548431Y-66164267D01*
X97452261Y-66370502D01*
X97452258Y-66370511D01*
X97393366Y-66590302D01*
X97393364Y-66590313D01*
X97373532Y-66816998D01*
X96367600Y-66816998D01*
X96367600Y-58516998D01*
X97119532Y-58516998D01*
X97119532Y-58517001D01*
X97139364Y-58743686D01*
X97139366Y-58743697D01*
X97198258Y-58963488D01*
X97198261Y-58963497D01*
X97294431Y-59169732D01*
X97294432Y-59169734D01*
X97424954Y-59356141D01*
X97585858Y-59517045D01*
X97585861Y-59517047D01*
X97772266Y-59647568D01*
X97978504Y-59743739D01*
X98198308Y-59802635D01*
X98360230Y-59816801D01*
X98424998Y-59822468D01*
X98425000Y-59822468D01*
X98425002Y-59822468D01*
X98481673Y-59817509D01*
X98651692Y-59802635D01*
X98871496Y-59743739D01*
X99077734Y-59647568D01*
X99077736Y-59647566D01*
X99077739Y-59647565D01*
X99095292Y-59635274D01*
X99161497Y-59612945D01*
X99229265Y-59629954D01*
X99277079Y-59680901D01*
X99282756Y-59695746D01*
X99283243Y-59695569D01*
X99285095Y-59700656D01*
X99285097Y-59700663D01*
X99341896Y-59822468D01*
X99384965Y-59914830D01*
X99384967Y-59914834D01*
X99476182Y-60045101D01*
X99520505Y-60108401D01*
X99687599Y-60275495D01*
X99764135Y-60329086D01*
X99881165Y-60411032D01*
X99881167Y-60411033D01*
X99881170Y-60411035D01*
X100095337Y-60510903D01*
X100323592Y-60572063D01*
X100494319Y-60587000D01*
X100558999Y-60592659D01*
X100559000Y-60592659D01*
X100559001Y-60592659D01*
X100623681Y-60587000D01*
X100794408Y-60572063D01*
X101022663Y-60510903D01*
X101236830Y-60411035D01*
X101430401Y-60275495D01*
X101597495Y-60108401D01*
X101727425Y-59922842D01*
X101782002Y-59879217D01*
X101851500Y-59872023D01*
X101913855Y-59903546D01*
X101930575Y-59922842D01*
X102060500Y-60108395D01*
X102060505Y-60108401D01*
X102227599Y-60275495D01*
X102304135Y-60329086D01*
X102421165Y-60411032D01*
X102421167Y-60411033D01*
X102421170Y-60411035D01*
X102635337Y-60510903D01*
X102863592Y-60572063D01*
X103034319Y-60587000D01*
X103098999Y-60592659D01*
X103099000Y-60592659D01*
X103099001Y-60592659D01*
X103163681Y-60587000D01*
X103334408Y-60572063D01*
X103562663Y-60510903D01*
X103776830Y-60411035D01*
X103970401Y-60275495D01*
X104092717Y-60153178D01*
X104154036Y-60119696D01*
X104223728Y-60124680D01*
X104279662Y-60166551D01*
X104296577Y-60197528D01*
X104345646Y-60329088D01*
X104345649Y-60329093D01*
X104431809Y-60444187D01*
X104431812Y-60444190D01*
X104546906Y-60530350D01*
X104546913Y-60530354D01*
X104681620Y-60580596D01*
X104681627Y-60580598D01*
X104741155Y-60586999D01*
X104741172Y-60587000D01*
X105389000Y-60587000D01*
X105389000Y-59670012D01*
X105446007Y-59702925D01*
X105573174Y-59737000D01*
X105704826Y-59737000D01*
X105831993Y-59702925D01*
X105889000Y-59670012D01*
X105889000Y-60587000D01*
X106536828Y-60587000D01*
X106536844Y-60586999D01*
X106596372Y-60580598D01*
X106596379Y-60580596D01*
X106731086Y-60530354D01*
X106731093Y-60530350D01*
X106846187Y-60444190D01*
X106846190Y-60444187D01*
X106932350Y-60329093D01*
X106932354Y-60329086D01*
X106982596Y-60194379D01*
X106982598Y-60194372D01*
X106988999Y-60134844D01*
X106989000Y-60134827D01*
X106989000Y-59487000D01*
X106072012Y-59487000D01*
X106104925Y-59429993D01*
X106139000Y-59302826D01*
X106139000Y-59171174D01*
X106104925Y-59044007D01*
X106072012Y-58987000D01*
X106989000Y-58987000D01*
X106989000Y-58339172D01*
X106988999Y-58339155D01*
X106982598Y-58279627D01*
X106982596Y-58279620D01*
X106932354Y-58144913D01*
X106932350Y-58144906D01*
X106846190Y-58029812D01*
X106846187Y-58029809D01*
X106731093Y-57943649D01*
X106731086Y-57943645D01*
X106596379Y-57893403D01*
X106596372Y-57893401D01*
X106536844Y-57887000D01*
X105889000Y-57887000D01*
X105889000Y-58803988D01*
X105831993Y-58771075D01*
X105704826Y-58737000D01*
X105573174Y-58737000D01*
X105446007Y-58771075D01*
X105389000Y-58803988D01*
X105389000Y-57887000D01*
X104741155Y-57887000D01*
X104681627Y-57893401D01*
X104681620Y-57893403D01*
X104546913Y-57943645D01*
X104546906Y-57943649D01*
X104431812Y-58029809D01*
X104431809Y-58029812D01*
X104345649Y-58144906D01*
X104345645Y-58144913D01*
X104296578Y-58276470D01*
X104254707Y-58332404D01*
X104189242Y-58356821D01*
X104120969Y-58341969D01*
X104092715Y-58320819D01*
X104048366Y-58276470D01*
X103970401Y-58198505D01*
X103970397Y-58198502D01*
X103970396Y-58198501D01*
X103776834Y-58062967D01*
X103776830Y-58062965D01*
X103702984Y-58028530D01*
X103562663Y-57963097D01*
X103562659Y-57963096D01*
X103562655Y-57963094D01*
X103334413Y-57901938D01*
X103334403Y-57901936D01*
X103099001Y-57881341D01*
X103098999Y-57881341D01*
X102863596Y-57901936D01*
X102863586Y-57901938D01*
X102635344Y-57963094D01*
X102635335Y-57963098D01*
X102421171Y-58062964D01*
X102421169Y-58062965D01*
X102227597Y-58198505D01*
X102060505Y-58365597D01*
X101930575Y-58551158D01*
X101875998Y-58594783D01*
X101806500Y-58601977D01*
X101744145Y-58570454D01*
X101727425Y-58551158D01*
X101597494Y-58365597D01*
X101430402Y-58198506D01*
X101430395Y-58198501D01*
X101236834Y-58062967D01*
X101236830Y-58062965D01*
X101162984Y-58028530D01*
X101022663Y-57963097D01*
X101022659Y-57963096D01*
X101022655Y-57963094D01*
X100794413Y-57901938D01*
X100794403Y-57901936D01*
X100559001Y-57881341D01*
X100558999Y-57881341D01*
X100323596Y-57901936D01*
X100323586Y-57901938D01*
X100095344Y-57963094D01*
X100095335Y-57963098D01*
X99881171Y-58062964D01*
X99881169Y-58062965D01*
X99826613Y-58101166D01*
X99760406Y-58123493D01*
X99692639Y-58106482D01*
X99644827Y-58055534D01*
X99643120Y-58052022D01*
X99555568Y-57864266D01*
X99425047Y-57677861D01*
X99425045Y-57677858D01*
X99264141Y-57516954D01*
X99077734Y-57386432D01*
X99077732Y-57386431D01*
X98871497Y-57290261D01*
X98871488Y-57290258D01*
X98651697Y-57231366D01*
X98651693Y-57231365D01*
X98651692Y-57231365D01*
X98651691Y-57231364D01*
X98651686Y-57231364D01*
X98425002Y-57211532D01*
X98424998Y-57211532D01*
X98198313Y-57231364D01*
X98198302Y-57231366D01*
X97978511Y-57290258D01*
X97978502Y-57290261D01*
X97772267Y-57386431D01*
X97772265Y-57386432D01*
X97585858Y-57516954D01*
X97424954Y-57677858D01*
X97294432Y-57864265D01*
X97294431Y-57864267D01*
X97198261Y-58070502D01*
X97198258Y-58070511D01*
X97139366Y-58290302D01*
X97139364Y-58290313D01*
X97119532Y-58516998D01*
X96367600Y-58516998D01*
X96367600Y-56007500D01*
X96387285Y-55940461D01*
X96440089Y-55894706D01*
X96491600Y-55883500D01*
X109492770Y-55883500D01*
X109559809Y-55903185D01*
X109580451Y-55919819D01*
X110087089Y-56426456D01*
X110099880Y-56441465D01*
X110138940Y-56495467D01*
X110405062Y-56863391D01*
X110409583Y-56870089D01*
X110431685Y-56905263D01*
X110444775Y-56918353D01*
X110454667Y-56929513D01*
X110455952Y-56931152D01*
X110455962Y-56931164D01*
X110455963Y-56931165D01*
X110457142Y-56932554D01*
X110524054Y-56997996D01*
X110524056Y-56997997D01*
X110529252Y-57003079D01*
X110531302Y-57004880D01*
X110559238Y-57032816D01*
X110711978Y-57128789D01*
X110882245Y-57188368D01*
X110882250Y-57188369D01*
X111061496Y-57208565D01*
X111061500Y-57208565D01*
X111061504Y-57208565D01*
X111240749Y-57188369D01*
X111240752Y-57188368D01*
X111240755Y-57188368D01*
X111411022Y-57128789D01*
X111563762Y-57032816D01*
X111691316Y-56905262D01*
X111787289Y-56752522D01*
X111846868Y-56582255D01*
X111851054Y-56545103D01*
X111867065Y-56403003D01*
X111867065Y-56402996D01*
X111846869Y-56223750D01*
X111846868Y-56223745D01*
X111787288Y-56053476D01*
X111748082Y-55991080D01*
X111691316Y-55900738D01*
X111647590Y-55857012D01*
X111636649Y-55844496D01*
X111619586Y-55822108D01*
X111194244Y-55404041D01*
X111179258Y-55392728D01*
X111175827Y-55389681D01*
X111173511Y-55387997D01*
X111158761Y-55375393D01*
X110333421Y-54550052D01*
X110333420Y-54550051D01*
X110301211Y-54528530D01*
X110221845Y-54475500D01*
X110210495Y-54467916D01*
X110210492Y-54467914D01*
X110210491Y-54467914D01*
X110210490Y-54467913D01*
X110073917Y-54411343D01*
X110073907Y-54411340D01*
X109928920Y-54382500D01*
X109928918Y-54382500D01*
X107113000Y-54382500D01*
X107045961Y-54362815D01*
X107000206Y-54310011D01*
X106989000Y-54258500D01*
X106989000Y-53987000D01*
X106072012Y-53987000D01*
X106104925Y-53929993D01*
X106139000Y-53802826D01*
X106139000Y-53671174D01*
X106104925Y-53544007D01*
X106072012Y-53487000D01*
X106989000Y-53487000D01*
X106989000Y-52839172D01*
X106988999Y-52839155D01*
X106982598Y-52779627D01*
X106982596Y-52779620D01*
X106981244Y-52775995D01*
X121232051Y-52775995D01*
X121232051Y-52776004D01*
X121252216Y-53045101D01*
X121312264Y-53308188D01*
X121312266Y-53308195D01*
X121388169Y-53501592D01*
X121410857Y-53559398D01*
X121545785Y-53793102D01*
X121681680Y-53963509D01*
X121714042Y-54004089D01*
X121857394Y-54137099D01*
X121911859Y-54187635D01*
X122134826Y-54339651D01*
X122134829Y-54339652D01*
X122134830Y-54339653D01*
X122289794Y-54414280D01*
X122341653Y-54461103D01*
X122359966Y-54528530D01*
X122338918Y-54595154D01*
X122289794Y-54637720D01*
X122134830Y-54712346D01*
X121911858Y-54864365D01*
X121714042Y-55047910D01*
X121545785Y-55258898D01*
X121410858Y-55492599D01*
X121410856Y-55492603D01*
X121312266Y-55743804D01*
X121312264Y-55743811D01*
X121252216Y-56006898D01*
X121232051Y-56275995D01*
X121232051Y-56276004D01*
X121252216Y-56545101D01*
X121312264Y-56808188D01*
X121312266Y-56808195D01*
X121360523Y-56931152D01*
X121410857Y-57059398D01*
X121545785Y-57293102D01*
X121681680Y-57463509D01*
X121714042Y-57504089D01*
X121900783Y-57677358D01*
X121911859Y-57687635D01*
X122134826Y-57839651D01*
X122134829Y-57839652D01*
X122134830Y-57839653D01*
X122289794Y-57914280D01*
X122341653Y-57961103D01*
X122359966Y-58028530D01*
X122338918Y-58095154D01*
X122289794Y-58137720D01*
X122134830Y-58212346D01*
X121911858Y-58364365D01*
X121714042Y-58547910D01*
X121545785Y-58758898D01*
X121410858Y-58992599D01*
X121410856Y-58992603D01*
X121312266Y-59243804D01*
X121312264Y-59243811D01*
X121252216Y-59506898D01*
X121232051Y-59775995D01*
X121232051Y-59776004D01*
X121252216Y-60045101D01*
X121312264Y-60308188D01*
X121312266Y-60308195D01*
X121410856Y-60559396D01*
X121410858Y-60559400D01*
X121423097Y-60580598D01*
X121545785Y-60793102D01*
X121681680Y-60963509D01*
X121714042Y-61004089D01*
X121900783Y-61177358D01*
X121911859Y-61187635D01*
X122134826Y-61339651D01*
X122134829Y-61339652D01*
X122134830Y-61339653D01*
X122289794Y-61414280D01*
X122341653Y-61461103D01*
X122359966Y-61528530D01*
X122338918Y-61595154D01*
X122289794Y-61637720D01*
X122134830Y-61712346D01*
X121911858Y-61864365D01*
X121714042Y-62047910D01*
X121545785Y-62258898D01*
X121410858Y-62492599D01*
X121410856Y-62492603D01*
X121312266Y-62743804D01*
X121312264Y-62743811D01*
X121252216Y-63006898D01*
X121232051Y-63275995D01*
X121232051Y-63276004D01*
X121252216Y-63545101D01*
X121312264Y-63808188D01*
X121312266Y-63808195D01*
X121331350Y-63856821D01*
X121410857Y-64059398D01*
X121545785Y-64293102D01*
X121681680Y-64463509D01*
X121714042Y-64504089D01*
X121894118Y-64671174D01*
X121911859Y-64687635D01*
X122134826Y-64839651D01*
X122134829Y-64839652D01*
X122134830Y-64839653D01*
X122289794Y-64914280D01*
X122341653Y-64961103D01*
X122359966Y-65028530D01*
X122338918Y-65095154D01*
X122289794Y-65137720D01*
X122134830Y-65212346D01*
X121911858Y-65364365D01*
X121714042Y-65547910D01*
X121545785Y-65758898D01*
X121410858Y-65992599D01*
X121410856Y-65992603D01*
X121312266Y-66243804D01*
X121312264Y-66243811D01*
X121252216Y-66506898D01*
X121232051Y-66775995D01*
X121232051Y-66776004D01*
X121252216Y-67045101D01*
X121302064Y-67263497D01*
X121312266Y-67308195D01*
X121410857Y-67559398D01*
X121545785Y-67793102D01*
X121564881Y-67817047D01*
X121714042Y-68004089D01*
X121900783Y-68177358D01*
X121911859Y-68187635D01*
X122134826Y-68339651D01*
X122134829Y-68339652D01*
X122134830Y-68339653D01*
X122289794Y-68414280D01*
X122341653Y-68461103D01*
X122359966Y-68528530D01*
X122338918Y-68595154D01*
X122289794Y-68637720D01*
X122134830Y-68712346D01*
X121911858Y-68864365D01*
X121714042Y-69047910D01*
X121545785Y-69258898D01*
X121410858Y-69492599D01*
X121410856Y-69492603D01*
X121312266Y-69743804D01*
X121312264Y-69743811D01*
X121252216Y-70006898D01*
X121232051Y-70275995D01*
X121232051Y-70276004D01*
X121252216Y-70545101D01*
X121296016Y-70737000D01*
X121312266Y-70808195D01*
X121410857Y-71059398D01*
X121545785Y-71293102D01*
X121639833Y-71411034D01*
X121714042Y-71504089D01*
X121900783Y-71677358D01*
X121911859Y-71687635D01*
X122134826Y-71839651D01*
X122134829Y-71839652D01*
X122134830Y-71839653D01*
X122289794Y-71914280D01*
X122341653Y-71961103D01*
X122359966Y-72028530D01*
X122338918Y-72095154D01*
X122289794Y-72137720D01*
X122134830Y-72212346D01*
X121911858Y-72364365D01*
X121714042Y-72547910D01*
X121545785Y-72758898D01*
X121410858Y-72992599D01*
X121410856Y-72992603D01*
X121312266Y-73243804D01*
X121312264Y-73243811D01*
X121252216Y-73506898D01*
X121232051Y-73775995D01*
X121232051Y-73776004D01*
X121252216Y-74045101D01*
X121312264Y-74308188D01*
X121312266Y-74308195D01*
X121410856Y-74559396D01*
X121410858Y-74559400D01*
X121439370Y-74608784D01*
X121545785Y-74793102D01*
X121603600Y-74865599D01*
X121714042Y-75004089D01*
X121900783Y-75177358D01*
X121911859Y-75187635D01*
X122134826Y-75339651D01*
X122377959Y-75456738D01*
X122635828Y-75536280D01*
X122635829Y-75536280D01*
X122635832Y-75536281D01*
X122902663Y-75576499D01*
X122902668Y-75576499D01*
X122902671Y-75576500D01*
X122902672Y-75576500D01*
X123172528Y-75576500D01*
X123172529Y-75576500D01*
X123172536Y-75576499D01*
X123439367Y-75536281D01*
X123439368Y-75536280D01*
X123439372Y-75536280D01*
X123697241Y-75456738D01*
X123940375Y-75339651D01*
X124163341Y-75187635D01*
X124361161Y-75004085D01*
X124529415Y-74793102D01*
X124664343Y-74559398D01*
X124762934Y-74308195D01*
X124822983Y-74045103D01*
X124843149Y-73776000D01*
X124822983Y-73506897D01*
X124762934Y-73243805D01*
X124664343Y-72992602D01*
X124529415Y-72758898D01*
X124361161Y-72547915D01*
X124361160Y-72547914D01*
X124361157Y-72547910D01*
X124163341Y-72364365D01*
X123940375Y-72212349D01*
X123940369Y-72212346D01*
X123940368Y-72212345D01*
X123940367Y-72212344D01*
X123785406Y-72137720D01*
X123733546Y-72090898D01*
X123715233Y-72023471D01*
X123736281Y-71956847D01*
X123785406Y-71914280D01*
X123940367Y-71839655D01*
X123940367Y-71839654D01*
X123940375Y-71839651D01*
X124163341Y-71687635D01*
X124361161Y-71504085D01*
X124529415Y-71293102D01*
X124664343Y-71059398D01*
X124762934Y-70808195D01*
X124822983Y-70545103D01*
X124843149Y-70276000D01*
X124840226Y-70237001D01*
X124822983Y-70006898D01*
X124821772Y-70001592D01*
X124762934Y-69743805D01*
X124664343Y-69492602D01*
X124529415Y-69258898D01*
X124361161Y-69047915D01*
X124361160Y-69047914D01*
X124361157Y-69047910D01*
X124163341Y-68864365D01*
X123940375Y-68712349D01*
X123940369Y-68712346D01*
X123940368Y-68712345D01*
X123940367Y-68712344D01*
X123785406Y-68637720D01*
X123733546Y-68590898D01*
X123715233Y-68523471D01*
X123736281Y-68456847D01*
X123785406Y-68414280D01*
X123940367Y-68339655D01*
X123940367Y-68339654D01*
X123940375Y-68339651D01*
X124163341Y-68187635D01*
X124361161Y-68004085D01*
X124529415Y-67793102D01*
X124664343Y-67559398D01*
X124762934Y-67308195D01*
X124822983Y-67045103D01*
X124829705Y-66955402D01*
X124843149Y-66776004D01*
X124843149Y-66775995D01*
X124822983Y-66506898D01*
X124791852Y-66370504D01*
X124762934Y-66243805D01*
X124664343Y-65992602D01*
X124529415Y-65758898D01*
X124361161Y-65547915D01*
X124361160Y-65547914D01*
X124361157Y-65547910D01*
X124163341Y-65364365D01*
X123940375Y-65212349D01*
X123940369Y-65212346D01*
X123940368Y-65212345D01*
X123940367Y-65212344D01*
X123785406Y-65137720D01*
X123733546Y-65090898D01*
X123715233Y-65023471D01*
X123736281Y-64956847D01*
X123785406Y-64914280D01*
X123940367Y-64839655D01*
X123940367Y-64839654D01*
X123940375Y-64839651D01*
X124163341Y-64687635D01*
X124361161Y-64504085D01*
X124529415Y-64293102D01*
X124664343Y-64059398D01*
X124762934Y-63808195D01*
X124822983Y-63545103D01*
X124830586Y-63443645D01*
X124843149Y-63276004D01*
X124843149Y-63275995D01*
X124822983Y-63006898D01*
X124762935Y-62743811D01*
X124762934Y-62743805D01*
X124664343Y-62492602D01*
X124529415Y-62258898D01*
X124361161Y-62047915D01*
X124361160Y-62047914D01*
X124361157Y-62047910D01*
X124163341Y-61864365D01*
X123940375Y-61712349D01*
X123940369Y-61712346D01*
X123940368Y-61712345D01*
X123940367Y-61712344D01*
X123785406Y-61637720D01*
X123733546Y-61590898D01*
X123715233Y-61523471D01*
X123736281Y-61456847D01*
X123785406Y-61414280D01*
X123940367Y-61339655D01*
X123940367Y-61339654D01*
X123940375Y-61339651D01*
X124163341Y-61187635D01*
X124361161Y-61004085D01*
X124529415Y-60793102D01*
X124664343Y-60559398D01*
X124762934Y-60308195D01*
X124822983Y-60045103D01*
X124843149Y-59776000D01*
X124840731Y-59743739D01*
X124822983Y-59506898D01*
X124822983Y-59506897D01*
X124762934Y-59243805D01*
X124664343Y-58992602D01*
X124529415Y-58758898D01*
X124361161Y-58547915D01*
X124361160Y-58547914D01*
X124361157Y-58547910D01*
X124163341Y-58364365D01*
X124099471Y-58320819D01*
X123940375Y-58212349D01*
X123940369Y-58212346D01*
X123940368Y-58212345D01*
X123940367Y-58212344D01*
X123785406Y-58137720D01*
X123733546Y-58090898D01*
X123715233Y-58023471D01*
X123736281Y-57956847D01*
X123785406Y-57914280D01*
X123940367Y-57839655D01*
X123940367Y-57839654D01*
X123940375Y-57839651D01*
X124163341Y-57687635D01*
X124361161Y-57504085D01*
X124529415Y-57293102D01*
X124664343Y-57059398D01*
X124762934Y-56808195D01*
X124822983Y-56545103D01*
X124843149Y-56276000D01*
X124839233Y-56223750D01*
X124822983Y-56006898D01*
X124798753Y-55900738D01*
X124762934Y-55743805D01*
X124664343Y-55492602D01*
X124529415Y-55258898D01*
X124361161Y-55047915D01*
X124361160Y-55047914D01*
X124361157Y-55047910D01*
X124163341Y-54864365D01*
X123940375Y-54712349D01*
X123940369Y-54712346D01*
X123940368Y-54712345D01*
X123940367Y-54712344D01*
X123785406Y-54637720D01*
X123733546Y-54590898D01*
X123715233Y-54523471D01*
X123736281Y-54456847D01*
X123785406Y-54414280D01*
X123940367Y-54339655D01*
X123940367Y-54339654D01*
X123940375Y-54339651D01*
X124163341Y-54187635D01*
X124361161Y-54004085D01*
X124529415Y-53793102D01*
X124664343Y-53559398D01*
X124762934Y-53308195D01*
X124822983Y-53045103D01*
X124836435Y-52865597D01*
X124843149Y-52776004D01*
X124843149Y-52775995D01*
X124822983Y-52506898D01*
X124808546Y-52443645D01*
X124762934Y-52243805D01*
X124664343Y-51992602D01*
X124529415Y-51758898D01*
X124361161Y-51547915D01*
X124361160Y-51547914D01*
X124361157Y-51547910D01*
X124163341Y-51364365D01*
X124163337Y-51364362D01*
X124073263Y-51302950D01*
X124028963Y-51248924D01*
X124020904Y-51179521D01*
X124051647Y-51116778D01*
X124111431Y-51080616D01*
X124143117Y-51076499D01*
X124385471Y-51076499D01*
X124385472Y-51076499D01*
X124445083Y-51070091D01*
X124579931Y-51019796D01*
X124695146Y-50933546D01*
X124781396Y-50818331D01*
X124831691Y-50683483D01*
X124838100Y-50623873D01*
X124838099Y-47928128D01*
X124831691Y-47868517D01*
X124819446Y-47835687D01*
X124781397Y-47733671D01*
X124781393Y-47733664D01*
X124695147Y-47618455D01*
X124695144Y-47618452D01*
X124579935Y-47532206D01*
X124579928Y-47532202D01*
X124445082Y-47481908D01*
X124445083Y-47481908D01*
X124385483Y-47475501D01*
X124385481Y-47475500D01*
X124385473Y-47475500D01*
X124385464Y-47475500D01*
X121689729Y-47475500D01*
X121689723Y-47475501D01*
X121630116Y-47481908D01*
X121495271Y-47532202D01*
X121495264Y-47532206D01*
X121380055Y-47618452D01*
X121380052Y-47618455D01*
X121293806Y-47733664D01*
X121293802Y-47733671D01*
X121243508Y-47868517D01*
X121237101Y-47928116D01*
X121237101Y-47928123D01*
X121237100Y-47928135D01*
X121237100Y-50623870D01*
X121237101Y-50623876D01*
X121243508Y-50683483D01*
X121293802Y-50818328D01*
X121293806Y-50818335D01*
X121380052Y-50933544D01*
X121380055Y-50933547D01*
X121495264Y-51019793D01*
X121495271Y-51019797D01*
X121540218Y-51036561D01*
X121630117Y-51070091D01*
X121689727Y-51076500D01*
X121932083Y-51076499D01*
X121999121Y-51096183D01*
X122044876Y-51148987D01*
X122054820Y-51218146D01*
X122025795Y-51281701D01*
X122001934Y-51302952D01*
X121911862Y-51364362D01*
X121714042Y-51547910D01*
X121545785Y-51758898D01*
X121410858Y-51992599D01*
X121410856Y-51992603D01*
X121312266Y-52243804D01*
X121312264Y-52243811D01*
X121252216Y-52506898D01*
X121232051Y-52775995D01*
X106981244Y-52775995D01*
X106932354Y-52644913D01*
X106932350Y-52644906D01*
X106846190Y-52529812D01*
X106846187Y-52529809D01*
X106731093Y-52443649D01*
X106731086Y-52443645D01*
X106596379Y-52393403D01*
X106596372Y-52393401D01*
X106536844Y-52387000D01*
X105889000Y-52387000D01*
X105889000Y-53303988D01*
X105831993Y-53271075D01*
X105704826Y-53237000D01*
X105573174Y-53237000D01*
X105446007Y-53271075D01*
X105389000Y-53303988D01*
X105389000Y-52387000D01*
X104741155Y-52387000D01*
X104681627Y-52393401D01*
X104681620Y-52393403D01*
X104546913Y-52443645D01*
X104546906Y-52443649D01*
X104431812Y-52529809D01*
X104431809Y-52529812D01*
X104345649Y-52644906D01*
X104345645Y-52644913D01*
X104296578Y-52776470D01*
X104254707Y-52832404D01*
X104189242Y-52856821D01*
X104120969Y-52841969D01*
X104092715Y-52820819D01*
X104047891Y-52775995D01*
X103970401Y-52698505D01*
X103970397Y-52698502D01*
X103970396Y-52698501D01*
X103776834Y-52562967D01*
X103776830Y-52562965D01*
X103678260Y-52517001D01*
X103562663Y-52463097D01*
X103562659Y-52463096D01*
X103562655Y-52463094D01*
X103334413Y-52401938D01*
X103334403Y-52401936D01*
X103099001Y-52381341D01*
X103098999Y-52381341D01*
X102863596Y-52401936D01*
X102863586Y-52401938D01*
X102635344Y-52463094D01*
X102635335Y-52463098D01*
X102421171Y-52562964D01*
X102421169Y-52562965D01*
X102227597Y-52698505D01*
X102060505Y-52865597D01*
X101930575Y-53051158D01*
X101875998Y-53094783D01*
X101806500Y-53101977D01*
X101744145Y-53070454D01*
X101727425Y-53051158D01*
X101597494Y-52865597D01*
X101430402Y-52698506D01*
X101430395Y-52698501D01*
X101236834Y-52562967D01*
X101236830Y-52562965D01*
X101138260Y-52517001D01*
X101022663Y-52463097D01*
X101022659Y-52463096D01*
X101022655Y-52463094D01*
X100794413Y-52401938D01*
X100794403Y-52401936D01*
X100559001Y-52381341D01*
X100558999Y-52381341D01*
X100323596Y-52401936D01*
X100323583Y-52401939D01*
X100125139Y-52455110D01*
X100055290Y-52453447D01*
X99997427Y-52414284D01*
X99969924Y-52350055D01*
X99969522Y-52346177D01*
X99964635Y-52290308D01*
X99905739Y-52070504D01*
X99809568Y-51864266D01*
X99679047Y-51677861D01*
X99679045Y-51677858D01*
X99518141Y-51516954D01*
X99331734Y-51386432D01*
X99331732Y-51386431D01*
X99125497Y-51290261D01*
X99125488Y-51290258D01*
X98905697Y-51231366D01*
X98905693Y-51231365D01*
X98905692Y-51231365D01*
X98905691Y-51231364D01*
X98905686Y-51231364D01*
X98679002Y-51211532D01*
X98678998Y-51211532D01*
X98452313Y-51231364D01*
X98452302Y-51231366D01*
X98232511Y-51290258D01*
X98232502Y-51290261D01*
X98026267Y-51386431D01*
X98026265Y-51386432D01*
X97839858Y-51516954D01*
X97678954Y-51677858D01*
X97548432Y-51864265D01*
X97548431Y-51864267D01*
X97452261Y-52070502D01*
X97452258Y-52070511D01*
X97393366Y-52290302D01*
X97393364Y-52290313D01*
X97373532Y-52516998D01*
X97373532Y-52517001D01*
X97393364Y-52743686D01*
X97393366Y-52743697D01*
X97452258Y-52963488D01*
X97452261Y-52963497D01*
X97548431Y-53169732D01*
X97548432Y-53169734D01*
X97678954Y-53356141D01*
X97839858Y-53517045D01*
X97839861Y-53517047D01*
X98026266Y-53647568D01*
X98232504Y-53743739D01*
X98452308Y-53802635D01*
X98614230Y-53816801D01*
X98678998Y-53822468D01*
X98679000Y-53822468D01*
X98679002Y-53822468D01*
X98735673Y-53817509D01*
X98905692Y-53802635D01*
X99059393Y-53761451D01*
X99129241Y-53763114D01*
X99187104Y-53802276D01*
X99214608Y-53866505D01*
X99215013Y-53870417D01*
X99223936Y-53972403D01*
X99223938Y-53972413D01*
X99285094Y-54200655D01*
X99285096Y-54200659D01*
X99285097Y-54200663D01*
X99286152Y-54202925D01*
X99287631Y-54206097D01*
X99298122Y-54275174D01*
X99269601Y-54338958D01*
X99211124Y-54377197D01*
X99175248Y-54382500D01*
X96491600Y-54382500D01*
X96424561Y-54362815D01*
X96378806Y-54310011D01*
X96367600Y-54258500D01*
X96367600Y-46996546D01*
X97635914Y-46996546D01*
X97635914Y-46996549D01*
X97655746Y-47223234D01*
X97655748Y-47223245D01*
X97714640Y-47443036D01*
X97714643Y-47443045D01*
X97810813Y-47649280D01*
X97810814Y-47649282D01*
X97941336Y-47835689D01*
X98102240Y-47996593D01*
X98149075Y-48029387D01*
X98288648Y-48127116D01*
X98494886Y-48223287D01*
X98714690Y-48282183D01*
X98876612Y-48296349D01*
X98941380Y-48302016D01*
X98941382Y-48302016D01*
X98941383Y-48302016D01*
X98991453Y-48297635D01*
X99083467Y-48289585D01*
X99151967Y-48303352D01*
X99202151Y-48351967D01*
X99217803Y-48402304D01*
X99223936Y-48472403D01*
X99223938Y-48472413D01*
X99285094Y-48700655D01*
X99285096Y-48700659D01*
X99285097Y-48700663D01*
X99365004Y-48872023D01*
X99384965Y-48914830D01*
X99384967Y-48914834D01*
X99493281Y-49069521D01*
X99520505Y-49108401D01*
X99687599Y-49275495D01*
X99764135Y-49329086D01*
X99881165Y-49411032D01*
X99881167Y-49411033D01*
X99881170Y-49411035D01*
X100095337Y-49510903D01*
X100323592Y-49572063D01*
X100494319Y-49587000D01*
X100558999Y-49592659D01*
X100559000Y-49592659D01*
X100559001Y-49592659D01*
X100623681Y-49587000D01*
X100794408Y-49572063D01*
X101022663Y-49510903D01*
X101236830Y-49411035D01*
X101430401Y-49275495D01*
X101597495Y-49108401D01*
X101727425Y-48922842D01*
X101782002Y-48879217D01*
X101851500Y-48872023D01*
X101913855Y-48903546D01*
X101930575Y-48922842D01*
X102060500Y-49108395D01*
X102060505Y-49108401D01*
X102227599Y-49275495D01*
X102304135Y-49329086D01*
X102421165Y-49411032D01*
X102421167Y-49411033D01*
X102421170Y-49411035D01*
X102635337Y-49510903D01*
X102863592Y-49572063D01*
X103034319Y-49587000D01*
X103098999Y-49592659D01*
X103099000Y-49592659D01*
X103099001Y-49592659D01*
X103163681Y-49587000D01*
X103334408Y-49572063D01*
X103562663Y-49510903D01*
X103776830Y-49411035D01*
X103970401Y-49275495D01*
X104092717Y-49153178D01*
X104154036Y-49119696D01*
X104223728Y-49124680D01*
X104279662Y-49166551D01*
X104296577Y-49197528D01*
X104345646Y-49329088D01*
X104345649Y-49329093D01*
X104431809Y-49444187D01*
X104431812Y-49444190D01*
X104546906Y-49530350D01*
X104546913Y-49530354D01*
X104681620Y-49580596D01*
X104681627Y-49580598D01*
X104741155Y-49586999D01*
X104741172Y-49587000D01*
X105389000Y-49587000D01*
X105389000Y-48670012D01*
X105446007Y-48702925D01*
X105573174Y-48737000D01*
X105704826Y-48737000D01*
X105831993Y-48702925D01*
X105889000Y-48670012D01*
X105889000Y-49587000D01*
X106536828Y-49587000D01*
X106536844Y-49586999D01*
X106596372Y-49580598D01*
X106596379Y-49580596D01*
X106731086Y-49530354D01*
X106731093Y-49530350D01*
X106846187Y-49444190D01*
X106846190Y-49444187D01*
X106932350Y-49329093D01*
X106932354Y-49329086D01*
X106982596Y-49194379D01*
X106982598Y-49194372D01*
X106988999Y-49134844D01*
X106989000Y-49134827D01*
X106989000Y-48487000D01*
X106072012Y-48487000D01*
X106104925Y-48429993D01*
X106139000Y-48302826D01*
X106139000Y-48171174D01*
X106104925Y-48044007D01*
X106072012Y-47987000D01*
X106989000Y-47987000D01*
X106989000Y-47339172D01*
X106988999Y-47339155D01*
X106982598Y-47279627D01*
X106982596Y-47279620D01*
X106932354Y-47144913D01*
X106932350Y-47144906D01*
X106846190Y-47029812D01*
X106846187Y-47029809D01*
X106731093Y-46943649D01*
X106731086Y-46943645D01*
X106596379Y-46893403D01*
X106596372Y-46893401D01*
X106536844Y-46887000D01*
X105889000Y-46887000D01*
X105889000Y-47803988D01*
X105831993Y-47771075D01*
X105704826Y-47737000D01*
X105573174Y-47737000D01*
X105446007Y-47771075D01*
X105389000Y-47803988D01*
X105389000Y-46887000D01*
X104741155Y-46887000D01*
X104681627Y-46893401D01*
X104681620Y-46893403D01*
X104546913Y-46943645D01*
X104546906Y-46943649D01*
X104431812Y-47029809D01*
X104431809Y-47029812D01*
X104345649Y-47144906D01*
X104345645Y-47144913D01*
X104296578Y-47276470D01*
X104254707Y-47332404D01*
X104189242Y-47356821D01*
X104120969Y-47341969D01*
X104092715Y-47320819D01*
X104048366Y-47276470D01*
X103970401Y-47198505D01*
X103970397Y-47198502D01*
X103970396Y-47198501D01*
X103776834Y-47062967D01*
X103776830Y-47062965D01*
X103705727Y-47029809D01*
X103562663Y-46963097D01*
X103562659Y-46963096D01*
X103562655Y-46963094D01*
X103334413Y-46901938D01*
X103334403Y-46901936D01*
X103099001Y-46881341D01*
X103098999Y-46881341D01*
X102863596Y-46901936D01*
X102863586Y-46901938D01*
X102635344Y-46963094D01*
X102635335Y-46963098D01*
X102421171Y-47062964D01*
X102421169Y-47062965D01*
X102227597Y-47198505D01*
X102060505Y-47365597D01*
X101930575Y-47551158D01*
X101875998Y-47594783D01*
X101806500Y-47601977D01*
X101744145Y-47570454D01*
X101727425Y-47551158D01*
X101597494Y-47365597D01*
X101430402Y-47198506D01*
X101430395Y-47198501D01*
X101236834Y-47062967D01*
X101236830Y-47062965D01*
X101165727Y-47029809D01*
X101022663Y-46963097D01*
X101022659Y-46963096D01*
X101022655Y-46963094D01*
X100794413Y-46901938D01*
X100794403Y-46901936D01*
X100559001Y-46881341D01*
X100558998Y-46881341D01*
X100362745Y-46898511D01*
X100294245Y-46884744D01*
X100244062Y-46836129D01*
X100228411Y-46785791D01*
X100227017Y-46769856D01*
X100168121Y-46550052D01*
X100071950Y-46343814D01*
X99941429Y-46157409D01*
X99941427Y-46157406D01*
X99780523Y-45996502D01*
X99594116Y-45865980D01*
X99594114Y-45865979D01*
X99387879Y-45769809D01*
X99387870Y-45769806D01*
X99168079Y-45710914D01*
X99168075Y-45710913D01*
X99168074Y-45710913D01*
X99168073Y-45710912D01*
X99168068Y-45710912D01*
X98941384Y-45691080D01*
X98941380Y-45691080D01*
X98714695Y-45710912D01*
X98714684Y-45710914D01*
X98494893Y-45769806D01*
X98494884Y-45769809D01*
X98288649Y-45865979D01*
X98288647Y-45865980D01*
X98102240Y-45996502D01*
X97941336Y-46157406D01*
X97810814Y-46343813D01*
X97810813Y-46343815D01*
X97714643Y-46550050D01*
X97714640Y-46550059D01*
X97655748Y-46769850D01*
X97655746Y-46769861D01*
X97635914Y-46996546D01*
X96367600Y-46996546D01*
X96367600Y-43715277D01*
X96387285Y-43648238D01*
X96440089Y-43602483D01*
X96509247Y-43592539D01*
X96562722Y-43613701D01*
X96646266Y-43672199D01*
X96852504Y-43768370D01*
X96852509Y-43768371D01*
X96852511Y-43768372D01*
X96879095Y-43775495D01*
X97072308Y-43827266D01*
X97234230Y-43841432D01*
X97298998Y-43847099D01*
X97299000Y-43847099D01*
X97299002Y-43847099D01*
X97355673Y-43842140D01*
X97525692Y-43827266D01*
X97745496Y-43768370D01*
X97951734Y-43672199D01*
X98138139Y-43541678D01*
X98299047Y-43380770D01*
X98429568Y-43194365D01*
X98525739Y-42988127D01*
X98584635Y-42768323D01*
X98587375Y-42736999D01*
X99203341Y-42736999D01*
X99203341Y-42737000D01*
X99223936Y-42972403D01*
X99223938Y-42972413D01*
X99285094Y-43200655D01*
X99285096Y-43200659D01*
X99285097Y-43200663D01*
X99379703Y-43403546D01*
X99384965Y-43414830D01*
X99384967Y-43414834D01*
X99473785Y-43541678D01*
X99520505Y-43608401D01*
X99687599Y-43775495D01*
X99747443Y-43817398D01*
X99881165Y-43911032D01*
X99881167Y-43911033D01*
X99881170Y-43911035D01*
X100095337Y-44010903D01*
X100323592Y-44072063D01*
X100494319Y-44087000D01*
X100558999Y-44092659D01*
X100559000Y-44092659D01*
X100559001Y-44092659D01*
X100623681Y-44087000D01*
X100794408Y-44072063D01*
X101022663Y-44010903D01*
X101236830Y-43911035D01*
X101430401Y-43775495D01*
X101597495Y-43608401D01*
X101727425Y-43422842D01*
X101782002Y-43379217D01*
X101851500Y-43372023D01*
X101913855Y-43403546D01*
X101930575Y-43422842D01*
X102060500Y-43608395D01*
X102060505Y-43608401D01*
X102227599Y-43775495D01*
X102287443Y-43817398D01*
X102421165Y-43911032D01*
X102421167Y-43911033D01*
X102421170Y-43911035D01*
X102635337Y-44010903D01*
X102863592Y-44072063D01*
X103034319Y-44087000D01*
X103098999Y-44092659D01*
X103099000Y-44092659D01*
X103099001Y-44092659D01*
X103163681Y-44087000D01*
X103334408Y-44072063D01*
X103562663Y-44010903D01*
X103776830Y-43911035D01*
X103970401Y-43775495D01*
X104092717Y-43653178D01*
X104154036Y-43619696D01*
X104223728Y-43624680D01*
X104279662Y-43666551D01*
X104296577Y-43697528D01*
X104345646Y-43829088D01*
X104345649Y-43829093D01*
X104431809Y-43944187D01*
X104431812Y-43944190D01*
X104546906Y-44030350D01*
X104546913Y-44030354D01*
X104681620Y-44080596D01*
X104681627Y-44080598D01*
X104741155Y-44086999D01*
X104741172Y-44087000D01*
X105389000Y-44087000D01*
X105389000Y-43170012D01*
X105446007Y-43202925D01*
X105573174Y-43237000D01*
X105704826Y-43237000D01*
X105831993Y-43202925D01*
X105889000Y-43170012D01*
X105889000Y-44087000D01*
X106536828Y-44087000D01*
X106536844Y-44086999D01*
X106596372Y-44080598D01*
X106596379Y-44080596D01*
X106731086Y-44030354D01*
X106731093Y-44030350D01*
X106846187Y-43944190D01*
X106846190Y-43944187D01*
X106932350Y-43829093D01*
X106932354Y-43829086D01*
X106982596Y-43694379D01*
X106982598Y-43694372D01*
X106988999Y-43634844D01*
X106989000Y-43634827D01*
X106989000Y-42987000D01*
X106072012Y-42987000D01*
X106104925Y-42929993D01*
X106139000Y-42802826D01*
X106139000Y-42671174D01*
X106104925Y-42544007D01*
X106072012Y-42487000D01*
X106989000Y-42487000D01*
X106989000Y-41839172D01*
X106988999Y-41839155D01*
X106982598Y-41779627D01*
X106982596Y-41779620D01*
X106932354Y-41644913D01*
X106932350Y-41644906D01*
X106846190Y-41529812D01*
X106846187Y-41529809D01*
X106731093Y-41443649D01*
X106731086Y-41443645D01*
X106596379Y-41393403D01*
X106596372Y-41393401D01*
X106536844Y-41387000D01*
X105889000Y-41387000D01*
X105889000Y-42303988D01*
X105831993Y-42271075D01*
X105704826Y-42237000D01*
X105573174Y-42237000D01*
X105446007Y-42271075D01*
X105389000Y-42303988D01*
X105389000Y-41387000D01*
X104741155Y-41387000D01*
X104681627Y-41393401D01*
X104681620Y-41393403D01*
X104546913Y-41443645D01*
X104546906Y-41443649D01*
X104431812Y-41529809D01*
X104431809Y-41529812D01*
X104345649Y-41644906D01*
X104345645Y-41644913D01*
X104296578Y-41776470D01*
X104254707Y-41832404D01*
X104189242Y-41856821D01*
X104120969Y-41841969D01*
X104092715Y-41820819D01*
X104038253Y-41766357D01*
X103970401Y-41698505D01*
X103970397Y-41698502D01*
X103970396Y-41698501D01*
X103776834Y-41562967D01*
X103776830Y-41562965D01*
X103776828Y-41562964D01*
X103562663Y-41463097D01*
X103562659Y-41463096D01*
X103562655Y-41463094D01*
X103334413Y-41401938D01*
X103334403Y-41401936D01*
X103099001Y-41381341D01*
X103098999Y-41381341D01*
X102863596Y-41401936D01*
X102863586Y-41401938D01*
X102635344Y-41463094D01*
X102635335Y-41463098D01*
X102421171Y-41562964D01*
X102421169Y-41562965D01*
X102227597Y-41698505D01*
X102060505Y-41865597D01*
X101930575Y-42051158D01*
X101875998Y-42094783D01*
X101806500Y-42101977D01*
X101744145Y-42070454D01*
X101727425Y-42051158D01*
X101597494Y-41865597D01*
X101430402Y-41698506D01*
X101430395Y-41698501D01*
X101420332Y-41691455D01*
X101353854Y-41644906D01*
X101236834Y-41562967D01*
X101236830Y-41562965D01*
X101236828Y-41562964D01*
X101022663Y-41463097D01*
X101022659Y-41463096D01*
X101022655Y-41463094D01*
X100794413Y-41401938D01*
X100794403Y-41401936D01*
X100559001Y-41381341D01*
X100558999Y-41381341D01*
X100323596Y-41401936D01*
X100323586Y-41401938D01*
X100095344Y-41463094D01*
X100095335Y-41463098D01*
X99881171Y-41562964D01*
X99881169Y-41562965D01*
X99687597Y-41698505D01*
X99520505Y-41865597D01*
X99384965Y-42059169D01*
X99384964Y-42059171D01*
X99285098Y-42273335D01*
X99285094Y-42273344D01*
X99223938Y-42501586D01*
X99223936Y-42501596D01*
X99203341Y-42736999D01*
X98587375Y-42736999D01*
X98604260Y-42544007D01*
X98604468Y-42541632D01*
X98604468Y-42541629D01*
X98584635Y-42314944D01*
X98584635Y-42314939D01*
X98525739Y-42095135D01*
X98429568Y-41888897D01*
X98299047Y-41702492D01*
X98299045Y-41702489D01*
X98138141Y-41541585D01*
X97951734Y-41411063D01*
X97951732Y-41411062D01*
X97745497Y-41314892D01*
X97745488Y-41314889D01*
X97525697Y-41255997D01*
X97525693Y-41255996D01*
X97525692Y-41255996D01*
X97525691Y-41255995D01*
X97525686Y-41255995D01*
X97299002Y-41236163D01*
X97298998Y-41236163D01*
X97072313Y-41255995D01*
X97072302Y-41255997D01*
X96852511Y-41314889D01*
X96852502Y-41314892D01*
X96646267Y-41411062D01*
X96562722Y-41469560D01*
X96496516Y-41491887D01*
X96428749Y-41474875D01*
X96380936Y-41423926D01*
X96367600Y-41367984D01*
X96367600Y-40127795D01*
X121232051Y-40127795D01*
X121232051Y-40127804D01*
X121252216Y-40396901D01*
X121312264Y-40659988D01*
X121312266Y-40659995D01*
X121410857Y-40911198D01*
X121545785Y-41144902D01*
X121618564Y-41236163D01*
X121714042Y-41355889D01*
X121860614Y-41491887D01*
X121911859Y-41539435D01*
X122134826Y-41691451D01*
X122134831Y-41691453D01*
X122134832Y-41691454D01*
X122134833Y-41691455D01*
X122246630Y-41745293D01*
X122290370Y-41766357D01*
X122342230Y-41813179D01*
X122360543Y-41880606D01*
X122339495Y-41947230D01*
X122290371Y-41989797D01*
X122135077Y-42064582D01*
X122135069Y-42064587D01*
X121952448Y-42189094D01*
X122790112Y-43026758D01*
X122729710Y-43051778D01*
X122623249Y-43122912D01*
X122532712Y-43213449D01*
X122461578Y-43319910D01*
X122436558Y-43380312D01*
X121599894Y-42543648D01*
X121546202Y-42610977D01*
X121411309Y-42844618D01*
X121312748Y-43095747D01*
X121312742Y-43095766D01*
X121252713Y-43358771D01*
X121252713Y-43358773D01*
X121232553Y-43627795D01*
X121232553Y-43627804D01*
X121252713Y-43896826D01*
X121252713Y-43896828D01*
X121312742Y-44159833D01*
X121312748Y-44159852D01*
X121411309Y-44410981D01*
X121411308Y-44410981D01*
X121546200Y-44644618D01*
X121599894Y-44711950D01*
X121599895Y-44711950D01*
X122436558Y-43875287D01*
X122461578Y-43935690D01*
X122532712Y-44042151D01*
X122623249Y-44132688D01*
X122729710Y-44203822D01*
X122790111Y-44228841D01*
X121952448Y-45066503D01*
X122135076Y-45191016D01*
X122135085Y-45191021D01*
X122378139Y-45308069D01*
X122378137Y-45308069D01*
X122635937Y-45387590D01*
X122635943Y-45387592D01*
X122902701Y-45427799D01*
X122902710Y-45427800D01*
X123172490Y-45427800D01*
X123172498Y-45427799D01*
X123439256Y-45387592D01*
X123439262Y-45387590D01*
X123697061Y-45308069D01*
X123940116Y-45191021D01*
X123940117Y-45191020D01*
X124122750Y-45066503D01*
X123285087Y-44228841D01*
X123345490Y-44203822D01*
X123451951Y-44132688D01*
X123542488Y-44042151D01*
X123613622Y-43935690D01*
X123638641Y-43875287D01*
X124475303Y-44711950D01*
X124475304Y-44711949D01*
X124529000Y-44644618D01*
X124663890Y-44410981D01*
X124762451Y-44159852D01*
X124762457Y-44159833D01*
X124822486Y-43896828D01*
X124822486Y-43896826D01*
X124842647Y-43627804D01*
X124842647Y-43627795D01*
X124822486Y-43358773D01*
X124822486Y-43358771D01*
X124762457Y-43095766D01*
X124762451Y-43095747D01*
X124663890Y-42844618D01*
X124663891Y-42844618D01*
X124529000Y-42610982D01*
X124528993Y-42610971D01*
X124475304Y-42543649D01*
X124475303Y-42543648D01*
X123638641Y-43380311D01*
X123613622Y-43319910D01*
X123542488Y-43213449D01*
X123451951Y-43122912D01*
X123345490Y-43051778D01*
X123285088Y-43026758D01*
X124122750Y-42189095D01*
X123940124Y-42064583D01*
X123940120Y-42064581D01*
X123784829Y-41989797D01*
X123732970Y-41942975D01*
X123714657Y-41875548D01*
X123735705Y-41808924D01*
X123784828Y-41766357D01*
X123940375Y-41691451D01*
X124163341Y-41539435D01*
X124333726Y-41381341D01*
X124361157Y-41355889D01*
X124361157Y-41355887D01*
X124361161Y-41355885D01*
X124529415Y-41144902D01*
X124664343Y-40911198D01*
X124762934Y-40659995D01*
X124822983Y-40396903D01*
X124843149Y-40127800D01*
X124822983Y-39858697D01*
X124762934Y-39595605D01*
X124664343Y-39344402D01*
X124529415Y-39110698D01*
X124361161Y-38899715D01*
X124361160Y-38899714D01*
X124361157Y-38899710D01*
X124163341Y-38716165D01*
X124163337Y-38716162D01*
X124073263Y-38654750D01*
X124028963Y-38600724D01*
X124020904Y-38531321D01*
X124051647Y-38468578D01*
X124111431Y-38432416D01*
X124143117Y-38428299D01*
X124385471Y-38428299D01*
X124385472Y-38428299D01*
X124445083Y-38421891D01*
X124579931Y-38371596D01*
X124695146Y-38285346D01*
X124781396Y-38170131D01*
X124831691Y-38035283D01*
X124838100Y-37975673D01*
X124838099Y-35279928D01*
X124831691Y-35220317D01*
X124781396Y-35085469D01*
X124781395Y-35085468D01*
X124781393Y-35085464D01*
X124695147Y-34970255D01*
X124695144Y-34970252D01*
X124579935Y-34884006D01*
X124579928Y-34884002D01*
X124445082Y-34833708D01*
X124445083Y-34833708D01*
X124385483Y-34827301D01*
X124385481Y-34827300D01*
X124385473Y-34827300D01*
X124385464Y-34827300D01*
X121689729Y-34827300D01*
X121689723Y-34827301D01*
X121630116Y-34833708D01*
X121495271Y-34884002D01*
X121495264Y-34884006D01*
X121380055Y-34970252D01*
X121380052Y-34970255D01*
X121293806Y-35085464D01*
X121293802Y-35085471D01*
X121243508Y-35220317D01*
X121237101Y-35279916D01*
X121237101Y-35279923D01*
X121237100Y-35279935D01*
X121237100Y-37975670D01*
X121237101Y-37975676D01*
X121243508Y-38035283D01*
X121293802Y-38170128D01*
X121293806Y-38170135D01*
X121380052Y-38285344D01*
X121380055Y-38285347D01*
X121495264Y-38371593D01*
X121495271Y-38371597D01*
X121540218Y-38388361D01*
X121630117Y-38421891D01*
X121689727Y-38428300D01*
X121932083Y-38428299D01*
X121999121Y-38447983D01*
X122044876Y-38500787D01*
X122054820Y-38569946D01*
X122025795Y-38633501D01*
X122001934Y-38654752D01*
X121911862Y-38716162D01*
X121714042Y-38899710D01*
X121545785Y-39110698D01*
X121410858Y-39344399D01*
X121410856Y-39344403D01*
X121312266Y-39595604D01*
X121312264Y-39595611D01*
X121252216Y-39858698D01*
X121232051Y-40127795D01*
X96367600Y-40127795D01*
X96367600Y-37216711D01*
X111941500Y-37216711D01*
X111941500Y-37459288D01*
X111973161Y-37699785D01*
X112035947Y-37934104D01*
X112077857Y-38035283D01*
X112128776Y-38158212D01*
X112250064Y-38368289D01*
X112250066Y-38368292D01*
X112250067Y-38368293D01*
X112397733Y-38560736D01*
X112397739Y-38560743D01*
X112569256Y-38732260D01*
X112569262Y-38732265D01*
X112761711Y-38879936D01*
X112971788Y-39001224D01*
X113195900Y-39094054D01*
X113430211Y-39156838D01*
X113610586Y-39180584D01*
X113670711Y-39188500D01*
X113670712Y-39188500D01*
X113913289Y-39188500D01*
X113961388Y-39182167D01*
X114153789Y-39156838D01*
X114388100Y-39094054D01*
X114612212Y-39001224D01*
X114822289Y-38879936D01*
X115014738Y-38732265D01*
X115186265Y-38560738D01*
X115333936Y-38368289D01*
X115455224Y-38158212D01*
X115548054Y-37934100D01*
X115610838Y-37699789D01*
X115642500Y-37459288D01*
X115642500Y-37216712D01*
X115610838Y-36976211D01*
X115548054Y-36741900D01*
X115455224Y-36517788D01*
X115333936Y-36307711D01*
X115186265Y-36115262D01*
X115186260Y-36115256D01*
X115014743Y-35943739D01*
X115014736Y-35943733D01*
X114822293Y-35796067D01*
X114822292Y-35796066D01*
X114822289Y-35796064D01*
X114612212Y-35674776D01*
X114612205Y-35674773D01*
X114388104Y-35581947D01*
X114153785Y-35519161D01*
X113913289Y-35487500D01*
X113913288Y-35487500D01*
X113670712Y-35487500D01*
X113670711Y-35487500D01*
X113430214Y-35519161D01*
X113195895Y-35581947D01*
X112971794Y-35674773D01*
X112971785Y-35674777D01*
X112761706Y-35796067D01*
X112569263Y-35943733D01*
X112569256Y-35943739D01*
X112397739Y-36115256D01*
X112397733Y-36115263D01*
X112250067Y-36307706D01*
X112128777Y-36517785D01*
X112128773Y-36517794D01*
X112035947Y-36741895D01*
X111973161Y-36976214D01*
X111941500Y-37216711D01*
X96367600Y-37216711D01*
X96367600Y-34615500D01*
X96387285Y-34548461D01*
X96440089Y-34502706D01*
X96491600Y-34491500D01*
X126704500Y-34491500D01*
X126771539Y-34511185D01*
G37*
%TD.AperFunction*%
%TD*%
%TA.AperFunction,Conductor*%
%TO.N,GND*%
G36*
X110860349Y-55784654D02*
G01*
X110860422Y-55784726D01*
X111265242Y-56182622D01*
X111268741Y-56190865D01*
X111265385Y-56199167D01*
X111265342Y-56199211D01*
X111062262Y-56403651D01*
X111062207Y-56403707D01*
X110859075Y-56605489D01*
X110850790Y-56608888D01*
X110842528Y-56605434D01*
X110841349Y-56604045D01*
X110548529Y-56199211D01*
X110504367Y-56138155D01*
X110502296Y-56129445D01*
X110505573Y-56123029D01*
X110843877Y-55784725D01*
X110852149Y-55781299D01*
X110860349Y-55784654D01*
G37*
%TD.AperFunction*%
%TD*%
M02*
