%TF.GenerationSoftware,KiCad,Pcbnew,8.0.7*%
%TF.CreationDate,2025-01-02T12:49:22+01:00*%
%TF.ProjectId,expansion_a,65787061-6e73-4696-9f6e-5f612e6b6963,1*%
%TF.SameCoordinates,Original*%
%TF.FileFunction,Soldermask,Top*%
%TF.FilePolarity,Negative*%
%FSLAX46Y46*%
G04 Gerber Fmt 4.6, Leading zero omitted, Abs format (unit mm)*
G04 Created by KiCad (PCBNEW 8.0.7) date 2025-01-02 12:49:22*
%MOMM*%
%LPD*%
G01*
G04 APERTURE LIST*
G04 Aperture macros list*
%AMRoundRect*
0 Rectangle with rounded corners*
0 $1 Rounding radius*
0 $2 $3 $4 $5 $6 $7 $8 $9 X,Y pos of 4 corners*
0 Add a 4 corners polygon primitive as box body*
4,1,4,$2,$3,$4,$5,$6,$7,$8,$9,$2,$3,0*
0 Add four circle primitives for the rounded corners*
1,1,$1+$1,$2,$3*
1,1,$1+$1,$4,$5*
1,1,$1+$1,$6,$7*
1,1,$1+$1,$8,$9*
0 Add four rect primitives between the rounded corners*
20,1,$1+$1,$2,$3,$4,$5,0*
20,1,$1+$1,$4,$5,$6,$7,0*
20,1,$1+$1,$6,$7,$8,$9,0*
20,1,$1+$1,$8,$9,$2,$3,0*%
G04 Aperture macros list end*
%ADD10RoundRect,0.250000X0.250000X0.475000X-0.250000X0.475000X-0.250000X-0.475000X0.250000X-0.475000X0*%
%ADD11RoundRect,0.250000X-0.450000X0.262500X-0.450000X-0.262500X0.450000X-0.262500X0.450000X0.262500X0*%
%ADD12RoundRect,0.250000X-0.412500X-0.925000X0.412500X-0.925000X0.412500X0.925000X-0.412500X0.925000X0*%
%ADD13R,1.700000X1.700000*%
%ADD14O,1.700000X1.700000*%
%ADD15C,3.200000*%
%ADD16R,2.600000X2.600000*%
%ADD17C,2.600000*%
%ADD18RoundRect,0.150000X-0.750000X-0.150000X0.750000X-0.150000X0.750000X0.150000X-0.750000X0.150000X0*%
%ADD19RoundRect,0.150000X-1.050000X-0.150000X1.050000X-0.150000X1.050000X0.150000X-1.050000X0.150000X0*%
%ADD20RoundRect,0.150000X-0.837500X-0.150000X0.837500X-0.150000X0.837500X0.150000X-0.837500X0.150000X0*%
G04 APERTURE END LIST*
D10*
%TO.C,C101*%
X83820000Y-71628000D03*
X81920000Y-71628000D03*
%TD*%
D11*
%TO.C,R802*%
X83899000Y-57324500D03*
X83899000Y-59149500D03*
%TD*%
D12*
%TO.C,D401*%
X111061500Y-48237000D03*
X114136500Y-48237000D03*
%TD*%
D11*
%TO.C,R402*%
X87199000Y-36837000D03*
X87199000Y-38662000D03*
%TD*%
%TO.C,R501*%
X105899000Y-36824500D03*
X105899000Y-38649500D03*
%TD*%
D13*
%TO.C,JP701*%
X105639000Y-64737000D03*
D14*
X103099000Y-64737000D03*
X100559000Y-64737000D03*
%TD*%
D15*
%TO.C,REF1*%
X76073000Y-60975000D03*
%TD*%
D16*
%TO.C,J1101*%
X123037600Y-79502000D03*
D17*
X123037600Y-83002000D03*
X123037600Y-86502000D03*
%TD*%
D18*
%TO.C,U601*%
X90949000Y-56967000D03*
X90949000Y-59507000D03*
X97249000Y-59507000D03*
X97249000Y-56967000D03*
%TD*%
D13*
%TO.C,JP401*%
X105639000Y-48237000D03*
D14*
X103099000Y-48237000D03*
X100559000Y-48237000D03*
%TD*%
D12*
%TO.C,D801*%
X111061500Y-70237000D03*
X114136500Y-70237000D03*
%TD*%
%TO.C,D901*%
X111061500Y-75737000D03*
X114136500Y-75737000D03*
%TD*%
D18*
%TO.C,U301*%
X90949000Y-38967000D03*
X90949000Y-41507000D03*
X97249000Y-41507000D03*
X97249000Y-38967000D03*
%TD*%
D12*
%TO.C,D501*%
X111061500Y-53737000D03*
X114136500Y-53737000D03*
%TD*%
D11*
%TO.C,R701*%
X108599000Y-85337000D03*
X108599000Y-87162000D03*
%TD*%
%TO.C,R601*%
X109199000Y-36812000D03*
X109199000Y-38637000D03*
%TD*%
%TO.C,R702*%
X87199000Y-57324500D03*
X87199000Y-59149500D03*
%TD*%
D19*
%TO.C,U102*%
X81026000Y-45770800D03*
X81026000Y-47040800D03*
X81026000Y-48310800D03*
X81026000Y-49580800D03*
X81026000Y-50850800D03*
X81026000Y-52120800D03*
X81026000Y-53390800D03*
X81026000Y-54660800D03*
X87526000Y-54660800D03*
X87526000Y-53390800D03*
X87526000Y-52120800D03*
X87526000Y-50850800D03*
X87526000Y-49580800D03*
X87526000Y-48310800D03*
X87526000Y-47040800D03*
X87526000Y-45770800D03*
%TD*%
D11*
%TO.C,R801*%
X105299000Y-85337000D03*
X105299000Y-87162000D03*
%TD*%
D18*
%TO.C,U501*%
X90949000Y-50967000D03*
X90949000Y-53507000D03*
X97249000Y-53507000D03*
X97249000Y-50967000D03*
%TD*%
D12*
%TO.C,D301*%
X111061500Y-42737000D03*
X114136500Y-42737000D03*
%TD*%
D11*
%TO.C,R602*%
X87199000Y-40637000D03*
X87199000Y-42462000D03*
%TD*%
%TO.C,R901*%
X101999000Y-85324500D03*
X101999000Y-87149500D03*
%TD*%
D18*
%TO.C,U1001*%
X90949000Y-80967000D03*
X90949000Y-83507000D03*
X97249000Y-83507000D03*
X97249000Y-80967000D03*
%TD*%
%TO.C,U701*%
X90949000Y-62967000D03*
X90949000Y-65507000D03*
X97249000Y-65507000D03*
X97249000Y-62967000D03*
%TD*%
%TO.C,U901*%
X90949000Y-74967000D03*
X90949000Y-77507000D03*
X97249000Y-77507000D03*
X97249000Y-74967000D03*
%TD*%
D12*
%TO.C,D601*%
X111061500Y-59237000D03*
X114136500Y-59237000D03*
%TD*%
D20*
%TO.C,U101*%
X79436500Y-73922000D03*
X79436500Y-75192000D03*
X79436500Y-76462000D03*
X79436500Y-77732000D03*
X79436500Y-79002000D03*
X79436500Y-80272000D03*
X79436500Y-81542000D03*
X79436500Y-82812000D03*
X79436500Y-84082000D03*
X79436500Y-85352000D03*
X86361500Y-85352000D03*
X86361500Y-84082000D03*
X86361500Y-82812000D03*
X86361500Y-81542000D03*
X86361500Y-80272000D03*
X86361500Y-79002000D03*
X86361500Y-77732000D03*
X86361500Y-76462000D03*
X86361500Y-75192000D03*
X86361500Y-73922000D03*
%TD*%
D16*
%TO.C,J101*%
X123037600Y-49276000D03*
D17*
X123037600Y-52776000D03*
X123037600Y-56276000D03*
X123037600Y-59776000D03*
X123037600Y-63276000D03*
X123037600Y-66776000D03*
X123037600Y-70276000D03*
X123037600Y-73776000D03*
%TD*%
D16*
%TO.C,J202*%
X73914000Y-36886000D03*
D17*
X73914000Y-40386000D03*
X73914000Y-43886000D03*
X73914000Y-47386000D03*
X73914000Y-50886000D03*
X73914000Y-54386000D03*
%TD*%
D11*
%TO.C,R502*%
X83999000Y-40712000D03*
X83999000Y-42537000D03*
%TD*%
D16*
%TO.C,J1102*%
X73787000Y-68214000D03*
D17*
X73787000Y-71714000D03*
X73787000Y-75214000D03*
X73787000Y-78714000D03*
X73787000Y-82214000D03*
X73787000Y-85714000D03*
%TD*%
D13*
%TO.C,JP601*%
X105639000Y-59237000D03*
D14*
X103099000Y-59237000D03*
X100559000Y-59237000D03*
%TD*%
D18*
%TO.C,U801*%
X90949000Y-68967000D03*
X90949000Y-71507000D03*
X97249000Y-71507000D03*
X97249000Y-68967000D03*
%TD*%
D13*
%TO.C,JP501*%
X105639000Y-53737000D03*
D14*
X103099000Y-53737000D03*
X100559000Y-53737000D03*
%TD*%
D11*
%TO.C,R302*%
X83899000Y-36812000D03*
X83899000Y-38637000D03*
%TD*%
D18*
%TO.C,U401*%
X90949000Y-44967000D03*
X90949000Y-47507000D03*
X97249000Y-47507000D03*
X97249000Y-44967000D03*
%TD*%
D13*
%TO.C,JP1001*%
X105639000Y-81237000D03*
D14*
X103099000Y-81237000D03*
X100559000Y-81237000D03*
%TD*%
D13*
%TO.C,JP301*%
X105639000Y-42737000D03*
D14*
X103099000Y-42737000D03*
X100559000Y-42737000D03*
%TD*%
D12*
%TO.C,D701*%
X111061500Y-64737000D03*
X114136500Y-64737000D03*
%TD*%
D11*
%TO.C,R301*%
X99499000Y-36824500D03*
X99499000Y-38649500D03*
%TD*%
%TO.C,R401*%
X102699000Y-36812000D03*
X102699000Y-38637000D03*
%TD*%
D13*
%TO.C,JP801*%
X105639000Y-70237000D03*
D14*
X103099000Y-70237000D03*
X100559000Y-70237000D03*
%TD*%
D15*
%TO.C,REF2*%
X113792000Y-37338000D03*
%TD*%
D11*
%TO.C,R1002*%
X83999000Y-61137000D03*
X83999000Y-62962000D03*
%TD*%
D12*
%TO.C,D1001*%
X111061500Y-81237000D03*
X114136500Y-81237000D03*
%TD*%
D13*
%TO.C,JP901*%
X105639000Y-75737000D03*
D14*
X103099000Y-75737000D03*
X100559000Y-75737000D03*
%TD*%
D11*
%TO.C,R902*%
X87199000Y-61237000D03*
X87199000Y-63062000D03*
%TD*%
D15*
%TO.C,REF3*%
X114401600Y-86375000D03*
%TD*%
D16*
%TO.C,J201*%
X123037600Y-36627800D03*
D17*
X123037600Y-40127800D03*
X123037600Y-43627800D03*
%TD*%
D11*
%TO.C,R1001*%
X98699000Y-85312000D03*
X98699000Y-87137000D03*
%TD*%
D10*
%TO.C,C102*%
X81910000Y-43434000D03*
X80010000Y-43434000D03*
%TD*%
M02*
