%TF.GenerationSoftware,KiCad,Pcbnew,8.0.7*%
%TF.CreationDate,2025-01-01T21:40:25+01:00*%
%TF.ProjectId,adapater_a,61646170-6174-4657-925f-612e6b696361,rev?*%
%TF.SameCoordinates,Original*%
%TF.FileFunction,Paste,Top*%
%TF.FilePolarity,Positive*%
%FSLAX46Y46*%
G04 Gerber Fmt 4.6, Leading zero omitted, Abs format (unit mm)*
G04 Created by KiCad (PCBNEW 8.0.7) date 2025-01-01 21:40:25*
%MOMM*%
%LPD*%
G01*
G04 APERTURE LIST*
G04 Aperture macros list*
%AMRoundRect*
0 Rectangle with rounded corners*
0 $1 Rounding radius*
0 $2 $3 $4 $5 $6 $7 $8 $9 X,Y pos of 4 corners*
0 Add a 4 corners polygon primitive as box body*
4,1,4,$2,$3,$4,$5,$6,$7,$8,$9,$2,$3,0*
0 Add four circle primitives for the rounded corners*
1,1,$1+$1,$2,$3*
1,1,$1+$1,$4,$5*
1,1,$1+$1,$6,$7*
1,1,$1+$1,$8,$9*
0 Add four rect primitives between the rounded corners*
20,1,$1+$1,$2,$3,$4,$5,0*
20,1,$1+$1,$4,$5,$6,$7,0*
20,1,$1+$1,$6,$7,$8,$9,0*
20,1,$1+$1,$8,$9,$2,$3,0*%
G04 Aperture macros list end*
%ADD10RoundRect,0.250000X-1.500000X-0.550000X1.500000X-0.550000X1.500000X0.550000X-1.500000X0.550000X0*%
%ADD11RoundRect,0.250001X-2.049999X-0.799999X2.049999X-0.799999X2.049999X0.799999X-2.049999X0.799999X0*%
%ADD12RoundRect,0.250000X-1.000000X-0.650000X1.000000X-0.650000X1.000000X0.650000X-1.000000X0.650000X0*%
%ADD13RoundRect,0.150000X-0.825000X-0.150000X0.825000X-0.150000X0.825000X0.150000X-0.825000X0.150000X0*%
%ADD14RoundRect,0.250000X-0.262500X-0.450000X0.262500X-0.450000X0.262500X0.450000X-0.262500X0.450000X0*%
%ADD15R,2.150000X5.500000*%
%ADD16RoundRect,0.250000X-0.250000X-0.475000X0.250000X-0.475000X0.250000X0.475000X-0.250000X0.475000X0*%
%ADD17R,1.550000X0.600000*%
%ADD18R,2.600000X3.100000*%
%ADD19RoundRect,0.250000X-0.312500X-0.625000X0.312500X-0.625000X0.312500X0.625000X-0.312500X0.625000X0*%
%ADD20RoundRect,0.250000X-0.455000X-0.455000X0.455000X-0.455000X0.455000X0.455000X-0.455000X0.455000X0*%
%ADD21RoundRect,0.062500X-0.375000X-0.062500X0.375000X-0.062500X0.375000X0.062500X-0.375000X0.062500X0*%
%ADD22RoundRect,0.062500X-0.062500X-0.375000X0.062500X-0.375000X0.062500X0.375000X-0.062500X0.375000X0*%
%ADD23RoundRect,0.225000X-0.225000X-0.375000X0.225000X-0.375000X0.225000X0.375000X-0.225000X0.375000X0*%
G04 APERTURE END LIST*
D10*
%TO.C,C302*%
X-71888000Y64516000D03*
X-66288000Y64516000D03*
%TD*%
%TO.C,C105*%
X-54108000Y-30734000D03*
X-48508000Y-30734000D03*
%TD*%
D11*
%TO.C,C107*%
X-78314000Y21590000D03*
X-69514000Y21590000D03*
%TD*%
D12*
%TO.C,D102*%
X-64230000Y-26670000D03*
X-60230000Y-26670000D03*
%TD*%
D13*
%TO.C,U102*%
X-55561000Y46355000D03*
X-55561000Y45085000D03*
X-55561000Y43815000D03*
X-55561000Y42545000D03*
X-50611000Y42545000D03*
X-50611000Y43815000D03*
X-50611000Y45085000D03*
X-50611000Y46355000D03*
%TD*%
D14*
%TO.C,R102*%
X-69850000Y-20984000D03*
X-68025000Y-20984000D03*
%TD*%
%TO.C,R101*%
X-69850000Y-18034000D03*
X-68025000Y-18034000D03*
%TD*%
%TO.C,R105*%
X-49069000Y48006000D03*
X-47244000Y48006000D03*
%TD*%
%TO.C,R104*%
X-47140500Y44450000D03*
X-45315500Y44450000D03*
%TD*%
D15*
%TO.C,L101*%
X-77995000Y-9906000D03*
X-74145000Y-9906000D03*
%TD*%
D16*
%TO.C,C108*%
X-52258000Y49784000D03*
X-50358000Y49784000D03*
%TD*%
%TO.C,C106*%
X-68514000Y-12954000D03*
X-66614000Y-12954000D03*
%TD*%
D17*
%TO.C,U101*%
X-62806000Y-12665000D03*
X-62806000Y-13935000D03*
X-62806000Y-15205000D03*
X-62806000Y-16475000D03*
X-57406000Y-16475000D03*
X-57406000Y-15205000D03*
X-57406000Y-13935000D03*
X-57406000Y-12665000D03*
D18*
X-60106000Y-14570000D03*
%TD*%
D19*
%TO.C,R103*%
X-48006000Y40640000D03*
X-45081000Y40640000D03*
%TD*%
D20*
%TO.C,U301*%
X-25005000Y39483000D03*
X-25005000Y37733000D03*
X-23255000Y39483000D03*
X-23255000Y37733000D03*
D21*
X-26567500Y40358000D03*
X-26567500Y39858000D03*
X-26567500Y39358000D03*
X-26567500Y38858000D03*
X-26567500Y38358000D03*
X-26567500Y37858000D03*
X-26567500Y37358000D03*
X-26567500Y36858000D03*
D22*
X-25880000Y36170500D03*
X-25380000Y36170500D03*
X-24880000Y36170500D03*
X-24380000Y36170500D03*
X-23880000Y36170500D03*
X-23380000Y36170500D03*
X-22880000Y36170500D03*
X-22380000Y36170500D03*
D21*
X-21692500Y36858000D03*
X-21692500Y37358000D03*
X-21692500Y37858000D03*
X-21692500Y38358000D03*
X-21692500Y38858000D03*
X-21692500Y39358000D03*
X-21692500Y39858000D03*
X-21692500Y40358000D03*
D22*
X-22380000Y41045500D03*
X-22880000Y41045500D03*
X-23380000Y41045500D03*
X-23880000Y41045500D03*
X-24380000Y41045500D03*
X-24880000Y41045500D03*
X-25380000Y41045500D03*
X-25880000Y41045500D03*
%TD*%
D14*
%TO.C,R303*%
X-36009500Y34988000D03*
X-34184500Y34988000D03*
%TD*%
%TO.C,R302*%
X-36009500Y37938000D03*
X-34184500Y37938000D03*
%TD*%
%TO.C,R301*%
X-36009500Y40888000D03*
X-34184500Y40888000D03*
%TD*%
D23*
%TO.C,D302*%
X-31622000Y37338000D03*
X-28322000Y37338000D03*
%TD*%
%TO.C,D301*%
X-31622000Y40688000D03*
X-28322000Y40688000D03*
%TD*%
D16*
%TO.C,C305*%
X-40477000Y31828000D03*
X-38577000Y31828000D03*
%TD*%
%TO.C,C304*%
X-40477000Y34838000D03*
X-38577000Y34838000D03*
%TD*%
%TO.C,C303*%
X-40477000Y37848000D03*
X-38577000Y37848000D03*
%TD*%
%TO.C,C301*%
X-40477000Y40858000D03*
X-38577000Y40858000D03*
%TD*%
M02*
