%TF.GenerationSoftware,KiCad,Pcbnew,8.0.7*%
%TF.CreationDate,2025-01-01T21:40:25+01:00*%
%TF.ProjectId,adapater_a,61646170-6174-4657-925f-612e6b696361,rev?*%
%TF.SameCoordinates,Original*%
%TF.FileFunction,Legend,Top*%
%TF.FilePolarity,Positive*%
%FSLAX46Y46*%
G04 Gerber Fmt 4.6, Leading zero omitted, Abs format (unit mm)*
G04 Created by KiCad (PCBNEW 8.0.7) date 2025-01-01 21:40:25*
%MOMM*%
%LPD*%
G01*
G04 APERTURE LIST*
G04 Aperture macros list*
%AMRoundRect*
0 Rectangle with rounded corners*
0 $1 Rounding radius*
0 $2 $3 $4 $5 $6 $7 $8 $9 X,Y pos of 4 corners*
0 Add a 4 corners polygon primitive as box body*
4,1,4,$2,$3,$4,$5,$6,$7,$8,$9,$2,$3,0*
0 Add four circle primitives for the rounded corners*
1,1,$1+$1,$2,$3*
1,1,$1+$1,$4,$5*
1,1,$1+$1,$6,$7*
1,1,$1+$1,$8,$9*
0 Add four rect primitives between the rounded corners*
20,1,$1+$1,$2,$3,$4,$5,0*
20,1,$1+$1,$4,$5,$6,$7,0*
20,1,$1+$1,$6,$7,$8,$9,0*
20,1,$1+$1,$8,$9,$2,$3,0*%
%AMFreePoly0*
4,1,19,0.500000,-0.750000,0.000000,-0.750000,0.000000,-0.744911,-0.071157,-0.744911,-0.207708,-0.704816,-0.327430,-0.627875,-0.420627,-0.520320,-0.479746,-0.390866,-0.500000,-0.250000,-0.500000,0.250000,-0.479746,0.390866,-0.420627,0.520320,-0.327430,0.627875,-0.207708,0.704816,-0.071157,0.744911,0.000000,0.744911,0.000000,0.750000,0.500000,0.750000,0.500000,-0.750000,0.500000,-0.750000,
$1*%
%AMFreePoly1*
4,1,19,0.000000,0.744911,0.071157,0.744911,0.207708,0.704816,0.327430,0.627875,0.420627,0.520320,0.479746,0.390866,0.500000,0.250000,0.500000,-0.250000,0.479746,-0.390866,0.420627,-0.520320,0.327430,-0.627875,0.207708,-0.704816,0.071157,-0.744911,0.000000,-0.744911,0.000000,-0.750000,-0.500000,-0.750000,-0.500000,0.750000,0.000000,0.750000,0.000000,0.744911,0.000000,0.744911,
$1*%
G04 Aperture macros list end*
%ADD10C,0.150000*%
%ADD11C,0.120000*%
%ADD12RoundRect,0.250000X-1.500000X-0.550000X1.500000X-0.550000X1.500000X0.550000X-1.500000X0.550000X0*%
%ADD13RoundRect,0.250001X-2.049999X-0.799999X2.049999X-0.799999X2.049999X0.799999X-2.049999X0.799999X0*%
%ADD14RoundRect,0.250000X-1.000000X-0.650000X1.000000X-0.650000X1.000000X0.650000X-1.000000X0.650000X0*%
%ADD15R,1.700000X1.700000*%
%ADD16O,1.700000X1.700000*%
%ADD17RoundRect,0.150000X-0.825000X-0.150000X0.825000X-0.150000X0.825000X0.150000X-0.825000X0.150000X0*%
%ADD18RoundRect,0.250000X-0.262500X-0.450000X0.262500X-0.450000X0.262500X0.450000X-0.262500X0.450000X0*%
%ADD19R,2.150000X5.500000*%
%ADD20RoundRect,0.250000X-0.250000X-0.475000X0.250000X-0.475000X0.250000X0.475000X-0.250000X0.475000X0*%
%ADD21FreePoly0,0.000000*%
%ADD22FreePoly1,0.000000*%
%ADD23R,1.550000X0.600000*%
%ADD24R,2.600000X3.100000*%
%ADD25R,2.400000X2.400000*%
%ADD26C,2.400000*%
%ADD27RoundRect,0.250000X-0.312500X-0.625000X0.312500X-0.625000X0.312500X0.625000X-0.312500X0.625000X0*%
%ADD28RoundRect,0.062500X-0.375000X-0.062500X0.375000X-0.062500X0.375000X0.062500X-0.375000X0.062500X0*%
%ADD29RoundRect,0.062500X-0.062500X-0.375000X0.062500X-0.375000X0.062500X0.375000X-0.062500X0.375000X0*%
%ADD30R,3.500000X3.500000*%
%ADD31RoundRect,0.225000X-0.225000X-0.375000X0.225000X-0.375000X0.225000X0.375000X-0.225000X0.375000X0*%
%ADD32R,2.800000X2.800000*%
%ADD33C,2.800000*%
%ADD34R,2.600000X2.600000*%
%ADD35C,2.600000*%
G04 APERTURE END LIST*
D10*
X-70207048Y68506420D02*
X-70254667Y68458800D01*
X-70254667Y68458800D02*
X-70397524Y68411181D01*
X-70397524Y68411181D02*
X-70492762Y68411181D01*
X-70492762Y68411181D02*
X-70635619Y68458800D01*
X-70635619Y68458800D02*
X-70730857Y68554039D01*
X-70730857Y68554039D02*
X-70778476Y68649277D01*
X-70778476Y68649277D02*
X-70826095Y68839753D01*
X-70826095Y68839753D02*
X-70826095Y68982610D01*
X-70826095Y68982610D02*
X-70778476Y69173086D01*
X-70778476Y69173086D02*
X-70730857Y69268324D01*
X-70730857Y69268324D02*
X-70635619Y69363562D01*
X-70635619Y69363562D02*
X-70492762Y69411181D01*
X-70492762Y69411181D02*
X-70397524Y69411181D01*
X-70397524Y69411181D02*
X-70254667Y69363562D01*
X-70254667Y69363562D02*
X-70207048Y69315943D01*
X-69873714Y69411181D02*
X-69254667Y69411181D01*
X-69254667Y69411181D02*
X-69588000Y69030229D01*
X-69588000Y69030229D02*
X-69445143Y69030229D01*
X-69445143Y69030229D02*
X-69349905Y68982610D01*
X-69349905Y68982610D02*
X-69302286Y68934991D01*
X-69302286Y68934991D02*
X-69254667Y68839753D01*
X-69254667Y68839753D02*
X-69254667Y68601658D01*
X-69254667Y68601658D02*
X-69302286Y68506420D01*
X-69302286Y68506420D02*
X-69349905Y68458800D01*
X-69349905Y68458800D02*
X-69445143Y68411181D01*
X-69445143Y68411181D02*
X-69730857Y68411181D01*
X-69730857Y68411181D02*
X-69826095Y68458800D01*
X-69826095Y68458800D02*
X-69873714Y68506420D01*
X-68635619Y69411181D02*
X-68540381Y69411181D01*
X-68540381Y69411181D02*
X-68445143Y69363562D01*
X-68445143Y69363562D02*
X-68397524Y69315943D01*
X-68397524Y69315943D02*
X-68349905Y69220705D01*
X-68349905Y69220705D02*
X-68302286Y69030229D01*
X-68302286Y69030229D02*
X-68302286Y68792134D01*
X-68302286Y68792134D02*
X-68349905Y68601658D01*
X-68349905Y68601658D02*
X-68397524Y68506420D01*
X-68397524Y68506420D02*
X-68445143Y68458800D01*
X-68445143Y68458800D02*
X-68540381Y68411181D01*
X-68540381Y68411181D02*
X-68635619Y68411181D01*
X-68635619Y68411181D02*
X-68730857Y68458800D01*
X-68730857Y68458800D02*
X-68778476Y68506420D01*
X-68778476Y68506420D02*
X-68826095Y68601658D01*
X-68826095Y68601658D02*
X-68873714Y68792134D01*
X-68873714Y68792134D02*
X-68873714Y69030229D01*
X-68873714Y69030229D02*
X-68826095Y69220705D01*
X-68826095Y69220705D02*
X-68778476Y69315943D01*
X-68778476Y69315943D02*
X-68730857Y69363562D01*
X-68730857Y69363562D02*
X-68635619Y69411181D01*
X-67921333Y69315943D02*
X-67873714Y69363562D01*
X-67873714Y69363562D02*
X-67778476Y69411181D01*
X-67778476Y69411181D02*
X-67540381Y69411181D01*
X-67540381Y69411181D02*
X-67445143Y69363562D01*
X-67445143Y69363562D02*
X-67397524Y69315943D01*
X-67397524Y69315943D02*
X-67349905Y69220705D01*
X-67349905Y69220705D02*
X-67349905Y69125467D01*
X-67349905Y69125467D02*
X-67397524Y68982610D01*
X-67397524Y68982610D02*
X-67968952Y68411181D01*
X-67968952Y68411181D02*
X-67349905Y68411181D01*
X-52427048Y-26743580D02*
X-52474667Y-26791200D01*
X-52474667Y-26791200D02*
X-52617524Y-26838819D01*
X-52617524Y-26838819D02*
X-52712762Y-26838819D01*
X-52712762Y-26838819D02*
X-52855619Y-26791200D01*
X-52855619Y-26791200D02*
X-52950857Y-26695961D01*
X-52950857Y-26695961D02*
X-52998476Y-26600723D01*
X-52998476Y-26600723D02*
X-53046095Y-26410247D01*
X-53046095Y-26410247D02*
X-53046095Y-26267390D01*
X-53046095Y-26267390D02*
X-52998476Y-26076914D01*
X-52998476Y-26076914D02*
X-52950857Y-25981676D01*
X-52950857Y-25981676D02*
X-52855619Y-25886438D01*
X-52855619Y-25886438D02*
X-52712762Y-25838819D01*
X-52712762Y-25838819D02*
X-52617524Y-25838819D01*
X-52617524Y-25838819D02*
X-52474667Y-25886438D01*
X-52474667Y-25886438D02*
X-52427048Y-25934057D01*
X-51474667Y-26838819D02*
X-52046095Y-26838819D01*
X-51760381Y-26838819D02*
X-51760381Y-25838819D01*
X-51760381Y-25838819D02*
X-51855619Y-25981676D01*
X-51855619Y-25981676D02*
X-51950857Y-26076914D01*
X-51950857Y-26076914D02*
X-52046095Y-26124533D01*
X-50855619Y-25838819D02*
X-50760381Y-25838819D01*
X-50760381Y-25838819D02*
X-50665143Y-25886438D01*
X-50665143Y-25886438D02*
X-50617524Y-25934057D01*
X-50617524Y-25934057D02*
X-50569905Y-26029295D01*
X-50569905Y-26029295D02*
X-50522286Y-26219771D01*
X-50522286Y-26219771D02*
X-50522286Y-26457866D01*
X-50522286Y-26457866D02*
X-50569905Y-26648342D01*
X-50569905Y-26648342D02*
X-50617524Y-26743580D01*
X-50617524Y-26743580D02*
X-50665143Y-26791200D01*
X-50665143Y-26791200D02*
X-50760381Y-26838819D01*
X-50760381Y-26838819D02*
X-50855619Y-26838819D01*
X-50855619Y-26838819D02*
X-50950857Y-26791200D01*
X-50950857Y-26791200D02*
X-50998476Y-26743580D01*
X-50998476Y-26743580D02*
X-51046095Y-26648342D01*
X-51046095Y-26648342D02*
X-51093714Y-26457866D01*
X-51093714Y-26457866D02*
X-51093714Y-26219771D01*
X-51093714Y-26219771D02*
X-51046095Y-26029295D01*
X-51046095Y-26029295D02*
X-50998476Y-25934057D01*
X-50998476Y-25934057D02*
X-50950857Y-25886438D01*
X-50950857Y-25886438D02*
X-50855619Y-25838819D01*
X-49617524Y-25838819D02*
X-50093714Y-25838819D01*
X-50093714Y-25838819D02*
X-50141333Y-26315009D01*
X-50141333Y-26315009D02*
X-50093714Y-26267390D01*
X-50093714Y-26267390D02*
X-49998476Y-26219771D01*
X-49998476Y-26219771D02*
X-49760381Y-26219771D01*
X-49760381Y-26219771D02*
X-49665143Y-26267390D01*
X-49665143Y-26267390D02*
X-49617524Y-26315009D01*
X-49617524Y-26315009D02*
X-49569905Y-26410247D01*
X-49569905Y-26410247D02*
X-49569905Y-26648342D01*
X-49569905Y-26648342D02*
X-49617524Y-26743580D01*
X-49617524Y-26743580D02*
X-49665143Y-26791200D01*
X-49665143Y-26791200D02*
X-49760381Y-26838819D01*
X-49760381Y-26838819D02*
X-49998476Y-26838819D01*
X-49998476Y-26838819D02*
X-50093714Y-26791200D01*
X-50093714Y-26791200D02*
X-50141333Y-26743580D01*
X-75033048Y27430420D02*
X-75080667Y27382800D01*
X-75080667Y27382800D02*
X-75223524Y27335181D01*
X-75223524Y27335181D02*
X-75318762Y27335181D01*
X-75318762Y27335181D02*
X-75461619Y27382800D01*
X-75461619Y27382800D02*
X-75556857Y27478039D01*
X-75556857Y27478039D02*
X-75604476Y27573277D01*
X-75604476Y27573277D02*
X-75652095Y27763753D01*
X-75652095Y27763753D02*
X-75652095Y27906610D01*
X-75652095Y27906610D02*
X-75604476Y28097086D01*
X-75604476Y28097086D02*
X-75556857Y28192324D01*
X-75556857Y28192324D02*
X-75461619Y28287562D01*
X-75461619Y28287562D02*
X-75318762Y28335181D01*
X-75318762Y28335181D02*
X-75223524Y28335181D01*
X-75223524Y28335181D02*
X-75080667Y28287562D01*
X-75080667Y28287562D02*
X-75033048Y28239943D01*
X-74080667Y27335181D02*
X-74652095Y27335181D01*
X-74366381Y27335181D02*
X-74366381Y28335181D01*
X-74366381Y28335181D02*
X-74461619Y28192324D01*
X-74461619Y28192324D02*
X-74556857Y28097086D01*
X-74556857Y28097086D02*
X-74652095Y28049467D01*
X-73461619Y28335181D02*
X-73366381Y28335181D01*
X-73366381Y28335181D02*
X-73271143Y28287562D01*
X-73271143Y28287562D02*
X-73223524Y28239943D01*
X-73223524Y28239943D02*
X-73175905Y28144705D01*
X-73175905Y28144705D02*
X-73128286Y27954229D01*
X-73128286Y27954229D02*
X-73128286Y27716134D01*
X-73128286Y27716134D02*
X-73175905Y27525658D01*
X-73175905Y27525658D02*
X-73223524Y27430420D01*
X-73223524Y27430420D02*
X-73271143Y27382800D01*
X-73271143Y27382800D02*
X-73366381Y27335181D01*
X-73366381Y27335181D02*
X-73461619Y27335181D01*
X-73461619Y27335181D02*
X-73556857Y27382800D01*
X-73556857Y27382800D02*
X-73604476Y27430420D01*
X-73604476Y27430420D02*
X-73652095Y27525658D01*
X-73652095Y27525658D02*
X-73699714Y27716134D01*
X-73699714Y27716134D02*
X-73699714Y27954229D01*
X-73699714Y27954229D02*
X-73652095Y28144705D01*
X-73652095Y28144705D02*
X-73604476Y28239943D01*
X-73604476Y28239943D02*
X-73556857Y28287562D01*
X-73556857Y28287562D02*
X-73461619Y28335181D01*
X-72794952Y28335181D02*
X-72128286Y28335181D01*
X-72128286Y28335181D02*
X-72556857Y27335181D01*
X-63920476Y-24624819D02*
X-63920476Y-23624819D01*
X-63920476Y-23624819D02*
X-63682381Y-23624819D01*
X-63682381Y-23624819D02*
X-63539524Y-23672438D01*
X-63539524Y-23672438D02*
X-63444286Y-23767676D01*
X-63444286Y-23767676D02*
X-63396667Y-23862914D01*
X-63396667Y-23862914D02*
X-63349048Y-24053390D01*
X-63349048Y-24053390D02*
X-63349048Y-24196247D01*
X-63349048Y-24196247D02*
X-63396667Y-24386723D01*
X-63396667Y-24386723D02*
X-63444286Y-24481961D01*
X-63444286Y-24481961D02*
X-63539524Y-24577200D01*
X-63539524Y-24577200D02*
X-63682381Y-24624819D01*
X-63682381Y-24624819D02*
X-63920476Y-24624819D01*
X-62396667Y-24624819D02*
X-62968095Y-24624819D01*
X-62682381Y-24624819D02*
X-62682381Y-23624819D01*
X-62682381Y-23624819D02*
X-62777619Y-23767676D01*
X-62777619Y-23767676D02*
X-62872857Y-23862914D01*
X-62872857Y-23862914D02*
X-62968095Y-23910533D01*
X-61777619Y-23624819D02*
X-61682381Y-23624819D01*
X-61682381Y-23624819D02*
X-61587143Y-23672438D01*
X-61587143Y-23672438D02*
X-61539524Y-23720057D01*
X-61539524Y-23720057D02*
X-61491905Y-23815295D01*
X-61491905Y-23815295D02*
X-61444286Y-24005771D01*
X-61444286Y-24005771D02*
X-61444286Y-24243866D01*
X-61444286Y-24243866D02*
X-61491905Y-24434342D01*
X-61491905Y-24434342D02*
X-61539524Y-24529580D01*
X-61539524Y-24529580D02*
X-61587143Y-24577200D01*
X-61587143Y-24577200D02*
X-61682381Y-24624819D01*
X-61682381Y-24624819D02*
X-61777619Y-24624819D01*
X-61777619Y-24624819D02*
X-61872857Y-24577200D01*
X-61872857Y-24577200D02*
X-61920476Y-24529580D01*
X-61920476Y-24529580D02*
X-61968095Y-24434342D01*
X-61968095Y-24434342D02*
X-62015714Y-24243866D01*
X-62015714Y-24243866D02*
X-62015714Y-24005771D01*
X-62015714Y-24005771D02*
X-61968095Y-23815295D01*
X-61968095Y-23815295D02*
X-61920476Y-23720057D01*
X-61920476Y-23720057D02*
X-61872857Y-23672438D01*
X-61872857Y-23672438D02*
X-61777619Y-23624819D01*
X-61063333Y-23720057D02*
X-61015714Y-23672438D01*
X-61015714Y-23672438D02*
X-60920476Y-23624819D01*
X-60920476Y-23624819D02*
X-60682381Y-23624819D01*
X-60682381Y-23624819D02*
X-60587143Y-23672438D01*
X-60587143Y-23672438D02*
X-60539524Y-23720057D01*
X-60539524Y-23720057D02*
X-60491905Y-23815295D01*
X-60491905Y-23815295D02*
X-60491905Y-23910533D01*
X-60491905Y-23910533D02*
X-60539524Y-24053390D01*
X-60539524Y-24053390D02*
X-61110952Y-24624819D01*
X-61110952Y-24624819D02*
X-60491905Y-24624819D01*
X-29217715Y44697181D02*
X-29217715Y43982896D01*
X-29217715Y43982896D02*
X-29265334Y43840039D01*
X-29265334Y43840039D02*
X-29360572Y43744800D01*
X-29360572Y43744800D02*
X-29503429Y43697181D01*
X-29503429Y43697181D02*
X-29598667Y43697181D01*
X-28741524Y43697181D02*
X-28741524Y44697181D01*
X-28741524Y44697181D02*
X-28360572Y44697181D01*
X-28360572Y44697181D02*
X-28265334Y44649562D01*
X-28265334Y44649562D02*
X-28217715Y44601943D01*
X-28217715Y44601943D02*
X-28170096Y44506705D01*
X-28170096Y44506705D02*
X-28170096Y44363848D01*
X-28170096Y44363848D02*
X-28217715Y44268610D01*
X-28217715Y44268610D02*
X-28265334Y44220991D01*
X-28265334Y44220991D02*
X-28360572Y44173372D01*
X-28360572Y44173372D02*
X-28741524Y44173372D01*
X-27217715Y43697181D02*
X-27789143Y43697181D01*
X-27503429Y43697181D02*
X-27503429Y44697181D01*
X-27503429Y44697181D02*
X-27598667Y44554324D01*
X-27598667Y44554324D02*
X-27693905Y44459086D01*
X-27693905Y44459086D02*
X-27789143Y44411467D01*
X-26598667Y44697181D02*
X-26503429Y44697181D01*
X-26503429Y44697181D02*
X-26408191Y44649562D01*
X-26408191Y44649562D02*
X-26360572Y44601943D01*
X-26360572Y44601943D02*
X-26312953Y44506705D01*
X-26312953Y44506705D02*
X-26265334Y44316229D01*
X-26265334Y44316229D02*
X-26265334Y44078134D01*
X-26265334Y44078134D02*
X-26312953Y43887658D01*
X-26312953Y43887658D02*
X-26360572Y43792420D01*
X-26360572Y43792420D02*
X-26408191Y43744800D01*
X-26408191Y43744800D02*
X-26503429Y43697181D01*
X-26503429Y43697181D02*
X-26598667Y43697181D01*
X-26598667Y43697181D02*
X-26693905Y43744800D01*
X-26693905Y43744800D02*
X-26741524Y43792420D01*
X-26741524Y43792420D02*
X-26789143Y43887658D01*
X-26789143Y43887658D02*
X-26836762Y44078134D01*
X-26836762Y44078134D02*
X-26836762Y44316229D01*
X-26836762Y44316229D02*
X-26789143Y44506705D01*
X-26789143Y44506705D02*
X-26741524Y44601943D01*
X-26741524Y44601943D02*
X-26693905Y44649562D01*
X-26693905Y44649562D02*
X-26598667Y44697181D01*
X-25932000Y44697181D02*
X-25312953Y44697181D01*
X-25312953Y44697181D02*
X-25646286Y44316229D01*
X-25646286Y44316229D02*
X-25503429Y44316229D01*
X-25503429Y44316229D02*
X-25408191Y44268610D01*
X-25408191Y44268610D02*
X-25360572Y44220991D01*
X-25360572Y44220991D02*
X-25312953Y44125753D01*
X-25312953Y44125753D02*
X-25312953Y43887658D01*
X-25312953Y43887658D02*
X-25360572Y43792420D01*
X-25360572Y43792420D02*
X-25408191Y43744800D01*
X-25408191Y43744800D02*
X-25503429Y43697181D01*
X-25503429Y43697181D02*
X-25789143Y43697181D01*
X-25789143Y43697181D02*
X-25884381Y43744800D01*
X-25884381Y43744800D02*
X-25932000Y43792420D01*
X-54800286Y48395181D02*
X-54800286Y47585658D01*
X-54800286Y47585658D02*
X-54752667Y47490420D01*
X-54752667Y47490420D02*
X-54705048Y47442800D01*
X-54705048Y47442800D02*
X-54609810Y47395181D01*
X-54609810Y47395181D02*
X-54419334Y47395181D01*
X-54419334Y47395181D02*
X-54324096Y47442800D01*
X-54324096Y47442800D02*
X-54276477Y47490420D01*
X-54276477Y47490420D02*
X-54228858Y47585658D01*
X-54228858Y47585658D02*
X-54228858Y48395181D01*
X-53228858Y47395181D02*
X-53800286Y47395181D01*
X-53514572Y47395181D02*
X-53514572Y48395181D01*
X-53514572Y48395181D02*
X-53609810Y48252324D01*
X-53609810Y48252324D02*
X-53705048Y48157086D01*
X-53705048Y48157086D02*
X-53800286Y48109467D01*
X-52609810Y48395181D02*
X-52514572Y48395181D01*
X-52514572Y48395181D02*
X-52419334Y48347562D01*
X-52419334Y48347562D02*
X-52371715Y48299943D01*
X-52371715Y48299943D02*
X-52324096Y48204705D01*
X-52324096Y48204705D02*
X-52276477Y48014229D01*
X-52276477Y48014229D02*
X-52276477Y47776134D01*
X-52276477Y47776134D02*
X-52324096Y47585658D01*
X-52324096Y47585658D02*
X-52371715Y47490420D01*
X-52371715Y47490420D02*
X-52419334Y47442800D01*
X-52419334Y47442800D02*
X-52514572Y47395181D01*
X-52514572Y47395181D02*
X-52609810Y47395181D01*
X-52609810Y47395181D02*
X-52705048Y47442800D01*
X-52705048Y47442800D02*
X-52752667Y47490420D01*
X-52752667Y47490420D02*
X-52800286Y47585658D01*
X-52800286Y47585658D02*
X-52847905Y47776134D01*
X-52847905Y47776134D02*
X-52847905Y48014229D01*
X-52847905Y48014229D02*
X-52800286Y48204705D01*
X-52800286Y48204705D02*
X-52752667Y48299943D01*
X-52752667Y48299943D02*
X-52705048Y48347562D01*
X-52705048Y48347562D02*
X-52609810Y48395181D01*
X-51895524Y48299943D02*
X-51847905Y48347562D01*
X-51847905Y48347562D02*
X-51752667Y48395181D01*
X-51752667Y48395181D02*
X-51514572Y48395181D01*
X-51514572Y48395181D02*
X-51419334Y48347562D01*
X-51419334Y48347562D02*
X-51371715Y48299943D01*
X-51371715Y48299943D02*
X-51324096Y48204705D01*
X-51324096Y48204705D02*
X-51324096Y48109467D01*
X-51324096Y48109467D02*
X-51371715Y47966610D01*
X-51371715Y47966610D02*
X-51943143Y47395181D01*
X-51943143Y47395181D02*
X-51324096Y47395181D01*
X-70056548Y-19788819D02*
X-70389881Y-19312628D01*
X-70627976Y-19788819D02*
X-70627976Y-18788819D01*
X-70627976Y-18788819D02*
X-70247024Y-18788819D01*
X-70247024Y-18788819D02*
X-70151786Y-18836438D01*
X-70151786Y-18836438D02*
X-70104167Y-18884057D01*
X-70104167Y-18884057D02*
X-70056548Y-18979295D01*
X-70056548Y-18979295D02*
X-70056548Y-19122152D01*
X-70056548Y-19122152D02*
X-70104167Y-19217390D01*
X-70104167Y-19217390D02*
X-70151786Y-19265009D01*
X-70151786Y-19265009D02*
X-70247024Y-19312628D01*
X-70247024Y-19312628D02*
X-70627976Y-19312628D01*
X-69104167Y-19788819D02*
X-69675595Y-19788819D01*
X-69389881Y-19788819D02*
X-69389881Y-18788819D01*
X-69389881Y-18788819D02*
X-69485119Y-18931676D01*
X-69485119Y-18931676D02*
X-69580357Y-19026914D01*
X-69580357Y-19026914D02*
X-69675595Y-19074533D01*
X-68485119Y-18788819D02*
X-68389881Y-18788819D01*
X-68389881Y-18788819D02*
X-68294643Y-18836438D01*
X-68294643Y-18836438D02*
X-68247024Y-18884057D01*
X-68247024Y-18884057D02*
X-68199405Y-18979295D01*
X-68199405Y-18979295D02*
X-68151786Y-19169771D01*
X-68151786Y-19169771D02*
X-68151786Y-19407866D01*
X-68151786Y-19407866D02*
X-68199405Y-19598342D01*
X-68199405Y-19598342D02*
X-68247024Y-19693580D01*
X-68247024Y-19693580D02*
X-68294643Y-19741200D01*
X-68294643Y-19741200D02*
X-68389881Y-19788819D01*
X-68389881Y-19788819D02*
X-68485119Y-19788819D01*
X-68485119Y-19788819D02*
X-68580357Y-19741200D01*
X-68580357Y-19741200D02*
X-68627976Y-19693580D01*
X-68627976Y-19693580D02*
X-68675595Y-19598342D01*
X-68675595Y-19598342D02*
X-68723214Y-19407866D01*
X-68723214Y-19407866D02*
X-68723214Y-19169771D01*
X-68723214Y-19169771D02*
X-68675595Y-18979295D01*
X-68675595Y-18979295D02*
X-68627976Y-18884057D01*
X-68627976Y-18884057D02*
X-68580357Y-18836438D01*
X-68580357Y-18836438D02*
X-68485119Y-18788819D01*
X-67770833Y-18884057D02*
X-67723214Y-18836438D01*
X-67723214Y-18836438D02*
X-67627976Y-18788819D01*
X-67627976Y-18788819D02*
X-67389881Y-18788819D01*
X-67389881Y-18788819D02*
X-67294643Y-18836438D01*
X-67294643Y-18836438D02*
X-67247024Y-18884057D01*
X-67247024Y-18884057D02*
X-67199405Y-18979295D01*
X-67199405Y-18979295D02*
X-67199405Y-19074533D01*
X-67199405Y-19074533D02*
X-67247024Y-19217390D01*
X-67247024Y-19217390D02*
X-67818452Y-19788819D01*
X-67818452Y-19788819D02*
X-67199405Y-19788819D01*
X-70056548Y-16838819D02*
X-70389881Y-16362628D01*
X-70627976Y-16838819D02*
X-70627976Y-15838819D01*
X-70627976Y-15838819D02*
X-70247024Y-15838819D01*
X-70247024Y-15838819D02*
X-70151786Y-15886438D01*
X-70151786Y-15886438D02*
X-70104167Y-15934057D01*
X-70104167Y-15934057D02*
X-70056548Y-16029295D01*
X-70056548Y-16029295D02*
X-70056548Y-16172152D01*
X-70056548Y-16172152D02*
X-70104167Y-16267390D01*
X-70104167Y-16267390D02*
X-70151786Y-16315009D01*
X-70151786Y-16315009D02*
X-70247024Y-16362628D01*
X-70247024Y-16362628D02*
X-70627976Y-16362628D01*
X-69104167Y-16838819D02*
X-69675595Y-16838819D01*
X-69389881Y-16838819D02*
X-69389881Y-15838819D01*
X-69389881Y-15838819D02*
X-69485119Y-15981676D01*
X-69485119Y-15981676D02*
X-69580357Y-16076914D01*
X-69580357Y-16076914D02*
X-69675595Y-16124533D01*
X-68485119Y-15838819D02*
X-68389881Y-15838819D01*
X-68389881Y-15838819D02*
X-68294643Y-15886438D01*
X-68294643Y-15886438D02*
X-68247024Y-15934057D01*
X-68247024Y-15934057D02*
X-68199405Y-16029295D01*
X-68199405Y-16029295D02*
X-68151786Y-16219771D01*
X-68151786Y-16219771D02*
X-68151786Y-16457866D01*
X-68151786Y-16457866D02*
X-68199405Y-16648342D01*
X-68199405Y-16648342D02*
X-68247024Y-16743580D01*
X-68247024Y-16743580D02*
X-68294643Y-16791200D01*
X-68294643Y-16791200D02*
X-68389881Y-16838819D01*
X-68389881Y-16838819D02*
X-68485119Y-16838819D01*
X-68485119Y-16838819D02*
X-68580357Y-16791200D01*
X-68580357Y-16791200D02*
X-68627976Y-16743580D01*
X-68627976Y-16743580D02*
X-68675595Y-16648342D01*
X-68675595Y-16648342D02*
X-68723214Y-16457866D01*
X-68723214Y-16457866D02*
X-68723214Y-16219771D01*
X-68723214Y-16219771D02*
X-68675595Y-16029295D01*
X-68675595Y-16029295D02*
X-68627976Y-15934057D01*
X-68627976Y-15934057D02*
X-68580357Y-15886438D01*
X-68580357Y-15886438D02*
X-68485119Y-15838819D01*
X-67199405Y-16838819D02*
X-67770833Y-16838819D01*
X-67485119Y-16838819D02*
X-67485119Y-15838819D01*
X-67485119Y-15838819D02*
X-67580357Y-15981676D01*
X-67580357Y-15981676D02*
X-67675595Y-16076914D01*
X-67675595Y-16076914D02*
X-67770833Y-16124533D01*
X-49275548Y49201181D02*
X-49608881Y49677372D01*
X-49846976Y49201181D02*
X-49846976Y50201181D01*
X-49846976Y50201181D02*
X-49466024Y50201181D01*
X-49466024Y50201181D02*
X-49370786Y50153562D01*
X-49370786Y50153562D02*
X-49323167Y50105943D01*
X-49323167Y50105943D02*
X-49275548Y50010705D01*
X-49275548Y50010705D02*
X-49275548Y49867848D01*
X-49275548Y49867848D02*
X-49323167Y49772610D01*
X-49323167Y49772610D02*
X-49370786Y49724991D01*
X-49370786Y49724991D02*
X-49466024Y49677372D01*
X-49466024Y49677372D02*
X-49846976Y49677372D01*
X-48323167Y49201181D02*
X-48894595Y49201181D01*
X-48608881Y49201181D02*
X-48608881Y50201181D01*
X-48608881Y50201181D02*
X-48704119Y50058324D01*
X-48704119Y50058324D02*
X-48799357Y49963086D01*
X-48799357Y49963086D02*
X-48894595Y49915467D01*
X-47704119Y50201181D02*
X-47608881Y50201181D01*
X-47608881Y50201181D02*
X-47513643Y50153562D01*
X-47513643Y50153562D02*
X-47466024Y50105943D01*
X-47466024Y50105943D02*
X-47418405Y50010705D01*
X-47418405Y50010705D02*
X-47370786Y49820229D01*
X-47370786Y49820229D02*
X-47370786Y49582134D01*
X-47370786Y49582134D02*
X-47418405Y49391658D01*
X-47418405Y49391658D02*
X-47466024Y49296420D01*
X-47466024Y49296420D02*
X-47513643Y49248800D01*
X-47513643Y49248800D02*
X-47608881Y49201181D01*
X-47608881Y49201181D02*
X-47704119Y49201181D01*
X-47704119Y49201181D02*
X-47799357Y49248800D01*
X-47799357Y49248800D02*
X-47846976Y49296420D01*
X-47846976Y49296420D02*
X-47894595Y49391658D01*
X-47894595Y49391658D02*
X-47942214Y49582134D01*
X-47942214Y49582134D02*
X-47942214Y49820229D01*
X-47942214Y49820229D02*
X-47894595Y50010705D01*
X-47894595Y50010705D02*
X-47846976Y50105943D01*
X-47846976Y50105943D02*
X-47799357Y50153562D01*
X-47799357Y50153562D02*
X-47704119Y50201181D01*
X-46466024Y50201181D02*
X-46942214Y50201181D01*
X-46942214Y50201181D02*
X-46989833Y49724991D01*
X-46989833Y49724991D02*
X-46942214Y49772610D01*
X-46942214Y49772610D02*
X-46846976Y49820229D01*
X-46846976Y49820229D02*
X-46608881Y49820229D01*
X-46608881Y49820229D02*
X-46513643Y49772610D01*
X-46513643Y49772610D02*
X-46466024Y49724991D01*
X-46466024Y49724991D02*
X-46418405Y49629753D01*
X-46418405Y49629753D02*
X-46418405Y49391658D01*
X-46418405Y49391658D02*
X-46466024Y49296420D01*
X-46466024Y49296420D02*
X-46513643Y49248800D01*
X-46513643Y49248800D02*
X-46608881Y49201181D01*
X-46608881Y49201181D02*
X-46846976Y49201181D01*
X-46846976Y49201181D02*
X-46942214Y49248800D01*
X-46942214Y49248800D02*
X-46989833Y49296420D01*
X-47347048Y45645181D02*
X-47680381Y46121372D01*
X-47918476Y45645181D02*
X-47918476Y46645181D01*
X-47918476Y46645181D02*
X-47537524Y46645181D01*
X-47537524Y46645181D02*
X-47442286Y46597562D01*
X-47442286Y46597562D02*
X-47394667Y46549943D01*
X-47394667Y46549943D02*
X-47347048Y46454705D01*
X-47347048Y46454705D02*
X-47347048Y46311848D01*
X-47347048Y46311848D02*
X-47394667Y46216610D01*
X-47394667Y46216610D02*
X-47442286Y46168991D01*
X-47442286Y46168991D02*
X-47537524Y46121372D01*
X-47537524Y46121372D02*
X-47918476Y46121372D01*
X-46394667Y45645181D02*
X-46966095Y45645181D01*
X-46680381Y45645181D02*
X-46680381Y46645181D01*
X-46680381Y46645181D02*
X-46775619Y46502324D01*
X-46775619Y46502324D02*
X-46870857Y46407086D01*
X-46870857Y46407086D02*
X-46966095Y46359467D01*
X-45775619Y46645181D02*
X-45680381Y46645181D01*
X-45680381Y46645181D02*
X-45585143Y46597562D01*
X-45585143Y46597562D02*
X-45537524Y46549943D01*
X-45537524Y46549943D02*
X-45489905Y46454705D01*
X-45489905Y46454705D02*
X-45442286Y46264229D01*
X-45442286Y46264229D02*
X-45442286Y46026134D01*
X-45442286Y46026134D02*
X-45489905Y45835658D01*
X-45489905Y45835658D02*
X-45537524Y45740420D01*
X-45537524Y45740420D02*
X-45585143Y45692800D01*
X-45585143Y45692800D02*
X-45680381Y45645181D01*
X-45680381Y45645181D02*
X-45775619Y45645181D01*
X-45775619Y45645181D02*
X-45870857Y45692800D01*
X-45870857Y45692800D02*
X-45918476Y45740420D01*
X-45918476Y45740420D02*
X-45966095Y45835658D01*
X-45966095Y45835658D02*
X-46013714Y46026134D01*
X-46013714Y46026134D02*
X-46013714Y46264229D01*
X-46013714Y46264229D02*
X-45966095Y46454705D01*
X-45966095Y46454705D02*
X-45918476Y46549943D01*
X-45918476Y46549943D02*
X-45870857Y46597562D01*
X-45870857Y46597562D02*
X-45775619Y46645181D01*
X-44585143Y46311848D02*
X-44585143Y45645181D01*
X-44823238Y46692800D02*
X-45061333Y45978515D01*
X-45061333Y45978515D02*
X-44442286Y45978515D01*
X-77189048Y-6660819D02*
X-77665238Y-6660819D01*
X-77665238Y-6660819D02*
X-77665238Y-5660819D01*
X-76331905Y-6660819D02*
X-76903333Y-6660819D01*
X-76617619Y-6660819D02*
X-76617619Y-5660819D01*
X-76617619Y-5660819D02*
X-76712857Y-5803676D01*
X-76712857Y-5803676D02*
X-76808095Y-5898914D01*
X-76808095Y-5898914D02*
X-76903333Y-5946533D01*
X-75712857Y-5660819D02*
X-75617619Y-5660819D01*
X-75617619Y-5660819D02*
X-75522381Y-5708438D01*
X-75522381Y-5708438D02*
X-75474762Y-5756057D01*
X-75474762Y-5756057D02*
X-75427143Y-5851295D01*
X-75427143Y-5851295D02*
X-75379524Y-6041771D01*
X-75379524Y-6041771D02*
X-75379524Y-6279866D01*
X-75379524Y-6279866D02*
X-75427143Y-6470342D01*
X-75427143Y-6470342D02*
X-75474762Y-6565580D01*
X-75474762Y-6565580D02*
X-75522381Y-6613200D01*
X-75522381Y-6613200D02*
X-75617619Y-6660819D01*
X-75617619Y-6660819D02*
X-75712857Y-6660819D01*
X-75712857Y-6660819D02*
X-75808095Y-6613200D01*
X-75808095Y-6613200D02*
X-75855714Y-6565580D01*
X-75855714Y-6565580D02*
X-75903333Y-6470342D01*
X-75903333Y-6470342D02*
X-75950952Y-6279866D01*
X-75950952Y-6279866D02*
X-75950952Y-6041771D01*
X-75950952Y-6041771D02*
X-75903333Y-5851295D01*
X-75903333Y-5851295D02*
X-75855714Y-5756057D01*
X-75855714Y-5756057D02*
X-75808095Y-5708438D01*
X-75808095Y-5708438D02*
X-75712857Y-5660819D01*
X-74427143Y-6660819D02*
X-74998571Y-6660819D01*
X-74712857Y-6660819D02*
X-74712857Y-5660819D01*
X-74712857Y-5660819D02*
X-74808095Y-5803676D01*
X-74808095Y-5803676D02*
X-74903333Y-5898914D01*
X-74903333Y-5898914D02*
X-74998571Y-5946533D01*
X-52427048Y51104420D02*
X-52474667Y51056800D01*
X-52474667Y51056800D02*
X-52617524Y51009181D01*
X-52617524Y51009181D02*
X-52712762Y51009181D01*
X-52712762Y51009181D02*
X-52855619Y51056800D01*
X-52855619Y51056800D02*
X-52950857Y51152039D01*
X-52950857Y51152039D02*
X-52998476Y51247277D01*
X-52998476Y51247277D02*
X-53046095Y51437753D01*
X-53046095Y51437753D02*
X-53046095Y51580610D01*
X-53046095Y51580610D02*
X-52998476Y51771086D01*
X-52998476Y51771086D02*
X-52950857Y51866324D01*
X-52950857Y51866324D02*
X-52855619Y51961562D01*
X-52855619Y51961562D02*
X-52712762Y52009181D01*
X-52712762Y52009181D02*
X-52617524Y52009181D01*
X-52617524Y52009181D02*
X-52474667Y51961562D01*
X-52474667Y51961562D02*
X-52427048Y51913943D01*
X-51474667Y51009181D02*
X-52046095Y51009181D01*
X-51760381Y51009181D02*
X-51760381Y52009181D01*
X-51760381Y52009181D02*
X-51855619Y51866324D01*
X-51855619Y51866324D02*
X-51950857Y51771086D01*
X-51950857Y51771086D02*
X-52046095Y51723467D01*
X-50855619Y52009181D02*
X-50760381Y52009181D01*
X-50760381Y52009181D02*
X-50665143Y51961562D01*
X-50665143Y51961562D02*
X-50617524Y51913943D01*
X-50617524Y51913943D02*
X-50569905Y51818705D01*
X-50569905Y51818705D02*
X-50522286Y51628229D01*
X-50522286Y51628229D02*
X-50522286Y51390134D01*
X-50522286Y51390134D02*
X-50569905Y51199658D01*
X-50569905Y51199658D02*
X-50617524Y51104420D01*
X-50617524Y51104420D02*
X-50665143Y51056800D01*
X-50665143Y51056800D02*
X-50760381Y51009181D01*
X-50760381Y51009181D02*
X-50855619Y51009181D01*
X-50855619Y51009181D02*
X-50950857Y51056800D01*
X-50950857Y51056800D02*
X-50998476Y51104420D01*
X-50998476Y51104420D02*
X-51046095Y51199658D01*
X-51046095Y51199658D02*
X-51093714Y51390134D01*
X-51093714Y51390134D02*
X-51093714Y51628229D01*
X-51093714Y51628229D02*
X-51046095Y51818705D01*
X-51046095Y51818705D02*
X-50998476Y51913943D01*
X-50998476Y51913943D02*
X-50950857Y51961562D01*
X-50950857Y51961562D02*
X-50855619Y52009181D01*
X-49950857Y51580610D02*
X-50046095Y51628229D01*
X-50046095Y51628229D02*
X-50093714Y51675848D01*
X-50093714Y51675848D02*
X-50141333Y51771086D01*
X-50141333Y51771086D02*
X-50141333Y51818705D01*
X-50141333Y51818705D02*
X-50093714Y51913943D01*
X-50093714Y51913943D02*
X-50046095Y51961562D01*
X-50046095Y51961562D02*
X-49950857Y52009181D01*
X-49950857Y52009181D02*
X-49760381Y52009181D01*
X-49760381Y52009181D02*
X-49665143Y51961562D01*
X-49665143Y51961562D02*
X-49617524Y51913943D01*
X-49617524Y51913943D02*
X-49569905Y51818705D01*
X-49569905Y51818705D02*
X-49569905Y51771086D01*
X-49569905Y51771086D02*
X-49617524Y51675848D01*
X-49617524Y51675848D02*
X-49665143Y51628229D01*
X-49665143Y51628229D02*
X-49760381Y51580610D01*
X-49760381Y51580610D02*
X-49950857Y51580610D01*
X-49950857Y51580610D02*
X-50046095Y51532991D01*
X-50046095Y51532991D02*
X-50093714Y51485372D01*
X-50093714Y51485372D02*
X-50141333Y51390134D01*
X-50141333Y51390134D02*
X-50141333Y51199658D01*
X-50141333Y51199658D02*
X-50093714Y51104420D01*
X-50093714Y51104420D02*
X-50046095Y51056800D01*
X-50046095Y51056800D02*
X-49950857Y51009181D01*
X-49950857Y51009181D02*
X-49760381Y51009181D01*
X-49760381Y51009181D02*
X-49665143Y51056800D01*
X-49665143Y51056800D02*
X-49617524Y51104420D01*
X-49617524Y51104420D02*
X-49569905Y51199658D01*
X-49569905Y51199658D02*
X-49569905Y51390134D01*
X-49569905Y51390134D02*
X-49617524Y51485372D01*
X-49617524Y51485372D02*
X-49665143Y51532991D01*
X-49665143Y51532991D02*
X-49760381Y51580610D01*
X-68683048Y-11633580D02*
X-68730667Y-11681200D01*
X-68730667Y-11681200D02*
X-68873524Y-11728819D01*
X-68873524Y-11728819D02*
X-68968762Y-11728819D01*
X-68968762Y-11728819D02*
X-69111619Y-11681200D01*
X-69111619Y-11681200D02*
X-69206857Y-11585961D01*
X-69206857Y-11585961D02*
X-69254476Y-11490723D01*
X-69254476Y-11490723D02*
X-69302095Y-11300247D01*
X-69302095Y-11300247D02*
X-69302095Y-11157390D01*
X-69302095Y-11157390D02*
X-69254476Y-10966914D01*
X-69254476Y-10966914D02*
X-69206857Y-10871676D01*
X-69206857Y-10871676D02*
X-69111619Y-10776438D01*
X-69111619Y-10776438D02*
X-68968762Y-10728819D01*
X-68968762Y-10728819D02*
X-68873524Y-10728819D01*
X-68873524Y-10728819D02*
X-68730667Y-10776438D01*
X-68730667Y-10776438D02*
X-68683048Y-10824057D01*
X-67730667Y-11728819D02*
X-68302095Y-11728819D01*
X-68016381Y-11728819D02*
X-68016381Y-10728819D01*
X-68016381Y-10728819D02*
X-68111619Y-10871676D01*
X-68111619Y-10871676D02*
X-68206857Y-10966914D01*
X-68206857Y-10966914D02*
X-68302095Y-11014533D01*
X-67111619Y-10728819D02*
X-67016381Y-10728819D01*
X-67016381Y-10728819D02*
X-66921143Y-10776438D01*
X-66921143Y-10776438D02*
X-66873524Y-10824057D01*
X-66873524Y-10824057D02*
X-66825905Y-10919295D01*
X-66825905Y-10919295D02*
X-66778286Y-11109771D01*
X-66778286Y-11109771D02*
X-66778286Y-11347866D01*
X-66778286Y-11347866D02*
X-66825905Y-11538342D01*
X-66825905Y-11538342D02*
X-66873524Y-11633580D01*
X-66873524Y-11633580D02*
X-66921143Y-11681200D01*
X-66921143Y-11681200D02*
X-67016381Y-11728819D01*
X-67016381Y-11728819D02*
X-67111619Y-11728819D01*
X-67111619Y-11728819D02*
X-67206857Y-11681200D01*
X-67206857Y-11681200D02*
X-67254476Y-11633580D01*
X-67254476Y-11633580D02*
X-67302095Y-11538342D01*
X-67302095Y-11538342D02*
X-67349714Y-11347866D01*
X-67349714Y-11347866D02*
X-67349714Y-11109771D01*
X-67349714Y-11109771D02*
X-67302095Y-10919295D01*
X-67302095Y-10919295D02*
X-67254476Y-10824057D01*
X-67254476Y-10824057D02*
X-67206857Y-10776438D01*
X-67206857Y-10776438D02*
X-67111619Y-10728819D01*
X-65921143Y-10728819D02*
X-66111619Y-10728819D01*
X-66111619Y-10728819D02*
X-66206857Y-10776438D01*
X-66206857Y-10776438D02*
X-66254476Y-10824057D01*
X-66254476Y-10824057D02*
X-66349714Y-10966914D01*
X-66349714Y-10966914D02*
X-66397333Y-11157390D01*
X-66397333Y-11157390D02*
X-66397333Y-11538342D01*
X-66397333Y-11538342D02*
X-66349714Y-11633580D01*
X-66349714Y-11633580D02*
X-66302095Y-11681200D01*
X-66302095Y-11681200D02*
X-66206857Y-11728819D01*
X-66206857Y-11728819D02*
X-66016381Y-11728819D01*
X-66016381Y-11728819D02*
X-65921143Y-11681200D01*
X-65921143Y-11681200D02*
X-65873524Y-11633580D01*
X-65873524Y-11633580D02*
X-65825905Y-11538342D01*
X-65825905Y-11538342D02*
X-65825905Y-11300247D01*
X-65825905Y-11300247D02*
X-65873524Y-11205009D01*
X-65873524Y-11205009D02*
X-65921143Y-11157390D01*
X-65921143Y-11157390D02*
X-66016381Y-11109771D01*
X-66016381Y-11109771D02*
X-66206857Y-11109771D01*
X-66206857Y-11109771D02*
X-66302095Y-11157390D01*
X-66302095Y-11157390D02*
X-66349714Y-11205009D01*
X-66349714Y-11205009D02*
X-66397333Y-11300247D01*
X-64277715Y55199181D02*
X-64277715Y54484896D01*
X-64277715Y54484896D02*
X-64325334Y54342039D01*
X-64325334Y54342039D02*
X-64420572Y54246800D01*
X-64420572Y54246800D02*
X-64563429Y54199181D01*
X-64563429Y54199181D02*
X-64658667Y54199181D01*
X-63277715Y54199181D02*
X-63849143Y54199181D01*
X-63563429Y54199181D02*
X-63563429Y55199181D01*
X-63563429Y55199181D02*
X-63658667Y55056324D01*
X-63658667Y55056324D02*
X-63753905Y54961086D01*
X-63753905Y54961086D02*
X-63849143Y54913467D01*
X-62658667Y55199181D02*
X-62563429Y55199181D01*
X-62563429Y55199181D02*
X-62468191Y55151562D01*
X-62468191Y55151562D02*
X-62420572Y55103943D01*
X-62420572Y55103943D02*
X-62372953Y55008705D01*
X-62372953Y55008705D02*
X-62325334Y54818229D01*
X-62325334Y54818229D02*
X-62325334Y54580134D01*
X-62325334Y54580134D02*
X-62372953Y54389658D01*
X-62372953Y54389658D02*
X-62420572Y54294420D01*
X-62420572Y54294420D02*
X-62468191Y54246800D01*
X-62468191Y54246800D02*
X-62563429Y54199181D01*
X-62563429Y54199181D02*
X-62658667Y54199181D01*
X-62658667Y54199181D02*
X-62753905Y54246800D01*
X-62753905Y54246800D02*
X-62801524Y54294420D01*
X-62801524Y54294420D02*
X-62849143Y54389658D01*
X-62849143Y54389658D02*
X-62896762Y54580134D01*
X-62896762Y54580134D02*
X-62896762Y54818229D01*
X-62896762Y54818229D02*
X-62849143Y55008705D01*
X-62849143Y55008705D02*
X-62801524Y55103943D01*
X-62801524Y55103943D02*
X-62753905Y55151562D01*
X-62753905Y55151562D02*
X-62658667Y55199181D01*
X-61944381Y55103943D02*
X-61896762Y55151562D01*
X-61896762Y55151562D02*
X-61801524Y55199181D01*
X-61801524Y55199181D02*
X-61563429Y55199181D01*
X-61563429Y55199181D02*
X-61468191Y55151562D01*
X-61468191Y55151562D02*
X-61420572Y55103943D01*
X-61420572Y55103943D02*
X-61372953Y55008705D01*
X-61372953Y55008705D02*
X-61372953Y54913467D01*
X-61372953Y54913467D02*
X-61420572Y54770610D01*
X-61420572Y54770610D02*
X-61992000Y54199181D01*
X-61992000Y54199181D02*
X-61372953Y54199181D01*
X-18557715Y37419181D02*
X-18557715Y36704896D01*
X-18557715Y36704896D02*
X-18605334Y36562039D01*
X-18605334Y36562039D02*
X-18700572Y36466800D01*
X-18700572Y36466800D02*
X-18843429Y36419181D01*
X-18843429Y36419181D02*
X-18938667Y36419181D01*
X-17557715Y36419181D02*
X-18129143Y36419181D01*
X-17843429Y36419181D02*
X-17843429Y37419181D01*
X-17843429Y37419181D02*
X-17938667Y37276324D01*
X-17938667Y37276324D02*
X-18033905Y37181086D01*
X-18033905Y37181086D02*
X-18129143Y37133467D01*
X-16938667Y37419181D02*
X-16843429Y37419181D01*
X-16843429Y37419181D02*
X-16748191Y37371562D01*
X-16748191Y37371562D02*
X-16700572Y37323943D01*
X-16700572Y37323943D02*
X-16652953Y37228705D01*
X-16652953Y37228705D02*
X-16605334Y37038229D01*
X-16605334Y37038229D02*
X-16605334Y36800134D01*
X-16605334Y36800134D02*
X-16652953Y36609658D01*
X-16652953Y36609658D02*
X-16700572Y36514420D01*
X-16700572Y36514420D02*
X-16748191Y36466800D01*
X-16748191Y36466800D02*
X-16843429Y36419181D01*
X-16843429Y36419181D02*
X-16938667Y36419181D01*
X-16938667Y36419181D02*
X-17033905Y36466800D01*
X-17033905Y36466800D02*
X-17081524Y36514420D01*
X-17081524Y36514420D02*
X-17129143Y36609658D01*
X-17129143Y36609658D02*
X-17176762Y36800134D01*
X-17176762Y36800134D02*
X-17176762Y37038229D01*
X-17176762Y37038229D02*
X-17129143Y37228705D01*
X-17129143Y37228705D02*
X-17081524Y37323943D01*
X-17081524Y37323943D02*
X-17033905Y37371562D01*
X-17033905Y37371562D02*
X-16938667Y37419181D01*
X-15700572Y37419181D02*
X-16176762Y37419181D01*
X-16176762Y37419181D02*
X-16224381Y36942991D01*
X-16224381Y36942991D02*
X-16176762Y36990610D01*
X-16176762Y36990610D02*
X-16081524Y37038229D01*
X-16081524Y37038229D02*
X-15843429Y37038229D01*
X-15843429Y37038229D02*
X-15748191Y36990610D01*
X-15748191Y36990610D02*
X-15700572Y36942991D01*
X-15700572Y36942991D02*
X-15652953Y36847753D01*
X-15652953Y36847753D02*
X-15652953Y36609658D01*
X-15652953Y36609658D02*
X-15700572Y36514420D01*
X-15700572Y36514420D02*
X-15748191Y36466800D01*
X-15748191Y36466800D02*
X-15843429Y36419181D01*
X-15843429Y36419181D02*
X-16081524Y36419181D01*
X-16081524Y36419181D02*
X-16176762Y36466800D01*
X-16176762Y36466800D02*
X-16224381Y36514420D01*
X-18557715Y64343181D02*
X-18557715Y63628896D01*
X-18557715Y63628896D02*
X-18605334Y63486039D01*
X-18605334Y63486039D02*
X-18700572Y63390800D01*
X-18700572Y63390800D02*
X-18843429Y63343181D01*
X-18843429Y63343181D02*
X-18938667Y63343181D01*
X-17557715Y63343181D02*
X-18129143Y63343181D01*
X-17843429Y63343181D02*
X-17843429Y64343181D01*
X-17843429Y64343181D02*
X-17938667Y64200324D01*
X-17938667Y64200324D02*
X-18033905Y64105086D01*
X-18033905Y64105086D02*
X-18129143Y64057467D01*
X-16938667Y64343181D02*
X-16843429Y64343181D01*
X-16843429Y64343181D02*
X-16748191Y64295562D01*
X-16748191Y64295562D02*
X-16700572Y64247943D01*
X-16700572Y64247943D02*
X-16652953Y64152705D01*
X-16652953Y64152705D02*
X-16605334Y63962229D01*
X-16605334Y63962229D02*
X-16605334Y63724134D01*
X-16605334Y63724134D02*
X-16652953Y63533658D01*
X-16652953Y63533658D02*
X-16700572Y63438420D01*
X-16700572Y63438420D02*
X-16748191Y63390800D01*
X-16748191Y63390800D02*
X-16843429Y63343181D01*
X-16843429Y63343181D02*
X-16938667Y63343181D01*
X-16938667Y63343181D02*
X-17033905Y63390800D01*
X-17033905Y63390800D02*
X-17081524Y63438420D01*
X-17081524Y63438420D02*
X-17129143Y63533658D01*
X-17129143Y63533658D02*
X-17176762Y63724134D01*
X-17176762Y63724134D02*
X-17176762Y63962229D01*
X-17176762Y63962229D02*
X-17129143Y64152705D01*
X-17129143Y64152705D02*
X-17081524Y64247943D01*
X-17081524Y64247943D02*
X-17033905Y64295562D01*
X-17033905Y64295562D02*
X-16938667Y64343181D01*
X-15748191Y64009848D02*
X-15748191Y63343181D01*
X-15986286Y64390800D02*
X-16224381Y63676515D01*
X-16224381Y63676515D02*
X-15605334Y63676515D01*
X-64277715Y32339181D02*
X-64277715Y31624896D01*
X-64277715Y31624896D02*
X-64325334Y31482039D01*
X-64325334Y31482039D02*
X-64420572Y31386800D01*
X-64420572Y31386800D02*
X-64563429Y31339181D01*
X-64563429Y31339181D02*
X-64658667Y31339181D01*
X-63277715Y31339181D02*
X-63849143Y31339181D01*
X-63563429Y31339181D02*
X-63563429Y32339181D01*
X-63563429Y32339181D02*
X-63658667Y32196324D01*
X-63658667Y32196324D02*
X-63753905Y32101086D01*
X-63753905Y32101086D02*
X-63849143Y32053467D01*
X-62658667Y32339181D02*
X-62563429Y32339181D01*
X-62563429Y32339181D02*
X-62468191Y32291562D01*
X-62468191Y32291562D02*
X-62420572Y32243943D01*
X-62420572Y32243943D02*
X-62372953Y32148705D01*
X-62372953Y32148705D02*
X-62325334Y31958229D01*
X-62325334Y31958229D02*
X-62325334Y31720134D01*
X-62325334Y31720134D02*
X-62372953Y31529658D01*
X-62372953Y31529658D02*
X-62420572Y31434420D01*
X-62420572Y31434420D02*
X-62468191Y31386800D01*
X-62468191Y31386800D02*
X-62563429Y31339181D01*
X-62563429Y31339181D02*
X-62658667Y31339181D01*
X-62658667Y31339181D02*
X-62753905Y31386800D01*
X-62753905Y31386800D02*
X-62801524Y31434420D01*
X-62801524Y31434420D02*
X-62849143Y31529658D01*
X-62849143Y31529658D02*
X-62896762Y31720134D01*
X-62896762Y31720134D02*
X-62896762Y31958229D01*
X-62896762Y31958229D02*
X-62849143Y32148705D01*
X-62849143Y32148705D02*
X-62801524Y32243943D01*
X-62801524Y32243943D02*
X-62753905Y32291562D01*
X-62753905Y32291562D02*
X-62658667Y32339181D01*
X-61992000Y32339181D02*
X-61372953Y32339181D01*
X-61372953Y32339181D02*
X-61706286Y31958229D01*
X-61706286Y31958229D02*
X-61563429Y31958229D01*
X-61563429Y31958229D02*
X-61468191Y31910610D01*
X-61468191Y31910610D02*
X-61420572Y31862991D01*
X-61420572Y31862991D02*
X-61372953Y31767753D01*
X-61372953Y31767753D02*
X-61372953Y31529658D01*
X-61372953Y31529658D02*
X-61420572Y31434420D01*
X-61420572Y31434420D02*
X-61468191Y31386800D01*
X-61468191Y31386800D02*
X-61563429Y31339181D01*
X-61563429Y31339181D02*
X-61849143Y31339181D01*
X-61849143Y31339181D02*
X-61944381Y31386800D01*
X-61944381Y31386800D02*
X-61992000Y31434420D01*
X-26057715Y31809181D02*
X-26057715Y31094896D01*
X-26057715Y31094896D02*
X-26105334Y30952039D01*
X-26105334Y30952039D02*
X-26200572Y30856800D01*
X-26200572Y30856800D02*
X-26343429Y30809181D01*
X-26343429Y30809181D02*
X-26438667Y30809181D01*
X-25581524Y30809181D02*
X-25581524Y31809181D01*
X-25581524Y31809181D02*
X-25200572Y31809181D01*
X-25200572Y31809181D02*
X-25105334Y31761562D01*
X-25105334Y31761562D02*
X-25057715Y31713943D01*
X-25057715Y31713943D02*
X-25010096Y31618705D01*
X-25010096Y31618705D02*
X-25010096Y31475848D01*
X-25010096Y31475848D02*
X-25057715Y31380610D01*
X-25057715Y31380610D02*
X-25105334Y31332991D01*
X-25105334Y31332991D02*
X-25200572Y31285372D01*
X-25200572Y31285372D02*
X-25581524Y31285372D01*
X-24057715Y30809181D02*
X-24629143Y30809181D01*
X-24343429Y30809181D02*
X-24343429Y31809181D01*
X-24343429Y31809181D02*
X-24438667Y31666324D01*
X-24438667Y31666324D02*
X-24533905Y31571086D01*
X-24533905Y31571086D02*
X-24629143Y31523467D01*
X-23438667Y31809181D02*
X-23343429Y31809181D01*
X-23343429Y31809181D02*
X-23248191Y31761562D01*
X-23248191Y31761562D02*
X-23200572Y31713943D01*
X-23200572Y31713943D02*
X-23152953Y31618705D01*
X-23152953Y31618705D02*
X-23105334Y31428229D01*
X-23105334Y31428229D02*
X-23105334Y31190134D01*
X-23105334Y31190134D02*
X-23152953Y30999658D01*
X-23152953Y30999658D02*
X-23200572Y30904420D01*
X-23200572Y30904420D02*
X-23248191Y30856800D01*
X-23248191Y30856800D02*
X-23343429Y30809181D01*
X-23343429Y30809181D02*
X-23438667Y30809181D01*
X-23438667Y30809181D02*
X-23533905Y30856800D01*
X-23533905Y30856800D02*
X-23581524Y30904420D01*
X-23581524Y30904420D02*
X-23629143Y30999658D01*
X-23629143Y30999658D02*
X-23676762Y31190134D01*
X-23676762Y31190134D02*
X-23676762Y31428229D01*
X-23676762Y31428229D02*
X-23629143Y31618705D01*
X-23629143Y31618705D02*
X-23581524Y31713943D01*
X-23581524Y31713943D02*
X-23533905Y31761562D01*
X-23533905Y31761562D02*
X-23438667Y31809181D01*
X-22248191Y31475848D02*
X-22248191Y30809181D01*
X-22486286Y31856800D02*
X-22724381Y31142515D01*
X-22724381Y31142515D02*
X-22105334Y31142515D01*
X-61820286Y-10524819D02*
X-61820286Y-11334342D01*
X-61820286Y-11334342D02*
X-61772667Y-11429580D01*
X-61772667Y-11429580D02*
X-61725048Y-11477200D01*
X-61725048Y-11477200D02*
X-61629810Y-11524819D01*
X-61629810Y-11524819D02*
X-61439334Y-11524819D01*
X-61439334Y-11524819D02*
X-61344096Y-11477200D01*
X-61344096Y-11477200D02*
X-61296477Y-11429580D01*
X-61296477Y-11429580D02*
X-61248858Y-11334342D01*
X-61248858Y-11334342D02*
X-61248858Y-10524819D01*
X-60248858Y-11524819D02*
X-60820286Y-11524819D01*
X-60534572Y-11524819D02*
X-60534572Y-10524819D01*
X-60534572Y-10524819D02*
X-60629810Y-10667676D01*
X-60629810Y-10667676D02*
X-60725048Y-10762914D01*
X-60725048Y-10762914D02*
X-60820286Y-10810533D01*
X-59629810Y-10524819D02*
X-59534572Y-10524819D01*
X-59534572Y-10524819D02*
X-59439334Y-10572438D01*
X-59439334Y-10572438D02*
X-59391715Y-10620057D01*
X-59391715Y-10620057D02*
X-59344096Y-10715295D01*
X-59344096Y-10715295D02*
X-59296477Y-10905771D01*
X-59296477Y-10905771D02*
X-59296477Y-11143866D01*
X-59296477Y-11143866D02*
X-59344096Y-11334342D01*
X-59344096Y-11334342D02*
X-59391715Y-11429580D01*
X-59391715Y-11429580D02*
X-59439334Y-11477200D01*
X-59439334Y-11477200D02*
X-59534572Y-11524819D01*
X-59534572Y-11524819D02*
X-59629810Y-11524819D01*
X-59629810Y-11524819D02*
X-59725048Y-11477200D01*
X-59725048Y-11477200D02*
X-59772667Y-11429580D01*
X-59772667Y-11429580D02*
X-59820286Y-11334342D01*
X-59820286Y-11334342D02*
X-59867905Y-11143866D01*
X-59867905Y-11143866D02*
X-59867905Y-10905771D01*
X-59867905Y-10905771D02*
X-59820286Y-10715295D01*
X-59820286Y-10715295D02*
X-59772667Y-10620057D01*
X-59772667Y-10620057D02*
X-59725048Y-10572438D01*
X-59725048Y-10572438D02*
X-59629810Y-10524819D01*
X-58344096Y-11524819D02*
X-58915524Y-11524819D01*
X-58629810Y-11524819D02*
X-58629810Y-10524819D01*
X-58629810Y-10524819D02*
X-58725048Y-10667676D01*
X-58725048Y-10667676D02*
X-58820286Y-10762914D01*
X-58820286Y-10762914D02*
X-58915524Y-10810533D01*
X-39682420Y344953D02*
X-39634800Y297334D01*
X-39634800Y297334D02*
X-39587181Y154477D01*
X-39587181Y154477D02*
X-39587181Y59239D01*
X-39587181Y59239D02*
X-39634800Y-83618D01*
X-39634800Y-83618D02*
X-39730039Y-178856D01*
X-39730039Y-178856D02*
X-39825277Y-226475D01*
X-39825277Y-226475D02*
X-40015753Y-274094D01*
X-40015753Y-274094D02*
X-40158610Y-274094D01*
X-40158610Y-274094D02*
X-40349086Y-226475D01*
X-40349086Y-226475D02*
X-40444324Y-178856D01*
X-40444324Y-178856D02*
X-40539562Y-83618D01*
X-40539562Y-83618D02*
X-40587181Y59239D01*
X-40587181Y59239D02*
X-40587181Y154477D01*
X-40587181Y154477D02*
X-40539562Y297334D01*
X-40539562Y297334D02*
X-40491943Y344953D01*
X-39587181Y1297334D02*
X-39587181Y725906D01*
X-39587181Y1011620D02*
X-40587181Y1011620D01*
X-40587181Y1011620D02*
X-40444324Y916382D01*
X-40444324Y916382D02*
X-40349086Y821144D01*
X-40349086Y821144D02*
X-40301467Y725906D01*
X-40587181Y1916382D02*
X-40587181Y2011620D01*
X-40587181Y2011620D02*
X-40539562Y2106858D01*
X-40539562Y2106858D02*
X-40491943Y2154477D01*
X-40491943Y2154477D02*
X-40396705Y2202096D01*
X-40396705Y2202096D02*
X-40206229Y2249715D01*
X-40206229Y2249715D02*
X-39968134Y2249715D01*
X-39968134Y2249715D02*
X-39777658Y2202096D01*
X-39777658Y2202096D02*
X-39682420Y2154477D01*
X-39682420Y2154477D02*
X-39634800Y2106858D01*
X-39634800Y2106858D02*
X-39587181Y2011620D01*
X-39587181Y2011620D02*
X-39587181Y1916382D01*
X-39587181Y1916382D02*
X-39634800Y1821144D01*
X-39634800Y1821144D02*
X-39682420Y1773525D01*
X-39682420Y1773525D02*
X-39777658Y1725906D01*
X-39777658Y1725906D02*
X-39968134Y1678287D01*
X-39968134Y1678287D02*
X-40206229Y1678287D01*
X-40206229Y1678287D02*
X-40396705Y1725906D01*
X-40396705Y1725906D02*
X-40491943Y1773525D01*
X-40491943Y1773525D02*
X-40539562Y1821144D01*
X-40539562Y1821144D02*
X-40587181Y1916382D01*
X-40587181Y2583049D02*
X-40587181Y3202096D01*
X-40587181Y3202096D02*
X-40206229Y2868763D01*
X-40206229Y2868763D02*
X-40206229Y3011620D01*
X-40206229Y3011620D02*
X-40158610Y3106858D01*
X-40158610Y3106858D02*
X-40110991Y3154477D01*
X-40110991Y3154477D02*
X-40015753Y3202096D01*
X-40015753Y3202096D02*
X-39777658Y3202096D01*
X-39777658Y3202096D02*
X-39682420Y3154477D01*
X-39682420Y3154477D02*
X-39634800Y3106858D01*
X-39634800Y3106858D02*
X-39587181Y3011620D01*
X-39587181Y3011620D02*
X-39587181Y2725906D01*
X-39587181Y2725906D02*
X-39634800Y2630668D01*
X-39634800Y2630668D02*
X-39682420Y2583049D01*
X-39682420Y19140953D02*
X-39634800Y19093334D01*
X-39634800Y19093334D02*
X-39587181Y18950477D01*
X-39587181Y18950477D02*
X-39587181Y18855239D01*
X-39587181Y18855239D02*
X-39634800Y18712382D01*
X-39634800Y18712382D02*
X-39730039Y18617144D01*
X-39730039Y18617144D02*
X-39825277Y18569525D01*
X-39825277Y18569525D02*
X-40015753Y18521906D01*
X-40015753Y18521906D02*
X-40158610Y18521906D01*
X-40158610Y18521906D02*
X-40349086Y18569525D01*
X-40349086Y18569525D02*
X-40444324Y18617144D01*
X-40444324Y18617144D02*
X-40539562Y18712382D01*
X-40539562Y18712382D02*
X-40587181Y18855239D01*
X-40587181Y18855239D02*
X-40587181Y18950477D01*
X-40587181Y18950477D02*
X-40539562Y19093334D01*
X-40539562Y19093334D02*
X-40491943Y19140953D01*
X-39587181Y20093334D02*
X-39587181Y19521906D01*
X-39587181Y19807620D02*
X-40587181Y19807620D01*
X-40587181Y19807620D02*
X-40444324Y19712382D01*
X-40444324Y19712382D02*
X-40349086Y19617144D01*
X-40349086Y19617144D02*
X-40301467Y19521906D01*
X-40587181Y20712382D02*
X-40587181Y20807620D01*
X-40587181Y20807620D02*
X-40539562Y20902858D01*
X-40539562Y20902858D02*
X-40491943Y20950477D01*
X-40491943Y20950477D02*
X-40396705Y20998096D01*
X-40396705Y20998096D02*
X-40206229Y21045715D01*
X-40206229Y21045715D02*
X-39968134Y21045715D01*
X-39968134Y21045715D02*
X-39777658Y20998096D01*
X-39777658Y20998096D02*
X-39682420Y20950477D01*
X-39682420Y20950477D02*
X-39634800Y20902858D01*
X-39634800Y20902858D02*
X-39587181Y20807620D01*
X-39587181Y20807620D02*
X-39587181Y20712382D01*
X-39587181Y20712382D02*
X-39634800Y20617144D01*
X-39634800Y20617144D02*
X-39682420Y20569525D01*
X-39682420Y20569525D02*
X-39777658Y20521906D01*
X-39777658Y20521906D02*
X-39968134Y20474287D01*
X-39968134Y20474287D02*
X-40206229Y20474287D01*
X-40206229Y20474287D02*
X-40396705Y20521906D01*
X-40396705Y20521906D02*
X-40491943Y20569525D01*
X-40491943Y20569525D02*
X-40539562Y20617144D01*
X-40539562Y20617144D02*
X-40587181Y20712382D01*
X-40253848Y21902858D02*
X-39587181Y21902858D01*
X-40634800Y21664763D02*
X-39920515Y21426668D01*
X-39920515Y21426668D02*
X-39920515Y22045715D01*
X-21140420Y19140953D02*
X-21092800Y19093334D01*
X-21092800Y19093334D02*
X-21045181Y18950477D01*
X-21045181Y18950477D02*
X-21045181Y18855239D01*
X-21045181Y18855239D02*
X-21092800Y18712382D01*
X-21092800Y18712382D02*
X-21188039Y18617144D01*
X-21188039Y18617144D02*
X-21283277Y18569525D01*
X-21283277Y18569525D02*
X-21473753Y18521906D01*
X-21473753Y18521906D02*
X-21616610Y18521906D01*
X-21616610Y18521906D02*
X-21807086Y18569525D01*
X-21807086Y18569525D02*
X-21902324Y18617144D01*
X-21902324Y18617144D02*
X-21997562Y18712382D01*
X-21997562Y18712382D02*
X-22045181Y18855239D01*
X-22045181Y18855239D02*
X-22045181Y18950477D01*
X-22045181Y18950477D02*
X-21997562Y19093334D01*
X-21997562Y19093334D02*
X-21949943Y19140953D01*
X-21045181Y20093334D02*
X-21045181Y19521906D01*
X-21045181Y19807620D02*
X-22045181Y19807620D01*
X-22045181Y19807620D02*
X-21902324Y19712382D01*
X-21902324Y19712382D02*
X-21807086Y19617144D01*
X-21807086Y19617144D02*
X-21759467Y19521906D01*
X-22045181Y20712382D02*
X-22045181Y20807620D01*
X-22045181Y20807620D02*
X-21997562Y20902858D01*
X-21997562Y20902858D02*
X-21949943Y20950477D01*
X-21949943Y20950477D02*
X-21854705Y20998096D01*
X-21854705Y20998096D02*
X-21664229Y21045715D01*
X-21664229Y21045715D02*
X-21426134Y21045715D01*
X-21426134Y21045715D02*
X-21235658Y20998096D01*
X-21235658Y20998096D02*
X-21140420Y20950477D01*
X-21140420Y20950477D02*
X-21092800Y20902858D01*
X-21092800Y20902858D02*
X-21045181Y20807620D01*
X-21045181Y20807620D02*
X-21045181Y20712382D01*
X-21045181Y20712382D02*
X-21092800Y20617144D01*
X-21092800Y20617144D02*
X-21140420Y20569525D01*
X-21140420Y20569525D02*
X-21235658Y20521906D01*
X-21235658Y20521906D02*
X-21426134Y20474287D01*
X-21426134Y20474287D02*
X-21664229Y20474287D01*
X-21664229Y20474287D02*
X-21854705Y20521906D01*
X-21854705Y20521906D02*
X-21949943Y20569525D01*
X-21949943Y20569525D02*
X-21997562Y20617144D01*
X-21997562Y20617144D02*
X-22045181Y20712382D01*
X-21949943Y21426668D02*
X-21997562Y21474287D01*
X-21997562Y21474287D02*
X-22045181Y21569525D01*
X-22045181Y21569525D02*
X-22045181Y21807620D01*
X-22045181Y21807620D02*
X-21997562Y21902858D01*
X-21997562Y21902858D02*
X-21949943Y21950477D01*
X-21949943Y21950477D02*
X-21854705Y21998096D01*
X-21854705Y21998096D02*
X-21759467Y21998096D01*
X-21759467Y21998096D02*
X-21616610Y21950477D01*
X-21616610Y21950477D02*
X-21045181Y21379049D01*
X-21045181Y21379049D02*
X-21045181Y21998096D01*
X-20886420Y344953D02*
X-20838800Y297334D01*
X-20838800Y297334D02*
X-20791181Y154477D01*
X-20791181Y154477D02*
X-20791181Y59239D01*
X-20791181Y59239D02*
X-20838800Y-83618D01*
X-20838800Y-83618D02*
X-20934039Y-178856D01*
X-20934039Y-178856D02*
X-21029277Y-226475D01*
X-21029277Y-226475D02*
X-21219753Y-274094D01*
X-21219753Y-274094D02*
X-21362610Y-274094D01*
X-21362610Y-274094D02*
X-21553086Y-226475D01*
X-21553086Y-226475D02*
X-21648324Y-178856D01*
X-21648324Y-178856D02*
X-21743562Y-83618D01*
X-21743562Y-83618D02*
X-21791181Y59239D01*
X-21791181Y59239D02*
X-21791181Y154477D01*
X-21791181Y154477D02*
X-21743562Y297334D01*
X-21743562Y297334D02*
X-21695943Y344953D01*
X-20791181Y1297334D02*
X-20791181Y725906D01*
X-20791181Y1011620D02*
X-21791181Y1011620D01*
X-21791181Y1011620D02*
X-21648324Y916382D01*
X-21648324Y916382D02*
X-21553086Y821144D01*
X-21553086Y821144D02*
X-21505467Y725906D01*
X-21791181Y1916382D02*
X-21791181Y2011620D01*
X-21791181Y2011620D02*
X-21743562Y2106858D01*
X-21743562Y2106858D02*
X-21695943Y2154477D01*
X-21695943Y2154477D02*
X-21600705Y2202096D01*
X-21600705Y2202096D02*
X-21410229Y2249715D01*
X-21410229Y2249715D02*
X-21172134Y2249715D01*
X-21172134Y2249715D02*
X-20981658Y2202096D01*
X-20981658Y2202096D02*
X-20886420Y2154477D01*
X-20886420Y2154477D02*
X-20838800Y2106858D01*
X-20838800Y2106858D02*
X-20791181Y2011620D01*
X-20791181Y2011620D02*
X-20791181Y1916382D01*
X-20791181Y1916382D02*
X-20838800Y1821144D01*
X-20838800Y1821144D02*
X-20886420Y1773525D01*
X-20886420Y1773525D02*
X-20981658Y1725906D01*
X-20981658Y1725906D02*
X-21172134Y1678287D01*
X-21172134Y1678287D02*
X-21410229Y1678287D01*
X-21410229Y1678287D02*
X-21600705Y1725906D01*
X-21600705Y1725906D02*
X-21695943Y1773525D01*
X-21695943Y1773525D02*
X-21743562Y1821144D01*
X-21743562Y1821144D02*
X-21791181Y1916382D01*
X-20791181Y3202096D02*
X-20791181Y2630668D01*
X-20791181Y2916382D02*
X-21791181Y2916382D01*
X-21791181Y2916382D02*
X-21648324Y2821144D01*
X-21648324Y2821144D02*
X-21553086Y2725906D01*
X-21553086Y2725906D02*
X-21505467Y2630668D01*
X-47662548Y42005181D02*
X-47995881Y42481372D01*
X-48233976Y42005181D02*
X-48233976Y43005181D01*
X-48233976Y43005181D02*
X-47853024Y43005181D01*
X-47853024Y43005181D02*
X-47757786Y42957562D01*
X-47757786Y42957562D02*
X-47710167Y42909943D01*
X-47710167Y42909943D02*
X-47662548Y42814705D01*
X-47662548Y42814705D02*
X-47662548Y42671848D01*
X-47662548Y42671848D02*
X-47710167Y42576610D01*
X-47710167Y42576610D02*
X-47757786Y42528991D01*
X-47757786Y42528991D02*
X-47853024Y42481372D01*
X-47853024Y42481372D02*
X-48233976Y42481372D01*
X-46710167Y42005181D02*
X-47281595Y42005181D01*
X-46995881Y42005181D02*
X-46995881Y43005181D01*
X-46995881Y43005181D02*
X-47091119Y42862324D01*
X-47091119Y42862324D02*
X-47186357Y42767086D01*
X-47186357Y42767086D02*
X-47281595Y42719467D01*
X-46091119Y43005181D02*
X-45995881Y43005181D01*
X-45995881Y43005181D02*
X-45900643Y42957562D01*
X-45900643Y42957562D02*
X-45853024Y42909943D01*
X-45853024Y42909943D02*
X-45805405Y42814705D01*
X-45805405Y42814705D02*
X-45757786Y42624229D01*
X-45757786Y42624229D02*
X-45757786Y42386134D01*
X-45757786Y42386134D02*
X-45805405Y42195658D01*
X-45805405Y42195658D02*
X-45853024Y42100420D01*
X-45853024Y42100420D02*
X-45900643Y42052800D01*
X-45900643Y42052800D02*
X-45995881Y42005181D01*
X-45995881Y42005181D02*
X-46091119Y42005181D01*
X-46091119Y42005181D02*
X-46186357Y42052800D01*
X-46186357Y42052800D02*
X-46233976Y42100420D01*
X-46233976Y42100420D02*
X-46281595Y42195658D01*
X-46281595Y42195658D02*
X-46329214Y42386134D01*
X-46329214Y42386134D02*
X-46329214Y42624229D01*
X-46329214Y42624229D02*
X-46281595Y42814705D01*
X-46281595Y42814705D02*
X-46233976Y42909943D01*
X-46233976Y42909943D02*
X-46186357Y42957562D01*
X-46186357Y42957562D02*
X-46091119Y43005181D01*
X-45424452Y43005181D02*
X-44805405Y43005181D01*
X-44805405Y43005181D02*
X-45138738Y42624229D01*
X-45138738Y42624229D02*
X-44995881Y42624229D01*
X-44995881Y42624229D02*
X-44900643Y42576610D01*
X-44900643Y42576610D02*
X-44853024Y42528991D01*
X-44853024Y42528991D02*
X-44805405Y42433753D01*
X-44805405Y42433753D02*
X-44805405Y42195658D01*
X-44805405Y42195658D02*
X-44853024Y42100420D01*
X-44853024Y42100420D02*
X-44900643Y42052800D01*
X-44900643Y42052800D02*
X-44995881Y42005181D01*
X-44995881Y42005181D02*
X-45281595Y42005181D01*
X-45281595Y42005181D02*
X-45376833Y42052800D01*
X-45376833Y42052800D02*
X-45424452Y42100420D01*
X-25844286Y42983181D02*
X-25844286Y42173658D01*
X-25844286Y42173658D02*
X-25796667Y42078420D01*
X-25796667Y42078420D02*
X-25749048Y42030800D01*
X-25749048Y42030800D02*
X-25653810Y41983181D01*
X-25653810Y41983181D02*
X-25463334Y41983181D01*
X-25463334Y41983181D02*
X-25368096Y42030800D01*
X-25368096Y42030800D02*
X-25320477Y42078420D01*
X-25320477Y42078420D02*
X-25272858Y42173658D01*
X-25272858Y42173658D02*
X-25272858Y42983181D01*
X-24891905Y42983181D02*
X-24272858Y42983181D01*
X-24272858Y42983181D02*
X-24606191Y42602229D01*
X-24606191Y42602229D02*
X-24463334Y42602229D01*
X-24463334Y42602229D02*
X-24368096Y42554610D01*
X-24368096Y42554610D02*
X-24320477Y42506991D01*
X-24320477Y42506991D02*
X-24272858Y42411753D01*
X-24272858Y42411753D02*
X-24272858Y42173658D01*
X-24272858Y42173658D02*
X-24320477Y42078420D01*
X-24320477Y42078420D02*
X-24368096Y42030800D01*
X-24368096Y42030800D02*
X-24463334Y41983181D01*
X-24463334Y41983181D02*
X-24749048Y41983181D01*
X-24749048Y41983181D02*
X-24844286Y42030800D01*
X-24844286Y42030800D02*
X-24891905Y42078420D01*
X-23653810Y42983181D02*
X-23558572Y42983181D01*
X-23558572Y42983181D02*
X-23463334Y42935562D01*
X-23463334Y42935562D02*
X-23415715Y42887943D01*
X-23415715Y42887943D02*
X-23368096Y42792705D01*
X-23368096Y42792705D02*
X-23320477Y42602229D01*
X-23320477Y42602229D02*
X-23320477Y42364134D01*
X-23320477Y42364134D02*
X-23368096Y42173658D01*
X-23368096Y42173658D02*
X-23415715Y42078420D01*
X-23415715Y42078420D02*
X-23463334Y42030800D01*
X-23463334Y42030800D02*
X-23558572Y41983181D01*
X-23558572Y41983181D02*
X-23653810Y41983181D01*
X-23653810Y41983181D02*
X-23749048Y42030800D01*
X-23749048Y42030800D02*
X-23796667Y42078420D01*
X-23796667Y42078420D02*
X-23844286Y42173658D01*
X-23844286Y42173658D02*
X-23891905Y42364134D01*
X-23891905Y42364134D02*
X-23891905Y42602229D01*
X-23891905Y42602229D02*
X-23844286Y42792705D01*
X-23844286Y42792705D02*
X-23796667Y42887943D01*
X-23796667Y42887943D02*
X-23749048Y42935562D01*
X-23749048Y42935562D02*
X-23653810Y42983181D01*
X-22368096Y41983181D02*
X-22939524Y41983181D01*
X-22653810Y41983181D02*
X-22653810Y42983181D01*
X-22653810Y42983181D02*
X-22749048Y42840324D01*
X-22749048Y42840324D02*
X-22844286Y42745086D01*
X-22844286Y42745086D02*
X-22939524Y42697467D01*
X-36216048Y36183181D02*
X-36549381Y36659372D01*
X-36787476Y36183181D02*
X-36787476Y37183181D01*
X-36787476Y37183181D02*
X-36406524Y37183181D01*
X-36406524Y37183181D02*
X-36311286Y37135562D01*
X-36311286Y37135562D02*
X-36263667Y37087943D01*
X-36263667Y37087943D02*
X-36216048Y36992705D01*
X-36216048Y36992705D02*
X-36216048Y36849848D01*
X-36216048Y36849848D02*
X-36263667Y36754610D01*
X-36263667Y36754610D02*
X-36311286Y36706991D01*
X-36311286Y36706991D02*
X-36406524Y36659372D01*
X-36406524Y36659372D02*
X-36787476Y36659372D01*
X-35882714Y37183181D02*
X-35263667Y37183181D01*
X-35263667Y37183181D02*
X-35597000Y36802229D01*
X-35597000Y36802229D02*
X-35454143Y36802229D01*
X-35454143Y36802229D02*
X-35358905Y36754610D01*
X-35358905Y36754610D02*
X-35311286Y36706991D01*
X-35311286Y36706991D02*
X-35263667Y36611753D01*
X-35263667Y36611753D02*
X-35263667Y36373658D01*
X-35263667Y36373658D02*
X-35311286Y36278420D01*
X-35311286Y36278420D02*
X-35358905Y36230800D01*
X-35358905Y36230800D02*
X-35454143Y36183181D01*
X-35454143Y36183181D02*
X-35739857Y36183181D01*
X-35739857Y36183181D02*
X-35835095Y36230800D01*
X-35835095Y36230800D02*
X-35882714Y36278420D01*
X-34644619Y37183181D02*
X-34549381Y37183181D01*
X-34549381Y37183181D02*
X-34454143Y37135562D01*
X-34454143Y37135562D02*
X-34406524Y37087943D01*
X-34406524Y37087943D02*
X-34358905Y36992705D01*
X-34358905Y36992705D02*
X-34311286Y36802229D01*
X-34311286Y36802229D02*
X-34311286Y36564134D01*
X-34311286Y36564134D02*
X-34358905Y36373658D01*
X-34358905Y36373658D02*
X-34406524Y36278420D01*
X-34406524Y36278420D02*
X-34454143Y36230800D01*
X-34454143Y36230800D02*
X-34549381Y36183181D01*
X-34549381Y36183181D02*
X-34644619Y36183181D01*
X-34644619Y36183181D02*
X-34739857Y36230800D01*
X-34739857Y36230800D02*
X-34787476Y36278420D01*
X-34787476Y36278420D02*
X-34835095Y36373658D01*
X-34835095Y36373658D02*
X-34882714Y36564134D01*
X-34882714Y36564134D02*
X-34882714Y36802229D01*
X-34882714Y36802229D02*
X-34835095Y36992705D01*
X-34835095Y36992705D02*
X-34787476Y37087943D01*
X-34787476Y37087943D02*
X-34739857Y37135562D01*
X-34739857Y37135562D02*
X-34644619Y37183181D01*
X-33977952Y37183181D02*
X-33358905Y37183181D01*
X-33358905Y37183181D02*
X-33692238Y36802229D01*
X-33692238Y36802229D02*
X-33549381Y36802229D01*
X-33549381Y36802229D02*
X-33454143Y36754610D01*
X-33454143Y36754610D02*
X-33406524Y36706991D01*
X-33406524Y36706991D02*
X-33358905Y36611753D01*
X-33358905Y36611753D02*
X-33358905Y36373658D01*
X-33358905Y36373658D02*
X-33406524Y36278420D01*
X-33406524Y36278420D02*
X-33454143Y36230800D01*
X-33454143Y36230800D02*
X-33549381Y36183181D01*
X-33549381Y36183181D02*
X-33835095Y36183181D01*
X-33835095Y36183181D02*
X-33930333Y36230800D01*
X-33930333Y36230800D02*
X-33977952Y36278420D01*
X-36216048Y39133181D02*
X-36549381Y39609372D01*
X-36787476Y39133181D02*
X-36787476Y40133181D01*
X-36787476Y40133181D02*
X-36406524Y40133181D01*
X-36406524Y40133181D02*
X-36311286Y40085562D01*
X-36311286Y40085562D02*
X-36263667Y40037943D01*
X-36263667Y40037943D02*
X-36216048Y39942705D01*
X-36216048Y39942705D02*
X-36216048Y39799848D01*
X-36216048Y39799848D02*
X-36263667Y39704610D01*
X-36263667Y39704610D02*
X-36311286Y39656991D01*
X-36311286Y39656991D02*
X-36406524Y39609372D01*
X-36406524Y39609372D02*
X-36787476Y39609372D01*
X-35882714Y40133181D02*
X-35263667Y40133181D01*
X-35263667Y40133181D02*
X-35597000Y39752229D01*
X-35597000Y39752229D02*
X-35454143Y39752229D01*
X-35454143Y39752229D02*
X-35358905Y39704610D01*
X-35358905Y39704610D02*
X-35311286Y39656991D01*
X-35311286Y39656991D02*
X-35263667Y39561753D01*
X-35263667Y39561753D02*
X-35263667Y39323658D01*
X-35263667Y39323658D02*
X-35311286Y39228420D01*
X-35311286Y39228420D02*
X-35358905Y39180800D01*
X-35358905Y39180800D02*
X-35454143Y39133181D01*
X-35454143Y39133181D02*
X-35739857Y39133181D01*
X-35739857Y39133181D02*
X-35835095Y39180800D01*
X-35835095Y39180800D02*
X-35882714Y39228420D01*
X-34644619Y40133181D02*
X-34549381Y40133181D01*
X-34549381Y40133181D02*
X-34454143Y40085562D01*
X-34454143Y40085562D02*
X-34406524Y40037943D01*
X-34406524Y40037943D02*
X-34358905Y39942705D01*
X-34358905Y39942705D02*
X-34311286Y39752229D01*
X-34311286Y39752229D02*
X-34311286Y39514134D01*
X-34311286Y39514134D02*
X-34358905Y39323658D01*
X-34358905Y39323658D02*
X-34406524Y39228420D01*
X-34406524Y39228420D02*
X-34454143Y39180800D01*
X-34454143Y39180800D02*
X-34549381Y39133181D01*
X-34549381Y39133181D02*
X-34644619Y39133181D01*
X-34644619Y39133181D02*
X-34739857Y39180800D01*
X-34739857Y39180800D02*
X-34787476Y39228420D01*
X-34787476Y39228420D02*
X-34835095Y39323658D01*
X-34835095Y39323658D02*
X-34882714Y39514134D01*
X-34882714Y39514134D02*
X-34882714Y39752229D01*
X-34882714Y39752229D02*
X-34835095Y39942705D01*
X-34835095Y39942705D02*
X-34787476Y40037943D01*
X-34787476Y40037943D02*
X-34739857Y40085562D01*
X-34739857Y40085562D02*
X-34644619Y40133181D01*
X-33930333Y40037943D02*
X-33882714Y40085562D01*
X-33882714Y40085562D02*
X-33787476Y40133181D01*
X-33787476Y40133181D02*
X-33549381Y40133181D01*
X-33549381Y40133181D02*
X-33454143Y40085562D01*
X-33454143Y40085562D02*
X-33406524Y40037943D01*
X-33406524Y40037943D02*
X-33358905Y39942705D01*
X-33358905Y39942705D02*
X-33358905Y39847467D01*
X-33358905Y39847467D02*
X-33406524Y39704610D01*
X-33406524Y39704610D02*
X-33977952Y39133181D01*
X-33977952Y39133181D02*
X-33358905Y39133181D01*
X-36216048Y42083181D02*
X-36549381Y42559372D01*
X-36787476Y42083181D02*
X-36787476Y43083181D01*
X-36787476Y43083181D02*
X-36406524Y43083181D01*
X-36406524Y43083181D02*
X-36311286Y43035562D01*
X-36311286Y43035562D02*
X-36263667Y42987943D01*
X-36263667Y42987943D02*
X-36216048Y42892705D01*
X-36216048Y42892705D02*
X-36216048Y42749848D01*
X-36216048Y42749848D02*
X-36263667Y42654610D01*
X-36263667Y42654610D02*
X-36311286Y42606991D01*
X-36311286Y42606991D02*
X-36406524Y42559372D01*
X-36406524Y42559372D02*
X-36787476Y42559372D01*
X-35882714Y43083181D02*
X-35263667Y43083181D01*
X-35263667Y43083181D02*
X-35597000Y42702229D01*
X-35597000Y42702229D02*
X-35454143Y42702229D01*
X-35454143Y42702229D02*
X-35358905Y42654610D01*
X-35358905Y42654610D02*
X-35311286Y42606991D01*
X-35311286Y42606991D02*
X-35263667Y42511753D01*
X-35263667Y42511753D02*
X-35263667Y42273658D01*
X-35263667Y42273658D02*
X-35311286Y42178420D01*
X-35311286Y42178420D02*
X-35358905Y42130800D01*
X-35358905Y42130800D02*
X-35454143Y42083181D01*
X-35454143Y42083181D02*
X-35739857Y42083181D01*
X-35739857Y42083181D02*
X-35835095Y42130800D01*
X-35835095Y42130800D02*
X-35882714Y42178420D01*
X-34644619Y43083181D02*
X-34549381Y43083181D01*
X-34549381Y43083181D02*
X-34454143Y43035562D01*
X-34454143Y43035562D02*
X-34406524Y42987943D01*
X-34406524Y42987943D02*
X-34358905Y42892705D01*
X-34358905Y42892705D02*
X-34311286Y42702229D01*
X-34311286Y42702229D02*
X-34311286Y42464134D01*
X-34311286Y42464134D02*
X-34358905Y42273658D01*
X-34358905Y42273658D02*
X-34406524Y42178420D01*
X-34406524Y42178420D02*
X-34454143Y42130800D01*
X-34454143Y42130800D02*
X-34549381Y42083181D01*
X-34549381Y42083181D02*
X-34644619Y42083181D01*
X-34644619Y42083181D02*
X-34739857Y42130800D01*
X-34739857Y42130800D02*
X-34787476Y42178420D01*
X-34787476Y42178420D02*
X-34835095Y42273658D01*
X-34835095Y42273658D02*
X-34882714Y42464134D01*
X-34882714Y42464134D02*
X-34882714Y42702229D01*
X-34882714Y42702229D02*
X-34835095Y42892705D01*
X-34835095Y42892705D02*
X-34787476Y42987943D01*
X-34787476Y42987943D02*
X-34739857Y43035562D01*
X-34739857Y43035562D02*
X-34644619Y43083181D01*
X-33358905Y42083181D02*
X-33930333Y42083181D01*
X-33644619Y42083181D02*
X-33644619Y43083181D01*
X-33644619Y43083181D02*
X-33739857Y42940324D01*
X-33739857Y42940324D02*
X-33835095Y42845086D01*
X-33835095Y42845086D02*
X-33930333Y42797467D01*
X-23375715Y-23540819D02*
X-23375715Y-24255104D01*
X-23375715Y-24255104D02*
X-23423334Y-24397961D01*
X-23423334Y-24397961D02*
X-23518572Y-24493200D01*
X-23518572Y-24493200D02*
X-23661429Y-24540819D01*
X-23661429Y-24540819D02*
X-23756667Y-24540819D01*
X-22899524Y-24540819D02*
X-22899524Y-23540819D01*
X-22899524Y-23540819D02*
X-22518572Y-23540819D01*
X-22518572Y-23540819D02*
X-22423334Y-23588438D01*
X-22423334Y-23588438D02*
X-22375715Y-23636057D01*
X-22375715Y-23636057D02*
X-22328096Y-23731295D01*
X-22328096Y-23731295D02*
X-22328096Y-23874152D01*
X-22328096Y-23874152D02*
X-22375715Y-23969390D01*
X-22375715Y-23969390D02*
X-22423334Y-24017009D01*
X-22423334Y-24017009D02*
X-22518572Y-24064628D01*
X-22518572Y-24064628D02*
X-22899524Y-24064628D01*
X-21375715Y-24540819D02*
X-21947143Y-24540819D01*
X-21661429Y-24540819D02*
X-21661429Y-23540819D01*
X-21661429Y-23540819D02*
X-21756667Y-23683676D01*
X-21756667Y-23683676D02*
X-21851905Y-23778914D01*
X-21851905Y-23778914D02*
X-21947143Y-23826533D01*
X-20756667Y-23540819D02*
X-20661429Y-23540819D01*
X-20661429Y-23540819D02*
X-20566191Y-23588438D01*
X-20566191Y-23588438D02*
X-20518572Y-23636057D01*
X-20518572Y-23636057D02*
X-20470953Y-23731295D01*
X-20470953Y-23731295D02*
X-20423334Y-23921771D01*
X-20423334Y-23921771D02*
X-20423334Y-24159866D01*
X-20423334Y-24159866D02*
X-20470953Y-24350342D01*
X-20470953Y-24350342D02*
X-20518572Y-24445580D01*
X-20518572Y-24445580D02*
X-20566191Y-24493200D01*
X-20566191Y-24493200D02*
X-20661429Y-24540819D01*
X-20661429Y-24540819D02*
X-20756667Y-24540819D01*
X-20756667Y-24540819D02*
X-20851905Y-24493200D01*
X-20851905Y-24493200D02*
X-20899524Y-24445580D01*
X-20899524Y-24445580D02*
X-20947143Y-24350342D01*
X-20947143Y-24350342D02*
X-20994762Y-24159866D01*
X-20994762Y-24159866D02*
X-20994762Y-23921771D01*
X-20994762Y-23921771D02*
X-20947143Y-23731295D01*
X-20947143Y-23731295D02*
X-20899524Y-23636057D01*
X-20899524Y-23636057D02*
X-20851905Y-23588438D01*
X-20851905Y-23588438D02*
X-20756667Y-23540819D01*
X-19470953Y-24540819D02*
X-20042381Y-24540819D01*
X-19756667Y-24540819D02*
X-19756667Y-23540819D01*
X-19756667Y-23540819D02*
X-19851905Y-23683676D01*
X-19851905Y-23683676D02*
X-19947143Y-23778914D01*
X-19947143Y-23778914D02*
X-20042381Y-23826533D01*
X-33027715Y44697181D02*
X-33027715Y43982896D01*
X-33027715Y43982896D02*
X-33075334Y43840039D01*
X-33075334Y43840039D02*
X-33170572Y43744800D01*
X-33170572Y43744800D02*
X-33313429Y43697181D01*
X-33313429Y43697181D02*
X-33408667Y43697181D01*
X-32551524Y43697181D02*
X-32551524Y44697181D01*
X-32551524Y44697181D02*
X-32170572Y44697181D01*
X-32170572Y44697181D02*
X-32075334Y44649562D01*
X-32075334Y44649562D02*
X-32027715Y44601943D01*
X-32027715Y44601943D02*
X-31980096Y44506705D01*
X-31980096Y44506705D02*
X-31980096Y44363848D01*
X-31980096Y44363848D02*
X-32027715Y44268610D01*
X-32027715Y44268610D02*
X-32075334Y44220991D01*
X-32075334Y44220991D02*
X-32170572Y44173372D01*
X-32170572Y44173372D02*
X-32551524Y44173372D01*
X-31027715Y43697181D02*
X-31599143Y43697181D01*
X-31313429Y43697181D02*
X-31313429Y44697181D01*
X-31313429Y44697181D02*
X-31408667Y44554324D01*
X-31408667Y44554324D02*
X-31503905Y44459086D01*
X-31503905Y44459086D02*
X-31599143Y44411467D01*
X-30408667Y44697181D02*
X-30313429Y44697181D01*
X-30313429Y44697181D02*
X-30218191Y44649562D01*
X-30218191Y44649562D02*
X-30170572Y44601943D01*
X-30170572Y44601943D02*
X-30122953Y44506705D01*
X-30122953Y44506705D02*
X-30075334Y44316229D01*
X-30075334Y44316229D02*
X-30075334Y44078134D01*
X-30075334Y44078134D02*
X-30122953Y43887658D01*
X-30122953Y43887658D02*
X-30170572Y43792420D01*
X-30170572Y43792420D02*
X-30218191Y43744800D01*
X-30218191Y43744800D02*
X-30313429Y43697181D01*
X-30313429Y43697181D02*
X-30408667Y43697181D01*
X-30408667Y43697181D02*
X-30503905Y43744800D01*
X-30503905Y43744800D02*
X-30551524Y43792420D01*
X-30551524Y43792420D02*
X-30599143Y43887658D01*
X-30599143Y43887658D02*
X-30646762Y44078134D01*
X-30646762Y44078134D02*
X-30646762Y44316229D01*
X-30646762Y44316229D02*
X-30599143Y44506705D01*
X-30599143Y44506705D02*
X-30551524Y44601943D01*
X-30551524Y44601943D02*
X-30503905Y44649562D01*
X-30503905Y44649562D02*
X-30408667Y44697181D01*
X-29218191Y44697181D02*
X-29408667Y44697181D01*
X-29408667Y44697181D02*
X-29503905Y44649562D01*
X-29503905Y44649562D02*
X-29551524Y44601943D01*
X-29551524Y44601943D02*
X-29646762Y44459086D01*
X-29646762Y44459086D02*
X-29694381Y44268610D01*
X-29694381Y44268610D02*
X-29694381Y43887658D01*
X-29694381Y43887658D02*
X-29646762Y43792420D01*
X-29646762Y43792420D02*
X-29599143Y43744800D01*
X-29599143Y43744800D02*
X-29503905Y43697181D01*
X-29503905Y43697181D02*
X-29313429Y43697181D01*
X-29313429Y43697181D02*
X-29218191Y43744800D01*
X-29218191Y43744800D02*
X-29170572Y43792420D01*
X-29170572Y43792420D02*
X-29122953Y43887658D01*
X-29122953Y43887658D02*
X-29122953Y44125753D01*
X-29122953Y44125753D02*
X-29170572Y44220991D01*
X-29170572Y44220991D02*
X-29218191Y44268610D01*
X-29218191Y44268610D02*
X-29313429Y44316229D01*
X-29313429Y44316229D02*
X-29503905Y44316229D01*
X-29503905Y44316229D02*
X-29599143Y44268610D01*
X-29599143Y44268610D02*
X-29646762Y44220991D01*
X-29646762Y44220991D02*
X-29694381Y44125753D01*
X-31662476Y38883181D02*
X-31662476Y39883181D01*
X-31662476Y39883181D02*
X-31424381Y39883181D01*
X-31424381Y39883181D02*
X-31281524Y39835562D01*
X-31281524Y39835562D02*
X-31186286Y39740324D01*
X-31186286Y39740324D02*
X-31138667Y39645086D01*
X-31138667Y39645086D02*
X-31091048Y39454610D01*
X-31091048Y39454610D02*
X-31091048Y39311753D01*
X-31091048Y39311753D02*
X-31138667Y39121277D01*
X-31138667Y39121277D02*
X-31186286Y39026039D01*
X-31186286Y39026039D02*
X-31281524Y38930800D01*
X-31281524Y38930800D02*
X-31424381Y38883181D01*
X-31424381Y38883181D02*
X-31662476Y38883181D01*
X-30757714Y39883181D02*
X-30138667Y39883181D01*
X-30138667Y39883181D02*
X-30472000Y39502229D01*
X-30472000Y39502229D02*
X-30329143Y39502229D01*
X-30329143Y39502229D02*
X-30233905Y39454610D01*
X-30233905Y39454610D02*
X-30186286Y39406991D01*
X-30186286Y39406991D02*
X-30138667Y39311753D01*
X-30138667Y39311753D02*
X-30138667Y39073658D01*
X-30138667Y39073658D02*
X-30186286Y38978420D01*
X-30186286Y38978420D02*
X-30233905Y38930800D01*
X-30233905Y38930800D02*
X-30329143Y38883181D01*
X-30329143Y38883181D02*
X-30614857Y38883181D01*
X-30614857Y38883181D02*
X-30710095Y38930800D01*
X-30710095Y38930800D02*
X-30757714Y38978420D01*
X-29519619Y39883181D02*
X-29424381Y39883181D01*
X-29424381Y39883181D02*
X-29329143Y39835562D01*
X-29329143Y39835562D02*
X-29281524Y39787943D01*
X-29281524Y39787943D02*
X-29233905Y39692705D01*
X-29233905Y39692705D02*
X-29186286Y39502229D01*
X-29186286Y39502229D02*
X-29186286Y39264134D01*
X-29186286Y39264134D02*
X-29233905Y39073658D01*
X-29233905Y39073658D02*
X-29281524Y38978420D01*
X-29281524Y38978420D02*
X-29329143Y38930800D01*
X-29329143Y38930800D02*
X-29424381Y38883181D01*
X-29424381Y38883181D02*
X-29519619Y38883181D01*
X-29519619Y38883181D02*
X-29614857Y38930800D01*
X-29614857Y38930800D02*
X-29662476Y38978420D01*
X-29662476Y38978420D02*
X-29710095Y39073658D01*
X-29710095Y39073658D02*
X-29757714Y39264134D01*
X-29757714Y39264134D02*
X-29757714Y39502229D01*
X-29757714Y39502229D02*
X-29710095Y39692705D01*
X-29710095Y39692705D02*
X-29662476Y39787943D01*
X-29662476Y39787943D02*
X-29614857Y39835562D01*
X-29614857Y39835562D02*
X-29519619Y39883181D01*
X-28805333Y39787943D02*
X-28757714Y39835562D01*
X-28757714Y39835562D02*
X-28662476Y39883181D01*
X-28662476Y39883181D02*
X-28424381Y39883181D01*
X-28424381Y39883181D02*
X-28329143Y39835562D01*
X-28329143Y39835562D02*
X-28281524Y39787943D01*
X-28281524Y39787943D02*
X-28233905Y39692705D01*
X-28233905Y39692705D02*
X-28233905Y39597467D01*
X-28233905Y39597467D02*
X-28281524Y39454610D01*
X-28281524Y39454610D02*
X-28852952Y38883181D01*
X-28852952Y38883181D02*
X-28233905Y38883181D01*
X-31662476Y42233181D02*
X-31662476Y43233181D01*
X-31662476Y43233181D02*
X-31424381Y43233181D01*
X-31424381Y43233181D02*
X-31281524Y43185562D01*
X-31281524Y43185562D02*
X-31186286Y43090324D01*
X-31186286Y43090324D02*
X-31138667Y42995086D01*
X-31138667Y42995086D02*
X-31091048Y42804610D01*
X-31091048Y42804610D02*
X-31091048Y42661753D01*
X-31091048Y42661753D02*
X-31138667Y42471277D01*
X-31138667Y42471277D02*
X-31186286Y42376039D01*
X-31186286Y42376039D02*
X-31281524Y42280800D01*
X-31281524Y42280800D02*
X-31424381Y42233181D01*
X-31424381Y42233181D02*
X-31662476Y42233181D01*
X-30757714Y43233181D02*
X-30138667Y43233181D01*
X-30138667Y43233181D02*
X-30472000Y42852229D01*
X-30472000Y42852229D02*
X-30329143Y42852229D01*
X-30329143Y42852229D02*
X-30233905Y42804610D01*
X-30233905Y42804610D02*
X-30186286Y42756991D01*
X-30186286Y42756991D02*
X-30138667Y42661753D01*
X-30138667Y42661753D02*
X-30138667Y42423658D01*
X-30138667Y42423658D02*
X-30186286Y42328420D01*
X-30186286Y42328420D02*
X-30233905Y42280800D01*
X-30233905Y42280800D02*
X-30329143Y42233181D01*
X-30329143Y42233181D02*
X-30614857Y42233181D01*
X-30614857Y42233181D02*
X-30710095Y42280800D01*
X-30710095Y42280800D02*
X-30757714Y42328420D01*
X-29519619Y43233181D02*
X-29424381Y43233181D01*
X-29424381Y43233181D02*
X-29329143Y43185562D01*
X-29329143Y43185562D02*
X-29281524Y43137943D01*
X-29281524Y43137943D02*
X-29233905Y43042705D01*
X-29233905Y43042705D02*
X-29186286Y42852229D01*
X-29186286Y42852229D02*
X-29186286Y42614134D01*
X-29186286Y42614134D02*
X-29233905Y42423658D01*
X-29233905Y42423658D02*
X-29281524Y42328420D01*
X-29281524Y42328420D02*
X-29329143Y42280800D01*
X-29329143Y42280800D02*
X-29424381Y42233181D01*
X-29424381Y42233181D02*
X-29519619Y42233181D01*
X-29519619Y42233181D02*
X-29614857Y42280800D01*
X-29614857Y42280800D02*
X-29662476Y42328420D01*
X-29662476Y42328420D02*
X-29710095Y42423658D01*
X-29710095Y42423658D02*
X-29757714Y42614134D01*
X-29757714Y42614134D02*
X-29757714Y42852229D01*
X-29757714Y42852229D02*
X-29710095Y43042705D01*
X-29710095Y43042705D02*
X-29662476Y43137943D01*
X-29662476Y43137943D02*
X-29614857Y43185562D01*
X-29614857Y43185562D02*
X-29519619Y43233181D01*
X-28233905Y42233181D02*
X-28805333Y42233181D01*
X-28519619Y42233181D02*
X-28519619Y43233181D01*
X-28519619Y43233181D02*
X-28614857Y43090324D01*
X-28614857Y43090324D02*
X-28710095Y42995086D01*
X-28710095Y42995086D02*
X-28805333Y42947467D01*
X-40224476Y-19882819D02*
X-40224476Y-18882819D01*
X-40224476Y-18882819D02*
X-39986381Y-18882819D01*
X-39986381Y-18882819D02*
X-39843524Y-18930438D01*
X-39843524Y-18930438D02*
X-39748286Y-19025676D01*
X-39748286Y-19025676D02*
X-39700667Y-19120914D01*
X-39700667Y-19120914D02*
X-39653048Y-19311390D01*
X-39653048Y-19311390D02*
X-39653048Y-19454247D01*
X-39653048Y-19454247D02*
X-39700667Y-19644723D01*
X-39700667Y-19644723D02*
X-39748286Y-19739961D01*
X-39748286Y-19739961D02*
X-39843524Y-19835200D01*
X-39843524Y-19835200D02*
X-39986381Y-19882819D01*
X-39986381Y-19882819D02*
X-40224476Y-19882819D01*
X-38700667Y-19882819D02*
X-39272095Y-19882819D01*
X-38986381Y-19882819D02*
X-38986381Y-18882819D01*
X-38986381Y-18882819D02*
X-39081619Y-19025676D01*
X-39081619Y-19025676D02*
X-39176857Y-19120914D01*
X-39176857Y-19120914D02*
X-39272095Y-19168533D01*
X-38081619Y-18882819D02*
X-37986381Y-18882819D01*
X-37986381Y-18882819D02*
X-37891143Y-18930438D01*
X-37891143Y-18930438D02*
X-37843524Y-18978057D01*
X-37843524Y-18978057D02*
X-37795905Y-19073295D01*
X-37795905Y-19073295D02*
X-37748286Y-19263771D01*
X-37748286Y-19263771D02*
X-37748286Y-19501866D01*
X-37748286Y-19501866D02*
X-37795905Y-19692342D01*
X-37795905Y-19692342D02*
X-37843524Y-19787580D01*
X-37843524Y-19787580D02*
X-37891143Y-19835200D01*
X-37891143Y-19835200D02*
X-37986381Y-19882819D01*
X-37986381Y-19882819D02*
X-38081619Y-19882819D01*
X-38081619Y-19882819D02*
X-38176857Y-19835200D01*
X-38176857Y-19835200D02*
X-38224476Y-19787580D01*
X-38224476Y-19787580D02*
X-38272095Y-19692342D01*
X-38272095Y-19692342D02*
X-38319714Y-19501866D01*
X-38319714Y-19501866D02*
X-38319714Y-19263771D01*
X-38319714Y-19263771D02*
X-38272095Y-19073295D01*
X-38272095Y-19073295D02*
X-38224476Y-18978057D01*
X-38224476Y-18978057D02*
X-38176857Y-18930438D01*
X-38176857Y-18930438D02*
X-38081619Y-18882819D01*
X-36795905Y-19882819D02*
X-37367333Y-19882819D01*
X-37081619Y-19882819D02*
X-37081619Y-18882819D01*
X-37081619Y-18882819D02*
X-37176857Y-19025676D01*
X-37176857Y-19025676D02*
X-37272095Y-19120914D01*
X-37272095Y-19120914D02*
X-37367333Y-19168533D01*
X-40646048Y33148420D02*
X-40693667Y33100800D01*
X-40693667Y33100800D02*
X-40836524Y33053181D01*
X-40836524Y33053181D02*
X-40931762Y33053181D01*
X-40931762Y33053181D02*
X-41074619Y33100800D01*
X-41074619Y33100800D02*
X-41169857Y33196039D01*
X-41169857Y33196039D02*
X-41217476Y33291277D01*
X-41217476Y33291277D02*
X-41265095Y33481753D01*
X-41265095Y33481753D02*
X-41265095Y33624610D01*
X-41265095Y33624610D02*
X-41217476Y33815086D01*
X-41217476Y33815086D02*
X-41169857Y33910324D01*
X-41169857Y33910324D02*
X-41074619Y34005562D01*
X-41074619Y34005562D02*
X-40931762Y34053181D01*
X-40931762Y34053181D02*
X-40836524Y34053181D01*
X-40836524Y34053181D02*
X-40693667Y34005562D01*
X-40693667Y34005562D02*
X-40646048Y33957943D01*
X-40312714Y34053181D02*
X-39693667Y34053181D01*
X-39693667Y34053181D02*
X-40027000Y33672229D01*
X-40027000Y33672229D02*
X-39884143Y33672229D01*
X-39884143Y33672229D02*
X-39788905Y33624610D01*
X-39788905Y33624610D02*
X-39741286Y33576991D01*
X-39741286Y33576991D02*
X-39693667Y33481753D01*
X-39693667Y33481753D02*
X-39693667Y33243658D01*
X-39693667Y33243658D02*
X-39741286Y33148420D01*
X-39741286Y33148420D02*
X-39788905Y33100800D01*
X-39788905Y33100800D02*
X-39884143Y33053181D01*
X-39884143Y33053181D02*
X-40169857Y33053181D01*
X-40169857Y33053181D02*
X-40265095Y33100800D01*
X-40265095Y33100800D02*
X-40312714Y33148420D01*
X-39074619Y34053181D02*
X-38979381Y34053181D01*
X-38979381Y34053181D02*
X-38884143Y34005562D01*
X-38884143Y34005562D02*
X-38836524Y33957943D01*
X-38836524Y33957943D02*
X-38788905Y33862705D01*
X-38788905Y33862705D02*
X-38741286Y33672229D01*
X-38741286Y33672229D02*
X-38741286Y33434134D01*
X-38741286Y33434134D02*
X-38788905Y33243658D01*
X-38788905Y33243658D02*
X-38836524Y33148420D01*
X-38836524Y33148420D02*
X-38884143Y33100800D01*
X-38884143Y33100800D02*
X-38979381Y33053181D01*
X-38979381Y33053181D02*
X-39074619Y33053181D01*
X-39074619Y33053181D02*
X-39169857Y33100800D01*
X-39169857Y33100800D02*
X-39217476Y33148420D01*
X-39217476Y33148420D02*
X-39265095Y33243658D01*
X-39265095Y33243658D02*
X-39312714Y33434134D01*
X-39312714Y33434134D02*
X-39312714Y33672229D01*
X-39312714Y33672229D02*
X-39265095Y33862705D01*
X-39265095Y33862705D02*
X-39217476Y33957943D01*
X-39217476Y33957943D02*
X-39169857Y34005562D01*
X-39169857Y34005562D02*
X-39074619Y34053181D01*
X-37836524Y34053181D02*
X-38312714Y34053181D01*
X-38312714Y34053181D02*
X-38360333Y33576991D01*
X-38360333Y33576991D02*
X-38312714Y33624610D01*
X-38312714Y33624610D02*
X-38217476Y33672229D01*
X-38217476Y33672229D02*
X-37979381Y33672229D01*
X-37979381Y33672229D02*
X-37884143Y33624610D01*
X-37884143Y33624610D02*
X-37836524Y33576991D01*
X-37836524Y33576991D02*
X-37788905Y33481753D01*
X-37788905Y33481753D02*
X-37788905Y33243658D01*
X-37788905Y33243658D02*
X-37836524Y33148420D01*
X-37836524Y33148420D02*
X-37884143Y33100800D01*
X-37884143Y33100800D02*
X-37979381Y33053181D01*
X-37979381Y33053181D02*
X-38217476Y33053181D01*
X-38217476Y33053181D02*
X-38312714Y33100800D01*
X-38312714Y33100800D02*
X-38360333Y33148420D01*
X-40646048Y36158420D02*
X-40693667Y36110800D01*
X-40693667Y36110800D02*
X-40836524Y36063181D01*
X-40836524Y36063181D02*
X-40931762Y36063181D01*
X-40931762Y36063181D02*
X-41074619Y36110800D01*
X-41074619Y36110800D02*
X-41169857Y36206039D01*
X-41169857Y36206039D02*
X-41217476Y36301277D01*
X-41217476Y36301277D02*
X-41265095Y36491753D01*
X-41265095Y36491753D02*
X-41265095Y36634610D01*
X-41265095Y36634610D02*
X-41217476Y36825086D01*
X-41217476Y36825086D02*
X-41169857Y36920324D01*
X-41169857Y36920324D02*
X-41074619Y37015562D01*
X-41074619Y37015562D02*
X-40931762Y37063181D01*
X-40931762Y37063181D02*
X-40836524Y37063181D01*
X-40836524Y37063181D02*
X-40693667Y37015562D01*
X-40693667Y37015562D02*
X-40646048Y36967943D01*
X-40312714Y37063181D02*
X-39693667Y37063181D01*
X-39693667Y37063181D02*
X-40027000Y36682229D01*
X-40027000Y36682229D02*
X-39884143Y36682229D01*
X-39884143Y36682229D02*
X-39788905Y36634610D01*
X-39788905Y36634610D02*
X-39741286Y36586991D01*
X-39741286Y36586991D02*
X-39693667Y36491753D01*
X-39693667Y36491753D02*
X-39693667Y36253658D01*
X-39693667Y36253658D02*
X-39741286Y36158420D01*
X-39741286Y36158420D02*
X-39788905Y36110800D01*
X-39788905Y36110800D02*
X-39884143Y36063181D01*
X-39884143Y36063181D02*
X-40169857Y36063181D01*
X-40169857Y36063181D02*
X-40265095Y36110800D01*
X-40265095Y36110800D02*
X-40312714Y36158420D01*
X-39074619Y37063181D02*
X-38979381Y37063181D01*
X-38979381Y37063181D02*
X-38884143Y37015562D01*
X-38884143Y37015562D02*
X-38836524Y36967943D01*
X-38836524Y36967943D02*
X-38788905Y36872705D01*
X-38788905Y36872705D02*
X-38741286Y36682229D01*
X-38741286Y36682229D02*
X-38741286Y36444134D01*
X-38741286Y36444134D02*
X-38788905Y36253658D01*
X-38788905Y36253658D02*
X-38836524Y36158420D01*
X-38836524Y36158420D02*
X-38884143Y36110800D01*
X-38884143Y36110800D02*
X-38979381Y36063181D01*
X-38979381Y36063181D02*
X-39074619Y36063181D01*
X-39074619Y36063181D02*
X-39169857Y36110800D01*
X-39169857Y36110800D02*
X-39217476Y36158420D01*
X-39217476Y36158420D02*
X-39265095Y36253658D01*
X-39265095Y36253658D02*
X-39312714Y36444134D01*
X-39312714Y36444134D02*
X-39312714Y36682229D01*
X-39312714Y36682229D02*
X-39265095Y36872705D01*
X-39265095Y36872705D02*
X-39217476Y36967943D01*
X-39217476Y36967943D02*
X-39169857Y37015562D01*
X-39169857Y37015562D02*
X-39074619Y37063181D01*
X-37884143Y36729848D02*
X-37884143Y36063181D01*
X-38122238Y37110800D02*
X-38360333Y36396515D01*
X-38360333Y36396515D02*
X-37741286Y36396515D01*
X-40646048Y39168420D02*
X-40693667Y39120800D01*
X-40693667Y39120800D02*
X-40836524Y39073181D01*
X-40836524Y39073181D02*
X-40931762Y39073181D01*
X-40931762Y39073181D02*
X-41074619Y39120800D01*
X-41074619Y39120800D02*
X-41169857Y39216039D01*
X-41169857Y39216039D02*
X-41217476Y39311277D01*
X-41217476Y39311277D02*
X-41265095Y39501753D01*
X-41265095Y39501753D02*
X-41265095Y39644610D01*
X-41265095Y39644610D02*
X-41217476Y39835086D01*
X-41217476Y39835086D02*
X-41169857Y39930324D01*
X-41169857Y39930324D02*
X-41074619Y40025562D01*
X-41074619Y40025562D02*
X-40931762Y40073181D01*
X-40931762Y40073181D02*
X-40836524Y40073181D01*
X-40836524Y40073181D02*
X-40693667Y40025562D01*
X-40693667Y40025562D02*
X-40646048Y39977943D01*
X-40312714Y40073181D02*
X-39693667Y40073181D01*
X-39693667Y40073181D02*
X-40027000Y39692229D01*
X-40027000Y39692229D02*
X-39884143Y39692229D01*
X-39884143Y39692229D02*
X-39788905Y39644610D01*
X-39788905Y39644610D02*
X-39741286Y39596991D01*
X-39741286Y39596991D02*
X-39693667Y39501753D01*
X-39693667Y39501753D02*
X-39693667Y39263658D01*
X-39693667Y39263658D02*
X-39741286Y39168420D01*
X-39741286Y39168420D02*
X-39788905Y39120800D01*
X-39788905Y39120800D02*
X-39884143Y39073181D01*
X-39884143Y39073181D02*
X-40169857Y39073181D01*
X-40169857Y39073181D02*
X-40265095Y39120800D01*
X-40265095Y39120800D02*
X-40312714Y39168420D01*
X-39074619Y40073181D02*
X-38979381Y40073181D01*
X-38979381Y40073181D02*
X-38884143Y40025562D01*
X-38884143Y40025562D02*
X-38836524Y39977943D01*
X-38836524Y39977943D02*
X-38788905Y39882705D01*
X-38788905Y39882705D02*
X-38741286Y39692229D01*
X-38741286Y39692229D02*
X-38741286Y39454134D01*
X-38741286Y39454134D02*
X-38788905Y39263658D01*
X-38788905Y39263658D02*
X-38836524Y39168420D01*
X-38836524Y39168420D02*
X-38884143Y39120800D01*
X-38884143Y39120800D02*
X-38979381Y39073181D01*
X-38979381Y39073181D02*
X-39074619Y39073181D01*
X-39074619Y39073181D02*
X-39169857Y39120800D01*
X-39169857Y39120800D02*
X-39217476Y39168420D01*
X-39217476Y39168420D02*
X-39265095Y39263658D01*
X-39265095Y39263658D02*
X-39312714Y39454134D01*
X-39312714Y39454134D02*
X-39312714Y39692229D01*
X-39312714Y39692229D02*
X-39265095Y39882705D01*
X-39265095Y39882705D02*
X-39217476Y39977943D01*
X-39217476Y39977943D02*
X-39169857Y40025562D01*
X-39169857Y40025562D02*
X-39074619Y40073181D01*
X-38407952Y40073181D02*
X-37788905Y40073181D01*
X-37788905Y40073181D02*
X-38122238Y39692229D01*
X-38122238Y39692229D02*
X-37979381Y39692229D01*
X-37979381Y39692229D02*
X-37884143Y39644610D01*
X-37884143Y39644610D02*
X-37836524Y39596991D01*
X-37836524Y39596991D02*
X-37788905Y39501753D01*
X-37788905Y39501753D02*
X-37788905Y39263658D01*
X-37788905Y39263658D02*
X-37836524Y39168420D01*
X-37836524Y39168420D02*
X-37884143Y39120800D01*
X-37884143Y39120800D02*
X-37979381Y39073181D01*
X-37979381Y39073181D02*
X-38265095Y39073181D01*
X-38265095Y39073181D02*
X-38360333Y39120800D01*
X-38360333Y39120800D02*
X-38407952Y39168420D01*
X-40646048Y42178420D02*
X-40693667Y42130800D01*
X-40693667Y42130800D02*
X-40836524Y42083181D01*
X-40836524Y42083181D02*
X-40931762Y42083181D01*
X-40931762Y42083181D02*
X-41074619Y42130800D01*
X-41074619Y42130800D02*
X-41169857Y42226039D01*
X-41169857Y42226039D02*
X-41217476Y42321277D01*
X-41217476Y42321277D02*
X-41265095Y42511753D01*
X-41265095Y42511753D02*
X-41265095Y42654610D01*
X-41265095Y42654610D02*
X-41217476Y42845086D01*
X-41217476Y42845086D02*
X-41169857Y42940324D01*
X-41169857Y42940324D02*
X-41074619Y43035562D01*
X-41074619Y43035562D02*
X-40931762Y43083181D01*
X-40931762Y43083181D02*
X-40836524Y43083181D01*
X-40836524Y43083181D02*
X-40693667Y43035562D01*
X-40693667Y43035562D02*
X-40646048Y42987943D01*
X-40312714Y43083181D02*
X-39693667Y43083181D01*
X-39693667Y43083181D02*
X-40027000Y42702229D01*
X-40027000Y42702229D02*
X-39884143Y42702229D01*
X-39884143Y42702229D02*
X-39788905Y42654610D01*
X-39788905Y42654610D02*
X-39741286Y42606991D01*
X-39741286Y42606991D02*
X-39693667Y42511753D01*
X-39693667Y42511753D02*
X-39693667Y42273658D01*
X-39693667Y42273658D02*
X-39741286Y42178420D01*
X-39741286Y42178420D02*
X-39788905Y42130800D01*
X-39788905Y42130800D02*
X-39884143Y42083181D01*
X-39884143Y42083181D02*
X-40169857Y42083181D01*
X-40169857Y42083181D02*
X-40265095Y42130800D01*
X-40265095Y42130800D02*
X-40312714Y42178420D01*
X-39074619Y43083181D02*
X-38979381Y43083181D01*
X-38979381Y43083181D02*
X-38884143Y43035562D01*
X-38884143Y43035562D02*
X-38836524Y42987943D01*
X-38836524Y42987943D02*
X-38788905Y42892705D01*
X-38788905Y42892705D02*
X-38741286Y42702229D01*
X-38741286Y42702229D02*
X-38741286Y42464134D01*
X-38741286Y42464134D02*
X-38788905Y42273658D01*
X-38788905Y42273658D02*
X-38836524Y42178420D01*
X-38836524Y42178420D02*
X-38884143Y42130800D01*
X-38884143Y42130800D02*
X-38979381Y42083181D01*
X-38979381Y42083181D02*
X-39074619Y42083181D01*
X-39074619Y42083181D02*
X-39169857Y42130800D01*
X-39169857Y42130800D02*
X-39217476Y42178420D01*
X-39217476Y42178420D02*
X-39265095Y42273658D01*
X-39265095Y42273658D02*
X-39312714Y42464134D01*
X-39312714Y42464134D02*
X-39312714Y42702229D01*
X-39312714Y42702229D02*
X-39265095Y42892705D01*
X-39265095Y42892705D02*
X-39217476Y42987943D01*
X-39217476Y42987943D02*
X-39169857Y43035562D01*
X-39169857Y43035562D02*
X-39074619Y43083181D01*
X-37788905Y42083181D02*
X-38360333Y42083181D01*
X-38074619Y42083181D02*
X-38074619Y43083181D01*
X-38074619Y43083181D02*
X-38169857Y42940324D01*
X-38169857Y42940324D02*
X-38265095Y42845086D01*
X-38265095Y42845086D02*
X-38360333Y42797467D01*
X-29979715Y-23555819D02*
X-29979715Y-24270104D01*
X-29979715Y-24270104D02*
X-30027334Y-24412961D01*
X-30027334Y-24412961D02*
X-30122572Y-24508200D01*
X-30122572Y-24508200D02*
X-30265429Y-24555819D01*
X-30265429Y-24555819D02*
X-30360667Y-24555819D01*
X-29503524Y-24555819D02*
X-29503524Y-23555819D01*
X-29503524Y-23555819D02*
X-29122572Y-23555819D01*
X-29122572Y-23555819D02*
X-29027334Y-23603438D01*
X-29027334Y-23603438D02*
X-28979715Y-23651057D01*
X-28979715Y-23651057D02*
X-28932096Y-23746295D01*
X-28932096Y-23746295D02*
X-28932096Y-23889152D01*
X-28932096Y-23889152D02*
X-28979715Y-23984390D01*
X-28979715Y-23984390D02*
X-29027334Y-24032009D01*
X-29027334Y-24032009D02*
X-29122572Y-24079628D01*
X-29122572Y-24079628D02*
X-29503524Y-24079628D01*
X-27979715Y-24555819D02*
X-28551143Y-24555819D01*
X-28265429Y-24555819D02*
X-28265429Y-23555819D01*
X-28265429Y-23555819D02*
X-28360667Y-23698676D01*
X-28360667Y-23698676D02*
X-28455905Y-23793914D01*
X-28455905Y-23793914D02*
X-28551143Y-23841533D01*
X-27360667Y-23555819D02*
X-27265429Y-23555819D01*
X-27265429Y-23555819D02*
X-27170191Y-23603438D01*
X-27170191Y-23603438D02*
X-27122572Y-23651057D01*
X-27122572Y-23651057D02*
X-27074953Y-23746295D01*
X-27074953Y-23746295D02*
X-27027334Y-23936771D01*
X-27027334Y-23936771D02*
X-27027334Y-24174866D01*
X-27027334Y-24174866D02*
X-27074953Y-24365342D01*
X-27074953Y-24365342D02*
X-27122572Y-24460580D01*
X-27122572Y-24460580D02*
X-27170191Y-24508200D01*
X-27170191Y-24508200D02*
X-27265429Y-24555819D01*
X-27265429Y-24555819D02*
X-27360667Y-24555819D01*
X-27360667Y-24555819D02*
X-27455905Y-24508200D01*
X-27455905Y-24508200D02*
X-27503524Y-24460580D01*
X-27503524Y-24460580D02*
X-27551143Y-24365342D01*
X-27551143Y-24365342D02*
X-27598762Y-24174866D01*
X-27598762Y-24174866D02*
X-27598762Y-23936771D01*
X-27598762Y-23936771D02*
X-27551143Y-23746295D01*
X-27551143Y-23746295D02*
X-27503524Y-23651057D01*
X-27503524Y-23651057D02*
X-27455905Y-23603438D01*
X-27455905Y-23603438D02*
X-27360667Y-23555819D01*
X-26646381Y-23651057D02*
X-26598762Y-23603438D01*
X-26598762Y-23603438D02*
X-26503524Y-23555819D01*
X-26503524Y-23555819D02*
X-26265429Y-23555819D01*
X-26265429Y-23555819D02*
X-26170191Y-23603438D01*
X-26170191Y-23603438D02*
X-26122572Y-23651057D01*
X-26122572Y-23651057D02*
X-26074953Y-23746295D01*
X-26074953Y-23746295D02*
X-26074953Y-23841533D01*
X-26074953Y-23841533D02*
X-26122572Y-23984390D01*
X-26122572Y-23984390D02*
X-26694000Y-24555819D01*
X-26694000Y-24555819D02*
X-26074953Y-24555819D01*
X-48445715Y63979181D02*
X-48445715Y63264896D01*
X-48445715Y63264896D02*
X-48493334Y63122039D01*
X-48493334Y63122039D02*
X-48588572Y63026800D01*
X-48588572Y63026800D02*
X-48731429Y62979181D01*
X-48731429Y62979181D02*
X-48826667Y62979181D01*
X-48017143Y63883943D02*
X-47969524Y63931562D01*
X-47969524Y63931562D02*
X-47874286Y63979181D01*
X-47874286Y63979181D02*
X-47636191Y63979181D01*
X-47636191Y63979181D02*
X-47540953Y63931562D01*
X-47540953Y63931562D02*
X-47493334Y63883943D01*
X-47493334Y63883943D02*
X-47445715Y63788705D01*
X-47445715Y63788705D02*
X-47445715Y63693467D01*
X-47445715Y63693467D02*
X-47493334Y63550610D01*
X-47493334Y63550610D02*
X-48064762Y62979181D01*
X-48064762Y62979181D02*
X-47445715Y62979181D01*
X-46826667Y63979181D02*
X-46731429Y63979181D01*
X-46731429Y63979181D02*
X-46636191Y63931562D01*
X-46636191Y63931562D02*
X-46588572Y63883943D01*
X-46588572Y63883943D02*
X-46540953Y63788705D01*
X-46540953Y63788705D02*
X-46493334Y63598229D01*
X-46493334Y63598229D02*
X-46493334Y63360134D01*
X-46493334Y63360134D02*
X-46540953Y63169658D01*
X-46540953Y63169658D02*
X-46588572Y63074420D01*
X-46588572Y63074420D02*
X-46636191Y63026800D01*
X-46636191Y63026800D02*
X-46731429Y62979181D01*
X-46731429Y62979181D02*
X-46826667Y62979181D01*
X-46826667Y62979181D02*
X-46921905Y63026800D01*
X-46921905Y63026800D02*
X-46969524Y63074420D01*
X-46969524Y63074420D02*
X-47017143Y63169658D01*
X-47017143Y63169658D02*
X-47064762Y63360134D01*
X-47064762Y63360134D02*
X-47064762Y63598229D01*
X-47064762Y63598229D02*
X-47017143Y63788705D01*
X-47017143Y63788705D02*
X-46969524Y63883943D01*
X-46969524Y63883943D02*
X-46921905Y63931562D01*
X-46921905Y63931562D02*
X-46826667Y63979181D01*
X-46112381Y63883943D02*
X-46064762Y63931562D01*
X-46064762Y63931562D02*
X-45969524Y63979181D01*
X-45969524Y63979181D02*
X-45731429Y63979181D01*
X-45731429Y63979181D02*
X-45636191Y63931562D01*
X-45636191Y63931562D02*
X-45588572Y63883943D01*
X-45588572Y63883943D02*
X-45540953Y63788705D01*
X-45540953Y63788705D02*
X-45540953Y63693467D01*
X-45540953Y63693467D02*
X-45588572Y63550610D01*
X-45588572Y63550610D02*
X-46160000Y62979181D01*
X-46160000Y62979181D02*
X-45540953Y62979181D01*
X-22875715Y-18893819D02*
X-22875715Y-19608104D01*
X-22875715Y-19608104D02*
X-22923334Y-19750961D01*
X-22923334Y-19750961D02*
X-23018572Y-19846200D01*
X-23018572Y-19846200D02*
X-23161429Y-19893819D01*
X-23161429Y-19893819D02*
X-23256667Y-19893819D01*
X-21875715Y-19893819D02*
X-22447143Y-19893819D01*
X-22161429Y-19893819D02*
X-22161429Y-18893819D01*
X-22161429Y-18893819D02*
X-22256667Y-19036676D01*
X-22256667Y-19036676D02*
X-22351905Y-19131914D01*
X-22351905Y-19131914D02*
X-22447143Y-19179533D01*
X-21256667Y-18893819D02*
X-21161429Y-18893819D01*
X-21161429Y-18893819D02*
X-21066191Y-18941438D01*
X-21066191Y-18941438D02*
X-21018572Y-18989057D01*
X-21018572Y-18989057D02*
X-20970953Y-19084295D01*
X-20970953Y-19084295D02*
X-20923334Y-19274771D01*
X-20923334Y-19274771D02*
X-20923334Y-19512866D01*
X-20923334Y-19512866D02*
X-20970953Y-19703342D01*
X-20970953Y-19703342D02*
X-21018572Y-19798580D01*
X-21018572Y-19798580D02*
X-21066191Y-19846200D01*
X-21066191Y-19846200D02*
X-21161429Y-19893819D01*
X-21161429Y-19893819D02*
X-21256667Y-19893819D01*
X-21256667Y-19893819D02*
X-21351905Y-19846200D01*
X-21351905Y-19846200D02*
X-21399524Y-19798580D01*
X-21399524Y-19798580D02*
X-21447143Y-19703342D01*
X-21447143Y-19703342D02*
X-21494762Y-19512866D01*
X-21494762Y-19512866D02*
X-21494762Y-19274771D01*
X-21494762Y-19274771D02*
X-21447143Y-19084295D01*
X-21447143Y-19084295D02*
X-21399524Y-18989057D01*
X-21399524Y-18989057D02*
X-21351905Y-18941438D01*
X-21351905Y-18941438D02*
X-21256667Y-18893819D01*
X-19970953Y-19893819D02*
X-20542381Y-19893819D01*
X-20256667Y-19893819D02*
X-20256667Y-18893819D01*
X-20256667Y-18893819D02*
X-20351905Y-19036676D01*
X-20351905Y-19036676D02*
X-20447143Y-19131914D01*
X-20447143Y-19131914D02*
X-20542381Y-19179533D01*
X-29225715Y63979181D02*
X-29225715Y63264896D01*
X-29225715Y63264896D02*
X-29273334Y63122039D01*
X-29273334Y63122039D02*
X-29368572Y63026800D01*
X-29368572Y63026800D02*
X-29511429Y62979181D01*
X-29511429Y62979181D02*
X-29606667Y62979181D01*
X-28797143Y63883943D02*
X-28749524Y63931562D01*
X-28749524Y63931562D02*
X-28654286Y63979181D01*
X-28654286Y63979181D02*
X-28416191Y63979181D01*
X-28416191Y63979181D02*
X-28320953Y63931562D01*
X-28320953Y63931562D02*
X-28273334Y63883943D01*
X-28273334Y63883943D02*
X-28225715Y63788705D01*
X-28225715Y63788705D02*
X-28225715Y63693467D01*
X-28225715Y63693467D02*
X-28273334Y63550610D01*
X-28273334Y63550610D02*
X-28844762Y62979181D01*
X-28844762Y62979181D02*
X-28225715Y62979181D01*
X-27606667Y63979181D02*
X-27511429Y63979181D01*
X-27511429Y63979181D02*
X-27416191Y63931562D01*
X-27416191Y63931562D02*
X-27368572Y63883943D01*
X-27368572Y63883943D02*
X-27320953Y63788705D01*
X-27320953Y63788705D02*
X-27273334Y63598229D01*
X-27273334Y63598229D02*
X-27273334Y63360134D01*
X-27273334Y63360134D02*
X-27320953Y63169658D01*
X-27320953Y63169658D02*
X-27368572Y63074420D01*
X-27368572Y63074420D02*
X-27416191Y63026800D01*
X-27416191Y63026800D02*
X-27511429Y62979181D01*
X-27511429Y62979181D02*
X-27606667Y62979181D01*
X-27606667Y62979181D02*
X-27701905Y63026800D01*
X-27701905Y63026800D02*
X-27749524Y63074420D01*
X-27749524Y63074420D02*
X-27797143Y63169658D01*
X-27797143Y63169658D02*
X-27844762Y63360134D01*
X-27844762Y63360134D02*
X-27844762Y63598229D01*
X-27844762Y63598229D02*
X-27797143Y63788705D01*
X-27797143Y63788705D02*
X-27749524Y63883943D01*
X-27749524Y63883943D02*
X-27701905Y63931562D01*
X-27701905Y63931562D02*
X-27606667Y63979181D01*
X-26320953Y62979181D02*
X-26892381Y62979181D01*
X-26606667Y62979181D02*
X-26606667Y63979181D01*
X-26606667Y63979181D02*
X-26701905Y63836324D01*
X-26701905Y63836324D02*
X-26797143Y63741086D01*
X-26797143Y63741086D02*
X-26892381Y63693467D01*
X-25407715Y44712181D02*
X-25407715Y43997896D01*
X-25407715Y43997896D02*
X-25455334Y43855039D01*
X-25455334Y43855039D02*
X-25550572Y43759800D01*
X-25550572Y43759800D02*
X-25693429Y43712181D01*
X-25693429Y43712181D02*
X-25788667Y43712181D01*
X-24931524Y43712181D02*
X-24931524Y44712181D01*
X-24931524Y44712181D02*
X-24550572Y44712181D01*
X-24550572Y44712181D02*
X-24455334Y44664562D01*
X-24455334Y44664562D02*
X-24407715Y44616943D01*
X-24407715Y44616943D02*
X-24360096Y44521705D01*
X-24360096Y44521705D02*
X-24360096Y44378848D01*
X-24360096Y44378848D02*
X-24407715Y44283610D01*
X-24407715Y44283610D02*
X-24455334Y44235991D01*
X-24455334Y44235991D02*
X-24550572Y44188372D01*
X-24550572Y44188372D02*
X-24931524Y44188372D01*
X-23407715Y43712181D02*
X-23979143Y43712181D01*
X-23693429Y43712181D02*
X-23693429Y44712181D01*
X-23693429Y44712181D02*
X-23788667Y44569324D01*
X-23788667Y44569324D02*
X-23883905Y44474086D01*
X-23883905Y44474086D02*
X-23979143Y44426467D01*
X-22788667Y44712181D02*
X-22693429Y44712181D01*
X-22693429Y44712181D02*
X-22598191Y44664562D01*
X-22598191Y44664562D02*
X-22550572Y44616943D01*
X-22550572Y44616943D02*
X-22502953Y44521705D01*
X-22502953Y44521705D02*
X-22455334Y44331229D01*
X-22455334Y44331229D02*
X-22455334Y44093134D01*
X-22455334Y44093134D02*
X-22502953Y43902658D01*
X-22502953Y43902658D02*
X-22550572Y43807420D01*
X-22550572Y43807420D02*
X-22598191Y43759800D01*
X-22598191Y43759800D02*
X-22693429Y43712181D01*
X-22693429Y43712181D02*
X-22788667Y43712181D01*
X-22788667Y43712181D02*
X-22883905Y43759800D01*
X-22883905Y43759800D02*
X-22931524Y43807420D01*
X-22931524Y43807420D02*
X-22979143Y43902658D01*
X-22979143Y43902658D02*
X-23026762Y44093134D01*
X-23026762Y44093134D02*
X-23026762Y44331229D01*
X-23026762Y44331229D02*
X-22979143Y44521705D01*
X-22979143Y44521705D02*
X-22931524Y44616943D01*
X-22931524Y44616943D02*
X-22883905Y44664562D01*
X-22883905Y44664562D02*
X-22788667Y44712181D01*
X-21550572Y44712181D02*
X-22026762Y44712181D01*
X-22026762Y44712181D02*
X-22074381Y44235991D01*
X-22074381Y44235991D02*
X-22026762Y44283610D01*
X-22026762Y44283610D02*
X-21931524Y44331229D01*
X-21931524Y44331229D02*
X-21693429Y44331229D01*
X-21693429Y44331229D02*
X-21598191Y44283610D01*
X-21598191Y44283610D02*
X-21550572Y44235991D01*
X-21550572Y44235991D02*
X-21502953Y44140753D01*
X-21502953Y44140753D02*
X-21502953Y43902658D01*
X-21502953Y43902658D02*
X-21550572Y43807420D01*
X-21550572Y43807420D02*
X-21598191Y43759800D01*
X-21598191Y43759800D02*
X-21693429Y43712181D01*
X-21693429Y43712181D02*
X-21931524Y43712181D01*
X-21931524Y43712181D02*
X-22026762Y43759800D01*
X-22026762Y43759800D02*
X-22074381Y43807420D01*
D11*
%TO.C,C302*%
X-73525500Y66363500D02*
X-72738000Y66363500D01*
X-73131750Y66757250D02*
X-73131750Y65969750D01*
X-72498000Y66861563D02*
X-72498000Y65576000D01*
X-72498000Y66861563D02*
X-71433563Y67926000D01*
X-72498000Y62170437D02*
X-72498000Y63456000D01*
X-72498000Y62170437D02*
X-71433563Y61106000D01*
X-71433563Y67926000D02*
X-65678000Y67926000D01*
X-71433563Y61106000D02*
X-65678000Y61106000D01*
X-65678000Y67926000D02*
X-65678000Y65576000D01*
X-65678000Y61106000D02*
X-65678000Y63456000D01*
%TO.C,C105*%
X-55745500Y-28886500D02*
X-54958000Y-28886500D01*
X-55351750Y-28492750D02*
X-55351750Y-29280250D01*
X-54718000Y-28388437D02*
X-54718000Y-29674000D01*
X-54718000Y-28388437D02*
X-53653563Y-27324000D01*
X-54718000Y-33079563D02*
X-54718000Y-31794000D01*
X-54718000Y-33079563D02*
X-53653563Y-34144000D01*
X-53653563Y-27324000D02*
X-47898000Y-27324000D01*
X-53653563Y-34144000D02*
X-47898000Y-34144000D01*
X-47898000Y-27324000D02*
X-47898000Y-29674000D01*
X-47898000Y-34144000D02*
X-47898000Y-31794000D01*
%TO.C,C107*%
X-79174000Y25785563D02*
X-79174000Y22900000D01*
X-79174000Y25785563D02*
X-78109563Y26850000D01*
X-79174000Y17394437D02*
X-79174000Y20280000D01*
X-79174000Y17394437D02*
X-78109563Y16330000D01*
X-78109563Y26850000D02*
X-68654000Y26850000D01*
X-78109563Y16330000D02*
X-68654000Y16330000D01*
X-68654000Y26850000D02*
X-68654000Y22900000D01*
X-68654000Y16330000D02*
X-68654000Y20280000D01*
%TO.C,D102*%
X-65740000Y-25020000D02*
X-65740000Y-28320000D01*
X-65740000Y-25020000D02*
X-60230000Y-25020000D01*
X-65740000Y-28320000D02*
X-60230000Y-28320000D01*
%TO.C,JP103*%
X-26102000Y45152000D02*
X-27432000Y45152000D01*
X-26102000Y46482000D02*
X-26102000Y45152000D01*
X-26102000Y47752000D02*
X-26102000Y52892000D01*
X-26102000Y47752000D02*
X-28762000Y47752000D01*
X-26102000Y52892000D02*
X-28762000Y52892000D01*
X-28762000Y47752000D02*
X-28762000Y52892000D01*
%TO.C,U102*%
X-53086000Y47010000D02*
X-55036000Y47010000D01*
X-53086000Y47010000D02*
X-51136000Y47010000D01*
X-53086000Y41890000D02*
X-55036000Y41890000D01*
X-53086000Y41890000D02*
X-51136000Y41890000D01*
X-55786000Y46915000D02*
X-56026000Y47245000D01*
X-55546000Y47245000D01*
X-55786000Y46915000D01*
G36*
X-55786000Y46915000D02*
G01*
X-56026000Y47245000D01*
X-55546000Y47245000D01*
X-55786000Y46915000D01*
G37*
%TO.C,R102*%
X-69164564Y-20249000D02*
X-68710436Y-20249000D01*
X-69164564Y-21719000D02*
X-68710436Y-21719000D01*
%TO.C,R101*%
X-69164564Y-17299000D02*
X-68710436Y-17299000D01*
X-69164564Y-18769000D02*
X-68710436Y-18769000D01*
%TO.C,R105*%
X-48383564Y48741000D02*
X-47929436Y48741000D01*
X-48383564Y47271000D02*
X-47929436Y47271000D01*
%TO.C,R104*%
X-46455064Y45185000D02*
X-46000936Y45185000D01*
X-46455064Y43715000D02*
X-46000936Y43715000D01*
%TO.C,L101*%
X-76720000Y-7196000D02*
X-75420000Y-7196000D01*
X-76720000Y-12616000D02*
X-75420000Y-12616000D01*
%TO.C,C108*%
X-51569252Y50519000D02*
X-51046748Y50519000D01*
X-51569252Y49049000D02*
X-51046748Y49049000D01*
%TO.C,C106*%
X-67825252Y-12219000D02*
X-67302748Y-12219000D01*
X-67825252Y-13689000D02*
X-67302748Y-13689000D01*
%TO.C,J102*%
X-65592000Y53654000D02*
X-64262000Y53654000D01*
X-65592000Y52324000D02*
X-65592000Y53654000D01*
X-65592000Y51054000D02*
X-65592000Y33214000D01*
X-65592000Y51054000D02*
X-62992000Y51054000D01*
X-65592000Y33214000D02*
X-60392000Y33214000D01*
X-62992000Y53654000D02*
X-60392000Y53654000D01*
X-62992000Y51054000D02*
X-62992000Y53654000D01*
X-60392000Y53654000D02*
X-60392000Y33214000D01*
%TO.C,J105*%
X-19872000Y35874000D02*
X-18542000Y35874000D01*
X-19872000Y34544000D02*
X-19872000Y35874000D01*
X-19872000Y33274000D02*
X-19872000Y-7426000D01*
X-19872000Y33274000D02*
X-17272000Y33274000D01*
X-19872000Y-7426000D02*
X-14672000Y-7426000D01*
X-17272000Y35874000D02*
X-14672000Y35874000D01*
X-17272000Y33274000D02*
X-17272000Y35874000D01*
X-14672000Y35874000D02*
X-14672000Y-7426000D01*
%TO.C,J104*%
X-19872000Y62798000D02*
X-18542000Y62798000D01*
X-19872000Y61468000D02*
X-19872000Y62798000D01*
X-19872000Y60198000D02*
X-19872000Y37278000D01*
X-19872000Y60198000D02*
X-17272000Y60198000D01*
X-19872000Y37278000D02*
X-14672000Y37278000D01*
X-17272000Y62798000D02*
X-14672000Y62798000D01*
X-17272000Y60198000D02*
X-17272000Y62798000D01*
X-14672000Y62798000D02*
X-14672000Y37278000D01*
%TO.C,J103*%
X-60392000Y30794000D02*
X-60392000Y-7426000D01*
X-62992000Y28194000D02*
X-62992000Y30794000D01*
X-62992000Y30794000D02*
X-60392000Y30794000D01*
X-65592000Y-7426000D02*
X-60392000Y-7426000D01*
X-65592000Y28194000D02*
X-62992000Y28194000D01*
X-65592000Y28194000D02*
X-65592000Y-7426000D01*
X-65592000Y29464000D02*
X-65592000Y30794000D01*
X-65592000Y30794000D02*
X-64262000Y30794000D01*
%TO.C,JP104*%
X-25672000Y29164000D02*
X-25672000Y29764000D01*
X-24972000Y30464000D02*
X-23572000Y30464000D01*
X-23572000Y28464000D02*
X-24972000Y28464000D01*
X-22872000Y29764000D02*
X-22872000Y29164000D01*
X-25672000Y29764000D02*
G75*
G02*
X-24972000Y30464000I699999J1D01*
G01*
X-24972000Y28464000D02*
G75*
G02*
X-25672000Y29164000I-1J699999D01*
G01*
X-23572000Y30464000D02*
G75*
G02*
X-22872000Y29764000I0J-700000D01*
G01*
X-22872000Y29164000D02*
G75*
G02*
X-23572000Y28464000I-700000J0D01*
G01*
D10*
%TO.C,U101*%
X-62181000Y-11995000D02*
X-58031000Y-11995000D01*
X-62181000Y-17145000D02*
X-58031000Y-17145000D01*
D11*
X-62606000Y-12070000D02*
X-62846000Y-11740000D01*
X-62366000Y-11740000D01*
X-62606000Y-12070000D01*
G36*
X-62606000Y-12070000D02*
G01*
X-62846000Y-11740000D01*
X-62366000Y-11740000D01*
X-62606000Y-12070000D01*
G37*
%TO.C,C103*%
X-45177000Y11223440D02*
X-45177000Y9423440D01*
X-44277000Y10323440D02*
X-46077000Y10323440D01*
X-41211000Y1464000D02*
X-59373000Y1464000D01*
X-41212000Y1424000D02*
X-59372000Y1424000D01*
X-41212000Y1384000D02*
X-59372000Y1384000D01*
X-41212000Y1344000D02*
X-59372000Y1344000D01*
X-41213000Y1304000D02*
X-59371000Y1304000D01*
X-41214000Y1264000D02*
X-59370000Y1264000D01*
X-41215000Y1224000D02*
X-59369000Y1224000D01*
X-41216000Y1184000D02*
X-59368000Y1184000D01*
X-41217000Y1144000D02*
X-59367000Y1144000D01*
X-41219000Y1104000D02*
X-59365000Y1104000D01*
X-41220000Y1064000D02*
X-59364000Y1064000D01*
X-41222000Y1024000D02*
X-59362000Y1024000D01*
X-41224000Y984000D02*
X-59360000Y984000D01*
X-41226000Y944000D02*
X-59358000Y944000D01*
X-41229000Y904000D02*
X-59355000Y904000D01*
X-41231000Y864000D02*
X-59353000Y864000D01*
X-41234000Y824000D02*
X-59350000Y824000D01*
X-41237000Y784000D02*
X-59347000Y784000D01*
X-41240000Y743000D02*
X-59344000Y743000D01*
X-41243000Y703000D02*
X-59341000Y703000D01*
X-41247000Y663000D02*
X-59337000Y663000D01*
X-41250000Y623000D02*
X-59334000Y623000D01*
X-41254000Y583000D02*
X-59330000Y583000D01*
X-41258000Y543000D02*
X-59326000Y543000D01*
X-41262000Y503000D02*
X-59322000Y503000D01*
X-41266000Y463000D02*
X-59318000Y463000D01*
X-41271000Y423000D02*
X-59313000Y423000D01*
X-41276000Y383000D02*
X-59308000Y383000D01*
X-41281000Y343000D02*
X-59303000Y343000D01*
X-41286000Y303000D02*
X-59298000Y303000D01*
X-41291000Y263000D02*
X-59293000Y263000D01*
X-41296000Y223000D02*
X-59288000Y223000D01*
X-41302000Y183000D02*
X-59282000Y183000D01*
X-41308000Y143000D02*
X-59276000Y143000D01*
X-41313000Y103000D02*
X-59271000Y103000D01*
X-41320000Y63000D02*
X-59264000Y63000D01*
X-41326000Y23000D02*
X-59258000Y23000D01*
X-41332000Y-17000D02*
X-59252000Y-17000D01*
X-41339000Y-57000D02*
X-59245000Y-57000D01*
X-41346000Y-97000D02*
X-59238000Y-97000D01*
X-41353000Y-137000D02*
X-59231000Y-137000D01*
X-41360000Y-177000D02*
X-59224000Y-177000D01*
X-41368000Y-217000D02*
X-59216000Y-217000D01*
X-41375000Y-257000D02*
X-59209000Y-257000D01*
X-41383000Y-297000D02*
X-59201000Y-297000D01*
X-41391000Y-337000D02*
X-59193000Y-337000D01*
X-41399000Y-377000D02*
X-59185000Y-377000D01*
X-41407000Y-417000D02*
X-59177000Y-417000D01*
X-41416000Y-457000D02*
X-59168000Y-457000D01*
X-41425000Y-497000D02*
X-59159000Y-497000D01*
X-41434000Y-537000D02*
X-59150000Y-537000D01*
X-41443000Y-577000D02*
X-59141000Y-577000D01*
X-41452000Y-617000D02*
X-59132000Y-617000D01*
X-41461000Y-657000D02*
X-59123000Y-657000D01*
X-41471000Y-697000D02*
X-59113000Y-697000D01*
X-41481000Y-737000D02*
X-59103000Y-737000D01*
X-41491000Y-777000D02*
X-59093000Y-777000D01*
X-41501000Y-817000D02*
X-59083000Y-817000D01*
X-41512000Y-857000D02*
X-48852000Y-857000D01*
X-51732000Y-857000D02*
X-59072000Y-857000D01*
X-41522000Y-897000D02*
X-48852000Y-897000D01*
X-51732000Y-897000D02*
X-59062000Y-897000D01*
X-41533000Y-937000D02*
X-48852000Y-937000D01*
X-51732000Y-937000D02*
X-59051000Y-937000D01*
X-41544000Y-977000D02*
X-48852000Y-977000D01*
X-51732000Y-977000D02*
X-59040000Y-977000D01*
X-41555000Y-1017000D02*
X-48852000Y-1017000D01*
X-51732000Y-1017000D02*
X-59029000Y-1017000D01*
X-41567000Y-1057000D02*
X-48852000Y-1057000D01*
X-51732000Y-1057000D02*
X-59017000Y-1057000D01*
X-41578000Y-1097000D02*
X-48852000Y-1097000D01*
X-51732000Y-1097000D02*
X-59006000Y-1097000D01*
X-41590000Y-1137000D02*
X-48852000Y-1137000D01*
X-51732000Y-1137000D02*
X-58994000Y-1137000D01*
X-41602000Y-1177000D02*
X-48852000Y-1177000D01*
X-51732000Y-1177000D02*
X-58982000Y-1177000D01*
X-41614000Y-1217000D02*
X-48852000Y-1217000D01*
X-51732000Y-1217000D02*
X-58970000Y-1217000D01*
X-41627000Y-1257000D02*
X-48852000Y-1257000D01*
X-51732000Y-1257000D02*
X-58957000Y-1257000D01*
X-41639000Y-1297000D02*
X-48852000Y-1297000D01*
X-51732000Y-1297000D02*
X-58945000Y-1297000D01*
X-41652000Y-1337000D02*
X-48852000Y-1337000D01*
X-51732000Y-1337000D02*
X-58932000Y-1337000D01*
X-41665000Y-1377000D02*
X-48852000Y-1377000D01*
X-51732000Y-1377000D02*
X-58919000Y-1377000D01*
X-41678000Y-1417000D02*
X-48852000Y-1417000D01*
X-51732000Y-1417000D02*
X-58906000Y-1417000D01*
X-41692000Y-1457000D02*
X-48852000Y-1457000D01*
X-51732000Y-1457000D02*
X-58892000Y-1457000D01*
X-41705000Y-1497000D02*
X-48852000Y-1497000D01*
X-51732000Y-1497000D02*
X-58879000Y-1497000D01*
X-41719000Y-1537000D02*
X-48852000Y-1537000D01*
X-51732000Y-1537000D02*
X-58865000Y-1537000D01*
X-41733000Y-1577000D02*
X-48852000Y-1577000D01*
X-51732000Y-1577000D02*
X-58851000Y-1577000D01*
X-41747000Y-1617000D02*
X-48852000Y-1617000D01*
X-51732000Y-1617000D02*
X-58837000Y-1617000D01*
X-41762000Y-1657000D02*
X-48852000Y-1657000D01*
X-51732000Y-1657000D02*
X-58822000Y-1657000D01*
X-41776000Y-1697000D02*
X-48852000Y-1697000D01*
X-51732000Y-1697000D02*
X-58808000Y-1697000D01*
X-41791000Y-1737000D02*
X-48852000Y-1737000D01*
X-51732000Y-1737000D02*
X-58793000Y-1737000D01*
X-41806000Y-1777000D02*
X-48852000Y-1777000D01*
X-51732000Y-1777000D02*
X-58778000Y-1777000D01*
X-41822000Y-1817000D02*
X-48852000Y-1817000D01*
X-51732000Y-1817000D02*
X-58762000Y-1817000D01*
X-41837000Y-1857000D02*
X-48852000Y-1857000D01*
X-51732000Y-1857000D02*
X-58747000Y-1857000D01*
X-41853000Y-1897000D02*
X-48852000Y-1897000D01*
X-51732000Y-1897000D02*
X-58731000Y-1897000D01*
X-41869000Y-1937000D02*
X-48852000Y-1937000D01*
X-51732000Y-1937000D02*
X-58715000Y-1937000D01*
X-41885000Y-1977000D02*
X-48852000Y-1977000D01*
X-51732000Y-1977000D02*
X-58699000Y-1977000D01*
X-41902000Y-2017000D02*
X-48852000Y-2017000D01*
X-51732000Y-2017000D02*
X-58682000Y-2017000D01*
X-41918000Y-2057000D02*
X-48852000Y-2057000D01*
X-51732000Y-2057000D02*
X-58666000Y-2057000D01*
X-41935000Y-2097000D02*
X-48852000Y-2097000D01*
X-51732000Y-2097000D02*
X-58649000Y-2097000D01*
X-41952000Y-2137000D02*
X-48852000Y-2137000D01*
X-51732000Y-2137000D02*
X-58632000Y-2137000D01*
X-41969000Y-2177000D02*
X-48852000Y-2177000D01*
X-51732000Y-2177000D02*
X-58615000Y-2177000D01*
X-41987000Y-2217000D02*
X-48852000Y-2217000D01*
X-51732000Y-2217000D02*
X-58597000Y-2217000D01*
X-42005000Y-2257000D02*
X-48852000Y-2257000D01*
X-51732000Y-2257000D02*
X-58579000Y-2257000D01*
X-42023000Y-2297000D02*
X-48852000Y-2297000D01*
X-51732000Y-2297000D02*
X-58561000Y-2297000D01*
X-42041000Y-2337000D02*
X-48852000Y-2337000D01*
X-51732000Y-2337000D02*
X-58543000Y-2337000D01*
X-42059000Y-2377000D02*
X-48852000Y-2377000D01*
X-51732000Y-2377000D02*
X-58525000Y-2377000D01*
X-42078000Y-2417000D02*
X-48852000Y-2417000D01*
X-51732000Y-2417000D02*
X-58506000Y-2417000D01*
X-42097000Y-2457000D02*
X-48852000Y-2457000D01*
X-51732000Y-2457000D02*
X-58487000Y-2457000D01*
X-42116000Y-2497000D02*
X-48852000Y-2497000D01*
X-51732000Y-2497000D02*
X-58468000Y-2497000D01*
X-42136000Y-2537000D02*
X-48852000Y-2537000D01*
X-51732000Y-2537000D02*
X-58448000Y-2537000D01*
X-42155000Y-2577000D02*
X-48852000Y-2577000D01*
X-51732000Y-2577000D02*
X-58429000Y-2577000D01*
X-42175000Y-2617000D02*
X-48852000Y-2617000D01*
X-51732000Y-2617000D02*
X-58409000Y-2617000D01*
X-42195000Y-2657000D02*
X-48852000Y-2657000D01*
X-51732000Y-2657000D02*
X-58389000Y-2657000D01*
X-42216000Y-2697000D02*
X-48852000Y-2697000D01*
X-51732000Y-2697000D02*
X-58368000Y-2697000D01*
X-42236000Y-2737000D02*
X-48852000Y-2737000D01*
X-51732000Y-2737000D02*
X-58348000Y-2737000D01*
X-42257000Y-2777000D02*
X-48852000Y-2777000D01*
X-51732000Y-2777000D02*
X-58327000Y-2777000D01*
X-42278000Y-2817000D02*
X-48852000Y-2817000D01*
X-51732000Y-2817000D02*
X-58306000Y-2817000D01*
X-42300000Y-2857000D02*
X-48852000Y-2857000D01*
X-51732000Y-2857000D02*
X-58284000Y-2857000D01*
X-42321000Y-2897000D02*
X-48852000Y-2897000D01*
X-51732000Y-2897000D02*
X-58263000Y-2897000D01*
X-42343000Y-2937000D02*
X-48852000Y-2937000D01*
X-51732000Y-2937000D02*
X-58241000Y-2937000D01*
X-42365000Y-2977000D02*
X-48852000Y-2977000D01*
X-51732000Y-2977000D02*
X-58219000Y-2977000D01*
X-42388000Y-3017000D02*
X-48852000Y-3017000D01*
X-51732000Y-3017000D02*
X-58196000Y-3017000D01*
X-42410000Y-3057000D02*
X-48852000Y-3057000D01*
X-51732000Y-3057000D02*
X-58174000Y-3057000D01*
X-42433000Y-3097000D02*
X-48852000Y-3097000D01*
X-51732000Y-3097000D02*
X-58151000Y-3097000D01*
X-42457000Y-3137000D02*
X-48852000Y-3137000D01*
X-51732000Y-3137000D02*
X-58127000Y-3137000D01*
X-42480000Y-3177000D02*
X-48852000Y-3177000D01*
X-51732000Y-3177000D02*
X-58104000Y-3177000D01*
X-42504000Y-3217000D02*
X-48852000Y-3217000D01*
X-51732000Y-3217000D02*
X-58080000Y-3217000D01*
X-42528000Y-3257000D02*
X-48852000Y-3257000D01*
X-51732000Y-3257000D02*
X-58056000Y-3257000D01*
X-42552000Y-3297000D02*
X-48852000Y-3297000D01*
X-51732000Y-3297000D02*
X-58032000Y-3297000D01*
X-42577000Y-3337000D02*
X-48852000Y-3337000D01*
X-51732000Y-3337000D02*
X-58007000Y-3337000D01*
X-42602000Y-3377000D02*
X-48852000Y-3377000D01*
X-51732000Y-3377000D02*
X-57982000Y-3377000D01*
X-42627000Y-3417000D02*
X-48852000Y-3417000D01*
X-51732000Y-3417000D02*
X-57957000Y-3417000D01*
X-42652000Y-3457000D02*
X-48852000Y-3457000D01*
X-51732000Y-3457000D02*
X-57932000Y-3457000D01*
X-42678000Y-3497000D02*
X-48852000Y-3497000D01*
X-51732000Y-3497000D02*
X-57906000Y-3497000D01*
X-42704000Y-3537000D02*
X-48852000Y-3537000D01*
X-51732000Y-3537000D02*
X-57880000Y-3537000D01*
X-42731000Y-3577000D02*
X-48852000Y-3577000D01*
X-51732000Y-3577000D02*
X-57853000Y-3577000D01*
X-42757000Y-3617000D02*
X-48852000Y-3617000D01*
X-51732000Y-3617000D02*
X-57827000Y-3617000D01*
X-42784000Y-3657000D02*
X-48852000Y-3657000D01*
X-51732000Y-3657000D02*
X-57800000Y-3657000D01*
X-42812000Y-3697000D02*
X-48852000Y-3697000D01*
X-51732000Y-3697000D02*
X-57772000Y-3697000D01*
X-42839000Y-3737000D02*
X-57745000Y-3737000D01*
X-42867000Y-3777000D02*
X-57717000Y-3777000D01*
X-42895000Y-3817000D02*
X-57689000Y-3817000D01*
X-42924000Y-3857000D02*
X-57660000Y-3857000D01*
X-42953000Y-3897000D02*
X-57631000Y-3897000D01*
X-42982000Y-3937000D02*
X-57602000Y-3937000D01*
X-43012000Y-3977000D02*
X-57572000Y-3977000D01*
X-43042000Y-4017000D02*
X-57542000Y-4017000D01*
X-43072000Y-4057000D02*
X-57512000Y-4057000D01*
X-43102000Y-4097000D02*
X-57482000Y-4097000D01*
X-43133000Y-4137000D02*
X-57451000Y-4137000D01*
X-43165000Y-4177000D02*
X-57419000Y-4177000D01*
X-43196000Y-4217000D02*
X-57388000Y-4217000D01*
X-43228000Y-4257000D02*
X-57356000Y-4257000D01*
X-43261000Y-4297000D02*
X-57323000Y-4297000D01*
X-43293000Y-4337000D02*
X-57291000Y-4337000D01*
X-43327000Y-4377000D02*
X-57257000Y-4377000D01*
X-43360000Y-4417000D02*
X-57224000Y-4417000D01*
X-43394000Y-4457000D02*
X-57190000Y-4457000D01*
X-43428000Y-4497000D02*
X-57156000Y-4497000D01*
X-43463000Y-4537000D02*
X-57121000Y-4537000D01*
X-43498000Y-4577000D02*
X-57086000Y-4577000D01*
X-43534000Y-4617000D02*
X-57050000Y-4617000D01*
X-43570000Y-4657000D02*
X-57014000Y-4657000D01*
X-43606000Y-4697000D02*
X-56978000Y-4697000D01*
X-43643000Y-4737000D02*
X-56941000Y-4737000D01*
X-43680000Y-4777000D02*
X-56904000Y-4777000D01*
X-43718000Y-4817000D02*
X-56866000Y-4817000D01*
X-43756000Y-4857000D02*
X-56828000Y-4857000D01*
X-43795000Y-4897000D02*
X-56789000Y-4897000D01*
X-43834000Y-4937000D02*
X-56750000Y-4937000D01*
X-43874000Y-4977000D02*
X-56710000Y-4977000D01*
X-43914000Y-5017000D02*
X-56670000Y-5017000D01*
X-43955000Y-5057000D02*
X-56629000Y-5057000D01*
X-43996000Y-5097000D02*
X-56588000Y-5097000D01*
X-44038000Y-5137000D02*
X-56546000Y-5137000D01*
X-44080000Y-5177000D02*
X-56504000Y-5177000D01*
X-44122000Y-5217000D02*
X-56462000Y-5217000D01*
X-44166000Y-5257000D02*
X-56418000Y-5257000D01*
X-44210000Y-5297000D02*
X-56374000Y-5297000D01*
X-44254000Y-5337000D02*
X-56330000Y-5337000D01*
X-44299000Y-5377000D02*
X-56285000Y-5377000D01*
X-44345000Y-5417000D02*
X-56239000Y-5417000D01*
X-44391000Y-5457000D02*
X-56193000Y-5457000D01*
X-44438000Y-5497000D02*
X-56146000Y-5497000D01*
X-44486000Y-5537000D02*
X-56098000Y-5537000D01*
X-44534000Y-5577000D02*
X-56050000Y-5577000D01*
X-44583000Y-5617000D02*
X-56001000Y-5617000D01*
X-44632000Y-5657000D02*
X-55952000Y-5657000D01*
X-44683000Y-5697000D02*
X-55901000Y-5697000D01*
X-44734000Y-5737000D02*
X-55850000Y-5737000D01*
X-44786000Y-5777000D02*
X-55798000Y-5777000D01*
X-44838000Y-5817000D02*
X-55746000Y-5817000D01*
X-44892000Y-5857000D02*
X-55692000Y-5857000D01*
X-44946000Y-5897000D02*
X-55638000Y-5897000D01*
X-45001000Y-5937000D02*
X-55583000Y-5937000D01*
X-45057000Y-5977000D02*
X-55527000Y-5977000D01*
X-45114000Y-6017000D02*
X-55470000Y-6017000D01*
X-45172000Y-6057000D02*
X-55412000Y-6057000D01*
X-45230000Y-6097000D02*
X-55354000Y-6097000D01*
X-45290000Y-6137000D02*
X-55294000Y-6137000D01*
X-45351000Y-6177000D02*
X-55233000Y-6177000D01*
X-45413000Y-6217000D02*
X-55171000Y-6217000D01*
X-45476000Y-6257000D02*
X-55108000Y-6257000D01*
X-45540000Y-6297000D02*
X-55044000Y-6297000D01*
X-45606000Y-6337000D02*
X-54978000Y-6337000D01*
X-45672000Y-6377000D02*
X-54912000Y-6377000D01*
X-45740000Y-6417000D02*
X-54844000Y-6417000D01*
X-45810000Y-6457000D02*
X-54774000Y-6457000D01*
X-45880000Y-6497000D02*
X-54704000Y-6497000D01*
X-45953000Y-6537000D02*
X-54631000Y-6537000D01*
X-46027000Y-6577000D02*
X-54557000Y-6577000D01*
X-46102000Y-6617000D02*
X-54482000Y-6617000D01*
X-46179000Y-6657000D02*
X-54405000Y-6657000D01*
X-46259000Y-6697000D02*
X-54325000Y-6697000D01*
X-46340000Y-6736000D02*
X-54244000Y-6736000D01*
X-46423000Y-6776000D02*
X-54161000Y-6776000D01*
X-46508000Y-6816000D02*
X-54076000Y-6816000D01*
X-46596000Y-6856000D02*
X-53988000Y-6856000D01*
X-46687000Y-6896000D02*
X-53897000Y-6896000D01*
X-46780000Y-6936000D02*
X-53804000Y-6936000D01*
X-46876000Y-6976000D02*
X-53708000Y-6976000D01*
X-46975000Y-7016000D02*
X-53609000Y-7016000D01*
X-47078000Y-7056000D02*
X-53506000Y-7056000D01*
X-47185000Y-7096000D02*
X-53399000Y-7096000D01*
X-47296000Y-7136000D02*
X-53288000Y-7136000D01*
X-47412000Y-7176000D02*
X-53172000Y-7176000D01*
X-47533000Y-7216000D02*
X-53051000Y-7216000D01*
X-47660000Y-7256000D02*
X-52924000Y-7256000D01*
X-47794000Y-7296000D02*
X-52790000Y-7296000D01*
X-47937000Y-7336000D02*
X-52647000Y-7336000D01*
X-48089000Y-7376000D02*
X-52495000Y-7376000D01*
X-48253000Y-7416000D02*
X-52331000Y-7416000D01*
X-48432000Y-7456000D02*
X-52152000Y-7456000D01*
X-48631000Y-7496000D02*
X-51953000Y-7496000D01*
X-48857000Y-7536000D02*
X-51727000Y-7536000D01*
X-49126000Y-7576000D02*
X-51458000Y-7576000D01*
X-49478000Y-7616000D02*
X-51106000Y-7616000D01*
X-50252000Y-7656000D02*
X-50332000Y-7656000D01*
X-41172000Y1464000D02*
G75*
G02*
X-59412000Y1464000I-9120000J0D01*
G01*
X-59412000Y1464000D02*
G75*
G02*
X-41172000Y1464000I9120000J0D01*
G01*
%TO.C,C104*%
X-45177000Y30019440D02*
X-45177000Y28219440D01*
X-44277000Y29119440D02*
X-46077000Y29119440D01*
X-41211000Y20260000D02*
X-59373000Y20260000D01*
X-41212000Y20220000D02*
X-59372000Y20220000D01*
X-41212000Y20180000D02*
X-59372000Y20180000D01*
X-41212000Y20140000D02*
X-59372000Y20140000D01*
X-41213000Y20100000D02*
X-59371000Y20100000D01*
X-41214000Y20060000D02*
X-59370000Y20060000D01*
X-41215000Y20020000D02*
X-59369000Y20020000D01*
X-41216000Y19980000D02*
X-59368000Y19980000D01*
X-41217000Y19940000D02*
X-59367000Y19940000D01*
X-41219000Y19900000D02*
X-59365000Y19900000D01*
X-41220000Y19860000D02*
X-59364000Y19860000D01*
X-41222000Y19820000D02*
X-59362000Y19820000D01*
X-41224000Y19780000D02*
X-59360000Y19780000D01*
X-41226000Y19740000D02*
X-59358000Y19740000D01*
X-41229000Y19700000D02*
X-59355000Y19700000D01*
X-41231000Y19660000D02*
X-59353000Y19660000D01*
X-41234000Y19620000D02*
X-59350000Y19620000D01*
X-41237000Y19580000D02*
X-59347000Y19580000D01*
X-41240000Y19539000D02*
X-59344000Y19539000D01*
X-41243000Y19499000D02*
X-59341000Y19499000D01*
X-41247000Y19459000D02*
X-59337000Y19459000D01*
X-41250000Y19419000D02*
X-59334000Y19419000D01*
X-41254000Y19379000D02*
X-59330000Y19379000D01*
X-41258000Y19339000D02*
X-59326000Y19339000D01*
X-41262000Y19299000D02*
X-59322000Y19299000D01*
X-41266000Y19259000D02*
X-59318000Y19259000D01*
X-41271000Y19219000D02*
X-59313000Y19219000D01*
X-41276000Y19179000D02*
X-59308000Y19179000D01*
X-41281000Y19139000D02*
X-59303000Y19139000D01*
X-41286000Y19099000D02*
X-59298000Y19099000D01*
X-41291000Y19059000D02*
X-59293000Y19059000D01*
X-41296000Y19019000D02*
X-59288000Y19019000D01*
X-41302000Y18979000D02*
X-59282000Y18979000D01*
X-41308000Y18939000D02*
X-59276000Y18939000D01*
X-41313000Y18899000D02*
X-59271000Y18899000D01*
X-41320000Y18859000D02*
X-59264000Y18859000D01*
X-41326000Y18819000D02*
X-59258000Y18819000D01*
X-41332000Y18779000D02*
X-59252000Y18779000D01*
X-41339000Y18739000D02*
X-59245000Y18739000D01*
X-41346000Y18699000D02*
X-59238000Y18699000D01*
X-41353000Y18659000D02*
X-59231000Y18659000D01*
X-41360000Y18619000D02*
X-59224000Y18619000D01*
X-41368000Y18579000D02*
X-59216000Y18579000D01*
X-41375000Y18539000D02*
X-59209000Y18539000D01*
X-41383000Y18499000D02*
X-59201000Y18499000D01*
X-41391000Y18459000D02*
X-59193000Y18459000D01*
X-41399000Y18419000D02*
X-59185000Y18419000D01*
X-41407000Y18379000D02*
X-59177000Y18379000D01*
X-41416000Y18339000D02*
X-59168000Y18339000D01*
X-41425000Y18299000D02*
X-59159000Y18299000D01*
X-41434000Y18259000D02*
X-59150000Y18259000D01*
X-41443000Y18219000D02*
X-59141000Y18219000D01*
X-41452000Y18179000D02*
X-59132000Y18179000D01*
X-41461000Y18139000D02*
X-59123000Y18139000D01*
X-41471000Y18099000D02*
X-59113000Y18099000D01*
X-41481000Y18059000D02*
X-59103000Y18059000D01*
X-41491000Y18019000D02*
X-59093000Y18019000D01*
X-41501000Y17979000D02*
X-59083000Y17979000D01*
X-41512000Y17939000D02*
X-48852000Y17939000D01*
X-51732000Y17939000D02*
X-59072000Y17939000D01*
X-41522000Y17899000D02*
X-48852000Y17899000D01*
X-51732000Y17899000D02*
X-59062000Y17899000D01*
X-41533000Y17859000D02*
X-48852000Y17859000D01*
X-51732000Y17859000D02*
X-59051000Y17859000D01*
X-41544000Y17819000D02*
X-48852000Y17819000D01*
X-51732000Y17819000D02*
X-59040000Y17819000D01*
X-41555000Y17779000D02*
X-48852000Y17779000D01*
X-51732000Y17779000D02*
X-59029000Y17779000D01*
X-41567000Y17739000D02*
X-48852000Y17739000D01*
X-51732000Y17739000D02*
X-59017000Y17739000D01*
X-41578000Y17699000D02*
X-48852000Y17699000D01*
X-51732000Y17699000D02*
X-59006000Y17699000D01*
X-41590000Y17659000D02*
X-48852000Y17659000D01*
X-51732000Y17659000D02*
X-58994000Y17659000D01*
X-41602000Y17619000D02*
X-48852000Y17619000D01*
X-51732000Y17619000D02*
X-58982000Y17619000D01*
X-41614000Y17579000D02*
X-48852000Y17579000D01*
X-51732000Y17579000D02*
X-58970000Y17579000D01*
X-41627000Y17539000D02*
X-48852000Y17539000D01*
X-51732000Y17539000D02*
X-58957000Y17539000D01*
X-41639000Y17499000D02*
X-48852000Y17499000D01*
X-51732000Y17499000D02*
X-58945000Y17499000D01*
X-41652000Y17459000D02*
X-48852000Y17459000D01*
X-51732000Y17459000D02*
X-58932000Y17459000D01*
X-41665000Y17419000D02*
X-48852000Y17419000D01*
X-51732000Y17419000D02*
X-58919000Y17419000D01*
X-41678000Y17379000D02*
X-48852000Y17379000D01*
X-51732000Y17379000D02*
X-58906000Y17379000D01*
X-41692000Y17339000D02*
X-48852000Y17339000D01*
X-51732000Y17339000D02*
X-58892000Y17339000D01*
X-41705000Y17299000D02*
X-48852000Y17299000D01*
X-51732000Y17299000D02*
X-58879000Y17299000D01*
X-41719000Y17259000D02*
X-48852000Y17259000D01*
X-51732000Y17259000D02*
X-58865000Y17259000D01*
X-41733000Y17219000D02*
X-48852000Y17219000D01*
X-51732000Y17219000D02*
X-58851000Y17219000D01*
X-41747000Y17179000D02*
X-48852000Y17179000D01*
X-51732000Y17179000D02*
X-58837000Y17179000D01*
X-41762000Y17139000D02*
X-48852000Y17139000D01*
X-51732000Y17139000D02*
X-58822000Y17139000D01*
X-41776000Y17099000D02*
X-48852000Y17099000D01*
X-51732000Y17099000D02*
X-58808000Y17099000D01*
X-41791000Y17059000D02*
X-48852000Y17059000D01*
X-51732000Y17059000D02*
X-58793000Y17059000D01*
X-41806000Y17019000D02*
X-48852000Y17019000D01*
X-51732000Y17019000D02*
X-58778000Y17019000D01*
X-41822000Y16979000D02*
X-48852000Y16979000D01*
X-51732000Y16979000D02*
X-58762000Y16979000D01*
X-41837000Y16939000D02*
X-48852000Y16939000D01*
X-51732000Y16939000D02*
X-58747000Y16939000D01*
X-41853000Y16899000D02*
X-48852000Y16899000D01*
X-51732000Y16899000D02*
X-58731000Y16899000D01*
X-41869000Y16859000D02*
X-48852000Y16859000D01*
X-51732000Y16859000D02*
X-58715000Y16859000D01*
X-41885000Y16819000D02*
X-48852000Y16819000D01*
X-51732000Y16819000D02*
X-58699000Y16819000D01*
X-41902000Y16779000D02*
X-48852000Y16779000D01*
X-51732000Y16779000D02*
X-58682000Y16779000D01*
X-41918000Y16739000D02*
X-48852000Y16739000D01*
X-51732000Y16739000D02*
X-58666000Y16739000D01*
X-41935000Y16699000D02*
X-48852000Y16699000D01*
X-51732000Y16699000D02*
X-58649000Y16699000D01*
X-41952000Y16659000D02*
X-48852000Y16659000D01*
X-51732000Y16659000D02*
X-58632000Y16659000D01*
X-41969000Y16619000D02*
X-48852000Y16619000D01*
X-51732000Y16619000D02*
X-58615000Y16619000D01*
X-41987000Y16579000D02*
X-48852000Y16579000D01*
X-51732000Y16579000D02*
X-58597000Y16579000D01*
X-42005000Y16539000D02*
X-48852000Y16539000D01*
X-51732000Y16539000D02*
X-58579000Y16539000D01*
X-42023000Y16499000D02*
X-48852000Y16499000D01*
X-51732000Y16499000D02*
X-58561000Y16499000D01*
X-42041000Y16459000D02*
X-48852000Y16459000D01*
X-51732000Y16459000D02*
X-58543000Y16459000D01*
X-42059000Y16419000D02*
X-48852000Y16419000D01*
X-51732000Y16419000D02*
X-58525000Y16419000D01*
X-42078000Y16379000D02*
X-48852000Y16379000D01*
X-51732000Y16379000D02*
X-58506000Y16379000D01*
X-42097000Y16339000D02*
X-48852000Y16339000D01*
X-51732000Y16339000D02*
X-58487000Y16339000D01*
X-42116000Y16299000D02*
X-48852000Y16299000D01*
X-51732000Y16299000D02*
X-58468000Y16299000D01*
X-42136000Y16259000D02*
X-48852000Y16259000D01*
X-51732000Y16259000D02*
X-58448000Y16259000D01*
X-42155000Y16219000D02*
X-48852000Y16219000D01*
X-51732000Y16219000D02*
X-58429000Y16219000D01*
X-42175000Y16179000D02*
X-48852000Y16179000D01*
X-51732000Y16179000D02*
X-58409000Y16179000D01*
X-42195000Y16139000D02*
X-48852000Y16139000D01*
X-51732000Y16139000D02*
X-58389000Y16139000D01*
X-42216000Y16099000D02*
X-48852000Y16099000D01*
X-51732000Y16099000D02*
X-58368000Y16099000D01*
X-42236000Y16059000D02*
X-48852000Y16059000D01*
X-51732000Y16059000D02*
X-58348000Y16059000D01*
X-42257000Y16019000D02*
X-48852000Y16019000D01*
X-51732000Y16019000D02*
X-58327000Y16019000D01*
X-42278000Y15979000D02*
X-48852000Y15979000D01*
X-51732000Y15979000D02*
X-58306000Y15979000D01*
X-42300000Y15939000D02*
X-48852000Y15939000D01*
X-51732000Y15939000D02*
X-58284000Y15939000D01*
X-42321000Y15899000D02*
X-48852000Y15899000D01*
X-51732000Y15899000D02*
X-58263000Y15899000D01*
X-42343000Y15859000D02*
X-48852000Y15859000D01*
X-51732000Y15859000D02*
X-58241000Y15859000D01*
X-42365000Y15819000D02*
X-48852000Y15819000D01*
X-51732000Y15819000D02*
X-58219000Y15819000D01*
X-42388000Y15779000D02*
X-48852000Y15779000D01*
X-51732000Y15779000D02*
X-58196000Y15779000D01*
X-42410000Y15739000D02*
X-48852000Y15739000D01*
X-51732000Y15739000D02*
X-58174000Y15739000D01*
X-42433000Y15699000D02*
X-48852000Y15699000D01*
X-51732000Y15699000D02*
X-58151000Y15699000D01*
X-42457000Y15659000D02*
X-48852000Y15659000D01*
X-51732000Y15659000D02*
X-58127000Y15659000D01*
X-42480000Y15619000D02*
X-48852000Y15619000D01*
X-51732000Y15619000D02*
X-58104000Y15619000D01*
X-42504000Y15579000D02*
X-48852000Y15579000D01*
X-51732000Y15579000D02*
X-58080000Y15579000D01*
X-42528000Y15539000D02*
X-48852000Y15539000D01*
X-51732000Y15539000D02*
X-58056000Y15539000D01*
X-42552000Y15499000D02*
X-48852000Y15499000D01*
X-51732000Y15499000D02*
X-58032000Y15499000D01*
X-42577000Y15459000D02*
X-48852000Y15459000D01*
X-51732000Y15459000D02*
X-58007000Y15459000D01*
X-42602000Y15419000D02*
X-48852000Y15419000D01*
X-51732000Y15419000D02*
X-57982000Y15419000D01*
X-42627000Y15379000D02*
X-48852000Y15379000D01*
X-51732000Y15379000D02*
X-57957000Y15379000D01*
X-42652000Y15339000D02*
X-48852000Y15339000D01*
X-51732000Y15339000D02*
X-57932000Y15339000D01*
X-42678000Y15299000D02*
X-48852000Y15299000D01*
X-51732000Y15299000D02*
X-57906000Y15299000D01*
X-42704000Y15259000D02*
X-48852000Y15259000D01*
X-51732000Y15259000D02*
X-57880000Y15259000D01*
X-42731000Y15219000D02*
X-48852000Y15219000D01*
X-51732000Y15219000D02*
X-57853000Y15219000D01*
X-42757000Y15179000D02*
X-48852000Y15179000D01*
X-51732000Y15179000D02*
X-57827000Y15179000D01*
X-42784000Y15139000D02*
X-48852000Y15139000D01*
X-51732000Y15139000D02*
X-57800000Y15139000D01*
X-42812000Y15099000D02*
X-48852000Y15099000D01*
X-51732000Y15099000D02*
X-57772000Y15099000D01*
X-42839000Y15059000D02*
X-57745000Y15059000D01*
X-42867000Y15019000D02*
X-57717000Y15019000D01*
X-42895000Y14979000D02*
X-57689000Y14979000D01*
X-42924000Y14939000D02*
X-57660000Y14939000D01*
X-42953000Y14899000D02*
X-57631000Y14899000D01*
X-42982000Y14859000D02*
X-57602000Y14859000D01*
X-43012000Y14819000D02*
X-57572000Y14819000D01*
X-43042000Y14779000D02*
X-57542000Y14779000D01*
X-43072000Y14739000D02*
X-57512000Y14739000D01*
X-43102000Y14699000D02*
X-57482000Y14699000D01*
X-43133000Y14659000D02*
X-57451000Y14659000D01*
X-43165000Y14619000D02*
X-57419000Y14619000D01*
X-43196000Y14579000D02*
X-57388000Y14579000D01*
X-43228000Y14539000D02*
X-57356000Y14539000D01*
X-43261000Y14499000D02*
X-57323000Y14499000D01*
X-43293000Y14459000D02*
X-57291000Y14459000D01*
X-43327000Y14419000D02*
X-57257000Y14419000D01*
X-43360000Y14379000D02*
X-57224000Y14379000D01*
X-43394000Y14339000D02*
X-57190000Y14339000D01*
X-43428000Y14299000D02*
X-57156000Y14299000D01*
X-43463000Y14259000D02*
X-57121000Y14259000D01*
X-43498000Y14219000D02*
X-57086000Y14219000D01*
X-43534000Y14179000D02*
X-57050000Y14179000D01*
X-43570000Y14139000D02*
X-57014000Y14139000D01*
X-43606000Y14099000D02*
X-56978000Y14099000D01*
X-43643000Y14059000D02*
X-56941000Y14059000D01*
X-43680000Y14019000D02*
X-56904000Y14019000D01*
X-43718000Y13979000D02*
X-56866000Y13979000D01*
X-43756000Y13939000D02*
X-56828000Y13939000D01*
X-43795000Y13899000D02*
X-56789000Y13899000D01*
X-43834000Y13859000D02*
X-56750000Y13859000D01*
X-43874000Y13819000D02*
X-56710000Y13819000D01*
X-43914000Y13779000D02*
X-56670000Y13779000D01*
X-43955000Y13739000D02*
X-56629000Y13739000D01*
X-43996000Y13699000D02*
X-56588000Y13699000D01*
X-44038000Y13659000D02*
X-56546000Y13659000D01*
X-44080000Y13619000D02*
X-56504000Y13619000D01*
X-44122000Y13579000D02*
X-56462000Y13579000D01*
X-44166000Y13539000D02*
X-56418000Y13539000D01*
X-44210000Y13499000D02*
X-56374000Y13499000D01*
X-44254000Y13459000D02*
X-56330000Y13459000D01*
X-44299000Y13419000D02*
X-56285000Y13419000D01*
X-44345000Y13379000D02*
X-56239000Y13379000D01*
X-44391000Y13339000D02*
X-56193000Y13339000D01*
X-44438000Y13299000D02*
X-56146000Y13299000D01*
X-44486000Y13259000D02*
X-56098000Y13259000D01*
X-44534000Y13219000D02*
X-56050000Y13219000D01*
X-44583000Y13179000D02*
X-56001000Y13179000D01*
X-44632000Y13139000D02*
X-55952000Y13139000D01*
X-44683000Y13099000D02*
X-55901000Y13099000D01*
X-44734000Y13059000D02*
X-55850000Y13059000D01*
X-44786000Y13019000D02*
X-55798000Y13019000D01*
X-44838000Y12979000D02*
X-55746000Y12979000D01*
X-44892000Y12939000D02*
X-55692000Y12939000D01*
X-44946000Y12899000D02*
X-55638000Y12899000D01*
X-45001000Y12859000D02*
X-55583000Y12859000D01*
X-45057000Y12819000D02*
X-55527000Y12819000D01*
X-45114000Y12779000D02*
X-55470000Y12779000D01*
X-45172000Y12739000D02*
X-55412000Y12739000D01*
X-45230000Y12699000D02*
X-55354000Y12699000D01*
X-45290000Y12659000D02*
X-55294000Y12659000D01*
X-45351000Y12619000D02*
X-55233000Y12619000D01*
X-45413000Y12579000D02*
X-55171000Y12579000D01*
X-45476000Y12539000D02*
X-55108000Y12539000D01*
X-45540000Y12499000D02*
X-55044000Y12499000D01*
X-45606000Y12459000D02*
X-54978000Y12459000D01*
X-45672000Y12419000D02*
X-54912000Y12419000D01*
X-45740000Y12379000D02*
X-54844000Y12379000D01*
X-45810000Y12339000D02*
X-54774000Y12339000D01*
X-45880000Y12299000D02*
X-54704000Y12299000D01*
X-45953000Y12259000D02*
X-54631000Y12259000D01*
X-46027000Y12219000D02*
X-54557000Y12219000D01*
X-46102000Y12179000D02*
X-54482000Y12179000D01*
X-46179000Y12139000D02*
X-54405000Y12139000D01*
X-46259000Y12099000D02*
X-54325000Y12099000D01*
X-46340000Y12060000D02*
X-54244000Y12060000D01*
X-46423000Y12020000D02*
X-54161000Y12020000D01*
X-46508000Y11980000D02*
X-54076000Y11980000D01*
X-46596000Y11940000D02*
X-53988000Y11940000D01*
X-46687000Y11900000D02*
X-53897000Y11900000D01*
X-46780000Y11860000D02*
X-53804000Y11860000D01*
X-46876000Y11820000D02*
X-53708000Y11820000D01*
X-46975000Y11780000D02*
X-53609000Y11780000D01*
X-47078000Y11740000D02*
X-53506000Y11740000D01*
X-47185000Y11700000D02*
X-53399000Y11700000D01*
X-47296000Y11660000D02*
X-53288000Y11660000D01*
X-47412000Y11620000D02*
X-53172000Y11620000D01*
X-47533000Y11580000D02*
X-53051000Y11580000D01*
X-47660000Y11540000D02*
X-52924000Y11540000D01*
X-47794000Y11500000D02*
X-52790000Y11500000D01*
X-47937000Y11460000D02*
X-52647000Y11460000D01*
X-48089000Y11420000D02*
X-52495000Y11420000D01*
X-48253000Y11380000D02*
X-52331000Y11380000D01*
X-48432000Y11340000D02*
X-52152000Y11340000D01*
X-48631000Y11300000D02*
X-51953000Y11300000D01*
X-48857000Y11260000D02*
X-51727000Y11260000D01*
X-49126000Y11220000D02*
X-51458000Y11220000D01*
X-49478000Y11180000D02*
X-51106000Y11180000D01*
X-50252000Y11140000D02*
X-50332000Y11140000D01*
X-41172000Y20260000D02*
G75*
G02*
X-59412000Y20260000I-9120000J0D01*
G01*
X-59412000Y20260000D02*
G75*
G02*
X-41172000Y20260000I9120000J0D01*
G01*
%TO.C,C102*%
X-26635000Y30019440D02*
X-26635000Y28219440D01*
X-25735000Y29119440D02*
X-27535000Y29119440D01*
X-22669000Y20260000D02*
X-40831000Y20260000D01*
X-22670000Y20220000D02*
X-40830000Y20220000D01*
X-22670000Y20180000D02*
X-40830000Y20180000D01*
X-22670000Y20140000D02*
X-40830000Y20140000D01*
X-22671000Y20100000D02*
X-40829000Y20100000D01*
X-22672000Y20060000D02*
X-40828000Y20060000D01*
X-22673000Y20020000D02*
X-40827000Y20020000D01*
X-22674000Y19980000D02*
X-40826000Y19980000D01*
X-22675000Y19940000D02*
X-40825000Y19940000D01*
X-22677000Y19900000D02*
X-40823000Y19900000D01*
X-22678000Y19860000D02*
X-40822000Y19860000D01*
X-22680000Y19820000D02*
X-40820000Y19820000D01*
X-22682000Y19780000D02*
X-40818000Y19780000D01*
X-22684000Y19740000D02*
X-40816000Y19740000D01*
X-22687000Y19700000D02*
X-40813000Y19700000D01*
X-22689000Y19660000D02*
X-40811000Y19660000D01*
X-22692000Y19620000D02*
X-40808000Y19620000D01*
X-22695000Y19580000D02*
X-40805000Y19580000D01*
X-22698000Y19539000D02*
X-40802000Y19539000D01*
X-22701000Y19499000D02*
X-40799000Y19499000D01*
X-22705000Y19459000D02*
X-40795000Y19459000D01*
X-22708000Y19419000D02*
X-40792000Y19419000D01*
X-22712000Y19379000D02*
X-40788000Y19379000D01*
X-22716000Y19339000D02*
X-40784000Y19339000D01*
X-22720000Y19299000D02*
X-40780000Y19299000D01*
X-22724000Y19259000D02*
X-40776000Y19259000D01*
X-22729000Y19219000D02*
X-40771000Y19219000D01*
X-22734000Y19179000D02*
X-40766000Y19179000D01*
X-22739000Y19139000D02*
X-40761000Y19139000D01*
X-22744000Y19099000D02*
X-40756000Y19099000D01*
X-22749000Y19059000D02*
X-40751000Y19059000D01*
X-22754000Y19019000D02*
X-40746000Y19019000D01*
X-22760000Y18979000D02*
X-40740000Y18979000D01*
X-22766000Y18939000D02*
X-40734000Y18939000D01*
X-22771000Y18899000D02*
X-40729000Y18899000D01*
X-22778000Y18859000D02*
X-40722000Y18859000D01*
X-22784000Y18819000D02*
X-40716000Y18819000D01*
X-22790000Y18779000D02*
X-40710000Y18779000D01*
X-22797000Y18739000D02*
X-40703000Y18739000D01*
X-22804000Y18699000D02*
X-40696000Y18699000D01*
X-22811000Y18659000D02*
X-40689000Y18659000D01*
X-22818000Y18619000D02*
X-40682000Y18619000D01*
X-22826000Y18579000D02*
X-40674000Y18579000D01*
X-22833000Y18539000D02*
X-40667000Y18539000D01*
X-22841000Y18499000D02*
X-40659000Y18499000D01*
X-22849000Y18459000D02*
X-40651000Y18459000D01*
X-22857000Y18419000D02*
X-40643000Y18419000D01*
X-22865000Y18379000D02*
X-40635000Y18379000D01*
X-22874000Y18339000D02*
X-40626000Y18339000D01*
X-22883000Y18299000D02*
X-40617000Y18299000D01*
X-22892000Y18259000D02*
X-40608000Y18259000D01*
X-22901000Y18219000D02*
X-40599000Y18219000D01*
X-22910000Y18179000D02*
X-40590000Y18179000D01*
X-22919000Y18139000D02*
X-40581000Y18139000D01*
X-22929000Y18099000D02*
X-40571000Y18099000D01*
X-22939000Y18059000D02*
X-40561000Y18059000D01*
X-22949000Y18019000D02*
X-40551000Y18019000D01*
X-22959000Y17979000D02*
X-40541000Y17979000D01*
X-22970000Y17939000D02*
X-30310000Y17939000D01*
X-33190000Y17939000D02*
X-40530000Y17939000D01*
X-22980000Y17899000D02*
X-30310000Y17899000D01*
X-33190000Y17899000D02*
X-40520000Y17899000D01*
X-22991000Y17859000D02*
X-30310000Y17859000D01*
X-33190000Y17859000D02*
X-40509000Y17859000D01*
X-23002000Y17819000D02*
X-30310000Y17819000D01*
X-33190000Y17819000D02*
X-40498000Y17819000D01*
X-23013000Y17779000D02*
X-30310000Y17779000D01*
X-33190000Y17779000D02*
X-40487000Y17779000D01*
X-23025000Y17739000D02*
X-30310000Y17739000D01*
X-33190000Y17739000D02*
X-40475000Y17739000D01*
X-23036000Y17699000D02*
X-30310000Y17699000D01*
X-33190000Y17699000D02*
X-40464000Y17699000D01*
X-23048000Y17659000D02*
X-30310000Y17659000D01*
X-33190000Y17659000D02*
X-40452000Y17659000D01*
X-23060000Y17619000D02*
X-30310000Y17619000D01*
X-33190000Y17619000D02*
X-40440000Y17619000D01*
X-23072000Y17579000D02*
X-30310000Y17579000D01*
X-33190000Y17579000D02*
X-40428000Y17579000D01*
X-23085000Y17539000D02*
X-30310000Y17539000D01*
X-33190000Y17539000D02*
X-40415000Y17539000D01*
X-23097000Y17499000D02*
X-30310000Y17499000D01*
X-33190000Y17499000D02*
X-40403000Y17499000D01*
X-23110000Y17459000D02*
X-30310000Y17459000D01*
X-33190000Y17459000D02*
X-40390000Y17459000D01*
X-23123000Y17419000D02*
X-30310000Y17419000D01*
X-33190000Y17419000D02*
X-40377000Y17419000D01*
X-23136000Y17379000D02*
X-30310000Y17379000D01*
X-33190000Y17379000D02*
X-40364000Y17379000D01*
X-23150000Y17339000D02*
X-30310000Y17339000D01*
X-33190000Y17339000D02*
X-40350000Y17339000D01*
X-23163000Y17299000D02*
X-30310000Y17299000D01*
X-33190000Y17299000D02*
X-40337000Y17299000D01*
X-23177000Y17259000D02*
X-30310000Y17259000D01*
X-33190000Y17259000D02*
X-40323000Y17259000D01*
X-23191000Y17219000D02*
X-30310000Y17219000D01*
X-33190000Y17219000D02*
X-40309000Y17219000D01*
X-23205000Y17179000D02*
X-30310000Y17179000D01*
X-33190000Y17179000D02*
X-40295000Y17179000D01*
X-23220000Y17139000D02*
X-30310000Y17139000D01*
X-33190000Y17139000D02*
X-40280000Y17139000D01*
X-23234000Y17099000D02*
X-30310000Y17099000D01*
X-33190000Y17099000D02*
X-40266000Y17099000D01*
X-23249000Y17059000D02*
X-30310000Y17059000D01*
X-33190000Y17059000D02*
X-40251000Y17059000D01*
X-23264000Y17019000D02*
X-30310000Y17019000D01*
X-33190000Y17019000D02*
X-40236000Y17019000D01*
X-23280000Y16979000D02*
X-30310000Y16979000D01*
X-33190000Y16979000D02*
X-40220000Y16979000D01*
X-23295000Y16939000D02*
X-30310000Y16939000D01*
X-33190000Y16939000D02*
X-40205000Y16939000D01*
X-23311000Y16899000D02*
X-30310000Y16899000D01*
X-33190000Y16899000D02*
X-40189000Y16899000D01*
X-23327000Y16859000D02*
X-30310000Y16859000D01*
X-33190000Y16859000D02*
X-40173000Y16859000D01*
X-23343000Y16819000D02*
X-30310000Y16819000D01*
X-33190000Y16819000D02*
X-40157000Y16819000D01*
X-23360000Y16779000D02*
X-30310000Y16779000D01*
X-33190000Y16779000D02*
X-40140000Y16779000D01*
X-23376000Y16739000D02*
X-30310000Y16739000D01*
X-33190000Y16739000D02*
X-40124000Y16739000D01*
X-23393000Y16699000D02*
X-30310000Y16699000D01*
X-33190000Y16699000D02*
X-40107000Y16699000D01*
X-23410000Y16659000D02*
X-30310000Y16659000D01*
X-33190000Y16659000D02*
X-40090000Y16659000D01*
X-23427000Y16619000D02*
X-30310000Y16619000D01*
X-33190000Y16619000D02*
X-40073000Y16619000D01*
X-23445000Y16579000D02*
X-30310000Y16579000D01*
X-33190000Y16579000D02*
X-40055000Y16579000D01*
X-23463000Y16539000D02*
X-30310000Y16539000D01*
X-33190000Y16539000D02*
X-40037000Y16539000D01*
X-23481000Y16499000D02*
X-30310000Y16499000D01*
X-33190000Y16499000D02*
X-40019000Y16499000D01*
X-23499000Y16459000D02*
X-30310000Y16459000D01*
X-33190000Y16459000D02*
X-40001000Y16459000D01*
X-23517000Y16419000D02*
X-30310000Y16419000D01*
X-33190000Y16419000D02*
X-39983000Y16419000D01*
X-23536000Y16379000D02*
X-30310000Y16379000D01*
X-33190000Y16379000D02*
X-39964000Y16379000D01*
X-23555000Y16339000D02*
X-30310000Y16339000D01*
X-33190000Y16339000D02*
X-39945000Y16339000D01*
X-23574000Y16299000D02*
X-30310000Y16299000D01*
X-33190000Y16299000D02*
X-39926000Y16299000D01*
X-23594000Y16259000D02*
X-30310000Y16259000D01*
X-33190000Y16259000D02*
X-39906000Y16259000D01*
X-23613000Y16219000D02*
X-30310000Y16219000D01*
X-33190000Y16219000D02*
X-39887000Y16219000D01*
X-23633000Y16179000D02*
X-30310000Y16179000D01*
X-33190000Y16179000D02*
X-39867000Y16179000D01*
X-23653000Y16139000D02*
X-30310000Y16139000D01*
X-33190000Y16139000D02*
X-39847000Y16139000D01*
X-23674000Y16099000D02*
X-30310000Y16099000D01*
X-33190000Y16099000D02*
X-39826000Y16099000D01*
X-23694000Y16059000D02*
X-30310000Y16059000D01*
X-33190000Y16059000D02*
X-39806000Y16059000D01*
X-23715000Y16019000D02*
X-30310000Y16019000D01*
X-33190000Y16019000D02*
X-39785000Y16019000D01*
X-23736000Y15979000D02*
X-30310000Y15979000D01*
X-33190000Y15979000D02*
X-39764000Y15979000D01*
X-23758000Y15939000D02*
X-30310000Y15939000D01*
X-33190000Y15939000D02*
X-39742000Y15939000D01*
X-23779000Y15899000D02*
X-30310000Y15899000D01*
X-33190000Y15899000D02*
X-39721000Y15899000D01*
X-23801000Y15859000D02*
X-30310000Y15859000D01*
X-33190000Y15859000D02*
X-39699000Y15859000D01*
X-23823000Y15819000D02*
X-30310000Y15819000D01*
X-33190000Y15819000D02*
X-39677000Y15819000D01*
X-23846000Y15779000D02*
X-30310000Y15779000D01*
X-33190000Y15779000D02*
X-39654000Y15779000D01*
X-23868000Y15739000D02*
X-30310000Y15739000D01*
X-33190000Y15739000D02*
X-39632000Y15739000D01*
X-23891000Y15699000D02*
X-30310000Y15699000D01*
X-33190000Y15699000D02*
X-39609000Y15699000D01*
X-23915000Y15659000D02*
X-30310000Y15659000D01*
X-33190000Y15659000D02*
X-39585000Y15659000D01*
X-23938000Y15619000D02*
X-30310000Y15619000D01*
X-33190000Y15619000D02*
X-39562000Y15619000D01*
X-23962000Y15579000D02*
X-30310000Y15579000D01*
X-33190000Y15579000D02*
X-39538000Y15579000D01*
X-23986000Y15539000D02*
X-30310000Y15539000D01*
X-33190000Y15539000D02*
X-39514000Y15539000D01*
X-24010000Y15499000D02*
X-30310000Y15499000D01*
X-33190000Y15499000D02*
X-39490000Y15499000D01*
X-24035000Y15459000D02*
X-30310000Y15459000D01*
X-33190000Y15459000D02*
X-39465000Y15459000D01*
X-24060000Y15419000D02*
X-30310000Y15419000D01*
X-33190000Y15419000D02*
X-39440000Y15419000D01*
X-24085000Y15379000D02*
X-30310000Y15379000D01*
X-33190000Y15379000D02*
X-39415000Y15379000D01*
X-24110000Y15339000D02*
X-30310000Y15339000D01*
X-33190000Y15339000D02*
X-39390000Y15339000D01*
X-24136000Y15299000D02*
X-30310000Y15299000D01*
X-33190000Y15299000D02*
X-39364000Y15299000D01*
X-24162000Y15259000D02*
X-30310000Y15259000D01*
X-33190000Y15259000D02*
X-39338000Y15259000D01*
X-24189000Y15219000D02*
X-30310000Y15219000D01*
X-33190000Y15219000D02*
X-39311000Y15219000D01*
X-24215000Y15179000D02*
X-30310000Y15179000D01*
X-33190000Y15179000D02*
X-39285000Y15179000D01*
X-24242000Y15139000D02*
X-30310000Y15139000D01*
X-33190000Y15139000D02*
X-39258000Y15139000D01*
X-24270000Y15099000D02*
X-30310000Y15099000D01*
X-33190000Y15099000D02*
X-39230000Y15099000D01*
X-24297000Y15059000D02*
X-39203000Y15059000D01*
X-24325000Y15019000D02*
X-39175000Y15019000D01*
X-24353000Y14979000D02*
X-39147000Y14979000D01*
X-24382000Y14939000D02*
X-39118000Y14939000D01*
X-24411000Y14899000D02*
X-39089000Y14899000D01*
X-24440000Y14859000D02*
X-39060000Y14859000D01*
X-24470000Y14819000D02*
X-39030000Y14819000D01*
X-24500000Y14779000D02*
X-39000000Y14779000D01*
X-24530000Y14739000D02*
X-38970000Y14739000D01*
X-24560000Y14699000D02*
X-38940000Y14699000D01*
X-24591000Y14659000D02*
X-38909000Y14659000D01*
X-24623000Y14619000D02*
X-38877000Y14619000D01*
X-24654000Y14579000D02*
X-38846000Y14579000D01*
X-24686000Y14539000D02*
X-38814000Y14539000D01*
X-24719000Y14499000D02*
X-38781000Y14499000D01*
X-24751000Y14459000D02*
X-38749000Y14459000D01*
X-24785000Y14419000D02*
X-38715000Y14419000D01*
X-24818000Y14379000D02*
X-38682000Y14379000D01*
X-24852000Y14339000D02*
X-38648000Y14339000D01*
X-24886000Y14299000D02*
X-38614000Y14299000D01*
X-24921000Y14259000D02*
X-38579000Y14259000D01*
X-24956000Y14219000D02*
X-38544000Y14219000D01*
X-24992000Y14179000D02*
X-38508000Y14179000D01*
X-25028000Y14139000D02*
X-38472000Y14139000D01*
X-25064000Y14099000D02*
X-38436000Y14099000D01*
X-25101000Y14059000D02*
X-38399000Y14059000D01*
X-25138000Y14019000D02*
X-38362000Y14019000D01*
X-25176000Y13979000D02*
X-38324000Y13979000D01*
X-25214000Y13939000D02*
X-38286000Y13939000D01*
X-25253000Y13899000D02*
X-38247000Y13899000D01*
X-25292000Y13859000D02*
X-38208000Y13859000D01*
X-25332000Y13819000D02*
X-38168000Y13819000D01*
X-25372000Y13779000D02*
X-38128000Y13779000D01*
X-25413000Y13739000D02*
X-38087000Y13739000D01*
X-25454000Y13699000D02*
X-38046000Y13699000D01*
X-25496000Y13659000D02*
X-38004000Y13659000D01*
X-25538000Y13619000D02*
X-37962000Y13619000D01*
X-25580000Y13579000D02*
X-37920000Y13579000D01*
X-25624000Y13539000D02*
X-37876000Y13539000D01*
X-25668000Y13499000D02*
X-37832000Y13499000D01*
X-25712000Y13459000D02*
X-37788000Y13459000D01*
X-25757000Y13419000D02*
X-37743000Y13419000D01*
X-25803000Y13379000D02*
X-37697000Y13379000D01*
X-25849000Y13339000D02*
X-37651000Y13339000D01*
X-25896000Y13299000D02*
X-37604000Y13299000D01*
X-25944000Y13259000D02*
X-37556000Y13259000D01*
X-25992000Y13219000D02*
X-37508000Y13219000D01*
X-26041000Y13179000D02*
X-37459000Y13179000D01*
X-26090000Y13139000D02*
X-37410000Y13139000D01*
X-26141000Y13099000D02*
X-37359000Y13099000D01*
X-26192000Y13059000D02*
X-37308000Y13059000D01*
X-26244000Y13019000D02*
X-37256000Y13019000D01*
X-26296000Y12979000D02*
X-37204000Y12979000D01*
X-26350000Y12939000D02*
X-37150000Y12939000D01*
X-26404000Y12899000D02*
X-37096000Y12899000D01*
X-26459000Y12859000D02*
X-37041000Y12859000D01*
X-26515000Y12819000D02*
X-36985000Y12819000D01*
X-26572000Y12779000D02*
X-36928000Y12779000D01*
X-26630000Y12739000D02*
X-36870000Y12739000D01*
X-26688000Y12699000D02*
X-36812000Y12699000D01*
X-26748000Y12659000D02*
X-36752000Y12659000D01*
X-26809000Y12619000D02*
X-36691000Y12619000D01*
X-26871000Y12579000D02*
X-36629000Y12579000D01*
X-26934000Y12539000D02*
X-36566000Y12539000D01*
X-26998000Y12499000D02*
X-36502000Y12499000D01*
X-27064000Y12459000D02*
X-36436000Y12459000D01*
X-27130000Y12419000D02*
X-36370000Y12419000D01*
X-27198000Y12379000D02*
X-36302000Y12379000D01*
X-27268000Y12339000D02*
X-36232000Y12339000D01*
X-27338000Y12299000D02*
X-36162000Y12299000D01*
X-27411000Y12259000D02*
X-36089000Y12259000D01*
X-27485000Y12219000D02*
X-36015000Y12219000D01*
X-27560000Y12179000D02*
X-35940000Y12179000D01*
X-27637000Y12139000D02*
X-35863000Y12139000D01*
X-27717000Y12099000D02*
X-35783000Y12099000D01*
X-27798000Y12060000D02*
X-35702000Y12060000D01*
X-27881000Y12020000D02*
X-35619000Y12020000D01*
X-27966000Y11980000D02*
X-35534000Y11980000D01*
X-28054000Y11940000D02*
X-35446000Y11940000D01*
X-28145000Y11900000D02*
X-35355000Y11900000D01*
X-28238000Y11860000D02*
X-35262000Y11860000D01*
X-28334000Y11820000D02*
X-35166000Y11820000D01*
X-28433000Y11780000D02*
X-35067000Y11780000D01*
X-28536000Y11740000D02*
X-34964000Y11740000D01*
X-28643000Y11700000D02*
X-34857000Y11700000D01*
X-28754000Y11660000D02*
X-34746000Y11660000D01*
X-28870000Y11620000D02*
X-34630000Y11620000D01*
X-28991000Y11580000D02*
X-34509000Y11580000D01*
X-29118000Y11540000D02*
X-34382000Y11540000D01*
X-29252000Y11500000D02*
X-34248000Y11500000D01*
X-29395000Y11460000D02*
X-34105000Y11460000D01*
X-29547000Y11420000D02*
X-33953000Y11420000D01*
X-29711000Y11380000D02*
X-33789000Y11380000D01*
X-29890000Y11340000D02*
X-33610000Y11340000D01*
X-30089000Y11300000D02*
X-33411000Y11300000D01*
X-30315000Y11260000D02*
X-33185000Y11260000D01*
X-30584000Y11220000D02*
X-32916000Y11220000D01*
X-30936000Y11180000D02*
X-32564000Y11180000D01*
X-31710000Y11140000D02*
X-31790000Y11140000D01*
X-22630000Y20260000D02*
G75*
G02*
X-40870000Y20260000I-9120000J0D01*
G01*
X-40870000Y20260000D02*
G75*
G02*
X-22630000Y20260000I9120000J0D01*
G01*
%TO.C,C101*%
X-26381000Y11223440D02*
X-26381000Y9423440D01*
X-25481000Y10323440D02*
X-27281000Y10323440D01*
X-22415000Y1464000D02*
X-40577000Y1464000D01*
X-22416000Y1424000D02*
X-40576000Y1424000D01*
X-22416000Y1384000D02*
X-40576000Y1384000D01*
X-22416000Y1344000D02*
X-40576000Y1344000D01*
X-22417000Y1304000D02*
X-40575000Y1304000D01*
X-22418000Y1264000D02*
X-40574000Y1264000D01*
X-22419000Y1224000D02*
X-40573000Y1224000D01*
X-22420000Y1184000D02*
X-40572000Y1184000D01*
X-22421000Y1144000D02*
X-40571000Y1144000D01*
X-22423000Y1104000D02*
X-40569000Y1104000D01*
X-22424000Y1064000D02*
X-40568000Y1064000D01*
X-22426000Y1024000D02*
X-40566000Y1024000D01*
X-22428000Y984000D02*
X-40564000Y984000D01*
X-22430000Y944000D02*
X-40562000Y944000D01*
X-22433000Y904000D02*
X-40559000Y904000D01*
X-22435000Y864000D02*
X-40557000Y864000D01*
X-22438000Y824000D02*
X-40554000Y824000D01*
X-22441000Y784000D02*
X-40551000Y784000D01*
X-22444000Y743000D02*
X-40548000Y743000D01*
X-22447000Y703000D02*
X-40545000Y703000D01*
X-22451000Y663000D02*
X-40541000Y663000D01*
X-22454000Y623000D02*
X-40538000Y623000D01*
X-22458000Y583000D02*
X-40534000Y583000D01*
X-22462000Y543000D02*
X-40530000Y543000D01*
X-22466000Y503000D02*
X-40526000Y503000D01*
X-22470000Y463000D02*
X-40522000Y463000D01*
X-22475000Y423000D02*
X-40517000Y423000D01*
X-22480000Y383000D02*
X-40512000Y383000D01*
X-22485000Y343000D02*
X-40507000Y343000D01*
X-22490000Y303000D02*
X-40502000Y303000D01*
X-22495000Y263000D02*
X-40497000Y263000D01*
X-22500000Y223000D02*
X-40492000Y223000D01*
X-22506000Y183000D02*
X-40486000Y183000D01*
X-22512000Y143000D02*
X-40480000Y143000D01*
X-22517000Y103000D02*
X-40475000Y103000D01*
X-22524000Y63000D02*
X-40468000Y63000D01*
X-22530000Y23000D02*
X-40462000Y23000D01*
X-22536000Y-17000D02*
X-40456000Y-17000D01*
X-22543000Y-57000D02*
X-40449000Y-57000D01*
X-22550000Y-97000D02*
X-40442000Y-97000D01*
X-22557000Y-137000D02*
X-40435000Y-137000D01*
X-22564000Y-177000D02*
X-40428000Y-177000D01*
X-22572000Y-217000D02*
X-40420000Y-217000D01*
X-22579000Y-257000D02*
X-40413000Y-257000D01*
X-22587000Y-297000D02*
X-40405000Y-297000D01*
X-22595000Y-337000D02*
X-40397000Y-337000D01*
X-22603000Y-377000D02*
X-40389000Y-377000D01*
X-22611000Y-417000D02*
X-40381000Y-417000D01*
X-22620000Y-457000D02*
X-40372000Y-457000D01*
X-22629000Y-497000D02*
X-40363000Y-497000D01*
X-22638000Y-537000D02*
X-40354000Y-537000D01*
X-22647000Y-577000D02*
X-40345000Y-577000D01*
X-22656000Y-617000D02*
X-40336000Y-617000D01*
X-22665000Y-657000D02*
X-40327000Y-657000D01*
X-22675000Y-697000D02*
X-40317000Y-697000D01*
X-22685000Y-737000D02*
X-40307000Y-737000D01*
X-22695000Y-777000D02*
X-40297000Y-777000D01*
X-22705000Y-817000D02*
X-40287000Y-817000D01*
X-22716000Y-857000D02*
X-30056000Y-857000D01*
X-32936000Y-857000D02*
X-40276000Y-857000D01*
X-22726000Y-897000D02*
X-30056000Y-897000D01*
X-32936000Y-897000D02*
X-40266000Y-897000D01*
X-22737000Y-937000D02*
X-30056000Y-937000D01*
X-32936000Y-937000D02*
X-40255000Y-937000D01*
X-22748000Y-977000D02*
X-30056000Y-977000D01*
X-32936000Y-977000D02*
X-40244000Y-977000D01*
X-22759000Y-1017000D02*
X-30056000Y-1017000D01*
X-32936000Y-1017000D02*
X-40233000Y-1017000D01*
X-22771000Y-1057000D02*
X-30056000Y-1057000D01*
X-32936000Y-1057000D02*
X-40221000Y-1057000D01*
X-22782000Y-1097000D02*
X-30056000Y-1097000D01*
X-32936000Y-1097000D02*
X-40210000Y-1097000D01*
X-22794000Y-1137000D02*
X-30056000Y-1137000D01*
X-32936000Y-1137000D02*
X-40198000Y-1137000D01*
X-22806000Y-1177000D02*
X-30056000Y-1177000D01*
X-32936000Y-1177000D02*
X-40186000Y-1177000D01*
X-22818000Y-1217000D02*
X-30056000Y-1217000D01*
X-32936000Y-1217000D02*
X-40174000Y-1217000D01*
X-22831000Y-1257000D02*
X-30056000Y-1257000D01*
X-32936000Y-1257000D02*
X-40161000Y-1257000D01*
X-22843000Y-1297000D02*
X-30056000Y-1297000D01*
X-32936000Y-1297000D02*
X-40149000Y-1297000D01*
X-22856000Y-1337000D02*
X-30056000Y-1337000D01*
X-32936000Y-1337000D02*
X-40136000Y-1337000D01*
X-22869000Y-1377000D02*
X-30056000Y-1377000D01*
X-32936000Y-1377000D02*
X-40123000Y-1377000D01*
X-22882000Y-1417000D02*
X-30056000Y-1417000D01*
X-32936000Y-1417000D02*
X-40110000Y-1417000D01*
X-22896000Y-1457000D02*
X-30056000Y-1457000D01*
X-32936000Y-1457000D02*
X-40096000Y-1457000D01*
X-22909000Y-1497000D02*
X-30056000Y-1497000D01*
X-32936000Y-1497000D02*
X-40083000Y-1497000D01*
X-22923000Y-1537000D02*
X-30056000Y-1537000D01*
X-32936000Y-1537000D02*
X-40069000Y-1537000D01*
X-22937000Y-1577000D02*
X-30056000Y-1577000D01*
X-32936000Y-1577000D02*
X-40055000Y-1577000D01*
X-22951000Y-1617000D02*
X-30056000Y-1617000D01*
X-32936000Y-1617000D02*
X-40041000Y-1617000D01*
X-22966000Y-1657000D02*
X-30056000Y-1657000D01*
X-32936000Y-1657000D02*
X-40026000Y-1657000D01*
X-22980000Y-1697000D02*
X-30056000Y-1697000D01*
X-32936000Y-1697000D02*
X-40012000Y-1697000D01*
X-22995000Y-1737000D02*
X-30056000Y-1737000D01*
X-32936000Y-1737000D02*
X-39997000Y-1737000D01*
X-23010000Y-1777000D02*
X-30056000Y-1777000D01*
X-32936000Y-1777000D02*
X-39982000Y-1777000D01*
X-23026000Y-1817000D02*
X-30056000Y-1817000D01*
X-32936000Y-1817000D02*
X-39966000Y-1817000D01*
X-23041000Y-1857000D02*
X-30056000Y-1857000D01*
X-32936000Y-1857000D02*
X-39951000Y-1857000D01*
X-23057000Y-1897000D02*
X-30056000Y-1897000D01*
X-32936000Y-1897000D02*
X-39935000Y-1897000D01*
X-23073000Y-1937000D02*
X-30056000Y-1937000D01*
X-32936000Y-1937000D02*
X-39919000Y-1937000D01*
X-23089000Y-1977000D02*
X-30056000Y-1977000D01*
X-32936000Y-1977000D02*
X-39903000Y-1977000D01*
X-23106000Y-2017000D02*
X-30056000Y-2017000D01*
X-32936000Y-2017000D02*
X-39886000Y-2017000D01*
X-23122000Y-2057000D02*
X-30056000Y-2057000D01*
X-32936000Y-2057000D02*
X-39870000Y-2057000D01*
X-23139000Y-2097000D02*
X-30056000Y-2097000D01*
X-32936000Y-2097000D02*
X-39853000Y-2097000D01*
X-23156000Y-2137000D02*
X-30056000Y-2137000D01*
X-32936000Y-2137000D02*
X-39836000Y-2137000D01*
X-23173000Y-2177000D02*
X-30056000Y-2177000D01*
X-32936000Y-2177000D02*
X-39819000Y-2177000D01*
X-23191000Y-2217000D02*
X-30056000Y-2217000D01*
X-32936000Y-2217000D02*
X-39801000Y-2217000D01*
X-23209000Y-2257000D02*
X-30056000Y-2257000D01*
X-32936000Y-2257000D02*
X-39783000Y-2257000D01*
X-23227000Y-2297000D02*
X-30056000Y-2297000D01*
X-32936000Y-2297000D02*
X-39765000Y-2297000D01*
X-23245000Y-2337000D02*
X-30056000Y-2337000D01*
X-32936000Y-2337000D02*
X-39747000Y-2337000D01*
X-23263000Y-2377000D02*
X-30056000Y-2377000D01*
X-32936000Y-2377000D02*
X-39729000Y-2377000D01*
X-23282000Y-2417000D02*
X-30056000Y-2417000D01*
X-32936000Y-2417000D02*
X-39710000Y-2417000D01*
X-23301000Y-2457000D02*
X-30056000Y-2457000D01*
X-32936000Y-2457000D02*
X-39691000Y-2457000D01*
X-23320000Y-2497000D02*
X-30056000Y-2497000D01*
X-32936000Y-2497000D02*
X-39672000Y-2497000D01*
X-23340000Y-2537000D02*
X-30056000Y-2537000D01*
X-32936000Y-2537000D02*
X-39652000Y-2537000D01*
X-23359000Y-2577000D02*
X-30056000Y-2577000D01*
X-32936000Y-2577000D02*
X-39633000Y-2577000D01*
X-23379000Y-2617000D02*
X-30056000Y-2617000D01*
X-32936000Y-2617000D02*
X-39613000Y-2617000D01*
X-23399000Y-2657000D02*
X-30056000Y-2657000D01*
X-32936000Y-2657000D02*
X-39593000Y-2657000D01*
X-23420000Y-2697000D02*
X-30056000Y-2697000D01*
X-32936000Y-2697000D02*
X-39572000Y-2697000D01*
X-23440000Y-2737000D02*
X-30056000Y-2737000D01*
X-32936000Y-2737000D02*
X-39552000Y-2737000D01*
X-23461000Y-2777000D02*
X-30056000Y-2777000D01*
X-32936000Y-2777000D02*
X-39531000Y-2777000D01*
X-23482000Y-2817000D02*
X-30056000Y-2817000D01*
X-32936000Y-2817000D02*
X-39510000Y-2817000D01*
X-23504000Y-2857000D02*
X-30056000Y-2857000D01*
X-32936000Y-2857000D02*
X-39488000Y-2857000D01*
X-23525000Y-2897000D02*
X-30056000Y-2897000D01*
X-32936000Y-2897000D02*
X-39467000Y-2897000D01*
X-23547000Y-2937000D02*
X-30056000Y-2937000D01*
X-32936000Y-2937000D02*
X-39445000Y-2937000D01*
X-23569000Y-2977000D02*
X-30056000Y-2977000D01*
X-32936000Y-2977000D02*
X-39423000Y-2977000D01*
X-23592000Y-3017000D02*
X-30056000Y-3017000D01*
X-32936000Y-3017000D02*
X-39400000Y-3017000D01*
X-23614000Y-3057000D02*
X-30056000Y-3057000D01*
X-32936000Y-3057000D02*
X-39378000Y-3057000D01*
X-23637000Y-3097000D02*
X-30056000Y-3097000D01*
X-32936000Y-3097000D02*
X-39355000Y-3097000D01*
X-23661000Y-3137000D02*
X-30056000Y-3137000D01*
X-32936000Y-3137000D02*
X-39331000Y-3137000D01*
X-23684000Y-3177000D02*
X-30056000Y-3177000D01*
X-32936000Y-3177000D02*
X-39308000Y-3177000D01*
X-23708000Y-3217000D02*
X-30056000Y-3217000D01*
X-32936000Y-3217000D02*
X-39284000Y-3217000D01*
X-23732000Y-3257000D02*
X-30056000Y-3257000D01*
X-32936000Y-3257000D02*
X-39260000Y-3257000D01*
X-23756000Y-3297000D02*
X-30056000Y-3297000D01*
X-32936000Y-3297000D02*
X-39236000Y-3297000D01*
X-23781000Y-3337000D02*
X-30056000Y-3337000D01*
X-32936000Y-3337000D02*
X-39211000Y-3337000D01*
X-23806000Y-3377000D02*
X-30056000Y-3377000D01*
X-32936000Y-3377000D02*
X-39186000Y-3377000D01*
X-23831000Y-3417000D02*
X-30056000Y-3417000D01*
X-32936000Y-3417000D02*
X-39161000Y-3417000D01*
X-23856000Y-3457000D02*
X-30056000Y-3457000D01*
X-32936000Y-3457000D02*
X-39136000Y-3457000D01*
X-23882000Y-3497000D02*
X-30056000Y-3497000D01*
X-32936000Y-3497000D02*
X-39110000Y-3497000D01*
X-23908000Y-3537000D02*
X-30056000Y-3537000D01*
X-32936000Y-3537000D02*
X-39084000Y-3537000D01*
X-23935000Y-3577000D02*
X-30056000Y-3577000D01*
X-32936000Y-3577000D02*
X-39057000Y-3577000D01*
X-23961000Y-3617000D02*
X-30056000Y-3617000D01*
X-32936000Y-3617000D02*
X-39031000Y-3617000D01*
X-23988000Y-3657000D02*
X-30056000Y-3657000D01*
X-32936000Y-3657000D02*
X-39004000Y-3657000D01*
X-24016000Y-3697000D02*
X-30056000Y-3697000D01*
X-32936000Y-3697000D02*
X-38976000Y-3697000D01*
X-24043000Y-3737000D02*
X-38949000Y-3737000D01*
X-24071000Y-3777000D02*
X-38921000Y-3777000D01*
X-24099000Y-3817000D02*
X-38893000Y-3817000D01*
X-24128000Y-3857000D02*
X-38864000Y-3857000D01*
X-24157000Y-3897000D02*
X-38835000Y-3897000D01*
X-24186000Y-3937000D02*
X-38806000Y-3937000D01*
X-24216000Y-3977000D02*
X-38776000Y-3977000D01*
X-24246000Y-4017000D02*
X-38746000Y-4017000D01*
X-24276000Y-4057000D02*
X-38716000Y-4057000D01*
X-24306000Y-4097000D02*
X-38686000Y-4097000D01*
X-24337000Y-4137000D02*
X-38655000Y-4137000D01*
X-24369000Y-4177000D02*
X-38623000Y-4177000D01*
X-24400000Y-4217000D02*
X-38592000Y-4217000D01*
X-24432000Y-4257000D02*
X-38560000Y-4257000D01*
X-24465000Y-4297000D02*
X-38527000Y-4297000D01*
X-24497000Y-4337000D02*
X-38495000Y-4337000D01*
X-24531000Y-4377000D02*
X-38461000Y-4377000D01*
X-24564000Y-4417000D02*
X-38428000Y-4417000D01*
X-24598000Y-4457000D02*
X-38394000Y-4457000D01*
X-24632000Y-4497000D02*
X-38360000Y-4497000D01*
X-24667000Y-4537000D02*
X-38325000Y-4537000D01*
X-24702000Y-4577000D02*
X-38290000Y-4577000D01*
X-24738000Y-4617000D02*
X-38254000Y-4617000D01*
X-24774000Y-4657000D02*
X-38218000Y-4657000D01*
X-24810000Y-4697000D02*
X-38182000Y-4697000D01*
X-24847000Y-4737000D02*
X-38145000Y-4737000D01*
X-24884000Y-4777000D02*
X-38108000Y-4777000D01*
X-24922000Y-4817000D02*
X-38070000Y-4817000D01*
X-24960000Y-4857000D02*
X-38032000Y-4857000D01*
X-24999000Y-4897000D02*
X-37993000Y-4897000D01*
X-25038000Y-4937000D02*
X-37954000Y-4937000D01*
X-25078000Y-4977000D02*
X-37914000Y-4977000D01*
X-25118000Y-5017000D02*
X-37874000Y-5017000D01*
X-25159000Y-5057000D02*
X-37833000Y-5057000D01*
X-25200000Y-5097000D02*
X-37792000Y-5097000D01*
X-25242000Y-5137000D02*
X-37750000Y-5137000D01*
X-25284000Y-5177000D02*
X-37708000Y-5177000D01*
X-25326000Y-5217000D02*
X-37666000Y-5217000D01*
X-25370000Y-5257000D02*
X-37622000Y-5257000D01*
X-25414000Y-5297000D02*
X-37578000Y-5297000D01*
X-25458000Y-5337000D02*
X-37534000Y-5337000D01*
X-25503000Y-5377000D02*
X-37489000Y-5377000D01*
X-25549000Y-5417000D02*
X-37443000Y-5417000D01*
X-25595000Y-5457000D02*
X-37397000Y-5457000D01*
X-25642000Y-5497000D02*
X-37350000Y-5497000D01*
X-25690000Y-5537000D02*
X-37302000Y-5537000D01*
X-25738000Y-5577000D02*
X-37254000Y-5577000D01*
X-25787000Y-5617000D02*
X-37205000Y-5617000D01*
X-25836000Y-5657000D02*
X-37156000Y-5657000D01*
X-25887000Y-5697000D02*
X-37105000Y-5697000D01*
X-25938000Y-5737000D02*
X-37054000Y-5737000D01*
X-25990000Y-5777000D02*
X-37002000Y-5777000D01*
X-26042000Y-5817000D02*
X-36950000Y-5817000D01*
X-26096000Y-5857000D02*
X-36896000Y-5857000D01*
X-26150000Y-5897000D02*
X-36842000Y-5897000D01*
X-26205000Y-5937000D02*
X-36787000Y-5937000D01*
X-26261000Y-5977000D02*
X-36731000Y-5977000D01*
X-26318000Y-6017000D02*
X-36674000Y-6017000D01*
X-26376000Y-6057000D02*
X-36616000Y-6057000D01*
X-26434000Y-6097000D02*
X-36558000Y-6097000D01*
X-26494000Y-6137000D02*
X-36498000Y-6137000D01*
X-26555000Y-6177000D02*
X-36437000Y-6177000D01*
X-26617000Y-6217000D02*
X-36375000Y-6217000D01*
X-26680000Y-6257000D02*
X-36312000Y-6257000D01*
X-26744000Y-6297000D02*
X-36248000Y-6297000D01*
X-26810000Y-6337000D02*
X-36182000Y-6337000D01*
X-26876000Y-6377000D02*
X-36116000Y-6377000D01*
X-26944000Y-6417000D02*
X-36048000Y-6417000D01*
X-27014000Y-6457000D02*
X-35978000Y-6457000D01*
X-27084000Y-6497000D02*
X-35908000Y-6497000D01*
X-27157000Y-6537000D02*
X-35835000Y-6537000D01*
X-27231000Y-6577000D02*
X-35761000Y-6577000D01*
X-27306000Y-6617000D02*
X-35686000Y-6617000D01*
X-27383000Y-6657000D02*
X-35609000Y-6657000D01*
X-27463000Y-6697000D02*
X-35529000Y-6697000D01*
X-27544000Y-6736000D02*
X-35448000Y-6736000D01*
X-27627000Y-6776000D02*
X-35365000Y-6776000D01*
X-27712000Y-6816000D02*
X-35280000Y-6816000D01*
X-27800000Y-6856000D02*
X-35192000Y-6856000D01*
X-27891000Y-6896000D02*
X-35101000Y-6896000D01*
X-27984000Y-6936000D02*
X-35008000Y-6936000D01*
X-28080000Y-6976000D02*
X-34912000Y-6976000D01*
X-28179000Y-7016000D02*
X-34813000Y-7016000D01*
X-28282000Y-7056000D02*
X-34710000Y-7056000D01*
X-28389000Y-7096000D02*
X-34603000Y-7096000D01*
X-28500000Y-7136000D02*
X-34492000Y-7136000D01*
X-28616000Y-7176000D02*
X-34376000Y-7176000D01*
X-28737000Y-7216000D02*
X-34255000Y-7216000D01*
X-28864000Y-7256000D02*
X-34128000Y-7256000D01*
X-28998000Y-7296000D02*
X-33994000Y-7296000D01*
X-29141000Y-7336000D02*
X-33851000Y-7336000D01*
X-29293000Y-7376000D02*
X-33699000Y-7376000D01*
X-29457000Y-7416000D02*
X-33535000Y-7416000D01*
X-29636000Y-7456000D02*
X-33356000Y-7456000D01*
X-29835000Y-7496000D02*
X-33157000Y-7496000D01*
X-30061000Y-7536000D02*
X-32931000Y-7536000D01*
X-30330000Y-7576000D02*
X-32662000Y-7576000D01*
X-30682000Y-7616000D02*
X-32310000Y-7616000D01*
X-31456000Y-7656000D02*
X-31536000Y-7656000D01*
X-22376000Y1464000D02*
G75*
G02*
X-40616000Y1464000I-9120000J0D01*
G01*
X-40616000Y1464000D02*
G75*
G02*
X-22376000Y1464000I9120000J0D01*
G01*
%TO.C,R103*%
X-47270564Y41550000D02*
X-45816436Y41550000D01*
X-47270564Y39730000D02*
X-45816436Y39730000D01*
%TO.C,U301*%
X-26740000Y40743000D02*
X-26740000Y40978000D01*
X-26740000Y35998000D02*
X-26740000Y36473000D01*
X-26265000Y41218000D02*
X-26440000Y41218000D01*
X-26265000Y35998000D02*
X-26740000Y35998000D01*
X-21995000Y41218000D02*
X-21520000Y41218000D01*
X-21995000Y35998000D02*
X-21520000Y35998000D01*
X-21520000Y41218000D02*
X-21520000Y40743000D01*
X-21520000Y35998000D02*
X-21520000Y36473000D01*
X-26740000Y41218000D02*
X-26980000Y41548000D01*
X-26500000Y41548000D01*
X-26740000Y41218000D01*
G36*
X-26740000Y41218000D02*
G01*
X-26980000Y41548000D01*
X-26500000Y41548000D01*
X-26740000Y41218000D01*
G37*
%TO.C,R303*%
X-35324064Y35723000D02*
X-34869936Y35723000D01*
X-35324064Y34253000D02*
X-34869936Y34253000D01*
%TO.C,R302*%
X-35324064Y38673000D02*
X-34869936Y38673000D01*
X-35324064Y37203000D02*
X-34869936Y37203000D01*
%TO.C,R301*%
X-35324064Y41623000D02*
X-34869936Y41623000D01*
X-35324064Y40153000D02*
X-34869936Y40153000D01*
%TO.C,JP101*%
X-22920000Y-25086000D02*
X-21590000Y-25086000D01*
X-22920000Y-26416000D02*
X-22920000Y-25086000D01*
X-22920000Y-27686000D02*
X-22920000Y-32826000D01*
X-22920000Y-27686000D02*
X-20260000Y-27686000D01*
X-22920000Y-32826000D02*
X-20260000Y-32826000D01*
X-20260000Y-27686000D02*
X-20260000Y-32826000D01*
%TO.C,JP106*%
X-29912000Y45152000D02*
X-31242000Y45152000D01*
X-29912000Y46482000D02*
X-29912000Y45152000D01*
X-29912000Y47752000D02*
X-29912000Y52892000D01*
X-29912000Y47752000D02*
X-32572000Y47752000D01*
X-29912000Y52892000D02*
X-32572000Y52892000D01*
X-32572000Y47752000D02*
X-32572000Y52892000D01*
%TO.C,D302*%
X-32332000Y38338000D02*
X-32332000Y36338000D01*
X-32332000Y38338000D02*
X-28322000Y38338000D01*
X-32332000Y36338000D02*
X-28322000Y36338000D01*
%TO.C,D301*%
X-32332000Y41688000D02*
X-32332000Y39688000D01*
X-32332000Y41688000D02*
X-28322000Y41688000D01*
X-32332000Y39688000D02*
X-28322000Y39688000D01*
%TO.C,D101*%
X-28334000Y-18928000D02*
X-29534000Y-18928000D01*
X-28334000Y-17628000D02*
X-28334000Y-18928000D01*
X-28534000Y-18728000D02*
X-28534000Y-12028000D01*
X-28534000Y-12028000D02*
X-48234000Y-12028000D01*
X-31384000Y-16378000D02*
X-31384000Y-18728000D01*
X-31384000Y-12428000D02*
X-31384000Y-12028000D01*
X-48234000Y-18728000D02*
X-28534000Y-18728000D01*
X-48234000Y-12028000D02*
X-48234000Y-18728000D01*
%TO.C,C305*%
X-39788252Y32563000D02*
X-39265748Y32563000D01*
X-39788252Y31093000D02*
X-39265748Y31093000D01*
%TO.C,C304*%
X-39788252Y35573000D02*
X-39265748Y35573000D01*
X-39788252Y34103000D02*
X-39265748Y34103000D01*
%TO.C,C303*%
X-39788252Y38583000D02*
X-39265748Y38583000D01*
X-39788252Y37113000D02*
X-39265748Y37113000D01*
%TO.C,C301*%
X-39788252Y41593000D02*
X-39265748Y41593000D01*
X-39788252Y40123000D02*
X-39265748Y40123000D01*
%TO.C,JP102*%
X-29524000Y-25101000D02*
X-28194000Y-25101000D01*
X-29524000Y-26431000D02*
X-29524000Y-25101000D01*
X-29524000Y-27701000D02*
X-29524000Y-32841000D01*
X-29524000Y-27701000D02*
X-26864000Y-27701000D01*
X-29524000Y-32841000D02*
X-26864000Y-32841000D01*
X-26864000Y-27701000D02*
X-26864000Y-32841000D01*
%TO.C,J202*%
X-36099000Y62434000D02*
X-36099000Y54014000D01*
X-58220000Y62434000D02*
X-36099000Y62434000D01*
X-58220000Y62434000D02*
X-58220000Y54014000D01*
X-37010000Y61674000D02*
X-37010000Y59363000D01*
X-39809000Y61674000D02*
X-37010000Y61674000D01*
X-39809000Y61674000D02*
X-39809000Y59363000D01*
X-40510000Y61674000D02*
X-40510000Y59363000D01*
X-43310000Y61674000D02*
X-40510000Y61674000D01*
X-43310000Y61674000D02*
X-43310000Y59363000D01*
X-44010000Y61674000D02*
X-44010000Y59363000D01*
X-46810000Y61674000D02*
X-44010000Y61674000D01*
X-46810000Y61674000D02*
X-46810000Y59363000D01*
X-47510000Y61674000D02*
X-47510000Y59363000D01*
X-50310000Y61674000D02*
X-47510000Y61674000D01*
X-50310000Y61674000D02*
X-50310000Y59363000D01*
X-51010000Y61674000D02*
X-51010000Y59363000D01*
X-53810000Y61674000D02*
X-51010000Y61674000D01*
X-53810000Y61674000D02*
X-53810000Y59363000D01*
X-54510000Y61674000D02*
X-54510000Y60214000D01*
X-57310000Y61674000D02*
X-54510000Y61674000D01*
X-57310000Y61674000D02*
X-57310000Y60214000D01*
X-37010000Y57985000D02*
X-37010000Y57924000D01*
X-39809000Y57985000D02*
X-39809000Y57924000D01*
X-40510000Y57985000D02*
X-40510000Y57924000D01*
X-43310000Y57985000D02*
X-43310000Y57924000D01*
X-44010000Y57985000D02*
X-44010000Y57924000D01*
X-46810000Y57985000D02*
X-46810000Y57924000D01*
X-47510000Y57985000D02*
X-47510000Y57924000D01*
X-50310000Y57985000D02*
X-50310000Y57924000D01*
X-51010000Y57985000D02*
X-51010000Y57924000D01*
X-53810000Y57985000D02*
X-53810000Y57924000D01*
X-37010000Y57924000D02*
X-37010000Y57924000D01*
X-39809000Y57924000D02*
X-39809000Y57924000D01*
X-40510000Y57924000D02*
X-40510000Y57924000D01*
X-43310000Y57924000D02*
X-43309000Y57924000D01*
X-44010000Y57924000D02*
X-44010000Y57924000D01*
X-46810000Y57924000D02*
X-46809000Y57924000D01*
X-47510000Y57924000D02*
X-47510000Y57924000D01*
X-50310000Y57924000D02*
X-50309000Y57924000D01*
X-51010000Y57924000D02*
X-51010000Y57924000D01*
X-53810000Y57924000D02*
X-53809000Y57924000D01*
X-37276000Y57573000D02*
X-36099000Y57573000D01*
X-40776000Y57573000D02*
X-39543000Y57573000D01*
X-44276000Y57573000D02*
X-43043000Y57573000D01*
X-47776000Y57573000D02*
X-46543000Y57573000D01*
X-51276000Y57573000D02*
X-50043000Y57573000D01*
X-54370000Y57573000D02*
X-53543000Y57573000D01*
X-58220000Y57573000D02*
X-57450000Y57573000D01*
X-58460000Y56014000D02*
X-58460000Y53774000D01*
X-58220000Y54014000D02*
X-36099000Y54014000D01*
X-58460000Y53774000D02*
X-56460000Y53774000D01*
X-56907890Y60203434D02*
G75*
G02*
X-54912000Y60205000I997890J70566D01*
G01*
X-39349915Y59931767D02*
G75*
G02*
X-37470000Y59932000I939915J342233D01*
G01*
X-42849915Y59931767D02*
G75*
G02*
X-40970000Y59932000I939915J342233D01*
G01*
X-46349915Y59931767D02*
G75*
G02*
X-44470000Y59932000I939915J342233D01*
G01*
X-49849915Y59931767D02*
G75*
G02*
X-47970000Y59932000I939915J342233D01*
G01*
X-53349915Y59931767D02*
G75*
G02*
X-51470000Y59932000I939915J342233D01*
G01*
%TO.C,J101*%
X-27400000Y-18439000D02*
X-27400000Y-10019000D01*
X-15780000Y-18439000D02*
X-27400000Y-18439000D01*
X-15780000Y-18439000D02*
X-15780000Y-10019000D01*
X-26490000Y-17679000D02*
X-26490000Y-15368000D01*
X-23690000Y-17679000D02*
X-26490000Y-17679000D01*
X-23690000Y-17679000D02*
X-23690000Y-15368000D01*
X-22990000Y-17679000D02*
X-22990000Y-15368000D01*
X-20190000Y-17679000D02*
X-22990000Y-17679000D01*
X-20190000Y-17679000D02*
X-20190000Y-15368000D01*
X-19490000Y-17679000D02*
X-19490000Y-16219000D01*
X-16690000Y-17679000D02*
X-19490000Y-17679000D01*
X-16690000Y-17679000D02*
X-16690000Y-16219000D01*
X-26490000Y-13990000D02*
X-26490000Y-13929000D01*
X-23690000Y-13990000D02*
X-23690000Y-13929000D01*
X-22990000Y-13990000D02*
X-22990000Y-13929000D01*
X-20190000Y-13990000D02*
X-20190000Y-13929000D01*
X-26490000Y-13929000D02*
X-26490000Y-13929000D01*
X-23690000Y-13929000D02*
X-23691000Y-13929000D01*
X-22990000Y-13929000D02*
X-22990000Y-13929000D01*
X-20190000Y-13929000D02*
X-20191000Y-13929000D01*
X-26224000Y-13578000D02*
X-27400000Y-13578000D01*
X-22724000Y-13578000D02*
X-23957000Y-13578000D01*
X-19630000Y-13578000D02*
X-20457000Y-13578000D01*
X-15780000Y-13578000D02*
X-16550000Y-13578000D01*
X-15540000Y-12019000D02*
X-15540000Y-9779000D01*
X-15780000Y-10019000D02*
X-27400000Y-10019000D01*
X-15540000Y-9779000D02*
X-17540000Y-9779000D01*
X-17092110Y-16208434D02*
G75*
G02*
X-19088000Y-16210000I-997890J-70566D01*
G01*
X-24150085Y-15936767D02*
G75*
G02*
X-26030000Y-15937000I-939915J-342233D01*
G01*
X-20650085Y-15936767D02*
G75*
G02*
X-22530000Y-15937000I-939915J-342233D01*
G01*
%TO.C,J201*%
X-22130000Y62434000D02*
X-22130000Y54014000D01*
X-33750000Y62434000D02*
X-22130000Y62434000D01*
X-33750000Y62434000D02*
X-33750000Y54014000D01*
X-23040000Y61674000D02*
X-23040000Y59363000D01*
X-25840000Y61674000D02*
X-23040000Y61674000D01*
X-25840000Y61674000D02*
X-25840000Y59363000D01*
X-26540000Y61674000D02*
X-26540000Y59363000D01*
X-29340000Y61674000D02*
X-26540000Y61674000D01*
X-29340000Y61674000D02*
X-29340000Y59363000D01*
X-30040000Y61674000D02*
X-30040000Y60214000D01*
X-32840000Y61674000D02*
X-30040000Y61674000D01*
X-32840000Y61674000D02*
X-32840000Y60214000D01*
X-23040000Y57985000D02*
X-23040000Y57924000D01*
X-25840000Y57985000D02*
X-25840000Y57924000D01*
X-26540000Y57985000D02*
X-26540000Y57924000D01*
X-29340000Y57985000D02*
X-29340000Y57924000D01*
X-23040000Y57924000D02*
X-23040000Y57924000D01*
X-25840000Y57924000D02*
X-25839000Y57924000D01*
X-26540000Y57924000D02*
X-26540000Y57924000D01*
X-29340000Y57924000D02*
X-29339000Y57924000D01*
X-23306000Y57573000D02*
X-22130000Y57573000D01*
X-26806000Y57573000D02*
X-25573000Y57573000D01*
X-29900000Y57573000D02*
X-29073000Y57573000D01*
X-33750000Y57573000D02*
X-32980000Y57573000D01*
X-33990000Y56014000D02*
X-33990000Y53774000D01*
X-33750000Y54014000D02*
X-22130000Y54014000D01*
X-33990000Y53774000D02*
X-31990000Y53774000D01*
X-32437890Y60203434D02*
G75*
G02*
X-30442000Y60205000I997890J70566D01*
G01*
X-25379915Y59931767D02*
G75*
G02*
X-23500000Y59932000I939915J342233D01*
G01*
X-28879915Y59931767D02*
G75*
G02*
X-27000000Y59932000I939915J342233D01*
G01*
%TO.C,JP105*%
X-22292000Y45167000D02*
X-23622000Y45167000D01*
X-22292000Y46497000D02*
X-22292000Y45167000D01*
X-22292000Y47767000D02*
X-22292000Y52907000D01*
X-22292000Y47767000D02*
X-24952000Y47767000D01*
X-22292000Y52907000D02*
X-24952000Y52907000D01*
X-24952000Y47767000D02*
X-24952000Y52907000D01*
%TD*%
%LPC*%
D12*
%TO.C,C302*%
X-71888000Y64516000D03*
X-66288000Y64516000D03*
%TD*%
%TO.C,C105*%
X-54108000Y-30734000D03*
X-48508000Y-30734000D03*
%TD*%
D13*
%TO.C,C107*%
X-78314000Y21590000D03*
X-69514000Y21590000D03*
%TD*%
D14*
%TO.C,D102*%
X-64230000Y-26670000D03*
X-60230000Y-26670000D03*
%TD*%
D15*
%TO.C,JP103*%
X-27432000Y46482000D03*
D16*
X-27432000Y49022000D03*
X-27432000Y51562000D03*
%TD*%
D17*
%TO.C,U102*%
X-55561000Y46355000D03*
X-55561000Y45085000D03*
X-55561000Y43815000D03*
X-55561000Y42545000D03*
X-50611000Y42545000D03*
X-50611000Y43815000D03*
X-50611000Y45085000D03*
X-50611000Y46355000D03*
%TD*%
D18*
%TO.C,R102*%
X-69850000Y-20984000D03*
X-68025000Y-20984000D03*
%TD*%
%TO.C,R101*%
X-69850000Y-18034000D03*
X-68025000Y-18034000D03*
%TD*%
%TO.C,R105*%
X-49069000Y48006000D03*
X-47244000Y48006000D03*
%TD*%
%TO.C,R104*%
X-47140500Y44450000D03*
X-45315500Y44450000D03*
%TD*%
D19*
%TO.C,L101*%
X-77995000Y-9906000D03*
X-74145000Y-9906000D03*
%TD*%
D20*
%TO.C,C108*%
X-52258000Y49784000D03*
X-50358000Y49784000D03*
%TD*%
%TO.C,C106*%
X-68514000Y-12954000D03*
X-66614000Y-12954000D03*
%TD*%
D15*
%TO.C,J102*%
X-64262000Y52324000D03*
D16*
X-61722000Y52324000D03*
X-64262000Y49784000D03*
X-61722000Y49784000D03*
X-64262000Y47244000D03*
X-61722000Y47244000D03*
X-64262000Y44704000D03*
X-61722000Y44704000D03*
X-64262000Y42164000D03*
X-61722000Y42164000D03*
X-64262000Y39624000D03*
X-61722000Y39624000D03*
X-64262000Y37084000D03*
X-61722000Y37084000D03*
X-64262000Y34544000D03*
X-61722000Y34544000D03*
%TD*%
D15*
%TO.C,J105*%
X-18542000Y34544000D03*
D16*
X-16002000Y34544000D03*
X-18542000Y32004000D03*
X-16002000Y32004000D03*
X-18542000Y29464000D03*
X-16002000Y29464000D03*
X-18542000Y26924000D03*
X-16002000Y26924000D03*
X-18542000Y24384000D03*
X-16002000Y24384000D03*
X-18542000Y21844000D03*
X-16002000Y21844000D03*
X-18542000Y19304000D03*
X-16002000Y19304000D03*
X-18542000Y16764000D03*
X-16002000Y16764000D03*
X-18542000Y14224000D03*
X-16002000Y14224000D03*
X-18542000Y11684000D03*
X-16002000Y11684000D03*
X-18542000Y9144000D03*
X-16002000Y9144000D03*
X-18542000Y6604000D03*
X-16002000Y6604000D03*
X-18542000Y4064000D03*
X-16002000Y4064000D03*
X-18542000Y1524000D03*
X-16002000Y1524000D03*
X-18542000Y-1016000D03*
X-16002000Y-1016000D03*
X-18542000Y-3556000D03*
X-16002000Y-3556000D03*
X-18542000Y-6096000D03*
X-16002000Y-6096000D03*
%TD*%
D15*
%TO.C,J104*%
X-18542000Y61468000D03*
D16*
X-16002000Y61468000D03*
X-18542000Y58928000D03*
X-16002000Y58928000D03*
X-18542000Y56388000D03*
X-16002000Y56388000D03*
X-18542000Y53848000D03*
X-16002000Y53848000D03*
X-18542000Y51308000D03*
X-16002000Y51308000D03*
X-18542000Y48768000D03*
X-16002000Y48768000D03*
X-18542000Y46228000D03*
X-16002000Y46228000D03*
X-18542000Y43688000D03*
X-16002000Y43688000D03*
X-18542000Y41148000D03*
X-16002000Y41148000D03*
X-18542000Y38608000D03*
X-16002000Y38608000D03*
%TD*%
%TO.C,J103*%
X-61722000Y-6096000D03*
X-64262000Y-6096000D03*
X-61722000Y-3556000D03*
X-64262000Y-3556000D03*
X-61722000Y-1016000D03*
X-64262000Y-1016000D03*
X-61722000Y1524000D03*
X-64262000Y1524000D03*
X-61722000Y4064000D03*
X-64262000Y4064000D03*
X-61722000Y6604000D03*
X-64262000Y6604000D03*
X-61722000Y9144000D03*
X-64262000Y9144000D03*
X-61722000Y11684000D03*
X-64262000Y11684000D03*
X-61722000Y14224000D03*
X-64262000Y14224000D03*
X-61722000Y16764000D03*
X-64262000Y16764000D03*
X-61722000Y19304000D03*
X-64262000Y19304000D03*
X-61722000Y21844000D03*
X-64262000Y21844000D03*
X-61722000Y24384000D03*
X-64262000Y24384000D03*
X-61722000Y26924000D03*
X-64262000Y26924000D03*
X-61722000Y29464000D03*
D15*
X-64262000Y29464000D03*
%TD*%
D21*
%TO.C,JP104*%
X-24922000Y29464000D03*
D22*
X-23622000Y29464000D03*
%TD*%
D23*
%TO.C,U101*%
X-62806000Y-12665000D03*
X-62806000Y-13935000D03*
X-62806000Y-15205000D03*
X-62806000Y-16475000D03*
X-57406000Y-16475000D03*
X-57406000Y-15205000D03*
X-57406000Y-13935000D03*
X-57406000Y-12665000D03*
D24*
X-60106000Y-14570000D03*
%TD*%
D25*
%TO.C,C103*%
X-50292000Y5214000D03*
D26*
X-50292000Y-2286000D03*
%TD*%
D25*
%TO.C,C104*%
X-50292000Y24010000D03*
D26*
X-50292000Y16510000D03*
%TD*%
D25*
%TO.C,C102*%
X-31750000Y24010000D03*
D26*
X-31750000Y16510000D03*
%TD*%
D25*
%TO.C,C101*%
X-31496000Y5214000D03*
D26*
X-31496000Y-2286000D03*
%TD*%
D27*
%TO.C,R103*%
X-48006000Y40640000D03*
X-45081000Y40640000D03*
%TD*%
D28*
%TO.C,U301*%
X-26567500Y40358000D03*
X-26567500Y39858000D03*
X-26567500Y39358000D03*
X-26567500Y38858000D03*
X-26567500Y38358000D03*
X-26567500Y37858000D03*
X-26567500Y37358000D03*
X-26567500Y36858000D03*
D29*
X-25880000Y36170500D03*
X-25380000Y36170500D03*
X-24880000Y36170500D03*
X-24380000Y36170500D03*
X-23880000Y36170500D03*
X-23380000Y36170500D03*
X-22880000Y36170500D03*
X-22380000Y36170500D03*
D28*
X-21692500Y36858000D03*
X-21692500Y37358000D03*
X-21692500Y37858000D03*
X-21692500Y38358000D03*
X-21692500Y38858000D03*
X-21692500Y39358000D03*
X-21692500Y39858000D03*
X-21692500Y40358000D03*
D29*
X-22380000Y41045500D03*
X-22880000Y41045500D03*
X-23380000Y41045500D03*
X-23880000Y41045500D03*
X-24380000Y41045500D03*
X-24880000Y41045500D03*
X-25380000Y41045500D03*
X-25880000Y41045500D03*
D30*
X-24130000Y38608000D03*
%TD*%
D18*
%TO.C,R303*%
X-36009500Y34988000D03*
X-34184500Y34988000D03*
%TD*%
%TO.C,R302*%
X-36009500Y37938000D03*
X-34184500Y37938000D03*
%TD*%
%TO.C,R301*%
X-36009500Y40888000D03*
X-34184500Y40888000D03*
%TD*%
D15*
%TO.C,JP101*%
X-21590000Y-26416000D03*
D16*
X-21590000Y-28956000D03*
X-21590000Y-31496000D03*
%TD*%
D15*
%TO.C,JP106*%
X-31242000Y46482000D03*
D16*
X-31242000Y49022000D03*
X-31242000Y51562000D03*
%TD*%
D31*
%TO.C,D302*%
X-31622000Y37338000D03*
X-28322000Y37338000D03*
%TD*%
%TO.C,D301*%
X-31622000Y40688000D03*
X-28322000Y40688000D03*
%TD*%
D32*
%TO.C,D101*%
X-30734000Y-14478000D03*
D33*
X-35814000Y-14478000D03*
X-40894000Y-14478000D03*
X-45974000Y-14478000D03*
%TD*%
D20*
%TO.C,C305*%
X-40477000Y31828000D03*
X-38577000Y31828000D03*
%TD*%
%TO.C,C304*%
X-40477000Y34838000D03*
X-38577000Y34838000D03*
%TD*%
%TO.C,C303*%
X-40477000Y37848000D03*
X-38577000Y37848000D03*
%TD*%
%TO.C,C301*%
X-40477000Y40858000D03*
X-38577000Y40858000D03*
%TD*%
D15*
%TO.C,JP102*%
X-28194000Y-26431000D03*
D16*
X-28194000Y-28971000D03*
X-28194000Y-31511000D03*
%TD*%
D34*
%TO.C,J202*%
X-55910000Y58674000D03*
D35*
X-52410000Y58674000D03*
X-48910000Y58674000D03*
X-45410000Y58674000D03*
X-41910000Y58674000D03*
X-38410000Y58674000D03*
%TD*%
D34*
%TO.C,J101*%
X-18090000Y-14679000D03*
D35*
X-21590000Y-14679000D03*
X-25090000Y-14679000D03*
%TD*%
D34*
%TO.C,J201*%
X-31440000Y58674000D03*
D35*
X-27940000Y58674000D03*
X-24440000Y58674000D03*
%TD*%
D15*
%TO.C,JP105*%
X-23622000Y46497000D03*
D16*
X-23622000Y49037000D03*
X-23622000Y51577000D03*
%TD*%
%LPD*%
M02*
