M48
; DRILL file {KiCad 8.0.7} date 2025-01-04T12:20:45+0100
; FORMAT={-:-/ absolute / inch / decimal}
; #@! TF.CreationDate,2025-01-04T12:20:45+01:00
; #@! TF.GenerationSoftware,Kicad,Pcbnew,8.0.7
; #@! TF.FileFunction,Plated,1,2,PTH
FMAT,2
INCH
; #@! TA.AperFunction,Plated,PTH,ComponentDrill
T1C0.0118
; #@! TA.AperFunction,Plated,PTH,ViaDrill
T2C0.0157
; #@! TA.AperFunction,Plated,PTH,ViaDrill
T3C0.0197
; #@! TA.AperFunction,Plated,PTH,ViaDrill
T4C0.0276
; #@! TA.AperFunction,Plated,PTH,ComponentDrill
T5C0.0394
; #@! TA.AperFunction,Plated,PTH,ComponentDrill
T6C0.0472
; #@! TA.AperFunction,Plated,PTH,ComponentDrill
T7C0.0512
; #@! TA.AperFunction,Plated,PTH,ComponentDrill
T8C0.0551
%
G90
G05
T1
X-1.8858Y-0.6919
X-1.8858Y-0.7352
X-1.8858Y-0.7864
X-1.8858Y-0.8337
X-1.8386Y-0.6919
X-1.8386Y-0.7352
X-1.8386Y-0.7864
X-1.8386Y-0.8337
T2
X-1.1829Y1.36
X-1.1491Y1.3591
X-1.1376Y1.3099
X-1.1232Y1.4583
X-1.0822Y0.9622
X-0.8369Y1.3685
X-0.8134Y1.3895
X-0.8122Y1.1677
X-0.7922Y1.4722
X-0.7832Y1.1861
X-0.7646Y1.2246
T3
X-2.1872Y-0.6128
X-2.0622Y-1.0378
X-2.0322Y1.2322
X-1.9222Y1.0622
X-1.7872Y-0.9253
X-1.1091Y-1.0628
X-1.0747Y2.0122
X-0.4422Y-0.9578
T4
X-1.5122Y1.5122
X-1.2747Y1.4247
X-1.0574Y1.1894
X-0.9872Y1.5872
X-0.9831Y0.9856
X-0.9353Y1.6522
X-0.9122Y0.9622
X-0.8865Y1.1788
X-0.7372Y1.4122
T5
X-2.2622Y1.9022
X-2.2622Y1.8022
X-2.2622Y1.7022
X-2.2622Y1.6022
X-2.2622Y1.5022
X-2.2622Y1.4022
X-2.2622Y1.3022
X-2.2622Y1.2022
X-2.2622Y1.0022
X-2.2622Y0.9022
X-2.2622Y0.8022
X-2.2622Y0.7022
X-2.2622Y0.6022
X-2.2622Y0.5022
X-2.2622Y0.4022
X-2.2622Y0.3022
X-2.2622Y0.2022
X-2.2622Y0.1022
X-2.2622Y0.0022
X-2.2622Y-0.0978
X-2.2622Y-0.1978
X-2.2622Y-0.2978
X-2.2622Y-0.3978
X-2.2622Y-1.2378
X-2.2622Y-1.3378
X-2.2622Y-1.4378
X-2.1622Y1.9022
X-2.1622Y1.8022
X-2.1622Y1.7022
X-2.1622Y1.6022
X-2.1622Y1.5022
X-2.1622Y1.4022
X-2.1622Y1.3022
X-2.1622Y1.2022
X-2.1622Y1.0022
X-2.1622Y0.9022
X-2.1622Y0.8022
X-2.1622Y0.7022
X-2.1622Y0.6022
X-2.1622Y0.5022
X-2.1622Y0.4022
X-2.1622Y0.3022
X-2.1622Y0.2022
X-2.1622Y0.1022
X-2.1622Y0.0022
X-2.1622Y-0.0978
X-2.1622Y-0.1978
X-2.1622Y-0.2978
X-2.1622Y-0.3978
X-2.1122Y-1.2378
X-2.1122Y-1.3378
X-2.1122Y-1.4378
X-1.6122Y1.1616
X-1.6122Y1.0616
X-1.6122Y0.9616
X-0.7022Y-0.6984
X-0.7022Y-0.7984
X-0.7022Y-0.8984
X-0.4622Y2.2622
X-0.4622Y2.1622
X-0.4622Y2.0622
X-0.4622Y1.9622
X-0.4622Y1.8622
X-0.4622Y1.7622
X-0.4622Y1.6622
X-0.4622Y1.5622
X-0.4622Y1.4622
X-0.4622Y1.3622
X-0.4622Y1.2022
X-0.4622Y1.1022
X-0.4622Y1.0022
X-0.4622Y0.9022
X-0.4622Y0.8022
X-0.4622Y0.7022
X-0.4622Y0.6022
X-0.4622Y0.5022
X-0.4622Y0.4022
X-0.4622Y0.3022
X-0.4622Y0.2022
X-0.4622Y0.1022
X-0.4622Y0.0022
X-0.4622Y-0.0978
X-0.4622Y-0.1978
X-0.4622Y-0.2978
X-0.4622Y-0.3978
X-0.3822Y-0.6978
X-0.3822Y-0.7978
X-0.3822Y-0.8978
X-0.3622Y2.2622
X-0.3622Y2.1622
X-0.3622Y2.0622
X-0.3622Y1.9622
X-0.3622Y1.8622
X-0.3622Y1.7622
X-0.3622Y1.6622
X-0.3622Y1.5622
X-0.3622Y1.4622
X-0.3622Y1.3622
X-0.3622Y1.2022
X-0.3622Y1.1022
X-0.3622Y1.0022
X-0.3622Y0.9022
X-0.3622Y0.8022
X-0.3622Y0.7022
X-0.3622Y0.6022
X-0.3622Y0.5022
X-0.3622Y0.4022
X-0.3622Y0.3022
X-0.3622Y0.2022
X-0.3622Y0.1022
X-0.3622Y0.0022
X-0.3622Y-0.0978
X-0.3622Y-0.1978
X-0.3622Y-0.2978
X-0.3622Y-0.3978
T6
X-1.7122Y0.6491
X-1.7122Y0.3538
X-1.7122Y-0.1009
X-1.7122Y-0.3962
X-0.9622Y0.6491
X-0.9622Y0.3538
X-0.9622Y-0.1009
X-0.9622Y-0.3962
T7
X-2.1334Y2.1922
X-1.9956Y2.1922
X-1.9Y-1.4057
X-1.8578Y2.1922
X-1.7622Y-1.4057
X-1.72Y2.1922
X-1.6244Y-1.4057
X-1.5822Y2.1922
X-1.4444Y2.1922
X-0.65Y-1.4057
X-0.5122Y-1.4057
X-0.3744Y-1.4057
T8
X-1.3256Y-0.8012
X-1.3256Y-1.0012
X-1.3256Y-1.2012
X-1.3256Y-1.4012
M30
