M48
; DRILL file {KiCad 8.0.7} date 2025-01-01T21:40:25+0100
; FORMAT={-:-/ absolute / inch / decimal}
; #@! TF.CreationDate,2025-01-01T21:40:25+01:00
; #@! TF.GenerationSoftware,Kicad,Pcbnew,8.0.7
; #@! TF.FileFunction,Plated,1,2,PTH
FMAT,2
INCH
; #@! TA.AperFunction,Plated,PTH,ComponentDrill
T1C0.0118
; #@! TA.AperFunction,Plated,PTH,ComponentDrill
T2C0.0394
; #@! TA.AperFunction,Plated,PTH,ComponentDrill
T3C0.0472
; #@! TA.AperFunction,Plated,PTH,ComponentDrill
T4C0.0512
; #@! TA.AperFunction,Plated,PTH,ComponentDrill
T5C0.0551
%
G90
G05
T1
X-2.39Y-0.5028
X-2.39Y-0.55
X-2.39Y-0.6012
X-2.39Y-0.6445
X-2.3428Y-0.5028
X-2.3428Y-0.55
X-2.3428Y-0.6012
X-2.3428Y-0.6445
T2
X-2.53Y2.06
X-2.53Y1.96
X-2.53Y1.86
X-2.53Y1.76
X-2.53Y1.66
X-2.53Y1.56
X-2.53Y1.46
X-2.53Y1.36
X-2.53Y1.16
X-2.53Y1.06
X-2.53Y0.96
X-2.53Y0.86
X-2.53Y0.76
X-2.53Y0.66
X-2.53Y0.56
X-2.53Y0.46
X-2.53Y0.36
X-2.53Y0.26
X-2.53Y0.16
X-2.53Y0.06
X-2.53Y-0.04
X-2.53Y-0.14
X-2.53Y-0.24
X-2.43Y2.06
X-2.43Y1.96
X-2.43Y1.86
X-2.43Y1.76
X-2.43Y1.66
X-2.43Y1.56
X-2.43Y1.46
X-2.43Y1.36
X-2.43Y1.16
X-2.43Y1.06
X-2.43Y0.96
X-2.43Y0.86
X-2.43Y0.76
X-2.43Y0.66
X-2.43Y0.56
X-2.43Y0.46
X-2.43Y0.36
X-2.43Y0.26
X-2.43Y0.16
X-2.43Y0.06
X-2.43Y-0.04
X-2.43Y-0.14
X-2.43Y-0.24
X-1.23Y2.03
X-1.23Y1.93
X-1.23Y1.83
X-1.11Y-1.0406
X-1.11Y-1.1406
X-1.11Y-1.2406
X-1.08Y2.03
X-1.08Y1.93
X-1.08Y1.83
X-0.93Y2.0306
X-0.93Y1.9306
X-0.93Y1.8306
X-0.85Y-1.04
X-0.85Y-1.14
X-0.85Y-1.24
X-0.73Y2.42
X-0.73Y2.32
X-0.73Y2.22
X-0.73Y2.12
X-0.73Y2.02
X-0.73Y1.92
X-0.73Y1.82
X-0.73Y1.72
X-0.73Y1.62
X-0.73Y1.52
X-0.73Y1.36
X-0.73Y1.26
X-0.73Y1.16
X-0.73Y1.06
X-0.73Y0.96
X-0.73Y0.86
X-0.73Y0.76
X-0.73Y0.66
X-0.73Y0.56
X-0.73Y0.46
X-0.73Y0.36
X-0.73Y0.26
X-0.73Y0.16
X-0.73Y0.06
X-0.73Y-0.04
X-0.73Y-0.14
X-0.73Y-0.24
X-0.63Y2.42
X-0.63Y2.32
X-0.63Y2.22
X-0.63Y2.12
X-0.63Y2.02
X-0.63Y1.92
X-0.63Y1.82
X-0.63Y1.72
X-0.63Y1.62
X-0.63Y1.52
X-0.63Y1.36
X-0.63Y1.26
X-0.63Y1.16
X-0.63Y1.06
X-0.63Y0.96
X-0.63Y0.86
X-0.63Y0.76
X-0.63Y0.66
X-0.63Y0.56
X-0.63Y0.46
X-0.63Y0.36
X-0.63Y0.26
X-0.63Y0.16
X-0.63Y0.06
X-0.63Y-0.04
X-0.63Y-0.14
X-0.63Y-0.24
T3
X-1.98Y0.9453
X-1.98Y0.65
X-1.98Y0.2053
X-1.98Y-0.09
X-1.25Y0.9453
X-1.25Y0.65
X-1.24Y0.2053
X-1.24Y-0.09
T4
X-2.2012Y2.31
X-2.0634Y2.31
X-1.9256Y2.31
X-1.7878Y2.31
X-1.65Y2.31
X-1.5122Y2.31
X-1.2378Y2.31
X-1.1Y2.31
X-0.9878Y-0.5779
X-0.9622Y2.31
X-0.85Y-0.5779
X-0.7122Y-0.5779
T5
X-1.81Y-0.57
X-1.61Y-0.57
X-1.41Y-0.57
X-1.21Y-0.57
M30
