%TF.GenerationSoftware,KiCad,Pcbnew,8.0.7*%
%TF.CreationDate,2025-01-04T12:20:45+01:00*%
%TF.ProjectId,adapater_a,61646170-6174-4657-925f-612e6b696361,1*%
%TF.SameCoordinates,Original*%
%TF.FileFunction,Paste,Top*%
%TF.FilePolarity,Positive*%
%FSLAX46Y46*%
G04 Gerber Fmt 4.6, Leading zero omitted, Abs format (unit mm)*
G04 Created by KiCad (PCBNEW 8.0.7) date 2025-01-04 12:20:45*
%MOMM*%
%LPD*%
G01*
G04 APERTURE LIST*
G04 Aperture macros list*
%AMRoundRect*
0 Rectangle with rounded corners*
0 $1 Rounding radius*
0 $2 $3 $4 $5 $6 $7 $8 $9 X,Y pos of 4 corners*
0 Add a 4 corners polygon primitive as box body*
4,1,4,$2,$3,$4,$5,$6,$7,$8,$9,$2,$3,0*
0 Add four circle primitives for the rounded corners*
1,1,$1+$1,$2,$3*
1,1,$1+$1,$4,$5*
1,1,$1+$1,$6,$7*
1,1,$1+$1,$8,$9*
0 Add four rect primitives between the rounded corners*
20,1,$1+$1,$2,$3,$4,$5,0*
20,1,$1+$1,$4,$5,$6,$7,0*
20,1,$1+$1,$6,$7,$8,$9,0*
20,1,$1+$1,$8,$9,$2,$3,0*%
G04 Aperture macros list end*
%ADD10RoundRect,0.250000X0.650000X-1.000000X0.650000X1.000000X-0.650000X1.000000X-0.650000X-1.000000X0*%
%ADD11RoundRect,0.250000X-0.262500X-0.450000X0.262500X-0.450000X0.262500X0.450000X-0.262500X0.450000X0*%
%ADD12RoundRect,0.250000X0.262500X0.450000X-0.262500X0.450000X-0.262500X-0.450000X0.262500X-0.450000X0*%
%ADD13RoundRect,0.243750X0.243750X0.456250X-0.243750X0.456250X-0.243750X-0.456250X0.243750X-0.456250X0*%
%ADD14RoundRect,0.250000X0.250000X0.475000X-0.250000X0.475000X-0.250000X-0.475000X0.250000X-0.475000X0*%
%ADD15RoundRect,0.250000X-0.475000X0.250000X-0.475000X-0.250000X0.475000X-0.250000X0.475000X0.250000X0*%
%ADD16RoundRect,0.225000X-0.225000X-0.375000X0.225000X-0.375000X0.225000X0.375000X-0.225000X0.375000X0*%
%ADD17RoundRect,0.250000X-0.450000X0.262500X-0.450000X-0.262500X0.450000X-0.262500X0.450000X0.262500X0*%
%ADD18R,2.150000X5.500000*%
%ADD19RoundRect,0.250000X0.450000X-0.262500X0.450000X0.262500X-0.450000X0.262500X-0.450000X-0.262500X0*%
%ADD20RoundRect,0.250001X-0.799999X2.049999X-0.799999X-2.049999X0.799999X-2.049999X0.799999X2.049999X0*%
%ADD21RoundRect,0.250000X-0.250000X-0.475000X0.250000X-0.475000X0.250000X0.475000X-0.250000X0.475000X0*%
%ADD22RoundRect,0.243750X0.456250X-0.243750X0.456250X0.243750X-0.456250X0.243750X-0.456250X-0.243750X0*%
%ADD23RoundRect,0.250000X-0.550000X1.500000X-0.550000X-1.500000X0.550000X-1.500000X0.550000X1.500000X0*%
%ADD24RoundRect,0.250000X-0.455000X0.455000X-0.455000X-0.455000X0.455000X-0.455000X0.455000X0.455000X0*%
%ADD25RoundRect,0.062500X-0.062500X0.375000X-0.062500X-0.375000X0.062500X-0.375000X0.062500X0.375000X0*%
%ADD26RoundRect,0.062500X-0.375000X0.062500X-0.375000X-0.062500X0.375000X-0.062500X0.375000X0.062500X0*%
%ADD27R,1.270000X0.760000*%
%ADD28RoundRect,0.250000X-1.000000X-0.650000X1.000000X-0.650000X1.000000X0.650000X-1.000000X0.650000X0*%
%ADD29RoundRect,0.150000X0.150000X-0.825000X0.150000X0.825000X-0.150000X0.825000X-0.150000X-0.825000X0*%
%ADD30R,1.550000X0.600000*%
%ADD31R,2.600000X3.100000*%
%ADD32RoundRect,0.250000X0.550000X-1.500000X0.550000X1.500000X-0.550000X1.500000X-0.550000X-1.500000X0*%
%ADD33RoundRect,0.250000X0.625000X-0.312500X0.625000X0.312500X-0.625000X0.312500X-0.625000X-0.312500X0*%
G04 APERTURE END LIST*
D10*
%TO.C,D102*%
X-40315000Y-24010000D03*
X-40315000Y-20010000D03*
%TD*%
D11*
%TO.C,R110*%
X-40997000Y45678000D03*
X-39172000Y45678000D03*
%TD*%
%TO.C,R113*%
X-49990500Y35362000D03*
X-48165500Y35362000D03*
%TD*%
D12*
%TO.C,R301*%
X-35719500Y25964000D03*
X-37544500Y25964000D03*
%TD*%
D13*
%TO.C,D107*%
X-30360500Y48570000D03*
X-32235500Y48570000D03*
%TD*%
D14*
%TO.C,C301*%
X-35682000Y29266000D03*
X-37582000Y29266000D03*
%TD*%
D15*
%TO.C,C106*%
X-42220000Y-26995000D03*
X-42220000Y-28895000D03*
%TD*%
D16*
%TO.C,D302*%
X-33710000Y23932000D03*
X-30410000Y23932000D03*
%TD*%
D17*
%TO.C,R302*%
X-16058000Y34496500D03*
X-16058000Y32671500D03*
%TD*%
D18*
%TO.C,L101*%
X-49245000Y-26995000D03*
X-45395000Y-26995000D03*
%TD*%
D19*
%TO.C,R112*%
X-51364000Y20122000D03*
X-51364000Y21947000D03*
%TD*%
D12*
%TO.C,R102*%
X-56547500Y-16835000D03*
X-58372500Y-16835000D03*
%TD*%
D11*
%TO.C,R108*%
X-9962000Y-14422000D03*
X-8137000Y-14422000D03*
%TD*%
D13*
%TO.C,D105*%
X-30360500Y55682000D03*
X-32235500Y55682000D03*
%TD*%
D20*
%TO.C,C107*%
X-25075000Y-23566000D03*
X-25075000Y-32366000D03*
%TD*%
D19*
%TO.C,R106*%
X-35108000Y20075000D03*
X-35108000Y21900000D03*
%TD*%
D21*
%TO.C,C110*%
X-49962000Y37394000D03*
X-48062000Y37394000D03*
%TD*%
D13*
%TO.C,D106*%
X-30360500Y52126000D03*
X-32235500Y52126000D03*
%TD*%
D22*
%TO.C,D104*%
X-13772000Y-20947500D03*
X-13772000Y-19072500D03*
%TD*%
D16*
%TO.C,D301*%
X-33710000Y27615000D03*
X-30410000Y27615000D03*
%TD*%
D15*
%TO.C,C303*%
X-26980000Y28565000D03*
X-26980000Y26665000D03*
%TD*%
D11*
%TO.C,R105*%
X-46434500Y33137500D03*
X-44609500Y33137500D03*
%TD*%
D23*
%TO.C,C302*%
X-17455000Y29012000D03*
X-17455000Y23412000D03*
%TD*%
D24*
%TO.C,U301*%
X-24073000Y36745000D03*
X-25823000Y36745000D03*
X-24073000Y34995000D03*
X-25823000Y34995000D03*
D25*
X-23198000Y38307500D03*
X-23698000Y38307500D03*
X-24198000Y38307500D03*
X-24698000Y38307500D03*
X-25198000Y38307500D03*
X-25698000Y38307500D03*
X-26198000Y38307500D03*
X-26698000Y38307500D03*
D26*
X-27385500Y37620000D03*
X-27385500Y37120000D03*
X-27385500Y36620000D03*
X-27385500Y36120000D03*
X-27385500Y35620000D03*
X-27385500Y35120000D03*
X-27385500Y34620000D03*
X-27385500Y34120000D03*
D25*
X-26698000Y33432500D03*
X-26198000Y33432500D03*
X-25698000Y33432500D03*
X-25198000Y33432500D03*
X-24698000Y33432500D03*
X-24198000Y33432500D03*
X-23698000Y33432500D03*
X-23198000Y33432500D03*
D26*
X-22510500Y34120000D03*
X-22510500Y34620000D03*
X-22510500Y35120000D03*
X-22510500Y35620000D03*
X-22510500Y36120000D03*
X-22510500Y36620000D03*
X-22510500Y37120000D03*
X-22510500Y37620000D03*
%TD*%
D19*
%TO.C,R107*%
X-32060000Y20075000D03*
X-32060000Y21900000D03*
%TD*%
D11*
%TO.C,R109*%
X-40997000Y48628000D03*
X-39172000Y48628000D03*
%TD*%
%TO.C,R111*%
X-40997000Y42728000D03*
X-39172000Y42728000D03*
%TD*%
D15*
%TO.C,C109*%
X-51364000Y25390000D03*
X-51364000Y23490000D03*
%TD*%
D27*
%TO.C,SW101*%
X-24440000Y56571000D03*
X-24440000Y55301000D03*
X-24440000Y54031000D03*
X-24440000Y52761000D03*
X-24440000Y51491000D03*
X-24440000Y50221000D03*
X-24440000Y48951000D03*
X-24440000Y47681000D03*
X-24440000Y46411000D03*
X-24440000Y45141000D03*
X-16820000Y45141000D03*
X-16820000Y46411000D03*
X-16820000Y47681000D03*
X-16820000Y48951000D03*
X-16820000Y50221000D03*
X-16820000Y51491000D03*
X-16820000Y52761000D03*
X-16820000Y54031000D03*
X-16820000Y55301000D03*
X-16820000Y56571000D03*
%TD*%
D11*
%TO.C,R104*%
X-49990500Y33076000D03*
X-48165500Y33076000D03*
%TD*%
D12*
%TO.C,R303*%
X-35719500Y32568000D03*
X-37544500Y32568000D03*
%TD*%
D21*
%TO.C,C305*%
X-32375000Y31425000D03*
X-30475000Y31425000D03*
%TD*%
D28*
%TO.C,D103*%
X-57460000Y-13660000D03*
X-53460000Y-13660000D03*
%TD*%
D14*
%TO.C,C304*%
X-18410000Y32695000D03*
X-20310000Y32695000D03*
%TD*%
D12*
%TO.C,R101*%
X-52737500Y-16835000D03*
X-54562500Y-16835000D03*
%TD*%
D29*
%TO.C,U102*%
X-48443000Y24566500D03*
X-47173000Y24566500D03*
X-45903000Y24566500D03*
X-44633000Y24566500D03*
X-44633000Y29516500D03*
X-45903000Y29516500D03*
X-47173000Y29516500D03*
X-48443000Y29516500D03*
%TD*%
D30*
%TO.C,U101*%
X-44600000Y-21280000D03*
X-44600000Y-20010000D03*
X-44600000Y-18740000D03*
X-44600000Y-17470000D03*
X-50000000Y-17470000D03*
X-50000000Y-18740000D03*
X-50000000Y-20010000D03*
X-50000000Y-21280000D03*
D31*
X-47300000Y-19375000D03*
%TD*%
D32*
%TO.C,C105*%
X-54920000Y-26620000D03*
X-54920000Y-21020000D03*
%TD*%
D33*
%TO.C,R103*%
X-41204000Y33360750D03*
X-41204000Y36285750D03*
%TD*%
D15*
%TO.C,C108*%
X-51364000Y29515500D03*
X-51364000Y27615500D03*
%TD*%
M02*
