%TF.GenerationSoftware,KiCad,Pcbnew,8.0.7*%
%TF.CreationDate,2025-01-01T21:40:25+01:00*%
%TF.ProjectId,adapater_a,61646170-6174-4657-925f-612e6b696361,rev?*%
%TF.SameCoordinates,Original*%
%TF.FileFunction,Soldermask,Bot*%
%TF.FilePolarity,Negative*%
%FSLAX46Y46*%
G04 Gerber Fmt 4.6, Leading zero omitted, Abs format (unit mm)*
G04 Created by KiCad (PCBNEW 8.0.7) date 2025-01-01 21:40:25*
%MOMM*%
%LPD*%
G01*
G04 APERTURE LIST*
%ADD10R,1.700000X1.700000*%
%ADD11O,1.700000X1.700000*%
%ADD12R,2.400000X2.400000*%
%ADD13C,2.400000*%
%ADD14R,2.800000X2.800000*%
%ADD15C,2.800000*%
%ADD16R,2.600000X2.600000*%
%ADD17C,2.600000*%
G04 APERTURE END LIST*
D10*
%TO.C,JP103*%
X-27432000Y46482000D03*
D11*
X-27432000Y49022000D03*
X-27432000Y51562000D03*
%TD*%
D10*
%TO.C,J102*%
X-64262000Y52324000D03*
D11*
X-61722000Y52324000D03*
X-64262000Y49784000D03*
X-61722000Y49784000D03*
X-64262000Y47244000D03*
X-61722000Y47244000D03*
X-64262000Y44704000D03*
X-61722000Y44704000D03*
X-64262000Y42164000D03*
X-61722000Y42164000D03*
X-64262000Y39624000D03*
X-61722000Y39624000D03*
X-64262000Y37084000D03*
X-61722000Y37084000D03*
X-64262000Y34544000D03*
X-61722000Y34544000D03*
%TD*%
D10*
%TO.C,J105*%
X-18542000Y34544000D03*
D11*
X-16002000Y34544000D03*
X-18542000Y32004000D03*
X-16002000Y32004000D03*
X-18542000Y29464000D03*
X-16002000Y29464000D03*
X-18542000Y26924000D03*
X-16002000Y26924000D03*
X-18542000Y24384000D03*
X-16002000Y24384000D03*
X-18542000Y21844000D03*
X-16002000Y21844000D03*
X-18542000Y19304000D03*
X-16002000Y19304000D03*
X-18542000Y16764000D03*
X-16002000Y16764000D03*
X-18542000Y14224000D03*
X-16002000Y14224000D03*
X-18542000Y11684000D03*
X-16002000Y11684000D03*
X-18542000Y9144000D03*
X-16002000Y9144000D03*
X-18542000Y6604000D03*
X-16002000Y6604000D03*
X-18542000Y4064000D03*
X-16002000Y4064000D03*
X-18542000Y1524000D03*
X-16002000Y1524000D03*
X-18542000Y-1016000D03*
X-16002000Y-1016000D03*
X-18542000Y-3556000D03*
X-16002000Y-3556000D03*
X-18542000Y-6096000D03*
X-16002000Y-6096000D03*
%TD*%
D10*
%TO.C,J104*%
X-18542000Y61468000D03*
D11*
X-16002000Y61468000D03*
X-18542000Y58928000D03*
X-16002000Y58928000D03*
X-18542000Y56388000D03*
X-16002000Y56388000D03*
X-18542000Y53848000D03*
X-16002000Y53848000D03*
X-18542000Y51308000D03*
X-16002000Y51308000D03*
X-18542000Y48768000D03*
X-16002000Y48768000D03*
X-18542000Y46228000D03*
X-16002000Y46228000D03*
X-18542000Y43688000D03*
X-16002000Y43688000D03*
X-18542000Y41148000D03*
X-16002000Y41148000D03*
X-18542000Y38608000D03*
X-16002000Y38608000D03*
%TD*%
%TO.C,J103*%
X-61722000Y-6096000D03*
X-64262000Y-6096000D03*
X-61722000Y-3556000D03*
X-64262000Y-3556000D03*
X-61722000Y-1016000D03*
X-64262000Y-1016000D03*
X-61722000Y1524000D03*
X-64262000Y1524000D03*
X-61722000Y4064000D03*
X-64262000Y4064000D03*
X-61722000Y6604000D03*
X-64262000Y6604000D03*
X-61722000Y9144000D03*
X-64262000Y9144000D03*
X-61722000Y11684000D03*
X-64262000Y11684000D03*
X-61722000Y14224000D03*
X-64262000Y14224000D03*
X-61722000Y16764000D03*
X-64262000Y16764000D03*
X-61722000Y19304000D03*
X-64262000Y19304000D03*
X-61722000Y21844000D03*
X-64262000Y21844000D03*
X-61722000Y24384000D03*
X-64262000Y24384000D03*
X-61722000Y26924000D03*
X-64262000Y26924000D03*
X-61722000Y29464000D03*
D10*
X-64262000Y29464000D03*
%TD*%
D12*
%TO.C,C103*%
X-50292000Y5214000D03*
D13*
X-50292000Y-2286000D03*
%TD*%
D12*
%TO.C,C104*%
X-50292000Y24010000D03*
D13*
X-50292000Y16510000D03*
%TD*%
D12*
%TO.C,C102*%
X-31750000Y24010000D03*
D13*
X-31750000Y16510000D03*
%TD*%
D12*
%TO.C,C101*%
X-31496000Y5214000D03*
D13*
X-31496000Y-2286000D03*
%TD*%
D10*
%TO.C,JP101*%
X-21590000Y-26416000D03*
D11*
X-21590000Y-28956000D03*
X-21590000Y-31496000D03*
%TD*%
D10*
%TO.C,JP106*%
X-31242000Y46482000D03*
D11*
X-31242000Y49022000D03*
X-31242000Y51562000D03*
%TD*%
D14*
%TO.C,D101*%
X-30734000Y-14478000D03*
D15*
X-35814000Y-14478000D03*
X-40894000Y-14478000D03*
X-45974000Y-14478000D03*
%TD*%
D10*
%TO.C,JP102*%
X-28194000Y-26431000D03*
D11*
X-28194000Y-28971000D03*
X-28194000Y-31511000D03*
%TD*%
D16*
%TO.C,J202*%
X-55910000Y58674000D03*
D17*
X-52410000Y58674000D03*
X-48910000Y58674000D03*
X-45410000Y58674000D03*
X-41910000Y58674000D03*
X-38410000Y58674000D03*
%TD*%
D16*
%TO.C,J101*%
X-18090000Y-14679000D03*
D17*
X-21590000Y-14679000D03*
X-25090000Y-14679000D03*
%TD*%
D16*
%TO.C,J201*%
X-31440000Y58674000D03*
D17*
X-27940000Y58674000D03*
X-24440000Y58674000D03*
%TD*%
D10*
%TO.C,JP105*%
X-23622000Y46497000D03*
D11*
X-23622000Y49037000D03*
X-23622000Y51577000D03*
%TD*%
M02*
